<svg width="41" height="40" viewBox="0 0 41 40" fill="none" xmlns="http://www.w3.org/2000/svg">
<path d="M6.48083 39.8611C8.06325 39.8673 9.58381 39.2814 10.7084 38.2323C11.8332 37.1833 12.4707 35.7565 12.4806 34.265L12.5593 20.2527C12.5482 19.2499 12.7487 18.2551 13.1495 17.3262C13.5502 16.3972 14.1429 15.5528 14.8933 14.8418C15.6438 14.1308 16.5368 13.5676 17.5203 13.1852C18.5039 12.8026 19.5584 12.6084 20.6223 12.6138C21.6863 12.619 22.7385 12.8237 23.7176 13.2161C24.6969 13.6084 25.5834 14.1804 26.3258 14.8989C27.0682 15.6173 27.6515 16.4676 28.0417 17.4005C28.4318 18.3334 28.6216 19.3301 28.5991 20.3328L28.5204 34.3451C28.5119 35.837 29.1326 37.2711 30.2461 38.3314C31.3592 39.3918 32.874 39.9919 34.4569 39.9999C36.0398 40.0079 37.5611 39.423 38.6862 38.3735C39.8118 37.3239 40.4485 35.8965 40.457 34.4047L40.5437 18.9087C40.5577 16.4387 40.0553 13.9902 39.0654 11.7032C38.0751 9.41622 36.6169 7.3355 34.7735 5.57954C32.9301 3.82382 30.738 2.42739 28.3221 1.47002C25.9062 0.512844 23.3139 0.0133414 20.6932 0.000263638C18.0725 -0.0128141 15.4747 0.460769 13.0481 1.39377C10.6215 2.32696 8.4139 3.70145 6.55101 5.43871C4.68791 7.17616 3.20627 9.24215 2.19074 11.5192C1.17492 13.7962 0.644935 16.2395 0.631059 18.7095L0.543998 34.2054C0.537385 35.6969 1.15853 37.1299 2.27149 38.1903C3.3845 39.2507 4.8984 39.8512 6.48083 39.8611ZM3.24224 18.7237C3.26658 14.3878 5.1175 10.239 8.38755 7.18942C11.6576 4.13991 16.0791 2.43947 20.6793 2.46246C25.2796 2.48541 29.6816 4.22989 32.9176 7.31189C36.153 10.3939 37.9569 14.561 37.9328 18.8968L37.8457 34.3917C37.8332 35.226 37.472 36.0221 36.8398 36.6065C36.2076 37.1908 35.3561 37.5161 34.4709 37.5118C33.5853 37.5076 32.7377 37.1733 32.1126 36.5829C31.4869 35.9922 31.1343 35.1926 31.1313 34.3581L31.2099 20.3458C31.2249 17.6884 30.1194 15.1342 28.1362 13.2452C26.1531 11.3562 23.455 10.2871 20.6354 10.2731C17.8159 10.259 15.1059 11.301 13.1016 13.1701C11.0976 15.0393 9.96307 17.5822 9.94814 20.2397L9.86944 34.252C9.86473 35.0912 9.50662 35.8942 8.8736 36.4844C8.24063 37.0747 7.38495 37.4037 6.49465 37.3995C5.60411 37.3948 4.75218 37.0572 4.12582 36.4607C3.49971 35.8642 3.15042 35.0577 3.15518 34.2185L3.24224 18.7237Z" fill="#133551"/>
<path d="M20.6042 30.9767C23.8345 30.983 26.4586 28.5154 26.4654 25.465C26.4722 22.4146 23.8591 19.9366 20.6288 19.9302C17.3984 19.9238 14.7742 22.3915 14.7675 25.4419C14.7607 28.4924 17.3739 30.9703 20.6042 30.9767Z" fill="#FB7762"/>
</svg>
