<svg width="662" height="105" viewBox="0 0 662 105" fill="none" xmlns="http://www.w3.org/2000/svg">
        <g filter="url(#filter0_dd)">
    <path d="M653.904 3.25757H8.09595C5.42378 3.25757 3.25757 5.42378 3.25757 8.09595V95.1869C3.25757 97.8591 5.42378 100.025 8.09595 100.025H653.904C656.576 100.025 658.743 97.8591 658.743 95.1869V8.09595C658.743 5.42378 656.576 3.25757 653.904 3.25757Z" fill="white"/>
    <path fill-rule="evenodd" clip-rule="evenodd" d="M65.2857 52.1363C65.2857 50.5924 65.1471 49.1079 64.8898 47.6827H44.3839V56.1048H56.1015C55.5968 58.8264 54.0628 61.1323 51.7569 62.6762V68.1392H58.7934C62.9105 64.3488 65.2857 58.767 65.2857 52.1363Z" fill="#4285F4"/>
    <path fill-rule="evenodd" clip-rule="evenodd" d="M44.3839 73.4142C50.2625 73.4142 55.191 71.4645 58.7934 68.1392L51.7569 62.6763C49.8072 63.9826 47.3133 64.7546 44.3839 64.7546C38.713 64.7546 33.9131 60.9245 32.201 55.7783H24.9269V61.4194C28.5096 68.5351 35.8727 73.4142 44.3839 73.4142Z" fill="#34A853"/>
    <path fill-rule="evenodd" clip-rule="evenodd" d="M32.201 55.7782C31.7656 54.4719 31.5181 53.0764 31.5181 51.6414C31.5181 50.2064 31.7656 48.8109 32.201 47.5046V41.8635H24.9269C23.4523 44.8028 22.6111 48.1281 22.6111 51.6414C22.6111 55.1547 23.4523 58.48 24.9269 61.4193L32.201 55.7782Z" fill="#FBBC05"/>
    <path fill-rule="evenodd" clip-rule="evenodd" d="M44.3839 38.5283C47.5805 38.5283 50.4505 39.6268 52.707 41.7843L58.9518 35.5395C55.1811 32.0261 50.2526 29.8687 44.3839 29.8687C35.8727 29.8687 28.5096 34.7477 24.9269 41.8634L32.201 47.5046C33.9131 42.3583 38.713 38.5283 44.3839 38.5283Z" fill="#EA4335"/>
    <path d="M139.25 58.0863C139.25 57.0279 138.875 56.2121 138.125 55.6388C137.386 55.0655 136.047 54.4867 134.107 53.9024C132.166 53.318 130.623 52.6676 129.476 51.9509C127.282 50.5728 126.185 48.7757 126.185 46.5597C126.185 44.6193 126.973 43.0207 128.55 41.7639C130.138 40.507 132.194 39.8786 134.718 39.8786C136.394 39.8786 137.888 40.1873 139.2 40.8047C140.512 41.4221 141.543 42.3041 142.293 43.4507C143.042 44.5863 143.417 45.8486 143.417 47.2378H139.25C139.25 45.9809 138.853 44.9997 138.059 44.2941C137.276 43.5775 136.152 43.2192 134.685 43.2192C133.318 43.2192 132.254 43.5113 131.494 44.0957C130.744 44.68 130.369 45.4958 130.369 46.5432C130.369 47.4252 130.777 48.1639 131.593 48.7592C132.409 49.3435 133.754 49.9168 135.628 50.4791C137.502 51.0304 139.007 51.6643 140.143 52.3809C141.278 53.0865 142.111 53.9024 142.64 54.8285C143.169 55.7435 143.434 56.8185 143.434 58.0533C143.434 60.0598 142.662 61.6584 141.118 62.8491C139.586 64.0288 137.502 64.6186 134.867 64.6186C133.125 64.6186 131.521 64.2989 130.055 63.6594C128.6 63.009 127.464 62.116 126.648 60.9804C125.843 59.8448 125.441 58.5218 125.441 57.0114H129.625C129.625 58.3785 130.077 59.4369 130.981 60.1866C131.885 60.9363 133.18 61.3111 134.867 61.3111C136.323 61.3111 137.414 61.019 138.142 60.4346C138.88 59.8393 139.25 59.0565 139.25 58.0863ZM150.991 64.2879H146.973V46.3944H150.991V64.2879ZM146.725 41.7473C146.725 41.1299 146.918 40.6173 147.303 40.2094C147.7 39.8014 148.263 39.5975 148.99 39.5975C149.718 39.5975 150.28 39.8014 150.677 40.2094C151.074 40.6173 151.272 41.1299 151.272 41.7473C151.272 42.3537 151.074 42.8609 150.677 43.2688C150.28 43.6657 149.718 43.8641 148.99 43.8641C148.263 43.8641 147.7 43.6657 147.303 43.2688C146.918 42.8609 146.725 42.3537 146.725 41.7473ZM154.679 55.2088C154.679 52.4305 155.33 50.2145 156.631 48.5608C157.943 46.896 159.679 46.0636 161.84 46.0636C163.879 46.0636 165.484 46.7747 166.652 48.1969L166.834 46.3944H170.456V63.7421C170.456 66.0905 169.723 67.9426 168.256 69.2987C166.801 70.6548 164.833 71.3328 162.353 71.3328C161.041 71.3328 159.756 71.0572 158.499 70.506C157.253 69.9657 156.305 69.2546 155.655 68.3726L157.557 65.9582C158.791 67.4245 160.313 68.1576 162.121 68.1576C163.455 68.1576 164.508 67.7938 165.28 67.0662C166.051 66.3495 166.437 65.2911 166.437 63.891V62.6837C165.28 63.9737 163.736 64.6186 161.807 64.6186C159.712 64.6186 157.998 63.7862 156.664 62.1215C155.341 60.4567 154.679 58.1525 154.679 55.2088ZM158.681 55.5561C158.681 57.3532 159.045 58.7699 159.773 59.8062C160.511 60.8315 161.531 61.3442 162.832 61.3442C164.453 61.3442 165.655 60.6496 166.437 59.2605V51.3887C165.677 50.0326 164.486 49.3546 162.865 49.3546C161.542 49.3546 160.511 49.8782 159.773 50.9256C159.045 51.973 158.681 53.5165 158.681 55.5561ZM178.328 46.3944L178.443 48.4615C179.766 46.8629 181.503 46.0636 183.653 46.0636C187.379 46.0636 189.275 48.1969 189.342 52.4636V64.2879H185.323V52.6951C185.323 51.5596 185.075 50.7217 184.579 50.1814C184.094 49.6302 183.294 49.3546 182.181 49.3546C180.56 49.3546 179.353 50.0877 178.559 51.554V64.2879H174.541V46.3944H178.328ZM206.16 64.2879H202.142V46.3944H206.16V64.2879ZM201.894 41.7473C201.894 41.1299 202.086 40.6173 202.472 40.2094C202.869 39.8014 203.432 39.5975 204.159 39.5975C204.887 39.5975 205.449 39.8014 205.846 40.2094C206.243 40.6173 206.441 41.1299 206.441 41.7473C206.441 42.3537 206.243 42.8609 205.846 43.2688C205.449 43.6657 204.887 43.8641 204.159 43.8641C203.432 43.8641 202.869 43.6657 202.472 43.2688C202.086 42.8609 201.894 42.3537 201.894 41.7473ZM214.28 46.3944L214.396 48.4615C215.719 46.8629 217.455 46.0636 219.605 46.0636C223.332 46.0636 225.228 48.1969 225.294 52.4636V64.2879H221.275V52.6951C221.275 51.5596 221.027 50.7217 220.531 50.1814C220.046 49.6302 219.247 49.3546 218.133 49.3546C216.513 49.3546 215.305 50.0877 214.512 51.554V64.2879H210.493V46.3944H214.28ZM253.557 58.7478L256.401 46.3944H260.32L255.442 64.2879H252.134L248.298 52.0006L244.527 64.2879H241.22L236.325 46.3944H240.244L243.138 58.6155L246.809 46.3944H249.836L253.557 58.7478ZM267.283 64.2879H263.264V46.3944H267.283V64.2879ZM263.016 41.7473C263.016 41.1299 263.209 40.6173 263.595 40.2094C263.992 39.8014 264.554 39.5975 265.282 39.5975C266.009 39.5975 266.572 39.8014 266.968 40.2094C267.365 40.6173 267.564 41.1299 267.564 41.7473C267.564 42.3537 267.365 42.8609 266.968 43.2688C266.572 43.6657 266.009 43.8641 265.282 43.8641C264.554 43.8641 263.992 43.6657 263.595 43.2688C263.209 42.8609 263.016 42.3537 263.016 41.7473ZM276.709 42.045V46.3944H279.868V49.3711H276.709V59.3597C276.709 60.0433 276.841 60.5394 277.106 60.8481C277.381 61.1458 277.867 61.2946 278.561 61.2946C279.024 61.2946 279.493 61.2395 279.967 61.1292V64.2383C279.052 64.4918 278.17 64.6186 277.321 64.6186C274.234 64.6186 272.69 62.9153 272.69 59.5086V49.3711H269.747V46.3944H272.69V42.045H276.709ZM286.913 48.3458C288.225 46.8243 289.884 46.0636 291.89 46.0636C295.705 46.0636 297.64 48.241 297.695 52.5959V64.2879H293.676V52.7447C293.676 51.5099 293.406 50.639 292.866 50.1318C292.337 49.6136 291.554 49.3546 290.518 49.3546C288.908 49.3546 287.706 50.0712 286.913 51.5044V64.2879H282.894V38.8864H286.913V48.3458ZM329.05 61.1623C328.179 62.2979 326.972 63.1578 325.428 63.7421C323.885 64.3265 322.132 64.6186 320.169 64.6186C318.152 64.6186 316.366 64.1611 314.811 63.246C313.257 62.3309 312.055 61.0245 311.206 59.3266C310.368 57.6178 309.933 55.6278 309.9 53.3566V51.4714C309.9 47.8331 310.771 44.9942 312.513 42.9546C314.254 40.9039 316.685 39.8786 319.806 39.8786C322.485 39.8786 324.612 40.5401 326.189 41.8631C327.766 43.1861 328.714 45.0934 329.033 47.5851H324.932C324.469 44.6855 322.788 43.2357 319.888 43.2357C318.014 43.2357 316.586 43.9137 315.605 45.2698C314.635 46.6149 314.133 48.5938 314.1 51.2068V53.0589C314.1 55.6608 314.646 57.6839 315.737 59.1282C316.84 60.5614 318.367 61.2781 320.318 61.2781C322.457 61.2781 323.978 60.793 324.883 59.8228V55.1096H319.921V51.9344H329.05V61.1623ZM332.506 55.1757C332.506 53.4228 332.854 51.8462 333.548 50.446C334.243 49.0348 335.218 47.9544 336.475 47.2047C337.732 46.444 339.176 46.0636 340.808 46.0636C343.223 46.0636 345.179 46.8409 346.679 48.3954C348.189 49.9499 349.005 52.0116 349.126 54.5804L349.143 55.523C349.143 57.287 348.801 58.8636 348.118 60.2527C347.445 61.6419 346.475 62.7168 345.207 63.4775C343.95 64.2383 342.495 64.6186 340.841 64.6186C338.316 64.6186 336.293 63.7807 334.772 62.1049C333.261 60.4181 332.506 58.1745 332.506 55.3742V55.1757ZM336.525 55.523C336.525 57.3642 336.905 58.8085 337.666 59.8558C338.427 60.8922 339.485 61.4104 340.841 61.4104C342.197 61.4104 343.25 60.8812 344 59.8228C344.761 58.7644 345.141 57.2154 345.141 55.1757C345.141 53.3676 344.75 51.9344 343.967 50.876C343.195 49.8176 342.142 49.2884 340.808 49.2884C339.496 49.2884 338.454 49.8121 337.683 50.8595C336.911 51.8958 336.525 53.4503 336.525 55.523ZM351.789 55.1757C351.789 53.4228 352.136 51.8462 352.831 50.446C353.525 49.0348 354.501 47.9544 355.758 47.2047C357.015 46.444 358.459 46.0636 360.091 46.0636C362.505 46.0636 364.462 46.8409 365.962 48.3954C367.472 49.9499 368.288 52.0116 368.409 54.5804L368.426 55.523C368.426 57.287 368.084 58.8636 367.4 60.2527C366.728 61.6419 365.758 62.7168 364.49 63.4775C363.233 64.2383 361.778 64.6186 360.124 64.6186C357.599 64.6186 355.576 63.7807 354.055 62.1049C352.544 60.4181 351.789 58.1745 351.789 55.3742V55.1757ZM355.808 55.523C355.808 57.3642 356.188 58.8085 356.949 59.8558C357.709 60.8922 358.768 61.4104 360.124 61.4104C361.48 61.4104 362.533 60.8812 363.282 59.8228C364.043 58.7644 364.424 57.2154 364.424 55.1757C364.424 53.3676 364.032 51.9344 363.249 50.876C362.478 49.8176 361.425 49.2884 360.091 49.2884C358.779 49.2884 357.737 49.8121 356.965 50.8595C356.193 51.8958 355.808 53.4503 355.808 55.523ZM371.121 55.2088C371.121 52.4305 371.772 50.2145 373.073 48.5608C374.385 46.896 376.121 46.0636 378.282 46.0636C380.322 46.0636 381.926 46.7747 383.094 48.1969L383.276 46.3944H386.898V63.7421C386.898 66.0905 386.165 67.9426 384.698 69.2987C383.243 70.6548 381.275 71.3328 378.795 71.3328C377.483 71.3328 376.198 71.0572 374.941 70.506C373.696 69.9657 372.747 69.2546 372.097 68.3726L373.999 65.9582C375.234 67.4245 376.755 68.1576 378.563 68.1576C379.897 68.1576 380.95 67.7938 381.722 67.0662C382.493 66.3495 382.879 65.2911 382.879 63.891V62.6837C381.722 63.9737 380.178 64.6186 378.249 64.6186C376.154 64.6186 374.44 63.7862 373.106 62.1215C371.783 60.4567 371.121 58.1525 371.121 55.2088ZM375.123 55.5561C375.123 57.3532 375.487 58.7699 376.215 59.8062C376.953 60.8315 377.973 61.3442 379.274 61.3442C380.895 61.3442 382.097 60.6496 382.879 59.2605V51.3887C382.119 50.0326 380.928 49.3546 379.307 49.3546C377.984 49.3546 376.953 49.8782 376.215 50.9256C375.487 51.973 375.123 53.5165 375.123 55.5561ZM395.316 64.2879H391.297V38.8864H395.316V64.2879ZM407.586 64.6186C405.04 64.6186 402.972 63.8193 401.385 62.2207C399.808 60.611 399.02 58.4722 399.02 55.8042V55.308C399.02 53.522 399.362 51.9289 400.045 50.5287C400.74 49.1175 401.71 48.0205 402.956 47.2378C404.202 46.455 405.591 46.0636 407.123 46.0636C409.56 46.0636 411.44 46.8409 412.763 48.3954C414.097 49.9499 414.764 52.1494 414.764 54.9938V56.6145H403.072C403.193 58.0918 403.683 59.2605 404.543 60.1204C405.414 60.9804 406.506 61.4104 407.818 61.4104C409.659 61.4104 411.158 60.6662 412.316 59.1778L414.482 61.245C413.766 62.3144 412.807 63.1468 411.605 63.7421C410.414 64.3265 409.075 64.6186 407.586 64.6186ZM407.107 49.2884C406.004 49.2884 405.111 49.6743 404.428 50.446C403.755 51.2178 403.325 52.2927 403.138 53.6708H410.795V53.3732C410.706 52.0281 410.348 51.0138 409.72 50.3303C409.091 49.6357 408.22 49.2884 407.107 49.2884Z" fill="black" fill-opacity="0.54"/>
        </g>
    <defs>
        <filter id="filter0_dd" x="0.838368" y="0.838368" width="660.323" height="104.025" filterUnits="userSpaceOnUse" color-interpolation-filters="sRGB">
            <feFlood flood-opacity="0" result="BackgroundImageFix"/>
            <feColorMatrix in="SourceAlpha" type="matrix" values="0 0 0 0 0 0 0 0 0 0 0 0 0 0 0 0 0 0 127 0" result="hardAlpha"/>
                <feOffset dy="2.41919"/>
                <feGaussianBlur stdDeviation="1.2096"/>
                <feColorMatrix type="matrix" values="0 0 0 0 0 0 0 0 0 0 0 0 0 0 0 0 0 0 0.168 0"/>
                <feBlend mode="normal" in2="BackgroundImageFix" result="effect1_dropShadow"/>
                <feColorMatrix in="SourceAlpha" type="matrix" values="0 0 0 0 0 0 0 0 0 0 0 0 0 0 0 0 0 0 127 0" result="hardAlpha"/>
                <feOffset/>
                <feGaussianBlur stdDeviation="1.2096"/>
            <feColorMatrix type="matrix" values="0 0 0 0 0 0 0 0 0 0 0 0 0 0 0 0 0 0 0.084 0"/>
            <feBlend mode="normal" in2="effect1_dropShadow" result="effect2_dropShadow"/>
            <feBlend mode="normal" in="SourceGraphic" in2="effect2_dropShadow" result="shape"/>
        </filter>
    </defs>
</svg>
