<svg width="60" height="57" viewBox="0 0 60 57" fill="none" xmlns="http://www.w3.org/2000/svg">
<path d="M53.5714 0H6.42857C2.87946 0 0 2.72949 0 6.09375V50.7812C0 54.1455 2.87946 56.875 6.42857 56.875H53.5714C57.1205 56.875 60 54.1455 60 50.7812V6.09375C60 2.72949 57.1205 0 53.5714 0ZM47.0223 20.1602C47.0491 20.5156 47.0491 20.8838 47.0491 21.2393C47.0491 32.2461 38.2098 44.9287 22.058 44.9287C17.0759 44.9287 12.4554 43.5576 8.57143 41.1963C9.28125 41.2725 9.96429 41.2979 10.6875 41.2979C14.7991 41.2979 18.5759 39.9775 21.5893 37.7432C17.7321 37.667 14.4911 35.2676 13.3795 31.9668C14.7321 32.1572 15.9509 32.1572 17.3438 31.8145C13.3259 31.04 10.3125 27.6885 10.3125 23.6387V23.5371C11.4777 24.1592 12.8437 24.54 14.2768 24.5908C13.072 23.8312 12.0844 22.8006 11.402 21.5911C10.7196 20.3816 10.3637 19.0308 10.3661 17.6592C10.3661 16.1104 10.7946 14.6885 11.558 13.457C15.8839 18.5098 22.3795 21.8105 29.6652 22.166C28.4196 16.5166 32.8795 11.9336 38.2366 11.9336C40.7679 11.9336 43.0446 12.9365 44.6518 14.5615C46.6339 14.2061 48.5357 13.5078 50.2232 12.5557C49.567 14.4854 48.1875 16.1104 46.3661 17.1387C48.1339 16.9609 49.8482 16.4912 51.4286 15.8438C50.2366 17.5068 48.7366 18.9795 47.0223 20.1602Z" fill="white"/>
</svg>
