<svg width="200" height="203" viewBox="0 0 200 203" fill="none" xmlns="http://www.w3.org/2000/svg">
<path d="M29.872 201.325C37.729 201.356 45.279 198.399 50.863 193.104C56.448 187.807 59.6129 180.604 59.6629 173.075L60.0539 102.339C59.9979 97.2769 60.994 92.2549 62.984 87.565C64.974 82.8761 67.917 78.6129 71.643 75.024C75.369 71.4341 79.804 68.592 84.686 66.6607C89.571 64.7294 94.8069 63.7491 100.089 63.7763C105.372 63.8035 110.596 64.8371 115.459 66.8167C120.321 68.7973 124.724 71.6847 128.409 75.3119C132.096 78.939 134.992 83.2314 136.929 87.9404C138.868 92.6504 139.808 97.6815 139.696 102.743L139.305 173.481C139.263 181.011 142.346 188.25 147.874 193.603C153.403 198.957 160.923 201.987 168.783 202.027C176.643 202.066 184.197 199.113 189.785 193.816C195.371 188.519 198.534 181.312 198.575 173.782L199.007 95.554C199.076 83.0854 196.582 70.7246 191.666 59.18C186.748 47.6343 179.507 37.1314 170.355 28.2668C161.202 19.4033 150.318 12.3533 138.321 7.52051C126.325 2.68869 113.454 0.16721 100.441 0.101188C87.428 0.0350667 74.53 2.42591 62.48 7.13605C50.432 11.8471 39.47 18.7853 30.22 27.5553C20.969 36.3262 13.612 46.7557 8.56996 58.251C3.52596 69.7454 0.893969 82.08 0.824969 94.5485L0.392962 172.774C0.359962 180.304 3.44397 187.539 8.97096 192.891C14.497 198.243 22.014 201.276 29.872 201.325ZM13.7909 94.62C13.9119 72.7324 23.1019 51.7878 39.3389 36.3936C55.5759 20.9985 77.53 12.4147 100.372 12.5305C123.214 12.6462 145.073 21.4534 161.139 37.0116C177.205 52.5698 186.163 73.606 186.042 95.4946L185.61 173.714C185.548 177.927 183.753 181.945 180.615 184.895C177.477 187.845 173.249 189.489 168.852 189.466C164.456 189.444 160.247 187.758 157.142 184.777C154.037 181.795 152.285 177.758 152.27 173.545L152.661 102.809C152.735 89.3937 147.246 76.4994 137.398 66.9636C127.551 57.4278 114.155 52.0314 100.154 51.9599C86.1539 51.8895 72.698 57.149 62.746 66.5852C52.796 76.0204 47.1629 88.8582 47.0889 102.273L46.698 173.01C46.674 177.246 44.8949 181.3 41.7529 184.28C38.6099 187.259 34.361 188.921 29.94 188.898C25.518 188.876 21.288 187.171 18.178 184.16C15.069 181.148 13.335 177.077 13.358 172.841L13.7909 94.62Z" fill="white"/>
<path d="M99.999 156.475C116.039 156.508 129.069 144.05 129.102 128.651C129.137 113.252 116.161 100.743 100.121 100.711C84.081 100.679 71.051 113.136 71.018 128.534C70.985 143.934 83.96 156.442 99.999 156.475Z" fill="#FB7762"/>
</svg>
