<svg width="445" height="555" viewBox="0 0 445 555" fill="none" xmlns="http://www.w3.org/2000/svg">
<rect width="445" height="555" fill="url(#paint0_linear)" style="mix-blend-mode:darken"/>
<path d="M99.3047 13.3438H108.094V42.875C108.094 45.5898 107.488 47.9922 106.277 50.082C105.086 52.1523 103.396 53.7539 101.209 54.8867C99.0215 56.0195 96.5508 56.5859 93.7969 56.5859C89.2852 56.5859 85.7695 55.4434 83.25 53.1582C80.7305 50.8535 79.4707 47.6016 79.4707 43.4023H88.3184C88.3184 45.4922 88.7578 47.0352 89.6367 48.0312C90.5156 49.0273 91.9023 49.5254 93.7969 49.5254C95.4766 49.5254 96.8145 48.9492 97.8105 47.7969C98.8066 46.6445 99.3047 45.0039 99.3047 42.875V13.3438ZM133.436 56C133.045 55.2383 132.762 54.291 132.586 53.1582C130.535 55.4434 127.869 56.5859 124.588 56.5859C121.482 56.5859 118.904 55.6875 116.854 53.8906C114.822 52.0938 113.807 49.8281 113.807 47.0938C113.807 43.7344 115.047 41.1562 117.527 39.3594C120.027 37.5625 123.631 36.6543 128.338 36.6348H132.234V34.8184C132.234 33.3535 131.854 32.1816 131.092 31.3027C130.35 30.4238 129.168 29.9844 127.547 29.9844C126.121 29.9844 124.998 30.3262 124.178 31.0098C123.377 31.6934 122.977 32.6309 122.977 33.8223H114.51C114.51 31.9863 115.076 30.2871 116.209 28.7246C117.342 27.1621 118.943 25.9414 121.014 25.0625C123.084 24.1641 125.408 23.7148 127.986 23.7148C131.893 23.7148 134.988 24.7012 137.273 26.6738C139.578 28.627 140.73 31.3809 140.73 34.9355V48.6758C140.75 51.6836 141.17 53.959 141.99 55.502V56H133.436ZM126.434 50.1113C127.684 50.1113 128.836 49.8379 129.891 49.291C130.945 48.7246 131.727 47.9727 132.234 47.0352V41.5859H129.07C124.832 41.5859 122.576 43.0508 122.303 45.9805L122.273 46.4785C122.273 47.5332 122.645 48.4023 123.387 49.0859C124.129 49.7695 125.145 50.1113 126.434 50.1113ZM158.631 45.6582L164.52 24.3008H173.367L162.674 56H154.588L143.895 24.3008H152.742L158.631 45.6582ZM195.018 56C194.627 55.2383 194.344 54.291 194.168 53.1582C192.117 55.4434 189.451 56.5859 186.17 56.5859C183.064 56.5859 180.486 55.6875 178.436 53.8906C176.404 52.0938 175.389 49.8281 175.389 47.0938C175.389 43.7344 176.629 41.1562 179.109 39.3594C181.609 37.5625 185.213 36.6543 189.92 36.6348H193.816V34.8184C193.816 33.3535 193.436 32.1816 192.674 31.3027C191.932 30.4238 190.75 29.9844 189.129 29.9844C187.703 29.9844 186.58 30.3262 185.76 31.0098C184.959 31.6934 184.559 32.6309 184.559 33.8223H176.092C176.092 31.9863 176.658 30.2871 177.791 28.7246C178.924 27.1621 180.525 25.9414 182.596 25.0625C184.666 24.1641 186.99 23.7148 189.568 23.7148C193.475 23.7148 196.57 24.7012 198.855 26.6738C201.16 28.627 202.312 31.3809 202.312 34.9355V48.6758C202.332 51.6836 202.752 53.959 203.572 55.502V56H195.018ZM188.016 50.1113C189.266 50.1113 190.418 49.8379 191.473 49.291C192.527 48.7246 193.309 47.9727 193.816 47.0352V41.5859H190.652C186.414 41.5859 184.158 43.0508 183.885 45.9805L183.855 46.4785C183.855 47.5332 184.227 48.4023 184.969 49.0859C185.711 49.7695 186.727 50.1113 188.016 50.1113ZM231.492 44.8086C231.492 43.1484 230.906 41.8789 229.734 41C228.562 40.1016 226.453 39.1641 223.406 38.1875C220.359 37.1914 217.947 36.2148 216.17 35.2578C211.326 32.6406 208.904 29.1152 208.904 24.6816C208.904 22.377 209.549 20.3262 210.838 18.5293C212.146 16.7129 214.012 15.2969 216.434 14.2812C218.875 13.2656 221.609 12.7578 224.637 12.7578C227.684 12.7578 230.398 13.3145 232.781 14.4277C235.164 15.5215 237.01 17.0742 238.318 19.0859C239.646 21.0977 240.311 23.3828 240.311 25.9414H231.521C231.521 23.9883 230.906 22.4746 229.676 21.4004C228.445 20.3066 226.717 19.7598 224.49 19.7598C222.342 19.7598 220.672 20.2188 219.48 21.1367C218.289 22.0352 217.693 23.2266 217.693 24.7109C217.693 26.0977 218.387 27.2598 219.773 28.1973C221.18 29.1348 223.24 30.0137 225.955 30.834C230.955 32.3379 234.598 34.2031 236.883 36.4297C239.168 38.6562 240.311 41.4297 240.311 44.75C240.311 48.4414 238.914 51.3418 236.121 53.4512C233.328 55.541 229.568 56.5859 224.842 56.5859C221.561 56.5859 218.572 55.9902 215.877 54.7988C213.182 53.5879 211.121 51.9375 209.695 49.8477C208.289 47.7578 207.586 45.3359 207.586 42.582H216.404C216.404 47.2891 219.217 49.6426 224.842 49.6426C226.932 49.6426 228.562 49.2227 229.734 48.3828C230.906 47.5234 231.492 46.332 231.492 44.8086ZM258.914 49.7598C260.477 49.7598 261.746 49.3301 262.723 48.4707C263.699 47.6113 264.207 46.4688 264.246 45.043H272.186C272.166 47.1914 271.58 49.1641 270.428 50.9609C269.275 52.7383 267.693 54.125 265.682 55.1211C263.689 56.0977 261.482 56.5859 259.061 56.5859C254.529 56.5859 250.955 55.1504 248.338 52.2793C245.721 49.3887 244.412 45.4043 244.412 40.3262V39.7695C244.412 34.8867 245.711 30.9902 248.309 28.0801C250.906 25.1699 254.471 23.7148 259.002 23.7148C262.967 23.7148 266.141 24.8477 268.523 27.1133C270.926 29.3594 272.146 32.3574 272.186 36.1074H264.246C264.207 34.4668 263.699 33.1387 262.723 32.123C261.746 31.0879 260.457 30.5703 258.855 30.5703C256.883 30.5703 255.389 31.293 254.373 32.7383C253.377 34.1641 252.879 36.4883 252.879 39.7109V40.5898C252.879 43.8516 253.377 46.1953 254.373 47.6211C255.369 49.0469 256.883 49.7598 258.914 49.7598ZM294.832 32.2402C293.68 32.084 292.664 32.0059 291.785 32.0059C288.582 32.0059 286.482 33.0898 285.486 35.2578V56H277.02V24.3008H285.018L285.252 28.0801C286.951 25.1699 289.305 23.7148 292.312 23.7148C293.25 23.7148 294.129 23.8418 294.949 24.0957L294.832 32.2402ZM307.869 56H299.373V24.3008H307.869V56ZM298.875 16.0977C298.875 14.8281 299.295 13.7832 300.135 12.9629C300.994 12.1426 302.156 11.7324 303.621 11.7324C305.066 11.7324 306.219 12.1426 307.078 12.9629C307.938 13.7832 308.367 14.8281 308.367 16.0977C308.367 17.3867 307.928 18.4414 307.049 19.2617C306.189 20.082 305.047 20.4922 303.621 20.4922C302.195 20.4922 301.043 20.082 300.164 19.2617C299.305 18.4414 298.875 17.3867 298.875 16.0977ZM343.406 40.4434C343.406 45.3262 342.293 49.2422 340.066 52.1914C337.859 55.1211 334.871 56.5859 331.102 56.5859C327.898 56.5859 325.311 55.4727 323.338 53.2461V68.1875H314.871V24.3008H322.723L323.016 27.4062C325.066 24.9453 327.742 23.7148 331.043 23.7148C334.949 23.7148 337.986 25.1602 340.154 28.0508C342.322 30.9414 343.406 34.9258 343.406 40.0039V40.4434ZM334.939 39.8281C334.939 36.8789 334.412 34.6035 333.357 33.002C332.322 31.4004 330.809 30.5996 328.816 30.5996C326.16 30.5996 324.334 31.6152 323.338 33.6465V46.625C324.373 48.7148 326.219 49.7598 328.875 49.7598C332.918 49.7598 334.939 46.4492 334.939 39.8281ZM358.816 16.5078V24.3008H364.236V30.5117H358.816V46.332C358.816 47.5039 359.041 48.3438 359.49 48.8516C359.939 49.3594 360.799 49.6133 362.068 49.6133C363.006 49.6133 363.836 49.5449 364.559 49.4082V55.8242C362.898 56.332 361.189 56.5859 359.432 56.5859C353.494 56.5859 350.467 53.5879 350.35 47.5918V30.5117H345.721V24.3008H350.35V16.5078H358.816Z" fill="#F7DF1E"/>
<rect x="215" y="413" width="200" height="70" rx="15" fill="white"/>
<path d="M250.52 450.837H253.479V453.049H250.52V458H247.795V453.049H238.083V451.452L247.634 436.672H250.52V450.837ZM241.159 450.837H247.795V440.378L247.473 440.964L241.159 450.837ZM269.299 448.903C269.299 452.077 268.757 454.436 267.673 455.979C266.589 457.521 264.895 458.293 262.59 458.293C260.314 458.293 258.63 457.541 257.536 456.037C256.442 454.523 255.876 452.268 255.837 449.27V445.651C255.837 442.517 256.379 440.188 257.463 438.664C258.547 437.141 260.246 436.379 262.561 436.379C264.855 436.379 266.545 437.116 267.629 438.591C268.713 440.056 269.27 442.321 269.299 445.388V448.903ZM266.589 445.197C266.589 442.902 266.267 441.232 265.622 440.188C264.978 439.133 263.957 438.605 262.561 438.605C261.174 438.605 260.163 439.128 259.528 440.173C258.894 441.218 258.566 442.824 258.547 444.992V449.328C258.547 451.633 258.879 453.337 259.543 454.44C260.217 455.534 261.232 456.081 262.59 456.081C263.928 456.081 264.919 455.563 265.563 454.528C266.218 453.493 266.56 451.862 266.589 449.636V445.197ZM286.145 448.903C286.145 452.077 285.603 454.436 284.519 455.979C283.435 457.521 281.74 458.293 279.436 458.293C277.16 458.293 275.476 457.541 274.382 456.037C273.288 454.523 272.722 452.268 272.683 449.27V445.651C272.683 442.517 273.225 440.188 274.309 438.664C275.393 437.141 277.092 436.379 279.406 436.379C281.701 436.379 283.391 437.116 284.475 438.591C285.559 440.056 286.115 442.321 286.145 445.388V448.903ZM283.435 445.197C283.435 442.902 283.112 441.232 282.468 440.188C281.823 439.133 280.803 438.605 279.406 438.605C278.02 438.605 277.009 439.128 276.374 440.173C275.739 441.218 275.412 442.824 275.393 444.992V449.328C275.393 451.633 275.725 453.337 276.389 454.44C277.062 455.534 278.078 456.081 279.436 456.081C280.773 456.081 281.765 455.563 282.409 454.528C283.063 453.493 283.405 451.862 283.435 449.636V445.197ZM297.658 446.56H303.605V449.123H297.658V455.861H294.934V449.123H288.986V446.56H294.934V440.334H297.658V446.56ZM327.746 450.251C327.746 452.663 327.194 454.606 326.091 456.081C324.987 457.556 323.493 458.293 321.608 458.293C319.685 458.293 318.171 457.683 317.067 456.462V464.094H314.357V442.15H316.833L316.965 443.908C318.068 442.541 319.602 441.857 321.564 441.857C323.469 441.857 324.973 442.575 326.076 444.011C327.189 445.446 327.746 447.443 327.746 450.002V450.251ZM325.036 449.943C325.036 448.156 324.655 446.745 323.894 445.71C323.132 444.675 322.087 444.157 320.759 444.157C319.118 444.157 317.888 444.885 317.067 446.34V453.913C317.878 455.358 319.118 456.081 320.788 456.081C322.087 456.081 323.117 455.568 323.879 454.543C324.65 453.508 325.036 451.975 325.036 449.943ZM340.988 458C340.832 457.688 340.705 457.131 340.607 456.33C339.348 457.639 337.844 458.293 336.096 458.293C334.533 458.293 333.249 457.854 332.243 456.975C331.247 456.086 330.749 454.963 330.749 453.605C330.749 451.955 331.374 450.676 332.624 449.768C333.884 448.85 335.651 448.391 337.927 448.391H340.563V447.146C340.563 446.198 340.28 445.446 339.714 444.89C339.147 444.323 338.312 444.04 337.209 444.04C336.242 444.04 335.432 444.284 334.777 444.772C334.123 445.261 333.796 445.852 333.796 446.545H331.071C331.071 445.754 331.35 444.992 331.906 444.26C332.473 443.518 333.234 442.932 334.191 442.502C335.158 442.072 336.218 441.857 337.37 441.857C339.196 441.857 340.627 442.316 341.662 443.234C342.697 444.143 343.234 445.397 343.273 446.999V454.294C343.273 455.749 343.459 456.906 343.83 457.766V458H340.988ZM336.491 455.935C337.341 455.935 338.146 455.715 338.908 455.275C339.67 454.836 340.222 454.265 340.563 453.562V450.31H338.439C335.119 450.31 333.459 451.281 333.459 453.225C333.459 454.074 333.742 454.738 334.309 455.217C334.875 455.695 335.603 455.935 336.491 455.935ZM346.877 449.943C346.877 447.473 347.448 445.51 348.591 444.055C349.733 442.59 351.247 441.857 353.132 441.857C355.065 441.857 356.574 442.541 357.658 443.908L357.79 442.15H360.266V457.619C360.266 459.67 359.655 461.286 358.435 462.468C357.224 463.649 355.593 464.24 353.542 464.24C352.399 464.24 351.281 463.996 350.188 463.508C349.094 463.02 348.259 462.351 347.683 461.501L349.089 459.875C350.251 461.311 351.672 462.028 353.352 462.028C354.67 462.028 355.695 461.657 356.428 460.915C357.17 460.173 357.541 459.128 357.541 457.78V456.418C356.457 457.668 354.978 458.293 353.103 458.293C351.247 458.293 349.743 457.546 348.591 456.052C347.448 454.558 346.877 452.521 346.877 449.943ZM349.602 450.251C349.602 452.038 349.968 453.444 350.7 454.47C351.433 455.485 352.458 455.993 353.776 455.993C355.485 455.993 356.74 455.217 357.541 453.664V446.428C356.711 444.914 355.466 444.157 353.806 444.157C352.487 444.157 351.457 444.67 350.715 445.695C349.973 446.721 349.602 448.239 349.602 450.251ZM370.944 458.293C368.796 458.293 367.048 457.59 365.7 456.184C364.353 454.768 363.679 452.878 363.679 450.515V450.017C363.679 448.444 363.977 447.043 364.572 445.812C365.178 444.572 366.018 443.605 367.092 442.912C368.176 442.209 369.348 441.857 370.607 441.857C372.668 441.857 374.27 442.536 375.412 443.894C376.555 445.251 377.126 447.194 377.126 449.724V450.852H366.389C366.428 452.414 366.882 453.679 367.751 454.646C368.63 455.603 369.743 456.081 371.091 456.081C372.048 456.081 372.858 455.886 373.522 455.495C374.187 455.104 374.768 454.587 375.266 453.942L376.921 455.231C375.593 457.272 373.601 458.293 370.944 458.293ZM370.607 444.084C369.514 444.084 368.596 444.484 367.854 445.285C367.111 446.076 366.652 447.189 366.477 448.625H374.416V448.42C374.338 447.043 373.967 445.979 373.303 445.227C372.639 444.465 371.74 444.084 370.607 444.084ZM389.504 453.796C389.504 453.063 389.226 452.497 388.669 452.097C388.122 451.687 387.16 451.335 385.783 451.042C384.416 450.749 383.327 450.397 382.517 449.987C381.716 449.577 381.12 449.089 380.729 448.522C380.349 447.956 380.158 447.282 380.158 446.501C380.158 445.202 380.705 444.104 381.799 443.205C382.902 442.307 384.309 441.857 386.018 441.857C387.814 441.857 389.27 442.321 390.383 443.249C391.506 444.177 392.067 445.363 392.067 446.809H389.343C389.343 446.066 389.025 445.427 388.391 444.89C387.766 444.353 386.975 444.084 386.018 444.084C385.031 444.084 384.26 444.299 383.703 444.729C383.146 445.158 382.868 445.72 382.868 446.413C382.868 447.067 383.127 447.561 383.645 447.893C384.162 448.225 385.095 448.542 386.442 448.845C387.8 449.147 388.898 449.509 389.738 449.929C390.578 450.349 391.198 450.856 391.599 451.452C392.009 452.038 392.214 452.756 392.214 453.605C392.214 455.021 391.647 456.159 390.515 457.019C389.382 457.868 387.912 458.293 386.105 458.293C384.836 458.293 383.713 458.068 382.736 457.619C381.76 457.17 380.993 456.545 380.437 455.744C379.89 454.934 379.616 454.06 379.616 453.122H382.326C382.375 454.03 382.736 454.753 383.41 455.29C384.094 455.817 384.992 456.081 386.105 456.081C387.131 456.081 387.951 455.876 388.566 455.466C389.191 455.046 389.504 454.489 389.504 453.796Z" fill="black"/>
<path d="M72.4775 458H68.083L59.5283 443.967V458H55.1338V436.672H59.5283L68.0977 450.734V436.672H72.4775V458ZM93.835 447.819C93.835 449.919 93.4639 451.76 92.7217 453.342C91.9795 454.924 90.915 456.145 89.5283 457.004C88.1514 457.863 86.5693 458.293 84.7822 458.293C83.0146 458.293 81.4375 457.868 80.0508 457.019C78.6641 456.169 77.5898 454.958 76.8281 453.386C76.0664 451.804 75.6807 449.987 75.6709 447.937V446.882C75.6709 444.782 76.0469 442.937 76.7988 441.345C77.5605 439.743 78.6299 438.518 80.0068 437.668C81.3936 436.809 82.9756 436.379 84.7529 436.379C86.5303 436.379 88.1074 436.809 89.4844 437.668C90.8711 438.518 91.9404 439.743 92.6924 441.345C93.4541 442.937 93.835 444.777 93.835 446.867V447.819ZM89.3818 446.853C89.3818 444.616 88.9814 442.917 88.1807 441.755C87.3799 440.593 86.2373 440.012 84.7529 440.012C83.2783 440.012 82.1406 440.588 81.3398 441.74C80.5391 442.883 80.1338 444.562 80.124 446.779V447.819C80.124 449.997 80.5244 451.687 81.3252 452.888C82.126 454.089 83.2783 454.689 84.7822 454.689C86.2568 454.689 87.3896 454.113 88.1807 452.961C88.9717 451.799 89.3721 450.109 89.3818 447.893V446.853ZM111.823 440.231H105.29V458H100.896V440.231H94.4502V436.672H111.823V440.231ZM127.175 448.757H118.737V454.47H128.64V458H114.343V436.672H128.61V440.231H118.737V445.314H127.175V448.757ZM142.277 452.404C142.277 451.574 141.984 450.939 141.398 450.5C140.812 450.051 139.758 449.582 138.234 449.094C136.711 448.596 135.505 448.107 134.616 447.629C132.194 446.32 130.983 444.558 130.983 442.341C130.983 441.188 131.306 440.163 131.95 439.265C132.604 438.356 133.537 437.648 134.748 437.141C135.969 436.633 137.336 436.379 138.85 436.379C140.373 436.379 141.73 436.657 142.922 437.214C144.113 437.761 145.036 438.537 145.69 439.543C146.354 440.549 146.687 441.691 146.687 442.971H142.292C142.292 441.994 141.984 441.237 141.369 440.7C140.754 440.153 139.89 439.88 138.776 439.88C137.702 439.88 136.867 440.109 136.271 440.568C135.676 441.018 135.378 441.613 135.378 442.355C135.378 443.049 135.725 443.63 136.418 444.099C137.121 444.567 138.151 445.007 139.509 445.417C142.009 446.169 143.83 447.102 144.973 448.215C146.115 449.328 146.687 450.715 146.687 452.375C146.687 454.221 145.988 455.671 144.592 456.726C143.195 457.771 141.315 458.293 138.952 458.293C137.312 458.293 135.817 457.995 134.47 457.399C133.122 456.794 132.092 455.969 131.379 454.924C130.676 453.879 130.324 452.668 130.324 451.291H134.733C134.733 453.645 136.14 454.821 138.952 454.821C139.997 454.821 140.812 454.611 141.398 454.191C141.984 453.762 142.277 453.166 142.277 452.404Z" fill="white"/>
<path d="M58 76H387V405H58V76Z" fill="#F7DF1E"/>
<path d="M144.507 350.936L169.683 335.699C174.541 344.311 178.959 351.598 189.558 351.598C199.717 351.598 206.123 347.624 206.123 332.166V227.043H237.04V332.603C237.04 364.626 218.269 379.202 190.883 379.202C166.15 379.202 151.793 366.393 144.505 350.934" fill="black"/>
<path d="M253.833 347.623L279.007 333.048C285.635 343.87 294.248 351.82 309.484 351.82C322.296 351.82 330.465 345.415 330.465 336.581C330.465 325.981 322.073 322.226 307.938 316.044L300.211 312.728C277.904 303.235 263.108 291.309 263.108 266.132C263.108 242.943 280.775 225.275 308.382 225.275C328.037 225.275 342.171 232.122 352.329 250.01L328.255 265.47C322.954 255.974 317.215 252.221 308.38 252.221C299.325 252.221 293.583 257.963 293.583 265.47C293.583 274.745 299.325 278.502 312.575 284.244L320.304 287.556C346.586 298.82 361.382 310.303 361.382 336.14C361.382 363.969 339.519 379.206 310.146 379.206C281.437 379.206 262.886 365.514 253.832 347.624" fill="black"/>
<defs>
<linearGradient id="paint0_linear" x1="0" y1="0" x2="367.206" y2="602.42" gradientUnits="userSpaceOnUse">
<stop offset="0.0238251" stop-color="#7A7A7A"/>
<stop offset="0.282623" stop-color="#464646"/>
<stop offset="1"/>
</linearGradient>
</defs>
</svg>
