<svg width="4000" height="4000" viewBox="0 0 4000 4000" fill="none" xmlns="http://www.w3.org/2000/svg">
<g clip-path="url(#clip0)">
<rect width="4000" height="4000" fill="#1E2534"/>
<path fill-rule="evenodd" clip-rule="evenodd" d="M3781.31 -876.737C3793.09 -882.573 3806.91 -882.573 3818.69 -876.737L4576.62 -500.999C4590.94 -493.898 4600 -479.294 4600 -463.307V281.025C4600 296.851 4591.12 311.338 4577.01 318.517L3819.08 704.287C3807.09 710.39 3792.91 710.39 3780.92 704.287L3022.99 318.517C3008.88 311.338 3000 296.851 3000 281.025V-463.307C3000 -479.294 3009.06 -493.898 3023.38 -500.999L3781.31 -876.737Z" stroke="white" stroke-opacity="0.6" stroke-width="3"/>
<path fill-rule="evenodd" clip-rule="evenodd" d="M158.315 3431.26C170.088 3425.43 183.912 3425.43 195.685 3431.26L953.617 3807C967.939 3814.1 977 3828.71 977 3844.69V4589.03C977 4604.85 968.118 4619.34 954.014 4626.52L196.082 5012.29C184.093 5018.39 169.907 5018.39 157.918 5012.29L-600.014 4626.52C-614.118 4619.34 -623 4604.85 -623 4589.03V3844.69C-623 3828.71 -613.939 3814.1 -599.617 3807L158.315 3431.26Z" stroke="white" stroke-opacity="0.6" stroke-width="3"/>
<path d="M94.5271 348.956C106.395 349.002 117.799 344.609 126.233 336.743C134.669 328.873 139.45 318.172 139.525 306.986L140.116 201.895C140.031 194.374 141.535 186.913 144.541 179.945C147.547 172.979 151.992 166.645 157.62 161.313C163.248 155.98 169.947 151.758 177.321 148.888C184.7 146.019 192.608 144.563 200.587 144.603C208.566 144.643 216.457 146.179 223.802 149.12C231.146 152.063 237.797 156.352 243.363 161.741C248.932 167.13 253.306 173.507 256.232 180.503C259.161 187.501 260.58 194.975 260.411 202.495L259.821 307.589C259.757 318.776 264.414 329.531 272.764 337.484C281.115 345.439 292.474 349.94 304.346 349.999C316.218 350.058 327.628 345.671 336.068 337.8C344.506 329.931 349.283 319.223 349.345 308.036L349.998 191.814C350.102 173.29 346.335 154.926 338.91 137.774C331.481 120.621 320.544 105.017 306.72 91.8471C292.895 78.6788 276.455 68.2048 258.334 61.0247C240.215 53.8462 220.774 50.1001 201.118 50.002C181.463 49.9037 161.981 53.4558 143.78 60.4535C125.582 67.4527 109.024 77.7607 95.0527 90.79C81.0795 103.821 69.9671 119.316 62.3514 136.394C54.7327 153.471 50.7571 171.796 50.6529 190.321L50.0004 306.539C49.9506 317.727 54.6088 328.474 62.9571 336.426C71.3039 344.377 82.6579 348.884 94.5271 348.956ZM70.2374 190.427C70.4202 157.909 84.3013 126.792 108.827 103.921C133.352 81.0487 166.512 68.296 201.014 68.4679C235.516 68.6399 268.533 81.7245 292.8 104.839C317.067 127.954 330.598 159.207 330.415 191.726L329.762 307.936C329.669 314.195 326.957 320.164 322.218 324.546C317.478 328.929 311.092 331.372 304.45 331.338C297.81 331.305 291.453 328.8 286.763 324.371C282.073 319.941 279.426 313.944 279.404 307.685L279.994 202.593C280.106 182.662 271.815 163.505 256.94 149.338C242.067 135.171 221.833 127.154 200.685 127.048C179.538 126.943 159.214 134.757 144.182 148.776C129.153 162.794 120.644 181.867 120.533 201.796L119.942 306.889C119.906 313.183 117.219 319.205 112.473 323.633C107.725 328.059 101.308 330.529 94.6298 330.494C87.9506 330.461 81.5614 327.928 76.8638 323.455C72.1678 318.98 69.5487 312.931 69.5834 306.638L70.2374 190.427Z" fill="white"/>
<path d="M200.451 282.324C224.679 282.372 244.36 263.864 244.41 240.986C244.463 218.108 224.863 199.524 200.635 199.476C176.407 199.428 156.726 217.936 156.676 240.812C156.627 263.692 176.225 282.275 200.451 282.324Z" fill="#FB7762"/>
<path d="M1319.19 3888.56C1323.19 3883.65 1328.4 3881.19 1334.81 3881.19C1345.98 3881.19 1351.61 3887.49 1351.71 3900.09V3935H1342.68V3900.04C1342.64 3896.23 1341.76 3893.41 1340.04 3891.59C1338.35 3889.77 1335.69 3888.86 1332.08 3888.86C1329.15 3888.86 1326.58 3889.64 1324.37 3891.2C1322.15 3892.76 1320.43 3894.81 1319.19 3897.35V3935H1310.16V3860H1319.19V3888.56ZM1377.49 3869.38V3882.17H1387.35V3889.15H1377.49V3921.91C1377.49 3924.03 1377.93 3925.62 1378.81 3926.7C1379.69 3927.74 1381.18 3928.26 1383.3 3928.26C1384.34 3928.26 1385.77 3928.07 1387.6 3927.68V3935C1385.22 3935.65 1382.91 3935.98 1380.66 3935.98C1376.63 3935.98 1373.58 3934.76 1371.53 3932.31C1369.48 3929.87 1368.46 3926.41 1368.46 3921.91V3889.15H1358.84V3882.17H1368.46V3869.38H1377.49ZM1410.21 3869.38V3882.17H1420.07V3889.15H1410.21V3921.91C1410.21 3924.03 1410.64 3925.62 1411.52 3926.7C1412.4 3927.74 1413.9 3928.26 1416.02 3928.26C1417.06 3928.26 1418.49 3928.07 1420.31 3927.68V3935C1417.94 3935.65 1415.62 3935.98 1413.38 3935.98C1409.34 3935.98 1406.3 3934.76 1404.25 3932.31C1402.2 3929.87 1401.17 3926.41 1401.17 3921.91V3889.15H1391.55V3882.17H1401.17V3869.38H1410.21ZM1475.29 3909.17C1475.29 3917.21 1473.45 3923.69 1469.78 3928.6C1466.1 3933.52 1461.12 3935.98 1454.83 3935.98C1448.42 3935.98 1443.38 3933.94 1439.7 3929.87V3955.31H1430.66V3882.17H1438.92L1439.36 3888.03C1443.03 3883.47 1448.14 3881.19 1454.69 3881.19C1461.04 3881.19 1466.05 3883.58 1469.73 3888.37C1473.44 3893.15 1475.29 3899.81 1475.29 3908.34V3909.17ZM1466.26 3908.14C1466.26 3902.19 1464.99 3897.48 1462.45 3894.03C1459.91 3890.58 1456.43 3888.86 1452 3888.86C1446.53 3888.86 1442.43 3891.28 1439.7 3896.13V3921.38C1442.4 3926.19 1446.53 3928.6 1452.1 3928.6C1456.43 3928.6 1459.86 3926.89 1462.4 3923.48C1464.97 3920.03 1466.26 3914.92 1466.26 3908.14ZM1517.58 3920.99C1517.58 3918.54 1516.65 3916.66 1514.79 3915.32C1512.97 3913.96 1509.77 3912.78 1505.18 3911.81C1500.62 3910.83 1496.99 3909.66 1494.29 3908.29C1491.62 3906.92 1489.63 3905.3 1488.33 3903.41C1487.06 3901.52 1486.43 3899.27 1486.43 3896.67C1486.43 3892.34 1488.25 3888.68 1491.89 3885.68C1495.57 3882.69 1500.26 3881.19 1505.96 3881.19C1511.95 3881.19 1516.8 3882.74 1520.51 3885.83C1524.25 3888.92 1526.12 3892.88 1526.12 3897.7H1517.04C1517.04 3895.22 1515.98 3893.09 1513.87 3891.3C1511.78 3889.51 1509.15 3888.61 1505.96 3888.61C1502.67 3888.61 1500.1 3889.33 1498.24 3890.76C1496.39 3892.19 1495.46 3894.07 1495.46 3896.38C1495.46 3898.56 1496.32 3900.2 1498.05 3901.31C1499.77 3902.42 1502.88 3903.47 1507.37 3904.48C1511.9 3905.49 1515.56 3906.7 1518.36 3908.1C1521.16 3909.5 1523.23 3911.19 1524.56 3913.17C1525.93 3915.13 1526.61 3917.52 1526.61 3920.35C1526.61 3925.07 1524.72 3928.86 1520.95 3931.73C1517.17 3934.56 1512.27 3935.98 1506.25 3935.98C1502.02 3935.98 1498.27 3935.23 1495.02 3933.73C1491.76 3932.23 1489.21 3930.15 1487.35 3927.48C1485.53 3924.78 1484.62 3921.87 1484.62 3918.74H1493.65C1493.82 3921.77 1495.02 3924.18 1497.27 3925.97C1499.54 3927.72 1502.54 3928.6 1506.25 3928.6C1509.67 3928.6 1512.4 3927.92 1514.45 3926.55C1516.54 3925.15 1517.58 3923.3 1517.58 3920.99ZM1538.09 3930.26C1538.09 3928.7 1538.54 3927.4 1539.45 3926.36C1540.4 3925.32 1541.8 3924.79 1543.65 3924.79C1545.51 3924.79 1546.91 3925.32 1547.85 3926.36C1548.83 3927.4 1549.32 3928.7 1549.32 3930.26C1549.32 3931.76 1548.83 3933.01 1547.85 3934.02C1546.91 3935.03 1545.51 3935.54 1543.65 3935.54C1541.8 3935.54 1540.4 3935.03 1539.45 3934.02C1538.54 3933.01 1538.09 3931.76 1538.09 3930.26ZM1538.13 3887.15C1538.13 3885.59 1538.59 3884.28 1539.5 3883.24C1540.45 3882.2 1541.85 3881.68 1543.7 3881.68C1545.56 3881.68 1546.96 3882.2 1547.9 3883.24C1548.88 3884.28 1549.37 3885.59 1549.37 3887.15C1549.37 3888.65 1548.88 3889.9 1547.9 3890.91C1546.96 3891.92 1545.56 3892.42 1543.7 3892.42C1541.85 3892.42 1540.45 3891.92 1539.5 3890.91C1538.59 3889.9 1538.13 3888.65 1538.13 3887.15ZM1564.4 3941.1H1556.64L1586.33 3863.91H1594.04L1564.4 3941.1ZM1594.68 3941.1H1586.91L1616.6 3863.91H1624.32L1594.68 3941.1ZM1680.86 3922.55L1691.02 3882.17H1700.05L1684.67 3935H1677.34L1664.5 3894.96L1652 3935H1644.68L1629.35 3882.17H1638.33L1648.73 3921.72L1661.04 3882.17H1668.31L1680.86 3922.55ZM1756.05 3922.55L1766.21 3882.17H1775.24L1759.86 3935H1752.54L1739.7 3894.96L1727.2 3935H1719.87L1704.54 3882.17H1713.53L1723.93 3921.72L1736.23 3882.17H1743.51L1756.05 3922.55ZM1831.25 3922.55L1841.41 3882.17H1850.44L1835.06 3935H1827.73L1814.89 3894.96L1802.39 3935H1795.07L1779.74 3882.17H1788.72L1799.12 3921.72L1811.43 3882.17H1818.7L1831.25 3922.55ZM1853.81 3930.26C1853.81 3928.7 1854.26 3927.4 1855.18 3926.36C1856.12 3925.32 1857.52 3924.79 1859.38 3924.79C1861.23 3924.79 1862.63 3925.32 1863.57 3926.36C1864.55 3927.4 1865.04 3928.7 1865.04 3930.26C1865.04 3931.76 1864.55 3933.01 1863.57 3934.02C1862.63 3935.03 1861.23 3935.54 1859.38 3935.54C1857.52 3935.54 1856.12 3935.03 1855.18 3934.02C1854.26 3933.01 1853.81 3931.76 1853.81 3930.26ZM1912.6 3935C1912.08 3933.96 1911.65 3932.1 1911.33 3929.43C1907.13 3933.8 1902.12 3935.98 1896.29 3935.98C1891.08 3935.98 1886.8 3934.51 1883.45 3931.58C1880.13 3928.62 1878.47 3924.88 1878.47 3920.35C1878.47 3914.85 1880.55 3910.59 1884.72 3907.56C1888.92 3904.5 1894.81 3902.97 1902.39 3902.97H1911.18V3898.82C1911.18 3895.66 1910.24 3893.15 1908.35 3891.3C1906.46 3889.41 1903.68 3888.47 1900 3888.47C1896.78 3888.47 1894.08 3889.28 1891.89 3890.91C1889.71 3892.54 1888.62 3894.51 1888.62 3896.82H1879.54C1879.54 3894.18 1880.47 3891.64 1882.32 3889.2C1884.21 3886.73 1886.75 3884.77 1889.94 3883.34C1893.16 3881.91 1896.7 3881.19 1900.54 3881.19C1906.62 3881.19 1911.39 3882.72 1914.84 3885.78C1918.29 3888.81 1920.08 3892.99 1920.21 3898.33V3922.65C1920.21 3927.5 1920.83 3931.35 1922.07 3934.22V3935H1912.6ZM1897.61 3928.12C1900.44 3928.12 1903.12 3927.38 1905.66 3925.92C1908.2 3924.45 1910.04 3922.55 1911.18 3920.21V3909.37H1904.1C1893.03 3909.37 1887.5 3912.6 1887.5 3919.08C1887.5 3921.91 1888.44 3924.13 1890.33 3925.72C1892.22 3927.32 1894.65 3928.12 1897.61 3928.12ZM1946.63 3869.38V3882.17H1956.49V3889.15H1946.63V3921.91C1946.63 3924.03 1947.07 3925.62 1947.95 3926.7C1948.83 3927.74 1950.33 3928.26 1952.44 3928.26C1953.48 3928.26 1954.92 3928.07 1956.74 3927.68V3935C1954.36 3935.65 1952.05 3935.98 1949.8 3935.98C1945.77 3935.98 1942.72 3934.76 1940.67 3932.31C1938.62 3929.87 1937.6 3926.41 1937.6 3921.91V3889.15H1927.98V3882.17H1937.6V3869.38H1946.63ZM1999.71 3935C1999.19 3933.96 1998.76 3932.1 1998.44 3929.43C1994.24 3933.8 1989.23 3935.98 1983.4 3935.98C1978.19 3935.98 1973.91 3934.51 1970.56 3931.58C1967.24 3928.62 1965.58 3924.88 1965.58 3920.35C1965.58 3914.85 1967.66 3910.59 1971.83 3907.56C1976.03 3904.5 1981.92 3902.97 1989.5 3902.97H1998.29V3898.82C1998.29 3895.66 1997.35 3893.15 1995.46 3891.3C1993.57 3889.41 1990.79 3888.47 1987.11 3888.47C1983.89 3888.47 1981.18 3889.28 1979 3890.91C1976.82 3892.54 1975.73 3894.51 1975.73 3896.82H1966.65C1966.65 3894.18 1967.58 3891.64 1969.43 3889.2C1971.32 3886.73 1973.86 3884.77 1977.05 3883.34C1980.27 3881.91 1983.81 3881.19 1987.65 3881.19C1993.73 3881.19 1998.5 3882.72 2001.95 3885.78C2005.4 3888.81 2007.19 3892.99 2007.32 3898.33V3922.65C2007.32 3927.5 2007.94 3931.35 2009.18 3934.22V3935H1999.71ZM1984.72 3928.12C1987.55 3928.12 1990.23 3927.38 1992.77 3925.92C1995.31 3924.45 1997.15 3922.55 1998.29 3920.21V3909.37H1991.21C1980.14 3909.37 1974.61 3912.6 1974.61 3919.08C1974.61 3921.91 1975.55 3924.13 1977.44 3925.72C1979.33 3927.32 1981.75 3928.12 1984.72 3928.12ZM2047.02 3890.27C2045.65 3890.05 2044.17 3889.93 2042.58 3889.93C2036.65 3889.93 2032.63 3892.45 2030.52 3897.5V3935H2021.48V3882.17H2030.27L2030.42 3888.27C2033.38 3883.55 2037.58 3881.19 2043.02 3881.19C2044.78 3881.19 2046.11 3881.42 2047.02 3881.88V3890.27ZM2065.19 3935H2056.15V3882.17H2065.19V3935ZM2055.42 3868.15C2055.42 3866.69 2055.86 3865.45 2056.74 3864.44C2057.65 3863.43 2058.98 3862.93 2060.74 3862.93C2062.5 3862.93 2063.83 3863.43 2064.75 3864.44C2065.66 3865.45 2066.11 3866.69 2066.11 3868.15C2066.11 3869.62 2065.66 3870.84 2064.75 3871.82C2063.83 3872.79 2062.5 3873.28 2060.74 3873.28C2058.98 3873.28 2057.65 3872.79 2056.74 3871.82C2055.86 3870.84 2055.42 3869.62 2055.42 3868.15ZM2112.3 3935C2111.78 3933.96 2111.36 3932.1 2111.04 3929.43C2106.84 3933.8 2101.82 3935.98 2096 3935.98C2090.79 3935.98 2086.51 3934.51 2083.15 3931.58C2079.83 3928.62 2078.17 3924.88 2078.17 3920.35C2078.17 3914.85 2080.26 3910.59 2084.42 3907.56C2088.62 3904.5 2094.51 3902.97 2102.1 3902.97H2110.89V3898.82C2110.89 3895.66 2109.94 3893.15 2108.06 3891.3C2106.17 3889.41 2103.39 3888.47 2099.71 3888.47C2096.48 3888.47 2093.78 3889.28 2091.6 3890.91C2089.42 3892.54 2088.33 3894.51 2088.33 3896.82H2079.25C2079.25 3894.18 2080.18 3891.64 2082.03 3889.2C2083.92 3886.73 2086.46 3884.77 2089.65 3883.34C2092.87 3881.91 2096.4 3881.19 2100.24 3881.19C2106.33 3881.19 2111.1 3882.72 2114.55 3885.78C2118 3888.81 2119.79 3892.99 2119.92 3898.33V3922.65C2119.92 3927.5 2120.54 3931.35 2121.78 3934.22V3935H2112.3ZM2097.31 3928.12C2100.15 3928.12 2102.83 3927.38 2105.37 3925.92C2107.91 3924.45 2109.75 3922.55 2110.89 3920.21V3909.37H2103.81C2092.74 3909.37 2087.21 3912.6 2087.21 3919.08C2087.21 3921.91 2088.15 3924.13 2090.04 3925.72C2091.93 3927.32 2094.35 3928.12 2097.31 3928.12ZM2155.27 3928.6C2158.5 3928.6 2161.31 3927.63 2163.72 3925.67C2166.13 3923.72 2167.46 3921.28 2167.72 3918.35H2176.27C2176.11 3921.38 2175.07 3924.26 2173.14 3926.99C2171.22 3929.73 2168.65 3931.91 2165.43 3933.54C2162.24 3935.16 2158.85 3935.98 2155.27 3935.98C2148.08 3935.98 2142.35 3933.58 2138.09 3928.8C2133.85 3923.98 2131.74 3917.41 2131.74 3909.07V3907.56C2131.74 3902.42 2132.68 3897.84 2134.57 3893.84C2136.46 3889.83 2139.16 3886.73 2142.68 3884.51C2146.22 3882.3 2150.41 3881.19 2155.22 3881.19C2161.15 3881.19 2166.06 3882.97 2169.97 3886.51C2173.91 3890.06 2176.01 3894.67 2176.27 3900.33H2167.72C2167.46 3896.91 2166.16 3894.11 2163.82 3891.93C2161.51 3889.72 2158.64 3888.61 2155.22 3888.61C2150.63 3888.61 2147.07 3890.27 2144.53 3893.59C2142.02 3896.88 2140.77 3901.65 2140.77 3907.9V3909.61C2140.77 3915.7 2142.02 3920.38 2144.53 3923.67C2147.04 3926.96 2150.62 3928.6 2155.27 3928.6ZM2219.04 3935C2218.52 3933.96 2218.1 3932.1 2217.77 3929.43C2213.57 3933.8 2208.56 3935.98 2202.73 3935.98C2197.53 3935.98 2193.25 3934.51 2189.89 3931.58C2186.57 3928.62 2184.91 3924.88 2184.91 3920.35C2184.91 3914.85 2187 3910.59 2191.16 3907.56C2195.36 3904.5 2201.25 3902.97 2208.84 3902.97H2217.63V3898.82C2217.63 3895.66 2216.68 3893.15 2214.79 3891.3C2212.91 3889.41 2210.12 3888.47 2206.45 3888.47C2203.22 3888.47 2200.52 3889.28 2198.34 3890.91C2196.16 3892.54 2195.07 3894.51 2195.07 3896.82H2185.99C2185.99 3894.18 2186.91 3891.64 2188.77 3889.2C2190.66 3886.73 2193.2 3884.77 2196.39 3883.34C2199.61 3881.91 2203.14 3881.19 2206.98 3881.19C2213.07 3881.19 2217.84 3882.72 2221.29 3885.78C2224.74 3888.81 2226.53 3892.99 2226.66 3898.33V3922.65C2226.66 3927.5 2227.28 3931.35 2228.52 3934.22V3935H2219.04ZM2204.05 3928.12C2206.88 3928.12 2209.57 3927.38 2212.11 3925.92C2214.65 3924.45 2216.49 3922.55 2217.63 3920.21V3909.37H2210.55C2199.48 3909.37 2193.95 3912.6 2193.95 3919.08C2193.95 3921.91 2194.89 3924.13 2196.78 3925.72C2198.67 3927.32 2201.09 3928.12 2204.05 3928.12ZM2238.62 3908.14C2238.62 3900.04 2240.54 3893.53 2244.38 3888.61C2248.23 3883.67 2253.26 3881.19 2259.47 3881.19C2265.66 3881.19 2270.56 3883.31 2274.17 3887.54V3860H2283.2V3935H2274.9L2274.46 3929.34C2270.85 3933.76 2265.82 3935.98 2259.38 3935.98C2253.26 3935.98 2248.26 3933.47 2244.38 3928.46C2240.54 3923.44 2238.62 3916.9 2238.62 3908.83V3908.14ZM2247.66 3909.17C2247.66 3915.16 2248.89 3919.85 2251.37 3923.23C2253.84 3926.62 2257.26 3928.31 2261.62 3928.31C2267.35 3928.31 2271.53 3925.74 2274.17 3920.6V3896.33C2271.47 3891.35 2267.32 3888.86 2261.72 3888.86C2257.29 3888.86 2253.84 3890.57 2251.37 3893.98C2248.89 3897.4 2247.66 3902.46 2247.66 3909.17ZM2319.19 3935.98C2312.03 3935.98 2306.2 3933.63 2301.71 3928.95C2297.22 3924.23 2294.97 3917.93 2294.97 3910.05V3908.39C2294.97 3903.15 2295.96 3898.48 2297.95 3894.38C2299.97 3890.24 2302.77 3887.02 2306.35 3884.71C2309.96 3882.36 2313.87 3881.19 2318.07 3881.19C2324.93 3881.19 2330.27 3883.45 2334.08 3887.98C2337.89 3892.5 2339.79 3898.98 2339.79 3907.41V3911.17H2304C2304.13 3916.38 2305.65 3920.6 2308.54 3923.82C2311.47 3927.01 2315.19 3928.6 2319.68 3928.6C2322.87 3928.6 2325.57 3927.95 2327.78 3926.65C2330 3925.35 2331.93 3923.62 2333.59 3921.47L2339.11 3925.77C2334.68 3932.57 2328.04 3935.98 2319.19 3935.98ZM2318.07 3888.61C2314.42 3888.61 2311.36 3889.95 2308.89 3892.62C2306.41 3895.25 2304.88 3898.96 2304.3 3903.75H2330.76V3903.07C2330.5 3898.48 2329.26 3894.93 2327.05 3892.42C2324.84 3889.88 2321.84 3888.61 2318.07 3888.61ZM2358.79 3882.17L2359.03 3888.03C2362.91 3883.47 2368.13 3881.19 2374.71 3881.19C2382.1 3881.19 2387.13 3884.02 2389.79 3889.69C2391.55 3887.15 2393.83 3885.1 2396.63 3883.54C2399.46 3881.97 2402.8 3881.19 2406.64 3881.19C2418.23 3881.19 2424.12 3887.33 2424.32 3899.6V3935H2415.28V3900.14C2415.28 3896.36 2414.42 3893.54 2412.7 3891.69C2410.97 3889.8 2408.07 3888.86 2404 3888.86C2400.65 3888.86 2397.87 3889.87 2395.65 3891.88C2393.44 3893.87 2392.15 3896.56 2391.8 3899.94V3935H2382.71V3900.38C2382.71 3892.7 2378.96 3888.86 2371.44 3888.86C2365.51 3888.86 2361.46 3891.38 2359.28 3896.43V3935H2350.24V3882.17H2358.79ZM2455.27 3921.77L2467.58 3882.17H2477.25L2456.01 3943.15C2452.72 3951.94 2447.49 3956.34 2440.33 3956.34L2438.62 3956.19L2435.25 3955.56V3948.23L2437.7 3948.43C2440.76 3948.43 2443.13 3947.81 2444.82 3946.57C2446.55 3945.34 2447.97 3943.07 2449.07 3939.79L2451.07 3934.41L2432.23 3882.17H2442.09L2455.27 3921.77ZM2480.27 3930.26C2480.27 3928.7 2480.73 3927.4 2481.64 3926.36C2482.58 3925.32 2483.98 3924.79 2485.84 3924.79C2487.7 3924.79 2489.1 3925.32 2490.04 3926.36C2491.02 3927.4 2491.5 3928.7 2491.5 3930.26C2491.5 3931.76 2491.02 3933.01 2490.04 3934.02C2489.1 3935.03 2487.7 3935.54 2485.84 3935.54C2483.98 3935.54 2482.58 3935.03 2481.64 3934.02C2480.73 3933.01 2480.27 3931.76 2480.27 3930.26ZM2527.64 3928.6C2530.86 3928.6 2533.68 3927.63 2536.08 3925.67C2538.49 3923.72 2539.83 3921.28 2540.09 3918.35H2548.63C2548.47 3921.38 2547.43 3924.26 2545.51 3926.99C2543.59 3929.73 2541.02 3931.91 2537.79 3933.54C2534.6 3935.16 2531.22 3935.98 2527.64 3935.98C2520.44 3935.98 2514.71 3933.58 2510.45 3928.8C2506.22 3923.98 2504.1 3917.41 2504.1 3909.07V3907.56C2504.1 3902.42 2505.05 3897.84 2506.93 3893.84C2508.82 3889.83 2511.52 3886.73 2515.04 3884.51C2518.59 3882.3 2522.77 3881.19 2527.59 3881.19C2533.51 3881.19 2538.43 3882.97 2542.33 3886.51C2546.27 3890.06 2548.37 3894.67 2548.63 3900.33H2540.09C2539.83 3896.91 2538.53 3894.11 2536.18 3891.93C2533.87 3889.72 2531.01 3888.61 2527.59 3888.61C2523 3888.61 2519.43 3890.27 2516.89 3893.59C2514.39 3896.88 2513.13 3901.65 2513.13 3907.9V3909.61C2513.13 3915.7 2514.39 3920.38 2516.89 3923.67C2519.4 3926.96 2522.98 3928.6 2527.64 3928.6ZM2556.4 3908.1C2556.4 3902.92 2557.41 3898.26 2559.42 3894.13C2561.47 3890 2564.31 3886.81 2567.92 3884.56C2571.57 3882.31 2575.72 3881.19 2580.37 3881.19C2587.57 3881.19 2593.38 3883.68 2597.8 3888.66C2602.26 3893.64 2604.49 3900.27 2604.49 3908.54V3909.17C2604.49 3914.31 2603.5 3918.94 2601.51 3923.04C2599.56 3927.11 2596.74 3930.28 2593.07 3932.56C2589.42 3934.84 2585.22 3935.98 2580.47 3935.98C2573.31 3935.98 2567.5 3933.49 2563.04 3928.51C2558.61 3923.53 2556.4 3916.93 2556.4 3908.73V3908.1ZM2565.48 3909.17C2565.48 3915.03 2566.83 3919.73 2569.53 3923.28C2572.27 3926.83 2575.91 3928.6 2580.47 3928.6C2585.06 3928.6 2588.7 3926.81 2591.41 3923.23C2594.11 3919.62 2595.46 3914.57 2595.46 3908.1C2595.46 3902.3 2594.08 3897.61 2591.31 3894.03C2588.57 3890.42 2584.93 3888.61 2580.37 3888.61C2575.91 3888.61 2572.31 3890.39 2569.58 3893.94C2566.85 3897.48 2565.48 3902.56 2565.48 3909.17ZM2624.32 3882.17L2624.56 3888.03C2628.43 3883.47 2633.66 3881.19 2640.23 3881.19C2647.62 3881.19 2652.65 3884.02 2655.32 3889.69C2657.08 3887.15 2659.36 3885.1 2662.16 3883.54C2664.99 3881.97 2668.33 3881.19 2672.17 3881.19C2683.76 3881.19 2689.65 3887.33 2689.84 3899.6V3935H2680.81V3900.14C2680.81 3896.36 2679.95 3893.54 2678.22 3891.69C2676.5 3889.8 2673.6 3888.86 2669.53 3888.86C2666.18 3888.86 2663.4 3889.87 2661.18 3891.88C2658.97 3893.87 2657.68 3896.56 2657.32 3899.94V3935H2648.24V3900.38C2648.24 3892.7 2644.48 3888.86 2636.96 3888.86C2631.04 3888.86 2626.99 3891.38 2624.8 3896.43V3935H2615.77V3882.17H2624.32Z" fill="white"/>
<path d="M1303.32 3944.77H2696.63V3949.65H1303.32V3944.77Z" fill="white"/>
</g>
<defs>
<clipPath id="clip0">
<rect width="4000" height="4000" fill="white"/>
</clipPath>
</defs>
</svg>
