<svg width="404" height="300" viewBox="0 0 404 300" fill="none" xmlns="http://www.w3.org/2000/svg">
<path d="M403.31 263.635H0.69043V263.837H403.31V263.635Z" fill="#EBEBEB"/>
<path d="M362.968 276.592H336.298V276.793H362.968V276.592Z" fill="#EBEBEB"/>
<path d="M267.402 278.782H260.404V278.983H267.402V278.782Z" fill="#EBEBEB"/>
<path d="M335.493 269.119H320.04V269.32H335.493V269.119Z" fill="#EBEBEB"/>
<path d="M77.7119 270.472H42.9336V270.673H77.7119V270.472Z" fill="#EBEBEB"/>
<path d="M89.9839 270.472H84.8867V270.673H89.9839V270.472Z" fill="#EBEBEB"/>
<path d="M181.99 273.87H106.555V274.071H181.99V273.87Z" fill="#EBEBEB"/>
<path d="M191.533 227.722H36.0488C34.8308 227.72 33.6634 227.234 32.8028 226.372C31.9423 225.51 31.459 224.342 31.459 223.124V4.55766C31.4696 3.3466 31.9576 2.18862 32.817 1.33526C33.6764 0.481902 34.8377 0.00207461 36.0488 0H191.533C192.752 0 193.921 0.484422 194.784 1.3467C195.646 2.20898 196.13 3.37847 196.13 4.59792V223.124C196.13 224.343 195.646 225.513 194.784 226.375C193.921 227.237 192.752 227.722 191.533 227.722ZM36.0488 0.161049C34.8842 0.163182 33.768 0.627334 32.9452 1.45163C32.1224 2.27592 31.6603 3.393 31.6603 4.55766V223.124C31.6603 224.288 32.1224 225.406 32.9452 226.23C33.768 227.054 34.8842 227.518 36.0488 227.52H191.533C192.698 227.518 193.815 227.054 194.639 226.23C195.463 225.406 195.927 224.289 195.929 223.124V4.55766C195.927 3.39226 195.463 2.2752 194.639 1.45114C193.815 0.627072 192.698 0.163177 191.533 0.161049H36.0488Z" fill="#EBEBEB"/>
<path d="M365.714 227.722H210.222C209.003 227.72 207.835 227.234 206.973 226.373C206.111 225.511 205.626 224.343 205.624 223.124V4.55766C205.637 3.34586 206.127 2.1879 206.987 1.33476C207.848 0.481621 209.01 0.00205198 210.222 0H365.714C366.923 0.00419087 368.083 0.484955 368.94 1.33809C369.798 2.19122 370.285 3.34799 370.295 4.55766V223.124C370.295 224.34 369.813 225.508 368.954 226.369C368.096 227.231 366.93 227.717 365.714 227.722ZM210.222 0.161049C209.057 0.163177 207.939 0.627072 207.115 1.45114C206.291 2.2752 205.827 3.39226 205.825 4.55766V223.124C205.827 224.289 206.291 225.406 207.115 226.23C207.939 227.054 209.057 227.518 210.222 227.52H365.714C366.879 227.518 367.996 227.054 368.82 226.23C369.644 225.406 370.108 224.289 370.11 223.124V4.55766C370.108 3.39226 369.644 2.2752 368.82 1.45114C367.996 0.627072 366.879 0.163177 365.714 0.161049H210.222Z" fill="#EBEBEB"/>
<path d="M162.053 47.6138H57.0171V53.0089H162.053V47.6138Z" fill="#E0E0E0"/>
<path d="M66.4788 27.7244H61.8486V47.6138H66.4788V27.7244Z" fill="#EBEBEB"/>
<path d="M88.8562 27.7244H84.2261V47.6138H88.8562V27.7244Z" fill="#EBEBEB"/>
<path d="M114.252 27.2213L109.689 28.0078L113.067 47.6082L117.63 46.8217L114.252 27.2213Z" fill="#EBEBEB"/>
<path d="M72.2117 30.3414H67.5815V47.6138H72.2117V30.3414Z" fill="#EBEBEB"/>
<path d="M82.8489 30.3414H78.2188V47.6138H82.8489V30.3414Z" fill="#EBEBEB"/>
<path d="M109.696 30.3414H105.065V47.6138H109.696V30.3414Z" fill="#EBEBEB"/>
<path d="M94.9393 29.7462L90.4194 30.7507L94.1667 47.6117L98.6865 46.6072L94.9393 29.7462Z" fill="#EBEBEB"/>
<path d="M76.2139 26.7339H73.9028V47.6138H76.2139V26.7339Z" fill="#EBEBEB"/>
<path d="M103.737 26.7339H101.426V47.6138H103.737V26.7339Z" fill="#EBEBEB"/>
<path d="M151.971 31.8713H129.424V47.4366H151.971V31.8713Z" fill="#EBEBEB"/>
<path d="M57.0168 93.303H162.052V87.9079H57.0168V93.303Z" fill="#E0E0E0"/>
<path d="M152.583 87.9H157.213V68.0106H152.583V87.9Z" fill="#EBEBEB"/>
<path d="M130.213 87.9H134.843V68.0106H130.213V87.9Z" fill="#EBEBEB"/>
<path d="M101.433 87.1138L105.996 87.9003L109.374 68.2999L104.811 67.5134L101.433 87.1138Z" fill="#EBEBEB"/>
<path d="M146.85 87.9H151.48V70.6276H146.85V87.9Z" fill="#EBEBEB"/>
<path d="M136.212 87.9H140.842V70.6276H136.212V87.9Z" fill="#EBEBEB"/>
<path d="M109.366 87.9H113.996V70.6276H109.366V87.9Z" fill="#EBEBEB"/>
<path d="M120.392 86.8877L124.912 87.8922L128.659 71.0312L124.14 70.0267L120.392 86.8877Z" fill="#EBEBEB"/>
<path d="M142.855 87.908H145.167V67.0282H142.855V87.908Z" fill="#EBEBEB"/>
<path d="M115.332 87.908H117.643V67.0282H115.332V87.908Z" fill="#EBEBEB"/>
<path d="M67.0983 87.7228H89.645V72.1576H67.0983V87.7228Z" fill="#EBEBEB"/>
<path d="M344.335 28.8597H238.913V145.515H344.335V28.8597Z" fill="#E9E9E9"/>
<path d="M339.97 33.4819H243.55V141.134H339.97V33.4819Z" fill="#F4F4F4"/>
<path d="M270.8 33.4819L243.55 135.538V80.2904L256.023 33.4819H270.8Z" fill="white"/>
<path d="M282.983 33.4819L254.244 141.134H248.825L277.556 33.4819H282.983Z" fill="white"/>
<path d="M339.97 62.8409V118.096L333.866 141.134H319.082L339.97 62.8409Z" fill="white"/>
<path d="M293.491 28.8597H289.747V145.515H293.491V28.8597Z" fill="#E9E9E9"/>
<path d="M342.305 52.5338H240.74V56.2782H342.305V52.5338Z" fill="#E9E9E9"/>
<path d="M357.919 207.132C356.469 204.716 354.078 206.826 354.078 206.826C354.424 202.252 350.213 199.12 350.213 199.12C350.213 199.12 355.1 199.12 355.785 194.457C356.469 189.795 354.078 191.961 351.839 191.929C349.601 191.897 347.257 198.443 350.229 202.123C353.2 205.803 352.387 212.076 345.574 218.123C343.939 219.646 342.715 221.557 342.015 223.679C342.523 218.131 342.82 210.312 341.21 205.086C338.432 196.229 343.722 193.813 345.236 189.4C346.75 184.988 341.21 181.219 341.21 181.219C341.21 181.219 346.444 178.803 343.891 176.106C341.339 173.408 336.048 173.747 336.048 177.314C336.048 180.881 339.632 182.242 339.632 182.242C339.632 182.242 343.722 186.502 343.722 188.724C343.722 190.946 339.632 195.713 339.632 195.713C339.632 195.713 341.5 191.623 337.755 191.454C334.011 191.285 332.811 196.221 334.341 198.443C335.871 200.666 338.432 198.781 338.432 198.781C338.592 201.37 338.985 203.938 339.608 206.455C339.994 207.728 339.809 212.728 339.487 217.93C338.777 216.053 337.642 214.365 336.169 213.002C329.349 206.963 328.552 200.682 331.507 197.002C334.462 193.322 332.119 186.783 329.896 186.816C327.674 186.848 325.274 184.674 325.951 189.344C326.627 194.014 331.523 194.006 331.523 194.006C331.523 194.006 327.32 197.139 327.658 201.712C327.658 201.712 325.242 199.635 323.825 202.018C321.232 206.278 327.231 208.927 328.238 206.85C328.238 206.85 340.952 215.852 337.9 228.809L338.617 229.864C338.52 230.91 338.464 231.539 338.464 231.539L339.463 231.112L340.59 232.779C340.55 234.662 340.647 236.546 340.88 238.415L343.924 233.93C340.856 220.966 353.586 211.963 353.586 211.963C354.504 214.041 360.504 211.4 357.919 207.132Z" fill="#E0E0E0"/>
<path opacity="0.2" d="M357.919 207.132C356.469 204.716 354.078 206.826 354.078 206.826C354.424 202.252 350.213 199.12 350.213 199.12C350.213 199.12 355.1 199.12 355.785 194.457C356.469 189.795 354.078 191.961 351.839 191.929C349.601 191.897 347.257 198.443 350.229 202.123C353.2 205.803 352.387 212.076 345.574 218.123C343.939 219.646 342.715 221.557 342.015 223.679C342.523 218.131 342.82 210.312 341.21 205.086C338.432 196.229 343.722 193.813 345.236 189.4C346.75 184.988 341.21 181.219 341.21 181.219C341.21 181.219 346.444 178.803 343.891 176.106C341.339 173.408 336.048 173.747 336.048 177.314C336.048 180.881 339.632 182.242 339.632 182.242C339.632 182.242 343.722 186.502 343.722 188.724C343.722 190.946 339.632 195.713 339.632 195.713C339.632 195.713 341.5 191.623 337.755 191.454C334.011 191.285 332.811 196.221 334.341 198.443C335.871 200.666 338.432 198.781 338.432 198.781C338.592 201.37 338.985 203.938 339.608 206.455C339.994 207.728 339.809 212.728 339.487 217.93C338.777 216.053 337.642 214.365 336.169 213.002C329.349 206.963 328.552 200.682 331.507 197.002C334.462 193.322 332.119 186.783 329.896 186.816C327.674 186.848 325.274 184.674 325.951 189.344C326.627 194.014 331.523 194.006 331.523 194.006C331.523 194.006 327.32 197.139 327.658 201.712C327.658 201.712 325.242 199.635 323.825 202.018C321.232 206.278 327.231 208.927 328.238 206.85C328.238 206.85 340.952 215.852 337.9 228.809L338.617 229.864C338.52 230.91 338.464 231.539 338.464 231.539L339.463 231.112L340.59 232.779C340.55 234.662 340.647 236.546 340.88 238.415L343.924 233.93C340.856 220.966 353.586 211.963 353.586 211.963C354.504 214.041 360.504 211.4 357.919 207.132Z" fill="#E0E0E0"/>
<path d="M355.431 262.411H326.297L323.157 230.516H358.571L355.431 262.411Z" fill="#E6E6E6"/>
<path d="M360.125 226.997H321.603V234.035H360.125V226.997Z" fill="#F0F0F0"/>
<path d="M202 300C288.227 300 358.128 295.919 358.128 290.885C358.128 285.85 288.227 281.769 202 281.769C115.773 281.769 45.8721 285.85 45.8721 290.885C45.8721 295.919 115.773 300 202 300Z" fill="#F5F5F5"/>
<path d="M54.2061 289.79H195.944V111.993H54.2061V289.79Z" fill="#133551"/>
<path opacity="0.5" d="M196.017 111.985H54.1982V289.323H196.017V111.985Z" fill="white"/>
<path opacity="0.2" d="M191.749 117.565H79.3457V150.314H191.749V117.565Z" fill="black"/>
<path opacity="0.5" d="M85.7313 122.872H79.3457V150.322H85.7313V122.872Z" fill="white"/>
<path opacity="0.5" d="M116.604 122.872H110.219V150.322H116.604V122.872Z" fill="white"/>
<path opacity="0.5" d="M151.657 122.181L145.365 123.265L150.028 150.317L156.32 149.232L151.657 122.181Z" fill="white"/>
<path opacity="0.5" d="M93.639 126.487H87.2534V150.322H93.639V126.487Z" fill="white"/>
<path opacity="0.5" d="M108.318 126.487H101.933V150.322H108.318V126.487Z" fill="white"/>
<path opacity="0.5" d="M145.367 126.487H138.981V150.322H145.367V126.487Z" fill="white"/>
<path opacity="0.5" d="M124.999 125.661L118.765 127.047L123.936 150.314L130.17 148.929L124.999 125.661Z" fill="white"/>
<path opacity="0.5" d="M99.1624 121.511H95.9736V150.322H99.1624V121.511Z" fill="white"/>
<path opacity="0.5" d="M137.138 121.511H133.949V150.322H137.138V121.511Z" fill="white"/>
<path opacity="0.2" d="M79.3457 188.257H191.749V155.508H79.3457V188.257Z" fill="black"/>
<path opacity="0.5" d="M185.363 188.257H191.749V160.806H185.363V188.257Z" fill="white"/>
<path opacity="0.5" d="M154.483 188.257H160.868V160.806H154.483V188.257Z" fill="white"/>
<path opacity="0.5" d="M114.776 187.169L121.068 188.254L125.731 161.202L119.439 160.118L114.776 187.169Z" fill="white"/>
<path opacity="0.5" d="M177.456 188.257H183.842V164.422H177.456V188.257Z" fill="white"/>
<path opacity="0.5" d="M162.769 188.257H169.154V164.422H162.769V188.257Z" fill="white"/>
<path opacity="0.5" d="M125.727 188.257H132.113V164.422H125.727V188.257Z" fill="white"/>
<path opacity="0.5" d="M140.942 186.864L147.175 188.249L152.346 164.982L146.113 163.596L140.942 186.864Z" fill="white"/>
<path opacity="0.5" d="M171.932 188.257H175.121V159.445H171.932V188.257Z" fill="white"/>
<path opacity="0.5" d="M133.957 188.257H137.146V159.445H133.957V188.257Z" fill="white"/>
<path opacity="0.5" d="M85.7313 160.806H79.3457V188.257H85.7313V160.806Z" fill="white"/>
<path opacity="0.5" d="M93.639 164.422H87.2534V188.257H93.639V164.422Z" fill="white"/>
<path opacity="0.5" d="M108.318 164.422H101.933V188.257H108.318V164.422Z" fill="white"/>
<path opacity="0.5" d="M99.1624 159.445H95.9736V188.257H99.1624V159.445Z" fill="white"/>
<path opacity="0.2" d="M191.749 193.443H79.3457V226.192H191.749V193.443Z" fill="black"/>
<g opacity="0.5">
<path opacity="0.5" d="M150.247 198.749H143.862V226.2H150.247V198.749Z" fill="white"/>
<path opacity="0.5" d="M185.3 198.053L179.007 199.138L183.67 226.19L189.963 225.105L185.3 198.053Z" fill="white"/>
<path opacity="0.5" d="M127.282 202.365H120.896V226.2H127.282V202.365Z" fill="white"/>
<path opacity="0.5" d="M141.961 202.365H135.576V226.2H141.961V202.365Z" fill="white"/>
<path opacity="0.5" d="M179.003 202.365H172.617V226.2H179.003V202.365Z" fill="white"/>
<path opacity="0.5" d="M158.64 201.532L152.407 202.917L157.578 226.185L163.811 224.799L158.64 201.532Z" fill="white"/>
<path opacity="0.5" d="M132.798 197.38H129.609V226.192H132.798V197.38Z" fill="white"/>
<path opacity="0.5" d="M170.781 197.38H167.592V226.192H170.781V197.38Z" fill="white"/>
<path opacity="0.5" d="M111.843 198.059L105.55 199.143L110.213 226.195L116.506 225.11L111.843 198.059Z" fill="white"/>
<path opacity="0.5" d="M105.541 202.365H99.1553V226.2H105.541V202.365Z" fill="white"/>
<path opacity="0.5" d="M85.1807 201.542L78.9473 202.927L84.1183 226.195L90.3518 224.809L85.1807 201.542Z" fill="white"/>
<path opacity="0.5" d="M97.3186 197.38H94.1299V226.192H97.3186V197.38Z" fill="white"/>
</g>
<path opacity="0.2" d="M54.2061 289.79H75.0698V111.993H54.2061V289.79Z" fill="black"/>
<path opacity="0.1" d="M190.912 232.006H137.71V282.39H190.912V232.006Z" fill="black"/>
<path opacity="0.1" d="M133.466 232.006H79.3457V282.39H133.466V232.006Z" fill="black"/>
<path opacity="0.2" d="M130.229 254.641C130.229 255.147 130.079 255.642 129.797 256.063C129.516 256.485 129.116 256.813 128.648 257.007C128.18 257.2 127.665 257.251 127.169 257.152C126.672 257.054 126.216 256.81 125.857 256.452C125.499 256.093 125.255 255.637 125.157 255.14C125.058 254.644 125.109 254.129 125.302 253.661C125.496 253.193 125.824 252.793 126.245 252.512C126.667 252.23 127.162 252.08 127.668 252.08C128.347 252.08 128.999 252.35 129.479 252.83C129.959 253.31 130.229 253.962 130.229 254.641Z" fill="black"/>
<path opacity="0.2" d="M145.529 254.641C145.529 255.147 145.378 255.642 145.097 256.063C144.816 256.485 144.416 256.813 143.948 257.007C143.48 257.2 142.965 257.251 142.468 257.152C141.972 257.054 141.515 256.81 141.157 256.452C140.799 256.093 140.555 255.637 140.456 255.14C140.358 254.644 140.408 254.129 140.602 253.661C140.796 253.193 141.124 252.793 141.545 252.512C141.966 252.23 142.461 252.08 142.968 252.08C143.647 252.08 144.298 252.35 144.779 252.83C145.259 253.31 145.529 253.962 145.529 254.641Z" fill="black"/>
<path d="M289.803 129.12H279.456L282.21 158.745L265.847 161.201V163.262H300.311V161.201L293.249 158.745L289.803 129.12Z" fill="#263238"/>
<path d="M249.63 147.922C249.576 148.376 249.619 148.836 249.757 149.272C249.895 149.707 250.124 150.108 250.428 150.449C250.733 150.789 251.106 151.061 251.524 151.246C251.942 151.431 252.394 151.525 252.851 151.522H315.539C316.518 151.502 317.457 151.125 318.179 150.463C318.901 149.8 319.356 148.897 319.46 147.922L323.18 107.822C323.224 107.431 323.196 107.035 323.1 106.654C322.919 105.955 322.509 105.337 321.935 104.899C321.362 104.461 320.657 104.228 319.935 104.238H257.271C256.292 104.258 255.353 104.635 254.631 105.297C253.909 105.96 253.454 106.863 253.35 107.838L249.63 147.922Z" fill="#263238"/>
<path d="M315.539 149.509C316.017 149.491 316.473 149.302 316.825 148.978C317.176 148.653 317.4 148.213 317.455 147.737L321.175 107.636C321.205 107.474 321.205 107.308 321.175 107.145C321.113 106.876 320.958 106.637 320.737 106.47C320.516 106.304 320.244 106.221 319.968 106.235H257.272C256.794 106.253 256.339 106.442 255.989 106.767C255.639 107.092 255.417 107.532 255.363 108.007L251.643 148.108C251.62 148.289 251.635 148.473 251.688 148.648C251.74 148.823 251.829 148.984 251.949 149.122C252.067 149.25 252.212 149.351 252.374 149.418C252.535 149.485 252.709 149.516 252.883 149.509H315.539Z" fill="#133551"/>
<path opacity="0.6" d="M315.539 149.509C316.017 149.491 316.473 149.302 316.825 148.978C317.176 148.653 317.4 148.213 317.455 147.737L321.175 107.636C321.205 107.474 321.205 107.308 321.175 107.145C321.113 106.876 320.958 106.637 320.737 106.47C320.516 106.304 320.244 106.221 319.968 106.235H257.272C256.794 106.253 256.339 106.442 255.989 106.767C255.639 107.092 255.417 107.532 255.363 108.007L251.643 148.108C251.62 148.289 251.635 148.473 251.688 148.648C251.74 148.823 251.829 148.984 251.949 149.122C252.067 149.25 252.212 149.351 252.374 149.418C252.535 149.485 252.709 149.516 252.883 149.509H315.539Z" fill="white"/>
<path d="M271.983 138.888C271.983 138.888 270.711 116.47 276.235 111.349C281.759 106.227 289.199 107.717 293.145 110.455C297.09 113.193 301.423 120.303 297.493 141.432L271.983 138.888Z" fill="#263238"/>
<path d="M297.349 149.509C297.344 149.474 297.344 149.439 297.349 149.404C297.826 147.874 298.363 146.223 298.959 144.452C299.402 143.107 299.877 141.682 300.408 140.176C297.248 139.167 294.019 138.389 290.746 137.849C287.303 137.238 283.821 136.872 280.326 136.754C275.808 136.714 270.623 137.221 270.623 137.221C270.623 137.221 269.882 137.398 269.423 142.189C269.262 143.912 269.101 146.304 269.012 149.509H297.349Z" fill="#133551"/>
<path d="M297.348 149.509C297.343 149.474 297.343 149.439 297.348 149.404C297.826 147.874 298.362 146.223 298.958 144.452C299.401 143.107 299.876 141.682 300.408 140.176C297.248 139.167 294.018 138.389 290.745 137.849C287.302 137.238 283.82 136.872 280.325 136.754C275.808 136.714 270.622 137.221 270.622 137.221C270.622 137.221 269.881 137.398 269.422 142.189C269.277 143.735 269.14 146.215 269.068 149.509H297.348Z" fill="#133551"/>
<g opacity="0.2">
<path opacity="0.2" d="M297.349 149.509C297.344 149.474 297.344 149.439 297.349 149.404C297.826 147.874 298.363 146.223 298.959 144.452C299.402 143.107 299.877 141.682 300.408 140.176C297.248 139.167 294.019 138.389 290.746 137.849C287.303 137.238 283.821 136.872 280.326 136.754C275.808 136.714 270.623 137.221 270.623 137.221C270.623 137.221 269.882 137.398 269.423 142.189C269.262 143.912 269.101 146.304 269.012 149.509H297.349Z" fill="black"/>
<path opacity="0.2" d="M297.348 149.509C297.344 149.474 297.344 149.439 297.348 149.404C297.826 147.874 298.363 146.223 298.959 144.452C299.402 143.107 299.877 141.682 300.408 140.176C297.248 139.167 294.019 138.389 290.745 137.849C287.302 137.238 283.82 136.872 280.326 136.754C275.808 136.714 270.622 137.221 270.622 137.221C270.622 137.221 269.882 137.398 269.423 142.189C269.278 143.735 269.141 146.215 269.068 149.509H297.348Z" fill="black"/>
</g>
<path d="M270.18 149.509L269.777 142.858L269.431 137.221C268.046 137.495 264.366 143.8 261.298 149.509H270.18Z" fill="white"/>
<path opacity="0.2" d="M270.18 149.509L269.777 142.858C268.096 144.868 266.716 147.111 265.678 149.517L270.18 149.509Z" fill="black"/>
<path d="M304.419 149.509C301.954 142.302 300.433 140.176 300.433 140.176L297.123 149.509H304.419Z" fill="white"/>
<path d="M282.283 141.875C288 141.142 289.723 138.703 289.723 138.703C286.091 135.28 289.111 129.346 289.111 129.346L282.226 130.626C282.384 131.585 282.473 132.553 282.492 133.525C282.54 137.704 280.656 137.752 280.656 137.752C279.448 140.015 282.283 141.875 282.283 141.875Z" fill="#EEC1BB"/>
<path opacity="0.2" d="M282.226 130.626C282.384 131.585 282.472 132.553 282.492 133.525C287.146 133.525 289.111 129.346 289.111 129.346L282.226 130.626Z" fill="black"/>
<path d="M286.027 111.373C280.044 111.051 277.974 114.151 277.169 120.295C276.203 127.969 277.612 133.541 285.221 132.301C295.464 130.626 295.971 111.928 286.027 111.373Z" fill="#EEC1BB"/>
<path d="M281.05 120.166C280.526 121.045 279.896 121.857 279.174 122.582C279.331 122.845 279.558 123.059 279.829 123.202C280.101 123.344 280.406 123.408 280.712 123.387L281.05 120.166Z" fill="#D4827D"/>
<path d="M285.028 115.753C285.504 115.721 285.981 115.798 286.423 115.98C286.864 116.161 287.258 116.442 287.573 116.8" stroke="#263238" stroke-width="0.72468" stroke-linecap="round" stroke-linejoin="round"/>
<path d="M280.696 115.262C280.293 115.136 279.866 115.102 279.448 115.163C279.029 115.224 278.63 115.379 278.28 115.616" stroke="#263238" stroke-width="0.72468" stroke-linecap="round" stroke-linejoin="round"/>
<path d="M281.461 125.722C281.706 126.413 281.9 127.121 282.041 127.84H282.428C284.183 127.759 284.972 127.147 285.31 126.487C285.471 126.162 285.549 125.802 285.536 125.44C285.542 125.234 285.518 125.028 285.463 124.828C284.406 125.365 283.243 125.662 282.057 125.698C281.719 125.722 281.461 125.722 281.461 125.722Z" fill="#263238"/>
<path d="M282.057 125.682L282.242 126.302C283.893 126.221 285.045 125.948 285.536 125.424C285.542 125.218 285.517 125.011 285.463 124.812C284.406 125.349 283.243 125.646 282.057 125.682Z" fill="white"/>
<path d="M282.427 127.824C284.183 127.743 284.972 127.131 285.31 126.471C284.645 126.512 283.993 126.673 283.385 126.946C282.983 127.132 282.648 127.439 282.427 127.824Z" fill="#DE5753"/>
<path d="M292.017 121.825C292.017 121.825 289.489 116.752 290.117 112.967C290.117 112.967 278.522 107.475 277.282 119.481C277.282 119.481 276.71 108.732 287.009 109.054C297.308 109.376 296.446 124.426 290.882 128.621C290.882 128.629 293.58 124.989 292.017 121.825Z" fill="#263238"/>
<path d="M290.971 123.033C291.069 122.345 291.434 121.723 291.987 121.303C292.541 120.882 293.237 120.696 293.926 120.786C295.77 121.092 296.447 124.949 291.784 125.617C291.116 125.706 290.778 125.038 290.971 123.033Z" fill="#EEC1BB"/>
<path d="M283.498 119.932C283.498 119.932 284.98 118.636 286.107 119.699C285.247 119.863 284.373 119.942 283.498 119.932Z" fill="#263238"/>
<path d="M280.672 119.86C280.672 119.86 279.327 118.427 278.095 119.369C278.936 119.615 279.799 119.78 280.672 119.86Z" fill="#263238"/>
<path d="M295.029 139.306C295.029 139.306 288.305 144.758 282.057 144.669C275.808 144.581 273.602 137.543 273.602 137.543C273.602 137.543 283.329 134.708 295.029 139.306Z" fill="#EEC1BB"/>
<path d="M298.331 149.509C298.935 146.288 299.627 143.067 300.424 140.176L294.457 138.308C292.65 141.843 291.344 145.613 290.576 149.509H298.331Z" fill="white"/>
<path d="M273.456 149.509C274.173 143.614 274.221 136.754 274.221 136.754L269.43 137.221C268.247 140.442 267.618 144.887 267.312 149.509H273.456Z" fill="white"/>
<path d="M283.498 110.004C281.838 110.145 280.262 110.798 278.989 111.873C277.715 112.947 276.807 114.39 276.388 116.003C278.144 114.966 280.195 114.544 282.218 114.803C282.583 114.044 283.011 113.317 283.498 112.629C283.139 113.327 282.903 114.081 282.797 114.859C283.886 114.981 284.963 115.189 286.018 115.479C286.317 114.898 286.688 114.357 287.122 113.869C286.902 114.463 286.78 115.088 286.759 115.721C287.561 115.958 288.349 116.24 289.119 116.567C289.414 115.073 290.029 113.661 290.922 112.428C290.922 112.428 289.408 109.456 283.498 110.004Z" fill="#263238"/>
<path d="M292.074 124.691C292.053 124.666 292.035 124.639 292.018 124.611C291.857 124.319 291.798 123.982 291.849 123.653C291.937 122.952 292.984 121.237 293.797 122.235C293.983 122.497 294.069 122.817 294.039 123.137C294.022 123.574 293.903 124.002 293.693 124.385C293.615 124.558 293.497 124.71 293.348 124.827C293.2 124.945 293.025 125.026 292.839 125.062C292.691 125.071 292.542 125.041 292.408 124.976C292.274 124.911 292.159 124.813 292.074 124.691Z" fill="#133551"/>
<path opacity="0.2" d="M292.074 124.691C292.053 124.666 292.035 124.639 292.018 124.611C291.857 124.319 291.798 123.982 291.849 123.653C291.937 122.952 292.984 121.237 293.797 122.235C293.983 122.497 294.069 122.817 294.039 123.137C294.022 123.574 293.903 124.002 293.693 124.385C293.615 124.558 293.497 124.71 293.348 124.827C293.2 124.945 293.025 125.026 292.839 125.062C292.691 125.071 292.542 125.041 292.408 124.976C292.274 124.911 292.159 124.813 292.074 124.691Z" fill="black"/>
<path d="M292.186 123.588C292.186 123.588 292.903 122.074 293.386 122.356C293.869 122.638 293.676 123.967 293.209 124.224C292.919 124.395 292.699 124.663 292.589 124.981C292.589 124.981 290.6 127.397 290.077 127.147V126.471C291.038 125.728 291.769 124.729 292.186 123.588Z" fill="#133551"/>
<path d="M279.496 292.431H284.432L293.298 169.036H286.751L279.496 292.431Z" fill="#263238"/>
<path opacity="0.4" d="M279.496 292.431H284.432L292.863 175.164L293.298 169.229H286.751L286.397 175.164L279.496 292.431Z" fill="white"/>
<path opacity="0.2" d="M286.397 174.866H292.863L293.298 169.229H286.751L286.397 174.866Z" fill="black"/>
<path d="M243.293 292.431H248.229L249.034 169.036H242.487L243.293 292.431Z" fill="#263238"/>
<path opacity="0.5" d="M242.487 169.229L242.616 189.143L243.293 292.431H248.229L248.905 189.143L249.034 169.229H242.487Z" fill="white"/>
<path opacity="0.2" d="M242.487 169.229L242.616 189.36H248.905L249.034 169.229H242.487Z" fill="black"/>
<path d="M190.92 292.431H195.856L204.722 169.036H198.175L190.92 292.431Z" fill="#263238"/>
<path opacity="0.5" d="M190.92 292.431H195.856L204.287 175.164L204.722 169.229H198.175L197.821 175.164L190.92 292.431Z" fill="white"/>
<path opacity="0.2" d="M197.82 174.866H204.286L204.721 169.229H198.175L197.82 174.866Z" fill="black"/>
<path d="M335.927 292.431H340.864L333.616 169.036H327.07L335.927 292.431Z" fill="#263238"/>
<path opacity="0.5" d="M327.07 169.229L327.505 175.164L335.935 292.431H340.864L333.971 175.164L333.616 169.229H327.07Z" fill="white"/>
<path opacity="0.2" d="M333.616 169.229H327.07L327.505 174.866H333.971L333.616 169.229Z" fill="black"/>
<path d="M337.03 172.12H194.721C194.492 172.12 194.266 172.075 194.055 171.987C193.844 171.9 193.652 171.772 193.491 171.61C193.329 171.449 193.201 171.257 193.114 171.046C193.026 170.835 192.981 170.609 192.981 170.381V165.944H338.794V170.381C338.794 170.611 338.748 170.839 338.659 171.052C338.57 171.264 338.44 171.457 338.276 171.619C338.112 171.781 337.917 171.909 337.704 171.994C337.49 172.08 337.261 172.123 337.03 172.12Z" fill="#133551"/>
<path opacity="0.6" d="M337.03 172.12H194.721C194.492 172.12 194.266 172.075 194.055 171.987C193.844 171.9 193.652 171.772 193.491 171.61C193.329 171.449 193.201 171.257 193.114 171.046C193.026 170.835 192.981 170.609 192.981 170.381V165.944H338.794V170.381C338.794 170.611 338.748 170.839 338.659 171.052C338.57 171.264 338.44 171.457 338.276 171.619C338.112 171.781 337.917 171.909 337.704 171.994C337.49 172.08 337.261 172.123 337.03 172.12Z" fill="white"/>
<path opacity="0.2" d="M192.981 169.028H338.794V165.936H192.981V169.028Z" fill="black"/>
<path d="M189.921 166.749H341.862C342.09 166.749 342.317 166.704 342.528 166.617C342.739 166.529 342.93 166.401 343.092 166.24C343.253 166.078 343.382 165.886 343.469 165.675C343.556 165.464 343.601 165.238 343.601 165.01C343.601 164.548 343.418 164.104 343.092 163.777C342.766 163.449 342.324 163.264 341.862 163.262H189.921C189.459 163.264 189.017 163.449 188.691 163.777C188.365 164.104 188.182 164.548 188.182 165.01C188.182 165.238 188.227 165.464 188.315 165.675C188.402 165.886 188.53 166.078 188.692 166.24C188.853 166.401 189.045 166.529 189.256 166.617C189.467 166.704 189.693 166.749 189.921 166.749Z" fill="#133551"/>
<path opacity="0.6" d="M189.921 166.749H341.862C342.09 166.749 342.317 166.704 342.528 166.617C342.739 166.529 342.93 166.401 343.092 166.24C343.253 166.078 343.382 165.886 343.469 165.675C343.556 165.464 343.601 165.238 343.601 165.01C343.601 164.548 343.418 164.104 343.092 163.777C342.766 163.449 342.324 163.264 341.862 163.262H189.921C189.459 163.264 189.017 163.449 188.691 163.777C188.365 164.104 188.182 164.548 188.182 165.01C188.182 165.238 188.227 165.464 188.315 165.675C188.402 165.886 188.53 166.078 188.692 166.24C188.853 166.401 189.045 166.529 189.256 166.617C189.467 166.704 189.693 166.749 189.921 166.749Z" fill="white"/>
<path d="M279.553 163.262L278.756 160.267H246.103L231.069 161.765L230.498 163.262H279.553Z" fill="#263238"/>
<path opacity="0.4" d="M246.103 160.267V163.262H279.553L278.756 160.267H246.103Z" fill="black"/>
<path d="M339.841 158.882C339.907 160.384 339.632 161.882 339.036 163.262H304.411V162.457H305.111V155.331H304.411V154.525H339.036C339.619 155.901 339.894 157.388 339.841 158.882Z" fill="#263238"/>
<path opacity="0.2" d="M339.841 158.882C339.907 160.384 339.632 161.882 339.036 163.262H304.411V162.457H305.111V155.331H304.411V154.525H339.036C339.619 155.901 339.894 157.388 339.841 158.882Z" fill="white"/>
<path opacity="0.2" d="M321.321 158.882C321.387 160.384 321.111 161.882 320.515 163.262H304.411V162.457H305.111V155.331H304.411V154.525H320.515C321.099 155.901 321.374 157.388 321.321 158.882Z" fill="black"/>
<path opacity="0.8" d="M319.613 158.882C319.667 160.102 319.444 161.319 318.961 162.441H305.119V155.315H318.961C319.438 156.441 319.66 157.659 319.613 158.882Z" fill="white"/>
<path opacity="0.6" d="M334.204 158.882C334.27 160.384 333.995 161.882 333.399 163.262H326.957C327.553 161.882 327.828 160.384 327.762 158.882C327.82 157.377 327.545 155.879 326.957 154.493H333.399C333.987 155.879 334.262 157.377 334.204 158.882Z" fill="white"/>
<path d="M342.917 150.113C342.983 151.615 342.707 153.113 342.112 154.493H307.486V153.688H308.187V146.554H307.486V145.748H342.112C342.696 147.127 342.971 148.617 342.917 150.113Z" fill="#133551"/>
<path opacity="0.2" d="M324.396 150.113C324.462 151.615 324.187 153.113 323.591 154.493H307.486V153.688H308.187V146.554H307.486V145.748H323.591C324.176 147.127 324.451 148.617 324.396 150.113Z" fill="black"/>
<path opacity="0.8" d="M322.697 150.113C322.751 151.333 322.528 152.55 322.045 153.672H308.203V146.554H322.045C322.521 147.678 322.743 148.893 322.697 150.113Z" fill="white"/>
<path opacity="0.2" d="M337.28 150.113C337.346 151.615 337.071 153.113 336.475 154.493H330.033C330.629 153.113 330.904 151.615 330.838 150.113C330.896 148.608 330.621 147.11 330.033 145.724H336.475C337.063 147.11 337.338 148.608 337.28 150.113Z" fill="black"/>
<path d="M280.012 58.863H255.798C254.451 58.863 253.358 59.9554 253.358 61.3029V85.5165C253.358 86.864 254.451 87.9563 255.798 87.9563H280.012C281.359 87.9563 282.452 86.864 282.452 85.5165V61.3029C282.452 59.9554 281.359 58.863 280.012 58.863Z" fill="#133551"/>
<path d="M264.576 85.3554C264.576 85.3554 266.057 93.5527 276.888 97.2488C276.888 97.2488 270.736 91.3061 270.736 85.3554H264.576Z" fill="#133551"/>
<path d="M261.322 67.9623H274.496" stroke="white" stroke-width="2" stroke-miterlimit="10"/>
<path d="M265.702 64.7736C265.184 69.8354 266.393 74.9238 269.133 79.2115" stroke="white" stroke-width="2" stroke-miterlimit="10"/>
<path d="M271.002 78.3177C271.002 78.3177 274.496 77.7298 273.627 74.5411C272.862 71.7147 265.027 70.2009 263.038 75.1289C261.508 78.8974 265.204 78.2774 267.354 77.0937C271.106 75.0162 271.879 70.2975 271.879 70.2975" stroke="white" stroke-width="2" stroke-miterlimit="10"/>
<path d="M206.985 85.3554C206.985 85.3554 208.467 93.5527 219.297 97.2488C219.297 97.2488 213.145 91.3061 213.145 85.3554H206.985Z" fill="#133551"/>
<path opacity="0.6" d="M206.985 85.3554C206.985 85.3554 208.467 93.5527 219.297 97.2488C219.297 97.2488 213.145 91.3061 213.145 85.3554H206.985Z" fill="white"/>
<path d="M222.445 58.863H198.232C196.884 58.863 195.792 59.9554 195.792 61.3029V85.5165C195.792 86.864 196.884 87.9563 198.232 87.9563H222.445C223.793 87.9563 224.885 86.864 224.885 85.5165V61.3029C224.885 59.9554 223.793 58.863 222.445 58.863Z" fill="#133551"/>
<path opacity="0.6" d="M222.445 58.863H198.232C196.884 58.863 195.792 59.9554 195.792 61.3029V85.5165C195.792 86.864 196.884 87.9563 198.232 87.9563H222.445C223.793 87.9563 224.885 86.864 224.885 85.5165V61.3029C224.885 59.9554 223.793 58.863 222.445 58.863Z" fill="white"/>
<path d="M213.274 78.3176L212.291 75.5557H208.483L207.5 78.3176H205.326L209.401 66.8752H211.374L215.448 78.3176H213.274ZM210.383 70.1767L209.248 73.5265H211.623L210.383 70.1767Z" fill="#133551"/>
<path d="M281.469 149.436L271.533 158.632L272.91 159.751L282.524 150.58C282.667 150.43 282.747 150.231 282.747 150.024C282.747 149.817 282.667 149.618 282.524 149.468C282.382 149.337 282.197 149.261 282.003 149.256C281.809 149.25 281.62 149.314 281.469 149.436Z" fill="#133551"/>
<path d="M267.482 156.917L273.32 154.26C273.32 154.26 278.208 153.35 280.221 153.801C282.234 154.252 286.703 160.315 286.599 161.048C286.494 161.781 278.86 163.6 278.691 163.6C278.522 163.6 275.221 161.724 275.221 161.724L269.818 163.6L267.482 156.917Z" fill="#E4897B"/>
<path d="M216.921 284.201L223.331 283.323L224.225 268.072L217.815 268.958L216.921 284.201Z" fill="#EBB376"/>
<path opacity="0.2" d="M217.815 268.958L224.225 268.08L223.71 276.801L217.316 277.357L217.815 268.958Z" fill="black"/>
<path d="M217.179 194.562L215.569 184.762L179.607 182.612C179.607 182.612 175.782 203.009 178.721 208.444C183.971 218.147 212.235 213.276 220.505 214.21C215.561 234.429 216.044 273.942 216.044 273.942L227.857 274.844C227.857 274.844 236.948 232.263 238.784 212.036C240.064 198.379 228.758 198.725 217.179 194.562Z" fill="#133551"/>
<path d="M214.699 274.498L228.896 275.432L230.112 269.353L214.514 268.628L214.699 274.498Z" fill="#133551"/>
<path opacity="0.2" d="M214.699 274.498L228.896 275.432L230.112 269.353L214.514 268.628L214.699 274.498Z" fill="white"/>
<path d="M223.814 282.55L216.567 282.099C216.508 282.093 216.448 282.098 216.39 282.115C216.333 282.131 216.28 282.159 216.233 282.197C216.187 282.234 216.148 282.28 216.12 282.333C216.091 282.385 216.074 282.443 216.068 282.502L215.359 288.219C215.341 288.52 215.442 288.815 215.639 289.042C215.836 289.269 216.114 289.41 216.414 289.435C218.95 289.548 220.158 289.475 223.355 289.653C226.182 289.946 229.026 290.037 231.866 289.926C234.572 289.661 234.242 287.003 233.074 286.875C230.304 286.561 226.632 284.523 224.909 282.985C224.603 282.721 224.218 282.568 223.814 282.55Z" fill="#263238"/>
<path d="M231.714 284.145L238.172 284.62L242.222 269.892L235.772 269.425L231.714 284.145Z" fill="#EBB376"/>
<path d="M239.041 284.91C239.041 284.91 239.041 284.91 239.041 284.958H239.098C239.609 285.241 240.149 285.468 240.708 285.634C241.113 285.787 241.56 285.787 241.965 285.634C242.097 285.558 242.206 285.446 242.277 285.311C242.348 285.175 242.38 285.022 242.367 284.869C242.375 284.774 242.36 284.677 242.322 284.589C242.284 284.5 242.225 284.423 242.15 284.362C241.571 284.13 240.928 284.113 240.338 284.314C240.799 284 241.138 283.536 241.296 283.001C241.306 282.874 241.272 282.748 241.2 282.643C241.128 282.537 241.023 282.459 240.902 282.422C240.801 282.372 240.691 282.346 240.58 282.346C240.468 282.346 240.358 282.372 240.257 282.422C239.452 282.848 239.162 284.66 239.138 284.757C239.103 284.761 239.068 284.761 239.033 284.757C239.015 284.779 239.006 284.806 239.007 284.835C239.009 284.863 239.021 284.89 239.041 284.91ZM239.517 284.547L239.372 284.596C239.525 284 239.855 283.026 240.322 282.776C240.373 282.744 240.43 282.724 240.49 282.715C240.549 282.707 240.61 282.711 240.668 282.728H240.741C240.942 282.808 240.966 282.929 240.95 283.017C240.934 283.444 240.185 284.201 239.549 284.547H239.517ZM239.517 284.886C240.37 284.62 241.554 284.394 241.932 284.66C241.971 284.688 242.002 284.726 242.02 284.77C242.039 284.814 242.044 284.863 242.037 284.91C242.045 285.006 242.027 285.102 241.984 285.189C241.942 285.275 241.876 285.349 241.795 285.401C241.457 285.602 240.652 285.409 239.573 284.886H239.517Z" fill="#133551"/>
<path opacity="0.2" d="M235.772 269.425L242.214 269.9L239.903 278.315L233.525 277.534L235.772 269.425Z" fill="black"/>
<path d="M244.404 277.276L233.034 273.934C233.034 273.934 239.822 235.621 246.723 222.335C246.208 222.165 245.524 221.948 244.678 221.698C243.156 221.239 241.135 220.668 238.76 220.007C222.236 215.426 188.746 206.834 188.746 206.834L204.046 192.557C204.046 192.557 264.986 201.849 266.25 217.906C266.838 225.628 244.404 277.276 244.404 277.276Z" fill="#133551"/>
<path d="M231.569 274.192L245.258 278.057L247.714 272.364L232.608 268.41L231.569 274.192Z" fill="#133551"/>
<path opacity="0.2" d="M231.569 274.192L245.258 278.057L247.714 272.364L232.608 268.41L231.569 274.192Z" fill="white"/>
<path d="M238.808 283.968L231.794 282.011C231.678 281.975 231.552 281.986 231.444 282.042C231.336 282.098 231.253 282.193 231.215 282.309L229.379 287.76C229.338 287.905 229.328 288.057 229.346 288.206C229.365 288.355 229.413 288.499 229.488 288.629C229.563 288.76 229.663 288.874 229.783 288.965C229.902 289.056 230.038 289.123 230.184 289.161C232.6 289.806 233.84 289.967 236.924 290.82C239.629 291.695 242.392 292.379 245.194 292.866C247.891 293.172 248.125 290.498 247.005 290.128C244.364 289.242 241.208 286.496 239.839 284.62C239.579 284.292 239.216 284.062 238.808 283.968Z" fill="#263238"/>
<path d="M223.975 283.34H224.104C224.104 283.34 224.249 283.388 224.273 283.404C224.297 283.42 224.273 283.404 224.273 283.404H224.33C224.877 283.574 225.441 283.685 226.013 283.734C226.439 283.814 226.88 283.727 227.245 283.493C227.354 283.393 227.433 283.265 227.474 283.123C227.516 282.981 227.517 282.83 227.478 282.687C227.466 282.591 227.43 282.5 227.374 282.422C227.317 282.343 227.243 282.279 227.156 282.236C226.526 282.153 225.887 282.296 225.352 282.639C225.737 282.242 225.964 281.718 225.988 281.165C225.964 281.035 225.897 280.916 225.798 280.827C225.699 280.738 225.573 280.684 225.441 280.674C225.316 280.653 225.188 280.657 225.065 280.686C224.942 280.715 224.826 280.768 224.724 280.843C224.048 281.423 223.919 283.259 223.919 283.364L223.975 283.34ZM224.668 282.969L224.531 283.042C224.498 282.34 224.69 281.646 225.078 281.061C225.123 281.02 225.175 280.988 225.231 280.967C225.288 280.946 225.348 280.937 225.409 280.94H225.481C225.699 280.94 225.747 281.085 225.755 281.173C225.612 281.88 225.227 282.515 224.668 282.969ZM224.756 283.283C225.562 282.856 226.649 282.381 227.059 282.575C227.102 282.594 227.139 282.624 227.166 282.662C227.193 282.7 227.209 282.745 227.212 282.792C227.238 282.885 227.238 282.983 227.214 283.076C227.19 283.169 227.142 283.254 227.075 283.323C226.753 283.605 225.9 283.581 224.756 283.283Z" fill="#133551"/>
<path d="M243.462 119.272C243.309 119.61 243.14 119.948 242.963 120.262C241.93 122.106 240.364 123.594 238.47 124.53C237.992 124.769 237.497 124.97 236.988 125.134C235.033 125.797 232.914 125.799 230.957 125.14C229 124.481 227.314 123.197 226.158 121.486C223.074 117.106 223.911 112.798 224.733 105.382C224.896 103.649 225.499 101.988 226.486 100.555C227.473 99.1215 228.81 97.9649 230.37 97.1948C231.931 96.4248 233.662 96.0669 235.4 96.1552C237.138 96.2436 238.824 96.7753 240.298 97.6996C247.022 101.863 246.168 112.943 243.462 119.272Z" fill="#E4897B"/>
<path opacity="0.2" d="M238.47 124.53C237.992 124.769 237.497 124.97 236.988 125.134C235.649 125.577 234.228 125.716 232.828 125.542C231.429 125.368 230.085 124.885 228.896 124.128C229.373 123.302 229.955 122.542 230.627 121.865C233.443 121.982 236.166 122.907 238.47 124.53Z" fill="black"/>
<path d="M219.063 126.495C220.336 131.278 228.541 135.111 228.541 135.111C228.541 135.111 234.073 136.866 234.033 134.757C231.561 132.51 231.053 130.352 231.569 128.315C231.932 127.094 232.531 125.956 233.332 124.965C233.762 124.404 234.222 123.867 234.709 123.355L229.878 110.43C228.13 115.801 224.209 125.142 219.063 126.495Z" fill="#E4897B"/>
<path d="M242.415 103.071C242.415 103.071 244.493 110.068 237.318 115.093C237.318 115.093 234.307 121.535 232.624 122.34C230.941 123.145 227.14 122.662 225.86 122.34C224.579 122.018 217.952 116.526 219.869 103.61C221.785 90.6941 232.624 94.7525 232.624 94.7525C232.624 94.7525 236.328 91.5315 243.213 95.5577C248.962 98.8914 247.835 105.124 242.415 103.071Z" fill="#263238"/>
<path d="M236.344 111.743C236.37 112.455 236.553 113.153 236.88 113.787C237.207 114.42 237.67 114.974 238.237 115.407C239.622 116.293 240.958 114.36 241.111 112.121C241.24 110.133 240.693 107.209 239.034 107.29C237.375 107.371 236.159 109.682 236.344 111.743Z" fill="#E4897B"/>
<path d="M243.301 135.836C243.301 135.836 233.123 124.434 219.522 125.609C205.922 126.785 192.337 137.293 185.517 153.801C178.697 170.308 176.7 195.262 176.7 195.262C176.7 195.262 198.707 201.568 221.085 195.818C225.759 174.916 233.232 154.74 243.301 135.836Z" fill="#263238"/>
<path d="M243.301 135.836C246.74 139.403 256.555 155.757 259.35 156.369C262.144 156.981 266.21 154.469 269.391 155.427C272.572 156.386 275.833 159.284 275.108 161.144C274.383 163.005 266.895 167.957 257.61 168.223C249.663 168.456 232.914 148.663 232.914 148.663C232.914 141.013 243.301 135.836 243.301 135.836Z" fill="#263238"/>
<path d="M243.728 122.268V121.462C243.919 121.456 244.106 121.412 244.28 121.332C244.453 121.252 244.608 121.138 244.737 120.997C244.865 120.856 244.964 120.69 245.027 120.51C245.09 120.33 245.117 120.139 245.105 119.948C245.105 118.749 242.125 116.156 240.273 114.803L240.74 114.151C241.272 114.529 245.95 117.951 245.942 119.948C245.955 120.248 245.908 120.546 245.802 120.827C245.697 121.107 245.536 121.363 245.329 121.58C245.123 121.796 244.874 121.969 244.599 122.087C244.324 122.205 244.027 122.267 243.728 122.268Z" fill="#263238"/>
<path d="M243.261 111.461C243.261 114.795 241.312 117.501 238.92 117.501C236.529 117.501 234.58 114.795 234.58 111.461C234.58 108.128 236.521 105.43 238.92 105.43C241.32 105.43 243.261 108.128 243.261 111.461Z" fill="#133551"/>
<path opacity="0.2" d="M243.261 111.461C243.261 114.795 241.312 117.501 238.92 117.501C236.529 117.501 234.58 114.795 234.58 111.461C234.58 108.128 236.521 105.43 238.92 105.43C241.32 105.43 243.261 108.128 243.261 111.461Z" fill="black"/>
<path d="M240.443 115.439C242.021 115.439 243.301 113.658 243.301 111.461C243.301 109.264 242.021 107.483 240.443 107.483C238.864 107.483 237.584 109.264 237.584 111.461C237.584 113.658 238.864 115.439 240.443 115.439Z" fill="#133551"/>
<path d="M241.803 108.578C241.803 108.578 242.029 91.1691 228.919 94.1726C228.919 94.1726 238.719 95.3563 239.388 109.053L241.803 108.578Z" fill="#133551"/>
<path d="M243.94 121.223L243.273 121.338C243.05 121.377 242.9 121.589 242.939 121.813L243.002 122.178C243.04 122.401 243.253 122.551 243.476 122.512L244.143 122.397C244.366 122.358 244.516 122.146 244.478 121.922L244.414 121.557C244.376 121.334 244.163 121.184 243.94 121.223Z" fill="#263238"/>
<path d="M170.918 211.118H224.804C225.872 211.118 226.896 211.542 227.651 212.297C228.406 213.052 228.831 214.076 228.831 215.144V220.531H166.892V215.144C166.892 214.076 167.316 213.052 168.071 212.297C168.826 211.542 169.85 211.118 170.918 211.118Z" fill="#133551"/>
<path opacity="0.3" d="M170.918 211.118H224.804C225.872 211.118 226.896 211.542 227.651 212.297C228.406 213.052 228.831 214.076 228.831 215.144V220.531H166.892V215.144C166.892 214.076 167.316 213.052 168.071 212.297C168.826 211.542 169.85 211.118 170.918 211.118Z" fill="black"/>
<path d="M160.531 175.067H182.675C189.159 175.067 194.415 169.811 194.415 163.327V154.662C194.415 148.178 189.159 142.922 182.675 142.922H160.531C154.047 142.922 148.79 148.178 148.79 154.662V163.327C148.79 169.811 154.047 175.067 160.531 175.067Z" fill="#133551"/>
<g opacity="0.3">
<path opacity="0.3" d="M160.531 175.067H182.675C189.159 175.067 194.415 169.811 194.415 163.327V154.662C194.415 148.178 189.159 142.922 182.675 142.922H160.531C154.047 142.922 148.79 148.178 148.79 154.662V163.327C148.79 169.811 154.047 175.067 160.531 175.067Z" fill="black"/>
</g>
<path d="M169.251 274.12L192.458 271.841V239.237H201.654V271.833L224.941 274.12C226.058 274.228 227.095 274.748 227.85 275.578C228.604 276.409 229.023 277.491 229.024 278.613V282.099H165.176V278.613C165.177 277.492 165.594 276.411 166.347 275.581C167.1 274.75 168.135 274.229 169.251 274.12Z" fill="#263238"/>
<path opacity="0.2" d="M169.251 274.12L192.458 271.841V239.237H201.654V271.833L224.941 274.12C226.058 274.228 227.095 274.748 227.85 275.578C228.604 276.409 229.023 277.491 229.024 278.613V282.099H165.176V278.613C165.177 277.492 165.594 276.411 166.347 275.581C167.1 274.75 168.135 274.229 169.251 274.12Z" fill="white"/>
<path d="M227.549 292.352C230.828 291.82 233.055 288.73 232.522 285.451C231.99 282.172 228.9 279.945 225.621 280.477C222.342 281.01 220.115 284.099 220.647 287.379C221.18 290.658 224.269 292.885 227.549 292.352Z" fill="#263238"/>
<path d="M171.891 290.678C174.24 288.329 174.24 284.52 171.891 282.171C169.542 279.822 165.733 279.822 163.384 282.171C161.035 284.52 161.035 288.329 163.384 290.678C165.733 293.027 169.542 293.027 171.891 290.678Z" fill="#263238"/>
<path d="M199.906 246.242H194.197C193.315 246.242 192.469 245.892 191.846 245.268C191.222 244.644 190.871 243.799 190.871 242.917V217.197H203.232V242.909C203.233 243.346 203.148 243.779 202.981 244.184C202.814 244.588 202.57 244.956 202.261 245.265C201.952 245.575 201.585 245.821 201.181 245.988C200.777 246.156 200.344 246.242 199.906 246.242Z" fill="#263238"/>
<path opacity="0.3" d="M199.906 246.242H194.197C193.315 246.242 192.469 245.892 191.846 245.268C191.222 244.644 190.871 243.799 190.871 242.917V217.197H203.232V242.909C203.233 243.346 203.148 243.779 202.981 244.184C202.814 244.588 202.57 244.956 202.261 245.265C201.952 245.575 201.585 245.821 201.181 245.988C200.777 246.156 200.344 246.242 199.906 246.242Z" fill="white"/>
<path d="M175.073 166.234C175.073 166.234 173.318 209.717 185.42 217.197H171.603C171.603 217.197 160.893 202.389 163.921 166.234H175.073Z" fill="#263238"/>
<path opacity="0.3" d="M175.073 166.234C175.073 166.234 173.318 209.717 185.42 217.197H171.603C171.603 217.197 160.893 202.389 163.921 166.234H175.073Z" fill="white"/>
<path d="M229.797 215.828H165.933C165.04 215.828 164.315 216.553 164.315 217.447V218.912C164.315 219.806 165.04 220.531 165.933 220.531H229.797C230.691 220.531 231.416 219.806 231.416 218.912V217.447C231.416 216.553 230.691 215.828 229.797 215.828Z" fill="#263238"/>
<path opacity="0.6" d="M229.797 215.828H165.933C165.04 215.828 164.315 216.553 164.315 217.447V218.912C164.315 219.806 165.04 220.531 165.933 220.531H229.797C230.691 220.531 231.416 219.806 231.416 218.912V217.447C231.416 216.553 230.691 215.828 229.797 215.828Z" fill="white"/>
<path d="M175.25 152.689H162.745C159.081 152.689 156.11 155.66 156.11 159.325V164.212C156.11 167.877 159.081 170.848 162.745 170.848H175.25C178.915 170.848 181.886 167.877 181.886 164.212V159.325C181.886 155.66 178.915 152.689 175.25 152.689Z" fill="#263238"/>
<path opacity="0.2" d="M175.25 152.689H162.745C159.081 152.689 156.11 155.66 156.11 159.325V164.212C156.11 167.877 159.081 170.848 162.745 170.848H175.25C178.915 170.848 181.886 167.877 181.886 164.212V159.325C181.886 155.66 178.915 152.689 175.25 152.689Z" fill="white"/>
</svg>
