<svg width="404" height="300" viewBox="0 0 404 300" fill="none" xmlns="http://www.w3.org/2000/svg">
<path d="M403.124 263.635H0.503906V263.837H403.124V263.635Z" fill="#EBEBEB"/>
<path d="M362.781 276.592H336.112V276.793H362.781V276.592Z" fill="#EBEBEB"/>
<path d="M267.215 278.782H260.217V278.983H267.215V278.782Z" fill="#EBEBEB"/>
<path d="M335.307 269.119H319.854V269.32H335.307V269.119Z" fill="#EBEBEB"/>
<path d="M77.5249 270.472H42.7466V270.673H77.5249V270.472Z" fill="#EBEBEB"/>
<path d="M89.7969 270.472H84.6997V270.673H89.7969V270.472Z" fill="#EBEBEB"/>
<path d="M181.803 273.87H106.369V274.071H181.803V273.87Z" fill="#EBEBEB"/>
<path d="M191.346 227.722H35.8623C34.6443 227.72 33.4768 227.234 32.6163 226.372C31.7558 225.51 31.2725 224.342 31.2725 223.124V4.55765C31.2831 3.3466 31.7711 2.18862 32.6305 1.33526C33.4898 0.481902 34.6512 0.00207461 35.8623 0H191.346C192.565 0 193.735 0.484422 194.597 1.3467C195.46 2.20898 195.944 3.37847 195.944 4.59792V223.124C195.944 224.343 195.46 225.513 194.597 226.375C193.735 227.237 192.565 227.722 191.346 227.722ZM35.8623 0.161048C34.6977 0.163182 33.5814 0.627334 32.7587 1.45163C31.9359 2.27592 31.4738 3.393 31.4738 4.55765V223.124C31.4738 224.288 31.9359 225.406 32.7587 226.23C33.5814 227.054 34.6977 227.518 35.8623 227.52H191.346C192.511 227.518 193.628 227.054 194.453 226.23C195.277 225.406 195.74 224.289 195.743 223.124V4.55765C195.74 3.39226 195.277 2.2752 194.453 1.45114C193.628 0.627072 192.511 0.163177 191.346 0.161048H35.8623Z" fill="#EBEBEB"/>
<path d="M365.527 227.722H210.035C208.817 227.72 207.648 227.234 206.787 226.373C205.925 225.511 205.44 224.343 205.438 223.124V4.55765C205.45 3.34586 205.94 2.1879 206.801 1.33476C207.661 0.481621 208.824 0.00205198 210.035 0H365.527C366.737 0.00419086 367.896 0.484955 368.754 1.33809C369.611 2.19122 370.098 3.34799 370.109 4.55765V223.124C370.109 224.34 369.627 225.507 368.768 226.369C367.909 227.231 366.744 227.717 365.527 227.722ZM210.035 0.161048C208.87 0.163177 207.753 0.627072 206.929 1.45114C206.105 2.2752 205.641 3.39226 205.639 4.55765V223.124C205.641 224.289 206.105 225.406 206.929 226.23C207.753 227.054 208.87 227.518 210.035 227.52H365.527C366.693 227.518 367.81 227.054 368.634 226.23C369.458 225.406 369.922 224.289 369.924 223.124V4.55765C369.922 3.39226 369.458 2.2752 368.634 1.45114C367.81 0.627072 366.693 0.163177 365.527 0.161048H210.035Z" fill="#EBEBEB"/>
<path d="M126.113 86.8531C141.736 86.8531 154.401 74.1881 154.401 58.565C154.401 42.942 141.736 30.277 126.113 30.277C110.49 30.277 97.8252 42.942 97.8252 58.565C97.8252 74.1881 110.49 86.8531 126.113 86.8531Z" fill="#F5F5F5"/>
<path d="M111.442 58.2429C111.44 56.9387 110.921 55.6885 109.998 54.7663C109.076 53.8441 107.826 53.3251 106.522 53.3229C106.044 53.3219 105.569 53.3924 105.113 53.5323C105.321 52.054 105.21 50.5483 104.788 49.1163C104.366 47.6842 103.643 46.359 102.667 45.2296C101.69 44.1001 100.484 43.1925 99.1281 42.5676C97.7723 41.9428 96.2985 41.6151 94.8056 41.6067C94.1624 41.6069 93.5206 41.6689 92.8892 41.7919C91.8708 40.0875 90.3229 38.763 88.4816 38.0204C86.6402 37.2777 84.6065 37.1577 82.6906 37.6787C80.7748 38.1996 79.0818 39.3329 77.8701 40.9057C76.6583 42.4785 75.9942 44.4044 75.9791 46.3898H75.8261C73.6008 46.3898 71.4666 47.2738 69.8931 48.8474C68.3195 50.4209 67.4355 52.5551 67.4355 54.7804C67.4355 57.0057 68.3195 59.1399 69.8931 60.7135C71.4666 62.287 73.6008 63.171 75.8261 63.171H106.627C107.915 63.1436 109.14 62.6121 110.041 61.6906C110.941 60.7691 111.444 59.5313 111.442 58.2429Z" fill="#F0F0F0"/>
<path d="M285.462 78.9859C285.462 78.4751 285.362 77.9694 285.166 77.4975C284.971 77.0256 284.684 76.5969 284.323 76.2357C283.962 75.8746 283.533 75.5881 283.061 75.3926C282.589 75.1972 282.084 75.0966 281.573 75.0966C281.196 75.0951 280.821 75.1521 280.462 75.2657C280.52 74.8684 280.549 74.4674 280.55 74.0659C280.55 72.9841 280.337 71.9129 279.923 70.9135C279.509 69.9141 278.902 69.0059 278.137 68.241C277.372 67.4761 276.464 66.8693 275.465 66.4553C274.466 66.0414 273.394 65.8283 272.313 65.8283C271.802 65.8311 271.293 65.8796 270.791 65.9732C269.979 64.6377 268.756 63.6024 267.304 63.0236C265.853 62.4449 264.252 62.3542 262.745 62.7652C261.237 63.1762 259.904 64.0666 258.947 65.3019C257.99 66.5372 257.461 68.0504 257.44 69.6129H257.327C255.567 69.6129 253.88 70.312 252.635 71.5563C251.391 72.8006 250.692 74.4883 250.692 76.2481C250.692 78.0078 251.391 79.6955 252.635 80.9398C253.88 82.1842 255.567 82.8832 257.327 82.8832H281.686C282.698 82.8518 283.659 82.4274 284.364 81.6999C285.069 80.9724 285.463 79.9989 285.462 78.9859Z" fill="#F5F5F5"/>
<path d="M79.7956 126.133C79.7971 125.526 79.6566 124.928 79.3855 124.385C79.1144 123.843 78.7202 123.371 78.2343 123.008C77.7484 122.645 77.1844 122.401 76.5872 122.294C75.99 122.188 75.3763 122.223 74.7951 122.396C74.9676 121.227 74.8859 120.034 74.5553 118.898C74.2248 117.763 73.6533 116.712 72.8798 115.818C72.1063 114.924 71.149 114.207 70.0732 113.716C68.9974 113.226 67.8284 112.973 66.6461 112.975C66.1353 112.974 65.6256 113.022 65.1242 113.12C64.3129 111.785 63.0891 110.749 61.6376 110.17C60.1861 109.592 58.5857 109.501 57.078 109.912C55.5704 110.323 54.2375 111.213 53.2805 112.449C52.3235 113.684 51.7945 115.197 51.7733 116.76H51.6606C49.9008 116.76 48.2131 117.459 46.9688 118.703C45.7245 119.947 45.0254 121.635 45.0254 123.395C45.0254 125.155 45.7245 126.842 46.9688 128.087C48.2131 129.331 49.9008 130.03 51.6606 130.03H76.0191C77.033 130.003 77.9959 129.58 78.7017 128.851C79.4076 128.123 79.8002 127.147 79.7956 126.133Z" fill="#F5F5F5"/>
<path d="M219.319 43.1125C219.319 42.081 219.729 41.0918 220.459 40.3624C221.188 39.633 222.177 39.2232 223.209 39.2232C223.588 39.2231 223.964 39.2774 224.328 39.3843C224.154 38.2139 224.235 37.0199 224.565 35.8836C224.895 34.7474 225.466 33.6958 226.24 32.8006C227.013 31.9054 227.971 31.1877 229.048 30.6966C230.124 30.2055 231.294 29.9525 232.477 29.9549C232.985 29.9581 233.492 30.0066 233.991 30.0999C234.802 28.7643 236.026 27.729 237.477 27.1503C238.929 26.5715 240.529 26.4808 242.037 26.8918C243.545 27.3028 244.878 28.1932 245.834 29.4286C246.791 30.6639 247.321 32.1771 247.342 33.7396H247.462C249.222 33.7396 250.91 34.4386 252.154 35.6829C253.399 36.9273 254.098 38.615 254.098 40.3747C254.098 42.1345 253.399 43.8222 252.154 45.0665C250.91 46.3108 249.222 47.0099 247.462 47.0099H223.096C222.082 46.9825 221.119 46.5594 220.413 45.831C219.707 45.1026 219.315 44.1268 219.319 43.1125Z" fill="#F5F5F5"/>
<path d="M173.14 72.9708C173.137 72.1607 172.814 71.3844 172.24 70.8123C171.667 70.2402 170.89 69.9189 170.08 69.9189C169.783 69.9212 169.487 69.9646 169.202 70.0478C169.251 69.7361 169.275 69.4211 169.274 69.1057C169.28 68.1528 169.074 67.2107 168.671 66.3471C168.269 65.4835 167.68 64.7199 166.946 64.1115C166.213 63.503 165.354 63.0648 164.431 62.8283C163.508 62.5919 162.544 62.5632 161.609 62.7443C160.976 61.6911 160.016 60.8736 158.876 60.416C157.736 59.9585 156.477 59.8861 155.292 60.2097C154.107 60.5334 153.06 61.2354 152.31 62.209C151.561 63.1825 151.15 64.3743 151.14 65.6029H151.044C149.696 65.6558 148.422 66.2283 147.487 67.2003C146.553 68.1723 146.031 69.4684 146.031 70.8168C146.031 72.1652 146.553 73.4612 147.487 74.4332C148.422 75.4053 149.696 75.9777 151.044 76.0307H170.168C170.964 76.0077 171.72 75.6751 172.275 75.1038C172.83 74.5324 173.14 73.7672 173.14 72.9708Z" fill="#F0F0F0"/>
<path d="M147.331 121.937C147.338 121.443 147.459 120.956 147.684 120.515C147.909 120.075 148.233 119.692 148.631 119.397C149.028 119.102 149.488 118.902 149.974 118.813C150.461 118.725 150.962 118.749 151.438 118.886C151.389 118.56 151.365 118.232 151.365 117.903C151.365 116.113 152.076 114.397 153.342 113.132C154.607 111.866 156.324 111.155 158.113 111.155C158.532 111.156 158.949 111.193 159.361 111.268C160.027 110.174 161.031 109.327 162.221 108.853C163.41 108.38 164.722 108.306 165.957 108.644C167.192 108.981 168.285 109.711 169.069 110.723C169.853 111.735 170.287 112.975 170.305 114.255H170.409C171.816 114.31 173.146 114.906 174.122 115.92C175.098 116.935 175.643 118.287 175.643 119.695C175.643 121.102 175.098 122.455 174.122 123.469C173.146 124.483 171.816 125.08 170.409 125.134H150.439C149.609 125.105 148.822 124.756 148.243 124.161C147.663 123.565 147.337 122.768 147.331 121.937Z" fill="#F5F5F5"/>
<path d="M326.336 102.539C326.336 101.898 326.59 101.284 327.044 100.831C327.497 100.378 328.111 100.123 328.752 100.123C328.986 100.125 329.22 100.16 329.444 100.228C329.409 99.9827 329.39 99.7352 329.388 99.4873C329.388 98.1291 329.927 96.8264 330.888 95.866C331.848 94.9056 333.151 94.366 334.509 94.366C334.825 94.3628 335.141 94.3924 335.451 94.4546C335.956 93.6246 336.717 92.9813 337.619 92.6217C338.522 92.2621 339.517 92.2058 340.454 92.4613C341.391 92.7167 342.22 93.2701 342.815 94.0378C343.41 94.8055 343.74 95.746 343.753 96.7173H343.826C344.383 96.6927 344.94 96.7812 345.462 96.9775C345.984 97.1738 346.461 97.4738 346.864 97.8594C347.267 98.2451 347.588 98.7083 347.807 99.2213C348.026 99.7343 348.139 100.286 348.139 100.844C348.139 101.402 348.026 101.954 347.807 102.467C347.588 102.98 347.267 103.443 346.864 103.829C346.461 104.215 345.984 104.515 345.462 104.711C344.94 104.907 344.383 104.996 343.826 104.971H328.679C328.048 104.952 327.45 104.687 327.012 104.233C326.574 103.778 326.332 103.17 326.336 102.539Z" fill="#F5F5F5"/>
<path d="M75.4153 218.502H43.1333V264.288H75.4153V218.502Z" fill="#E0E0E0"/>
<path d="M360.494 198.725H333.221V264.28H360.494V198.725Z" fill="#EBEBEB"/>
<path d="M225.665 201.729H141.397V264.288H225.665V201.729Z" fill="#E6E6E6"/>
<path d="M250.329 198.725H223.056V264.28H250.329V198.725Z" fill="#EBEBEB"/>
<path d="M271.475 190.616H247.874V264.288H271.475V190.616Z" fill="#F0F0F0"/>
<path d="M347.152 192.541H289.158V264.28H347.152V192.541Z" fill="#F0F0F0"/>
<path d="M335.669 175.937H305.497V264.28H335.669V175.937Z" fill="#F5F5F5"/>
<path d="M324.025 205.239H317.14V264.288H324.025V205.239Z" fill="#EBEBEB"/>
<path d="M330.902 190.399H329.557V264.28H330.902V190.399Z" fill="#EBEBEB"/>
<path d="M311.608 190.399H310.263V264.28H311.608V190.399Z" fill="#EBEBEB"/>
<path d="M328.236 190.399H326.892V264.28H328.236V190.399Z" fill="#EBEBEB"/>
<path d="M314.273 190.399H312.929V264.28H314.273V190.399Z" fill="#EBEBEB"/>
<path d="M290.237 182.105H268.955V264.28H290.237V182.105Z" fill="#F5F5F5"/>
<path d="M194.108 191.067H163.936V264.288H194.108V191.067Z" fill="#EBEBEB"/>
<path d="M65.9702 264.288H141.397V208.629H65.9702V264.288Z" fill="#E6E6E6"/>
<path d="M90.3689 264.28H123.207V201.72H90.3689V264.28Z" fill="#EBEBEB"/>
<path d="M201.813 300C288.04 300 357.941 295.919 357.941 290.885C357.941 285.85 288.04 281.769 201.813 281.769C115.586 281.769 45.6855 285.85 45.6855 290.885C45.6855 295.919 115.586 300 201.813 300Z" fill="#F5F5F5"/>
<path d="M368.482 264.288H195.492L281.766 154.034L368.482 264.288Z" fill="#133551"/>
<path opacity="0.1" d="M368.482 264.288H195.492L281.766 154.034L368.482 264.288Z" fill="white"/>
<path opacity="0.2" d="M333.792 256.896H362.668L346.733 236.628L293.861 234.88H345.356L330.016 215.377L316.528 213.944H328.888L318.887 201.221L274.873 199.49H317.518L311.286 191.567L305.633 190.206H310.223L300.906 178.369L285.663 177.475H300.206L281.766 154.034L276.081 172.08H289.544L275.533 173.811L270.364 190.206H299.046L269.792 192.026L265.331 206.182H280.808L264.743 208.042L260.29 222.15H330.765L259.557 224.493L251.722 249.342H344.583L250.941 251.831L247.012 264.288H368.482L363.691 258.2L333.792 256.896Z" fill="white"/>
<path d="M331.852 264.288H82.6382L178.188 142.173L206.927 105.454L234.506 140.514L331.852 264.288Z" fill="#133551"/>
<path opacity="0.2" d="M230.794 140.909L233.097 141.915H229.321L224.94 143.099L227.863 143.284L222.009 144.935L214.504 144.017L219.948 142.914H210.832L201.709 141.448L204.994 140.538L195.782 140.812L190.726 139.653H193.463L189.437 138.888L185.959 139.653H187.609L178.188 142.173L206.927 105.454L234.506 140.514L230.794 140.909Z" fill="white"/>
<path opacity="0.2" d="M219.94 122.002L206.927 105.454L201.717 122.002H219.94Z" fill="white"/>
<path opacity="0.2" d="M315.07 242.941L248.292 240.316H313.001L287.394 207.76L199.502 205.433H285.566L273.069 189.545L241.955 187.621H271.555L258.414 170.904L221.461 170.018H257.713L240.682 148.365L215.607 146.884H239.515L220.503 122.719L201.008 124.224L196.942 137.124H216.823L196.265 139.274L189.719 160.058H230.971L189.139 161.877L184.565 176.404H254.879L183.752 178.965L177.721 198.113H210.107L176.867 200.803L169.853 223.068H254.879L169.338 224.71L159.49 255.929H305.126L158.459 259.215L156.857 264.288H331.852L315.07 242.941Z" fill="white"/>
<path d="M220.229 264.288H47.2314L133.513 154.034L220.229 264.288Z" fill="#133551"/>
<path opacity="0.1" d="M220.229 264.288H47.2314L133.513 154.034L220.229 264.288Z" fill="white"/>
<path opacity="0.2" d="M185.532 256.896H214.416L198.48 236.628L145.608 234.88H197.103L181.763 215.377L168.268 213.944H180.636L170.627 201.221L126.621 199.49H169.266L163.033 191.567L157.373 190.206H161.963L152.654 178.369L137.411 177.475H151.953L133.513 154.034L127.82 172.08H141.292L127.281 173.811L122.103 190.206H150.786L121.539 192.026L117.07 206.182H132.555L116.483 208.042L112.038 222.15H182.512L111.297 224.493L103.47 249.342H196.322L102.681 251.831L98.7593 264.288H220.23L215.438 258.2L185.532 256.896Z" fill="white"/>
<path d="M236.947 268.314H165.619L172.383 258.732H175.966L182.094 250.333H186.217L192.111 240.614H195.694L198.15 236.169L201.283 234.84L204.407 236.169L206.863 240.614H210.446L216.341 250.333H220.464L226.591 258.732H230.175L236.947 268.314Z" fill="#133551"/>
<path opacity="0.4" d="M236.947 268.314H165.619L172.383 258.732H175.966L182.094 250.333H186.217L192.111 240.614H195.694L198.15 236.169L201.283 234.84L204.407 236.169L206.863 240.614H210.446L216.341 250.333H220.464L226.591 258.732H230.175L236.947 268.314Z" fill="white"/>
<path opacity="0.2" d="M233.581 263.555H190.299L232.655 262.242L230.174 258.732H226.591H218.225L226.245 258.256L224.039 255.237H191.386L223.676 254.746L220.463 250.333H216.34H203.779L215.712 249.294L214.215 246.83H205.969L213.973 246.427L211.67 242.627H208.473L211.332 242.071L210.446 240.614H206.863L204.681 236.676H200.276L204.278 236.12L201.282 234.84L199.414 236.169L198.271 239.623L203.255 240.614H197.949H195.807L194.494 244.253L204.27 244.64H194.349L193.327 247.482L198.005 247.796H193.214L192.296 250.333H189.84L189.228 251.734L198.005 252.346H188.962L186.611 257.741L205.969 258.732H186.176H185.218H184.042L181.071 265.785L198.472 266.357H180.829L180 268.314H236.947L233.581 263.555Z" fill="white"/>
<path d="M169.596 268.314H98.2681L105.04 258.732H108.623L114.751 250.333H118.874L124.76 240.614H128.352L130.808 236.169L133.932 234.84L137.064 236.169L139.52 240.614H143.104L148.998 250.333H153.121L159.249 258.732H162.832L169.596 268.314Z" fill="#133551"/>
<path opacity="0.4" d="M169.596 268.314H98.2681L105.04 258.732H108.623L114.751 250.333H118.874L124.76 240.614H128.352L130.808 236.169L133.932 234.84L137.064 236.169L139.52 240.614H143.104L148.998 250.333H153.121L159.249 258.732H162.832L169.596 268.314Z" fill="white"/>
<path opacity="0.2" d="M166.238 263.555H122.949L165.312 262.242L162.832 258.732H159.249H150.882L158.903 258.256L156.696 255.237H124.044L156.334 254.746L153.121 250.333H148.998H136.436L148.37 249.294L146.872 246.83H138.627L146.631 246.427L144.32 242.627H141.131L143.99 242.071L143.104 240.614H139.52L137.338 236.676H132.934L136.936 236.12L133.932 234.84L132.064 236.169L130.929 239.623L135.913 240.614H130.598H128.465L127.152 244.253L136.928 244.64H127.007L125.976 247.482L130.655 247.796H125.864L124.954 250.333H122.49L121.886 251.734L130.655 252.346H121.612L119.269 257.741L138.627 258.732H118.834H117.876H116.7L113.721 265.785L131.13 266.357H113.487L112.658 268.314H169.596L166.238 263.555Z" fill="white"/>
<path d="M102.254 268.314H30.9258L37.6898 258.732H41.2812L47.409 250.333H51.5319L57.4182 240.614H61.0095L63.4655 236.169L66.5898 234.84L69.7142 236.169L72.1701 240.614H75.7615L81.6478 250.333H85.7706L91.8985 258.732H95.4899L102.254 268.314Z" fill="#133551"/>
<path opacity="0.4" d="M102.254 268.314H30.9258L37.6898 258.732H41.2812L47.409 250.333H51.5319L57.4182 240.614H61.0095L63.4655 236.169L66.5898 234.84L69.7142 236.169L72.1701 240.614H75.7615L81.6478 250.333H85.7706L91.8985 258.732H95.4899L102.254 268.314Z" fill="white"/>
<path opacity="0.2" d="M98.8965 263.555H55.6069L97.9625 262.242L95.4904 258.732H91.899H83.5406L91.5528 258.256L89.3464 255.237H56.702L88.9921 254.746L85.7711 250.333H81.6483H69.0946L81.0283 249.294L79.5305 246.83H71.2849L79.2809 246.427L76.9779 242.627H73.7811L76.6478 242.071L75.762 240.614H72.1706L69.9965 236.676H65.5918L69.5939 236.12L66.5903 234.84L64.7222 236.169L63.5868 239.623L68.5712 240.614H63.2566H61.1228L59.8022 244.253L69.5778 244.64H59.6653L58.6346 247.482L63.313 247.796H58.5218L57.6039 250.333H55.1479L54.5359 251.734L63.313 252.346H54.2702L51.9189 257.741L71.2849 258.732H51.4921H50.5339H49.3502L46.3788 265.785L63.7881 266.357H46.1373L45.3159 268.314H102.254L98.8965 263.555Z" fill="white"/>
<path d="M189.582 273.33H163.927V282.083H189.582V273.33Z" fill="#133551"/>
<path opacity="0.2" d="M189.581 279.933L172.261 281.286V273.33H189.581V279.933Z" fill="white"/>
<path d="M130.106 282.149L104.563 279.748L103.744 288.462L129.287 290.863L130.106 282.149Z" fill="#133551"/>
<path opacity="0.2" d="M130.11 282.145L112.857 280.524L112.038 289.238L129.29 290.86L130.11 282.145Z" fill="white"/>
<path d="M195.642 280.705L170.015 281.886L170.418 290.63L196.046 289.448L195.642 280.705Z" fill="#133551"/>
<path opacity="0.2" d="M195.651 280.713L178.34 281.511L178.743 290.255L196.054 289.457L195.651 280.713Z" fill="white"/>
<path d="M118.03 272.134L92.4023 273.307L92.8025 282.051L118.431 280.878L118.03 272.134Z" fill="#133551"/>
<path opacity="0.2" d="M118.374 279.523L101.07 280.36L100.724 272.928L118.036 272.139L118.374 279.523Z" fill="white"/>
<path d="M108.631 281.053H82.9761V289.806H108.631V281.053Z" fill="#133551"/>
<path opacity="0.2" d="M108.631 281.053H91.3022V289.806H108.631V281.053Z" fill="white"/>
<path d="M62.2251 291.03C62.2251 291.03 92.9047 289.242 97.2933 289.242C101.682 289.242 108.848 285.345 112.987 286.142C117.126 286.939 123.182 284.708 124.615 284.233C126.048 283.758 131.782 281.729 132.901 282.502C136.188 284.178 139.596 285.607 143.095 286.778C144.529 287.1 150.262 287.583 153.765 287.736C157.267 287.889 172.559 288.686 173.831 289.242C175.104 289.798 189.759 284.185 192.311 283.605C194.864 283.026 208.368 289.242 212.128 288.501C215.889 287.76 231.333 291.062 231.333 291.062L62.2251 291.03Z" fill="#133551"/>
<path opacity="0.7" d="M62.2251 291.03C62.2251 291.03 92.9047 289.242 97.2933 289.242C101.682 289.242 108.848 285.345 112.987 286.142C117.126 286.939 123.182 284.708 124.615 284.233C126.048 283.758 131.782 281.729 132.901 282.502C136.188 284.178 139.596 285.607 143.095 286.778C144.529 287.1 150.262 287.583 153.765 287.736C157.267 287.889 172.559 288.686 173.831 289.242C175.104 289.798 189.759 284.185 192.311 283.605C194.864 283.026 208.368 289.242 212.128 288.501C215.889 287.76 231.333 291.062 231.333 291.062L62.2251 291.03Z" fill="white"/>
<path d="M327.962 291.03H281.79C281.79 291.03 294.223 288.38 297.251 288.968C300.278 289.556 311.149 284.531 313.202 285.023C315.256 285.514 327.962 291.03 327.962 291.03Z" fill="#133551"/>
<path opacity="0.7" d="M327.962 291.03H281.79C281.79 291.03 294.223 288.38 297.251 288.968C300.278 289.556 311.149 284.531 313.202 285.023C315.256 285.514 327.962 291.03 327.962 291.03Z" fill="white"/>
<path d="M327.662 68.293L307.719 130.783L309.253 131.272L329.196 68.7827L327.662 68.293Z" fill="#263238"/>
<g opacity="0.2">
<path opacity="0.2" d="M327.662 68.293L307.719 130.783L309.253 131.272L329.196 68.7826L327.662 68.293Z" fill="white"/>
</g>
<path d="M324.347 141.577C323.735 143.131 322.567 143.051 320.602 140.353C318.628 137.427 316.91 134.337 315.465 131.117C315.03 130.194 314.571 129.203 314.088 128.146L318.219 120.093C323.243 123.049 325.45 138.767 324.347 141.577Z" fill="#B97964"/>
<path opacity="0.2" d="M320.602 140.353C318.628 137.427 316.91 134.337 315.465 131.117C315.465 130.932 315.465 130.827 315.465 130.827C315.465 130.827 318.348 128.943 318.195 127.196C318.219 127.228 321.528 135.578 320.602 140.353Z" fill="black"/>
<path d="M289.383 90.9921C289.783 90.3872 290.381 89.9402 291.074 89.7278C292.024 89.5668 297.919 88.6166 298.635 88.7776C299.352 88.9387 301.631 92.3207 301.647 92.8038C301.663 93.287 293.144 95.445 292.588 95.445C291.695 95.1815 290.837 94.8082 290.036 94.3338L289.383 90.9921Z" fill="#B97964"/>
<path d="M308.725 109.512C308.66 109.558 308.59 109.596 308.516 109.625C307.485 110.219 306.346 110.603 305.166 110.753C301.744 111.091 299.529 110.342 298.241 108.643C296.462 106.114 296.462 102.048 297.379 97.2568C297.681 95.3432 298.285 93.4896 299.167 91.765C299.167 91.765 299.167 91.6926 299.167 91.6764C299.167 91.6603 299.232 91.5396 299.272 91.4832C299.813 90.5162 300.586 89.6995 301.523 89.1075C302.46 88.5155 303.529 88.1668 304.635 88.0931C305.597 88.0049 306.567 88.0238 307.526 88.1495C316.963 89.2527 316.641 105.06 308.725 109.512Z" fill="#B97964"/>
<path opacity="0.2" d="M308.516 109.609C307.483 110.163 306.349 110.503 305.182 110.608C301.76 110.946 299.546 110.084 298.273 108.361C300.198 109.114 302.317 109.216 304.305 108.651C305.033 108.48 305.791 108.478 306.521 108.644C307.251 108.81 307.933 109.14 308.516 109.609Z" fill="black"/>
<path d="M309.217 117.315C310.062 119.94 306.688 121.382 306.688 121.382C300.762 119.506 299.401 116.55 299.401 116.55C303.91 113.603 301.817 106.734 301.817 106.734L302.831 107.113L309.74 107.773C309.74 107.773 308.218 111.574 308.049 112.419C307.22 116.905 309.217 117.315 309.217 117.315Z" fill="#B97964"/>
<path d="M299.167 91.6846C299.167 91.6846 297.791 98.2151 303.669 101.863C303.669 101.863 305.464 109.062 309.402 109.674C314.773 110.479 320.522 103.457 319.669 95.4048C318.574 84.9689 303.339 82.1344 299.167 91.6846Z" fill="#263238"/>
<path d="M300.753 99.5518C300.89 98.5211 301.937 96.9025 303.507 97.3454C305.077 97.7883 305.52 102.008 301.333 102.386C300.729 102.443 300.471 101.702 300.753 99.5518Z" fill="#B97964"/>
<path d="M318.219 120.069C316.825 124.305 315.775 128.646 315.078 133.05C315.078 133.05 315.078 133.09 315.078 133.106C314.072 138.896 311.753 146.537 311.471 155.878H288.683C288.683 155.878 285.075 141.384 286.637 128.379C287.257 123.161 288.514 118.201 290.825 114.537C290.825 114.537 292.749 114.416 295.745 114.537L297.259 114.61H297.299C297.967 114.658 298.668 114.706 299.4 114.779C303.482 115.117 307.513 115.903 311.423 117.122H311.479C312.502 117.452 313.524 117.823 314.523 118.241L314.644 118.298C315.87 118.815 317.064 119.407 318.219 120.069Z" fill="#B97964"/>
<path d="M316.214 90.2592C316.214 90.2592 321.682 85.613 327.109 88.536C332.537 91.4591 326.215 102.724 327.802 106.171C329.388 109.617 332.826 109.392 328.486 111.646C324.146 113.901 328.349 115.793 328.349 115.793C328.349 115.793 324.468 117.114 324.146 113.917C323.824 110.72 322.431 108.071 321.167 107.524C319.902 106.976 323.3 100.905 322.125 97.901C320.949 94.8974 317.543 95.1551 317.543 95.1551L316.214 90.2592Z" fill="#263238"/>
<path d="M307.55 88.1334C307.55 88.1334 300.657 83.8093 297.412 86.8853C292.403 91.6201 299.545 98.4325 307.074 101.661L307.55 88.1334Z" fill="#263238"/>
<path d="M315.078 133.05C315.078 133.05 315.078 133.09 315.078 133.106C314.072 138.896 311.753 146.537 311.471 155.878H288.683C288.683 155.878 285.075 141.384 286.637 128.379C300.979 129.007 300.641 121.382 295.745 114.529C295.745 114.529 295.745 114.529 295.745 114.481L297.267 114.602H297.307L299.409 114.771C299.409 114.771 301.865 118.274 305.714 118.588C309.563 118.902 311.431 117.114 311.431 117.114H311.487L314.531 118.233L314.652 118.282C313.26 120.543 312.177 122.98 311.431 125.529C310.022 130.827 315.07 133.106 315.078 133.05Z" fill="#133551"/>
<path opacity="0.4" d="M315.078 133.05C315.078 133.05 315.078 133.09 315.078 133.106C314.072 138.896 311.753 146.537 311.471 155.878H288.683C288.683 155.878 285.075 141.384 286.637 128.379C300.979 129.007 300.641 121.382 295.745 114.529C295.745 114.529 295.745 114.529 295.745 114.481L297.267 114.602H297.307L299.409 114.771C299.409 114.771 301.865 118.274 305.714 118.588C309.563 118.902 311.431 117.114 311.431 117.114H311.487L314.531 118.233L314.652 118.282C313.26 120.543 312.177 122.98 311.431 125.529C310.022 130.827 315.07 133.106 315.078 133.05Z" fill="white"/>
<path d="M294.577 114.497C282.072 107.363 278.166 102.588 280.083 99.8336C281.999 97.0797 291.55 94.4627 291.55 94.4627L290.253 90.9116C290.253 90.9116 273.987 93.7219 272.924 101.452C271.982 108.313 290.02 120.987 290.02 120.987L294.577 114.497Z" fill="#B97964"/>
<path d="M299.86 276.857L295.753 276.922C291.574 257.306 288.627 233.036 286.783 214.733C286.501 211.859 286.235 209.145 285.977 206.608C285.865 205.4 285.76 204.249 285.663 203.13C285.172 197.63 284.858 193.266 284.633 190.568C284.48 188.595 284.407 187.516 284.407 187.516H299.256L299.111 191.293L298.652 203.782L298.604 205.207L298.298 213.453L297.774 227.488C302.904 247.249 299.86 276.857 299.86 276.857Z" fill="#B97964"/>
<path d="M333.164 275.803L329.138 276.568C321.037 256.332 313.436 230.419 308.492 212.317C307.727 209.515 307.018 206.89 306.39 204.507C306.39 204.386 306.334 204.273 306.302 204.16C305.037 199.434 304.079 195.673 303.475 193.257C303.016 191.389 302.767 190.359 302.767 190.359L317.398 187.838L318.203 193.99L319.427 203.025L319.661 204.797L320.466 210.957L322.688 227.48C331.119 246.105 333.164 275.803 333.164 275.803Z" fill="#B97964"/>
<path opacity="0.2" d="M319.451 203.049L306.374 204.531C306.374 204.41 306.318 204.297 306.285 204.185C305.037 199.434 304.079 195.673 303.475 193.257L318.227 193.99L319.451 203.049Z" fill="black"/>
<path opacity="0.2" d="M299.143 191.293L298.684 203.782L298.635 205.207L286.009 206.608C285.897 205.4 285.792 204.249 285.695 203.13C285.204 197.63 284.89 193.266 284.665 190.568L299.143 191.293Z" fill="black"/>
<path d="M287.725 290.49C288.491 289.87 289.365 289.395 290.302 289.089C290.302 289.089 293.096 286.319 294.44 277.961L298.104 277.01C298.726 276.859 299.379 276.902 299.975 277.134C300.571 277.366 301.082 277.775 301.438 278.307C301.537 278.457 301.615 278.619 301.672 278.79C301.857 279.686 301.986 280.592 302.058 281.504C302.263 284.557 302.282 287.62 302.114 290.675H301.454C298.867 291.349 296.211 291.73 293.539 291.811C288.538 291.907 286.469 291.714 287.725 290.49Z" fill="#263238"/>
<path d="M301.567 278.371C301.8 276.423 301.881 273.024 301.881 273.024L293.74 273.926C293.74 273.926 294.73 277.791 293.917 280.69C298.016 279.619 301.567 278.371 301.567 278.371Z" fill="#263238"/>
<path d="M320.836 290.49C321.599 289.867 322.47 289.39 323.405 289.081C323.405 289.081 326.199 286.311 327.544 277.953L331.208 277.002C331.83 276.851 332.483 276.894 333.079 277.126C333.675 277.358 334.186 277.767 334.542 278.299C334.64 278.449 334.719 278.611 334.775 278.782C334.96 279.678 335.089 280.584 335.162 281.496C335.367 284.549 335.386 287.612 335.218 290.667H334.558C331.97 291.342 329.315 291.723 326.642 291.803C321.642 291.907 319.572 291.714 320.836 290.49Z" fill="#263238"/>
<path d="M334.678 278.371C334.92 276.423 334.992 273.024 334.992 273.024L326.859 273.926C326.859 273.926 327.842 277.791 327.028 280.69C331.119 279.619 334.678 278.371 334.678 278.371Z" fill="#263238"/>
<path d="M320.861 199.023L305.384 200.996L304.78 201.076L301.599 189.408L300.794 201.906L284.206 201.044C278.046 170.831 287.814 151.506 287.814 151.506L311.673 152.665C321.867 169.986 319.725 189.408 319.725 189.408L320.861 199.023Z" fill="#263238"/>
<path opacity="0.2" d="M305.384 200.996L304.78 201.076L301.599 189.408C301.599 189.408 308.428 177.757 306.294 171.693C306.592 172.112 313.943 183.015 305.384 200.996Z" fill="black"/>
<path d="M305.689 134.225C305.689 134.225 301.124 117.09 295.729 114.529L298.144 114.07C298.144 114.07 304.908 118.813 307.509 134.201L305.689 134.225Z" fill="#133551"/>
<path d="M312.131 117.235C312.131 117.235 310.134 125.215 312.131 133.017L314.12 133.565C314.12 133.565 311.648 125.038 314.12 118.072L312.131 117.235Z" fill="#133551"/>
<path d="M286.702 143.147C286.702 143.147 292.129 154.509 299.401 154.59V162.642C299.401 162.642 288.425 153.672 286.243 145.096L286.702 143.147Z" fill="#133551"/>
<path opacity="0.2" d="M305.689 134.225C305.689 134.225 301.124 117.09 295.729 114.529L298.144 114.07C298.144 114.07 304.908 118.813 307.509 134.201L305.689 134.225Z" fill="black"/>
<path opacity="0.2" d="M312.131 117.235C312.131 117.235 310.134 125.215 312.131 133.017L314.12 133.565C314.12 133.565 311.648 125.038 314.12 118.072L312.131 117.235Z" fill="black"/>
<path opacity="0.2" d="M286.702 143.147C286.702 143.147 292.129 154.509 299.401 154.59V162.642C299.401 162.642 288.425 153.672 286.243 145.096L286.702 143.147Z" fill="black"/>
<path d="M324.21 162.554C323.09 166.693 299.594 169.084 298.281 161.748C298.281 161.748 297.323 138.332 301.607 133.565C301.727 133.436 301.848 133.307 301.977 133.195C306.551 129.04 317.969 133.565 317.969 133.565C317.969 133.565 323.276 150.129 319.765 149.332C320.755 150.994 321.647 152.712 322.438 154.477C323.67 157.247 324.749 160.508 324.21 162.554Z" fill="#133551"/>
<path opacity="0.2" d="M322.43 154.477C318.347 155.854 308.878 158.608 305.52 155.878C301.228 152.359 299.03 144.871 301.558 133.565C301.695 132.961 301.808 132.881 301.929 133.195C302.541 134.861 303.12 147.689 306.478 148.961C310.504 150.451 319.716 149.332 319.716 149.332C320.72 150.993 321.626 152.711 322.43 154.477Z" fill="black"/>
<path opacity="0.2" d="M288.32 119.86C288.32 119.86 290.913 121.148 291.308 122.026C291.702 122.904 288.288 124.152 288.32 119.86Z" fill="black"/>
<path d="M332.754 55.94C332.761 55.8778 332.746 55.8151 332.712 55.7623C332.679 55.7096 332.628 55.6699 332.569 55.6501C332.508 55.6294 332.443 55.631 332.384 55.6547C332.325 55.6783 332.276 55.7224 332.247 55.7789L331.296 57.6712L332.432 58.0255L332.754 55.94Z" fill="#263238"/>
<path d="M378.588 105.551C375.002 102.539 370.371 101.066 365.704 101.452C365.656 101.378 365.602 101.308 365.543 101.243L365.374 101.041L365.164 100.816C365.123 100.759 365.074 100.708 365.02 100.663C364.931 100.558 364.818 100.446 364.706 100.333C364.593 100.22 364.287 99.9302 364.037 99.7048L363.78 99.4793C363.691 99.3988 363.61 99.3263 363.514 99.2538L363.216 99.0123C362.918 98.7626 362.58 98.513 362.225 98.2553L361.847 97.9896C361.468 97.7319 361.042 97.4581 360.607 97.1844L360.156 96.9106C359.842 96.7254 359.52 96.5482 359.182 96.363C358.666 96.0892 358.127 95.8235 357.571 95.5578C353.988 93.9637 350.189 92.9055 346.298 92.4174H346.193C344.462 92.1999 342.602 92.0389 340.556 91.9825H339.316C338.471 91.9825 337.609 91.9825 336.715 92.0228V92.0952L336.611 92.0147H336.474V91.902C328.585 85.5113 318.585 82.3131 308.451 82.9397L308.371 83.0202L308.266 82.9477H308.105V82.8833C307.405 82.3438 306.704 81.8365 306.012 81.3534C305.665 81.1118 305.327 80.8783 304.981 80.6528C303.422 79.6063 301.809 78.6414 300.149 77.762L300.053 77.7137C296.649 75.8823 292.998 74.5507 289.214 73.76L288.973 73.7116C288.369 73.5989 287.781 73.5103 287.217 73.4298L286.654 73.3734C286.472 73.3435 286.29 73.3247 286.106 73.3171L285.575 73.2688C284.689 73.2124 283.884 73.1963 283.159 73.2124H282.692H282.386H282.015C281.291 73.2688 280.679 73.3654 280.196 73.4459L279.962 73.4862C279.608 73.5506 279.35 73.6231 279.157 73.6714C279.088 73.6848 279.021 73.7037 278.956 73.7277H278.891C275.304 70.7164 270.676 69.2382 266.007 69.613C294.819 54.4825 317.188 55.3522 326.811 56.8016C328.392 57.0304 329.959 57.3449 331.505 57.7437L331.707 57.8162H331.747L331.94 57.8726C333.437 58.4359 334.9 59.0865 336.321 59.8213C345.146 64.2823 363.876 76.4978 378.588 105.551Z" fill="#133551"/>
<path opacity="0.2" d="M365.728 101.46C365.68 101.386 365.626 101.316 365.567 101.251L365.398 101.041V101.001C365.341 100.937 365.277 100.856 365.196 100.776L365.052 100.623C364.951 100.504 364.843 100.391 364.729 100.285C364.536 100.099 364.319 99.8739 364.069 99.6484L363.811 99.4229C363.723 99.3424 363.642 99.2619 363.546 99.1894L363.248 98.9478C362.95 98.6982 362.62 98.4405 362.257 98.1426C362.139 98.0503 362.015 97.9643 361.887 97.8849C361.509 97.6111 361.082 97.3454 360.647 97.0797C360.502 96.983 360.357 96.8864 360.196 96.7979C359.89 96.6126 359.56 96.4274 359.222 96.2503C358.706 95.9846 358.175 95.7027 357.611 95.445C354.033 93.8388 350.232 92.7854 346.338 92.3207C346.303 92.3122 346.267 92.3122 346.233 92.3207C344.363 92.079 342.481 91.9446 340.596 91.9181C340.194 91.9181 339.791 91.9181 339.356 91.9181C338.511 91.9181 337.649 91.9181 336.747 91.9745H336.506V91.8617C328.654 85.4274 318.643 82.2333 308.516 82.9316L308.435 83.0121L308.33 82.9397L308.234 82.8753C307.525 82.3196 306.841 81.8043 306.148 81.3211C305.802 81.0715 305.464 80.838 305.118 80.6206C303.564 79.5577 301.951 78.5844 300.286 77.7056C300.257 77.6833 300.225 77.6668 300.19 77.6573C296.795 75.8 293.142 74.4618 289.351 73.6875L289.117 73.6472C288.506 73.5264 287.91 73.4378 287.354 73.3734C287.168 73.3401 286.979 73.3185 286.79 73.309L286.243 73.2526C286.066 73.2409 285.888 73.2409 285.711 73.2526C284.826 73.1882 284.012 73.1802 283.296 73.1963H282.821H282.515H282.144C281.419 73.2526 280.799 73.3573 280.316 73.4378C280.237 73.4493 280.16 73.4654 280.083 73.4862C279.81 73.5327 279.541 73.5973 279.277 73.6794C279.209 73.6929 279.142 73.7117 279.076 73.7358H279.012C299.875 58.3235 318.243 56.5761 326.948 56.8258C328.528 57.0546 330.096 57.3691 331.642 57.7679L331.843 57.8404H331.884L332.077 57.8967C333.574 58.46 335.037 59.1107 336.457 59.8454C343.697 64.7332 357.651 76.8118 365.728 101.46Z" fill="white"/>
<path opacity="0.2" d="M331.86 57.8484C323.646 55.2233 308.105 82.9397 308.105 82.9397C318.435 82.2229 328.648 85.4841 336.651 92.055C336.651 92.055 340.081 60.4735 331.86 57.8484Z" fill="white"/>
</svg>
