<svg width="348" height="300" viewBox="0 0 348 300" fill="none" xmlns="http://www.w3.org/2000/svg">
<g clip-path="url(#clip0)">
<path d="M46.16 104.704C61.004 104.704 73.0373 92.671 73.0373 77.8271C73.0373 62.9832 61.004 50.9498 46.16 50.9498C31.3161 50.9498 19.2827 62.9832 19.2827 77.8271C19.2827 92.671 31.3161 104.704 46.16 104.704Z" fill="white" stroke="#2E353A" stroke-linecap="round" stroke-linejoin="round"/>
<path d="M44.1595 102.035C59.0035 102.035 71.0369 90.0012 71.0369 75.1573C71.0369 60.3134 59.0035 48.28 44.1595 48.28C29.3156 48.28 17.2822 60.3134 17.2822 75.1573C17.2822 90.0012 29.3156 102.035 44.1595 102.035Z" fill="white" stroke="#2E353A" stroke-linecap="round" stroke-linejoin="round"/>
<path d="M44.1596 99.3647C57.5291 99.3647 68.3671 88.5267 68.3671 75.1573C68.3671 61.7878 57.5291 50.9498 44.1596 50.9498C30.7902 50.9498 19.9521 61.7878 19.9521 75.1573C19.9521 88.5267 30.7902 99.3647 44.1596 99.3647Z" fill="#2E353A" stroke="#2E353A" stroke-linecap="round" stroke-linejoin="round"/>
<path d="M41.3186 56.9589C41.3186 56.9589 38.6487 50.2804 33.9785 45.6101C29.3082 40.9399 10.2692 37.9276 10.2692 37.9276C13.3435 40.8929 16.1393 44.1342 18.6211 47.6106C22.9567 53.6196 37.3021 67.3113 37.3021 67.3113C37.3021 67.3113 30.2968 61.3022 23.9452 60.6328C17.5937 59.9634 1.5747 63.3026 0.593947 63.3026C-0.386807 63.3026 6.60301 65.9725 11.6157 68.3076C16.6285 70.6427 35.9867 72.6509 35.9867 72.6509C35.9867 72.6509 27.6425 74.986 21.9759 76.9943C16.3094 79.0025 10.9386 93.6826 10.9386 93.6826C10.9386 93.6826 18.2864 87.0042 24.6302 85.3385C30.974 83.6727 39.9875 80.6682 39.9875 80.6682C39.9875 80.6682 34.3132 87.012 32.9822 91.3553C31.6511 95.6986 32.6475 105.709 32.6475 105.709C32.6475 105.709 35.652 96.368 39.3259 92.6863C42.9999 89.0046 46.9929 82.7075 46.9929 82.7075C48.8423 85.7219 50.516 88.8406 52.0057 92.048C54.6755 97.7224 56.3412 106.059 56.3412 106.059C56.3412 106.059 60.6846 96.7183 60.3499 92.048C60.0152 87.3778 55.0102 79.0258 55.0102 79.0258C55.0102 79.0258 58.3494 76.6907 63.3544 78.6911C68.3593 80.6915 77.046 89.0435 77.046 89.0435C77.046 89.0435 75.0378 78.0217 71.6986 73.6862C68.3593 69.3506 54.0061 68.004 54.0061 68.004C54.0061 68.004 62.0234 63.3338 67.0283 62.3297C72.0333 61.3256 78.704 63.6685 78.704 63.6685C78.704 63.6685 71.0292 52.9814 65.0201 52.312C59.011 51.6426 49.9975 60.9675 49.9975 60.9675L52.6751 47.6106C53.3367 44.2713 52.0057 35.9349 52.0057 35.9349C52.0057 35.9349 48.3317 37.9354 43.9884 44.2791C42.7173 46.1063 41.826 48.1701 41.3674 50.3482C40.9088 52.5263 40.8922 54.7743 41.3186 56.9589Z" fill="#133551"/>
<path opacity="0.5" d="M41.3186 56.9589C41.3186 56.9589 38.6487 50.2804 33.9785 45.6101C29.3082 40.9399 10.2692 37.9276 10.2692 37.9276C13.3435 40.8929 16.1393 44.1342 18.6211 47.6106C22.9567 53.6196 37.3021 67.3113 37.3021 67.3113C37.3021 67.3113 30.2968 61.3022 23.9452 60.6328C17.5937 59.9634 1.5747 63.3026 0.593947 63.3026C-0.386807 63.3026 6.60301 65.9725 11.6157 68.3076C16.6285 70.6427 35.9867 72.6509 35.9867 72.6509C35.9867 72.6509 27.6425 74.986 21.9759 76.9943C16.3094 79.0025 10.9386 93.6826 10.9386 93.6826C10.9386 93.6826 18.2864 87.0042 24.6302 85.3385C30.974 83.6727 39.9875 80.6682 39.9875 80.6682C39.9875 80.6682 34.3132 87.012 32.9822 91.3553C31.6511 95.6986 32.6475 105.709 32.6475 105.709C32.6475 105.709 35.652 96.368 39.3259 92.6863C42.9999 89.0046 46.9929 82.7075 46.9929 82.7075C48.8423 85.7219 50.516 88.8406 52.0057 92.048C54.6755 97.7224 56.3412 106.059 56.3412 106.059C56.3412 106.059 60.6846 96.7183 60.3499 92.048C60.0152 87.3778 55.0102 79.0258 55.0102 79.0258C55.0102 79.0258 58.3494 76.6907 63.3544 78.6911C68.3593 80.6915 77.046 89.0435 77.046 89.0435C77.046 89.0435 75.0378 78.0217 71.6986 73.6862C68.3593 69.3506 54.0061 68.004 54.0061 68.004C54.0061 68.004 62.0234 63.3338 67.0283 62.3297C72.0333 61.3256 78.704 63.6685 78.704 63.6685C78.704 63.6685 71.0292 52.9814 65.0201 52.312C59.011 51.6426 49.9975 60.9675 49.9975 60.9675L52.6751 47.6106C53.3367 44.2713 52.0057 35.9349 52.0057 35.9349C52.0057 35.9349 48.3317 37.9354 43.9884 44.2791C42.7173 46.1063 41.826 48.1701 41.3674 50.3482C40.9088 52.5263 40.8922 54.7743 41.3186 56.9589Z" fill="black"/>
<path d="M47.8958 46.7933C48.1293 45.8359 48.3861 44.8785 48.6741 43.9366" stroke="#2E353A" stroke-width="0.5" stroke-linecap="round" stroke-linejoin="round"/>
<path d="M25.5955 46.7933C28.709 49.0739 32.6008 52.2419 34.6402 54.9584C38.3141 59.9634 45.662 70.6505 45.662 70.6505C45.4515 63.4724 46.0205 56.2927 47.3588 49.2374" stroke="#2E353A" stroke-width="0.5" stroke-linecap="round" stroke-linejoin="round"/>
<path d="M20.9563 43.6019C20.9563 43.6019 21.9293 44.2246 23.3848 45.2287" stroke="#2E353A" stroke-width="0.5" stroke-linecap="round" stroke-linejoin="round"/>
<path d="M45.6619 70.6505C45.6619 70.6505 58.3494 57.9629 63.6891 56.9588C69.0287 55.9547 73.7068 59.9634 73.7068 59.9634" stroke="#2E353A" stroke-width="0.5" stroke-linecap="round" stroke-linejoin="round"/>
<path d="M22.9878 81.2598C19.8743 83.2213 19.6174 84.3733 19.6174 84.3733" stroke="#2E353A" stroke-width="0.5" stroke-linecap="round" stroke-linejoin="round"/>
<path d="M73.3721 82.3339C73.3721 82.3339 71.3716 77.3212 64.3585 74.9861C57.3453 72.6509 46.3391 72.3162 46.3391 72.3162C46.3391 72.3162 30.8883 77.3757 25.2373 80.0144" stroke="#2E353A" stroke-width="0.5" stroke-linecap="round" stroke-linejoin="round"/>
<path d="M39.5828 70.4092C43.319 71.4989 46.3313 72.3162 46.3313 72.3162" stroke="#2E353A" stroke-width="0.5" stroke-linecap="round" stroke-linejoin="round"/>
<path d="M16.0679 64.478C19.6951 64.6959 24.3654 65.1941 26.9651 66.3071C29.0823 67.2178 33.2544 68.5333 37.193 69.7087" stroke="#2E353A" stroke-width="0.5" stroke-linecap="round" stroke-linejoin="round"/>
<path d="M10.9385 64.3067C10.9385 64.3067 12.1605 64.3067 13.9586 64.3768" stroke="#2E353A" stroke-width="0.5" stroke-linecap="round" stroke-linejoin="round"/>
<path d="M45.662 74.3167C45.662 74.3167 36.3214 88.3274 35.6443 91.6822C35.2431 93.6614 35.0191 95.6723 34.9749 97.6913" stroke="#2E353A" stroke-width="0.5" stroke-linecap="round" stroke-linejoin="round"/>
<path d="M49.8184 78.73C51.6164 81.0652 53.7725 84.1787 54.6754 86.6695C55.7264 89.7084 56.5078 92.834 57.0106 96.01" stroke="#2E353A" stroke-width="0.5" stroke-linecap="round" stroke-linejoin="round"/>
<path d="M46.9929 75.3207C46.9929 75.3207 47.7713 76.1458 48.7754 77.4146" stroke="#2E353A" stroke-width="0.5" stroke-linecap="round" stroke-linejoin="round"/>
<path d="M37.0765 59.8389C37.0765 59.8389 35.3563 52.8335 36.4226 46.334C37.489 39.8346 51.2118 26.2675 51.2118 26.2675C50.4491 30.4691 50.0713 34.7315 50.0831 39.0017C50.0831 46.4119 46.3858 65.9024 46.3858 65.9024C46.3858 65.9024 48.5731 56.9355 53.3367 52.67C58.1004 48.4045 73.0686 41.7728 73.8781 41.2045C74.6876 40.6363 70.5544 46.8789 67.8535 51.7048C65.1525 56.5308 50.5735 69.4752 50.5735 69.4752C50.5735 69.4752 58.7153 66.5018 64.4909 64.8049C70.2664 63.108 83.1719 71.9348 83.1719 71.9348C83.1719 71.9348 73.3099 70.7984 67.1841 73.1413C61.0582 75.4842 51.9824 78.3019 51.9824 78.3019C51.9824 78.3019 60.2954 80.1467 63.9071 82.8944C67.5187 85.642 72.5626 94.3832 72.5626 94.3832C72.5626 94.3832 64.6699 88.5376 59.5404 87.6969C54.4109 86.8563 47.46 84.0464 47.46 84.0464C47.7236 87.5723 48.1862 91.0806 48.8455 94.5544C49.9897 100.727 53.5158 108.48 53.5158 108.48C53.5158 108.48 44.5411 103.42 42.0814 99.4271C39.6218 95.434 38.8278 85.7354 38.8278 85.7354C38.8278 85.7354 34.7491 85.7821 31.8224 90.3278C28.8957 94.8736 26.7396 106.72 26.7396 106.72C26.7396 106.72 21.9449 96.6016 22.1239 91.1529C22.3029 85.7043 33.1846 76.2237 33.1846 76.2237C33.1846 76.2237 23.9531 77.1032 19.2984 79.2049C14.6437 81.3065 10.5806 87.1054 10.5806 87.1054C10.5806 87.1054 10.5806 73.9508 15.0796 69.9033C19.5786 65.8557 32.3517 68.1908 32.3517 68.1908L22.3885 58.9048C19.8977 56.5697 16.1148 49.0194 16.1148 49.0194C16.1148 49.0194 20.2713 48.5057 27.4947 51.1288C29.5943 51.864 31.5245 53.0139 33.1706 54.5102C34.8167 56.0065 36.145 57.8187 37.0765 59.8389Z" fill="#133551"/>
<path d="M25.8055 55.4177C25.0271 54.7716 24.2955 54.1489 23.5171 53.5418" stroke="#2E353A" stroke-width="0.5" stroke-linecap="round" stroke-linejoin="round"/>
<path d="M43.9182 42.4111C42.7117 46.085 41.3652 50.9187 41.334 54.3124C41.2718 60.5394 41.5364 73.4838 41.5364 73.4838C37.5188 67.5322 32.8652 62.0357 27.658 57.0912" stroke="#2E353A" stroke-width="0.5" stroke-linecap="round" stroke-linejoin="round"/>
<path d="M45.8331 37.1103C45.8331 37.1103 45.3972 38.1845 44.8057 39.8424" stroke="#2E353A" stroke-width="0.5" stroke-linecap="round" stroke-linejoin="round"/>
<path d="M41.5367 73.4838C41.5367 73.4838 23.8286 70.5805 18.9093 72.8844C13.99 75.1884 12.5266 81.1508 12.5266 81.1508" stroke="#2E353A" stroke-width="0.5" stroke-linecap="round" stroke-linejoin="round"/>
<path d="M66.1489 68.8758C69.7995 68.6734 70.6713 69.4129 70.6713 69.4129" stroke="#2E353A" stroke-width="0.5" stroke-linecap="round" stroke-linejoin="round"/>
<path d="M25.8444 99.1391C25.8444 99.1391 24.5523 93.9006 28.8801 87.9149C33.2079 81.9292 41.9724 75.2351 41.9724 75.2351C41.9724 75.2351 57.4698 70.3236 63.5957 69.1794" stroke="#2E353A" stroke-width="0.5" stroke-linecap="round" stroke-linejoin="round"/>
<path d="M46.3391 69.7476C43.9417 72.8066 41.9802 75.2351 41.9802 75.2351" stroke="#2E353A" stroke-width="0.5" stroke-linecap="round" stroke-linejoin="round"/>
<path d="M61.9767 51.2145C59.159 53.5496 55.6563 56.6631 54.1929 59.0527C53.002 61.0298 50.3789 64.5014 47.8647 67.7783" stroke="#2E353A" stroke-width="0.5" stroke-linecap="round" stroke-linejoin="round"/>
<path d="M66.0399 48.0776C66.0399 48.0776 65.0514 48.7937 63.627 49.899" stroke="#2E353A" stroke-width="0.5" stroke-linecap="round" stroke-linejoin="round"/>
<path d="M43.6772 76.4805C43.6772 76.4805 59.4549 82.4118 61.9379 84.7391C63.4186 86.1122 64.7732 87.6153 65.9855 89.2303" stroke="#2E353A" stroke-width="0.5" stroke-linecap="round" stroke-linejoin="round"/>
<path d="M42.8753 82.474C42.7663 85.4163 42.8208 89.1914 43.5603 91.76C44.4779 94.846 45.6683 97.8442 47.1174 100.719" stroke="#2E353A" stroke-width="0.5" stroke-linecap="round" stroke-linejoin="round"/>
<path d="M43.1789 78.0373C43.1789 78.0373 43.0543 79.1426 42.9609 80.7772" stroke="#2E353A" stroke-width="0.5" stroke-linecap="round" stroke-linejoin="round"/>
<path d="M89.0174 95.4963H265.452C267.655 95.4963 269.767 96.3713 271.325 97.9288C272.882 99.4864 273.757 101.599 273.757 103.802V218.223C273.757 219.416 273.522 220.597 273.066 221.699C272.609 222.801 271.94 223.802 271.097 224.646C270.253 225.489 269.252 226.158 268.15 226.615C267.048 227.071 265.866 227.306 264.673 227.306H89.7958C88.6029 227.306 87.4217 227.071 86.3196 226.615C85.2176 226.158 84.2162 225.489 83.3727 224.646C82.5292 223.802 81.8601 222.801 81.4036 221.699C80.9471 220.597 80.7122 219.416 80.7122 218.223V103.802C80.7122 101.599 81.5872 99.4864 83.1447 97.9288C84.7023 96.3713 86.8147 95.4963 89.0174 95.4963Z" fill="white" stroke="#2E353A" stroke-linecap="round" stroke-linejoin="round"/>
<path d="M153.591 108.472H142.725V115.61H153.591V108.472Z" fill="#2E353A"/>
<path d="M118.386 152.505H108.298V162.514H118.386V152.505Z" fill="#2E353A"/>
<path d="M162.955 117.322H152.79V127.332H162.955V117.322Z" fill="#2E353A"/>
<path d="M141.005 108.472H130.139V115.61H141.005V108.472Z" fill="#2E353A"/>
<path d="M174.833 117.322H164.668V127.332H174.833V117.322Z" fill="#2E353A"/>
<path d="M166.17 108.472H155.304V115.61H166.17V108.472Z" fill="#2E353A"/>
<path d="M112.291 140.774H93.1738V150.784H112.291V140.774Z" fill="#2E353A"/>
<path d="M139.192 117.322H129.026V127.332H139.192V117.322Z" fill="#2E353A"/>
<path d="M106.585 152.505H93.1738V162.514H106.585V152.505Z" fill="#2E353A"/>
<path d="M178.757 108.472H167.89V115.61H178.757V108.472Z" fill="#2E353A"/>
<path d="M115.428 117.322H105.262V127.332H115.428V117.322Z" fill="#2E353A"/>
<path d="M115.84 108.472H104.974V115.61H115.84V108.472Z" fill="#2E353A"/>
<path d="M128.427 108.472H117.561V115.61H128.427V108.472Z" fill="#2E353A"/>
<path d="M127.306 117.322H117.14V127.332H127.306V117.322Z" fill="#2E353A"/>
<path d="M151.07 117.322H140.904V127.332H151.07V117.322Z" fill="#2E353A"/>
<path d="M229.094 108.472H218.228V115.61H229.094V108.472Z" fill="#2E353A"/>
<path d="M241.673 108.472H230.806V115.61H241.673V108.472Z" fill="#2E353A"/>
<path d="M234.247 117.322H224.081V127.332H234.247V117.322Z" fill="#2E353A"/>
<path d="M246.132 117.322H235.967V127.332H246.132V117.322Z" fill="#2E353A"/>
<path d="M264.93 152.505H249.962V162.514H264.93V152.505Z" fill="#2E353A"/>
<path d="M254.259 108.472H243.393V115.61H254.259V108.472Z" fill="#2E353A"/>
<path d="M103.55 117.322H93.1738V127.332H103.55V117.322Z" fill="#2E353A"/>
<path d="M191.343 108.472H180.477V115.61H191.343V108.472Z" fill="#2E353A"/>
<path d="M203.921 108.472H193.055V115.61H203.921V108.472Z" fill="#2E353A"/>
<path d="M198.605 117.322H188.439V127.332H198.605V117.322Z" fill="#2E353A"/>
<path d="M222.369 117.322H212.203V127.332H222.369V117.322Z" fill="#2E353A"/>
<path d="M186.719 117.322H176.553V127.332H186.719V117.322Z" fill="#2E353A"/>
<path d="M210.483 117.322H200.317V127.332H210.483V117.322Z" fill="#2E353A"/>
<path d="M216.508 108.472H205.642V115.61H216.508V108.472Z" fill="#2E353A"/>
<path d="M201.026 152.505H190.938V162.514H201.026V152.505Z" fill="#2E353A"/>
<path d="M253.955 140.774H243.868V150.784H253.955V140.774Z" fill="#2E353A"/>
<path d="M242.147 140.774H232.06V150.784H242.147V140.774Z" fill="#2E353A"/>
<path d="M248.242 152.505H238.154V162.514H248.242V152.505Z" fill="#2E353A"/>
<path d="M236.442 152.505H226.354V162.514H236.442V152.505Z" fill="#2E353A"/>
<path d="M212.826 152.505H202.738V162.514H212.826V152.505Z" fill="#2E353A"/>
<path d="M224.634 152.505H214.546V162.514H224.634V152.505Z" fill="#2E353A"/>
<path d="M230.339 140.774H220.251V150.784H230.339V140.774Z" fill="#2E353A"/>
<path d="M218.539 140.774H208.451V150.784H218.539V140.774Z" fill="#2E353A"/>
<path d="M264.938 108.472H255.979V115.61H264.938V108.472Z" fill="#2E353A"/>
<path d="M103.262 108.472H93.1738V115.61H103.262V108.472Z" fill="#2E353A"/>
<path d="M264.938 164.227H93.1738V174.634H264.938V164.227Z" fill="#2E353A"/>
<path d="M264.931 117.322H247.845V127.332H264.931V117.322Z" fill="#2E353A"/>
<path d="M264.93 140.774H255.667V150.784H264.93V140.774Z" fill="#2E353A"/>
<path d="M252.819 138.984H251.099V129.052H241.011V138.984H239.298V129.052H229.211V138.984H227.49V129.052H217.403V138.984H215.682V129.052H205.595V138.984H203.882V129.052H193.794V138.984H192.074V129.052H181.987V138.984H180.266V129.052H170.179V138.984H168.466V129.052H158.378V138.984H156.658V129.052H146.57V138.984H144.85V129.052H134.762V138.984H133.05V129.052H122.962V138.984H121.242V129.052H111.154V138.984H109.434V129.052H93.1738V139.062H264.93V129.052H252.819V138.984Z" fill="#2E353A"/>
<path d="M171.315 140.774H161.227V150.784H171.315V140.774Z" fill="#2E353A"/>
<path d="M206.731 140.774H196.643V150.784H206.731V140.774Z" fill="#2E353A"/>
<path d="M147.707 140.774H137.619V150.784H147.707V140.774Z" fill="#2E353A"/>
<path d="M153.802 152.505H143.714V162.514H153.802V152.505Z" fill="#2E353A"/>
<path d="M159.507 140.774H149.419V150.784H159.507V140.774Z" fill="#2E353A"/>
<path d="M135.899 140.774H125.811V150.784H135.899V140.774Z" fill="#2E353A"/>
<path d="M130.194 152.505H120.106V162.514H130.194V152.505Z" fill="#2E353A"/>
<path d="M141.994 152.505H131.906V162.514H141.994V152.505Z" fill="#2E353A"/>
<path d="M183.123 140.774H173.035V150.784H183.123V140.774Z" fill="#2E353A"/>
<path d="M189.218 152.505H179.13V162.514H189.218V152.505Z" fill="#2E353A"/>
<path d="M194.923 140.774H184.835V150.784H194.923V140.774Z" fill="#2E353A"/>
<path d="M165.61 152.505H155.522V162.514H165.61V152.505Z" fill="#2E353A"/>
<path d="M177.41 152.505H167.322V162.514H177.41V152.505Z" fill="#2E353A"/>
<path d="M124.091 140.774H114.003V150.784H124.091V140.774Z" fill="#2E353A"/>
<path d="M284.779 23.8857H68.6551C67.5952 23.8866 66.5497 24.1311 65.5995 24.6005C64.6492 25.0699 63.8196 25.7515 63.1748 26.5927C62.53 27.4338 62.0873 28.412 61.8809 29.4516C61.6745 30.4912 61.7099 31.5643 61.9844 32.588L77.7854 91.4176C78.1792 92.8861 79.0462 94.1839 80.2522 95.1098C81.4581 96.0357 82.9357 96.5381 84.4561 96.5393H106.515V100.61H247.938V96.5627H268.955C270.475 96.5615 271.953 96.059 273.158 95.1331C274.364 94.2072 275.231 92.9095 275.625 91.441L291.426 32.6113C291.704 31.588 291.744 30.5144 291.54 29.4736C291.337 28.4327 290.897 27.4526 290.255 26.609C289.612 25.7655 288.784 25.0811 287.834 24.6088C286.885 24.1366 285.839 23.8892 284.779 23.8857Z" fill="#2E353A" stroke="#2E353A" stroke-linecap="round" stroke-linejoin="round"/>
<path d="M260.338 91.3475H93.0962L76.3689 31.1557H277.058L260.338 91.3475Z" fill="#133551" stroke="#2E353A" stroke-linecap="round" stroke-linejoin="round"/>
<path d="M104.196 64.9295V65.7079H101.246V64.9295H104.196Z" fill="#2E353A"/>
<path d="M107.87 64.9295V65.7079H104.912V64.9295H107.87Z" fill="#2E353A"/>
<path d="M111.544 64.9295V65.7079H108.609V64.9295H111.544Z" fill="#2E353A"/>
<path d="M115.21 64.9295V65.7079H112.26V64.9295H115.21Z" fill="#2E353A"/>
<path d="M118.884 64.9295V65.7079H115.926V64.9295H118.884Z" fill="#2E353A"/>
<path d="M122.558 64.9295V65.7079H119.6V64.9295H122.558Z" fill="#2E353A"/>
<path d="M126.224 64.9295V65.7079H123.274V64.9295H126.224Z" fill="#2E353A"/>
<path d="M129.859 69.0315L126.605 60.3604H127.384L130.637 69.0315H129.859Z" fill="#2E353A"/>
<path d="M101.222 52.3042V53.0826H98.2725V52.3042H101.222Z" fill="#2E353A"/>
<path d="M104.896 52.3042V53.0826H101.946V52.3042H104.896Z" fill="#2E353A"/>
<path d="M108.609 52.3042V53.0826H105.651V52.3042H108.609Z" fill="#2E353A"/>
<path d="M112.244 52.3042V53.0826H109.286V52.3042H112.244Z" fill="#2E353A"/>
<path d="M115.91 52.3042V53.0826H112.96V52.3042H115.91Z" fill="#2E353A"/>
<path d="M122.122 52.3042V53.0826H119.164V52.3042H122.122Z" fill="#2E353A"/>
<path d="M125.788 52.3042V53.0826H122.838V52.3042H125.788Z" fill="#2E353A"/>
<path d="M129.462 52.3042V53.0826H126.512V52.3042H129.462Z" fill="#2E353A"/>
<path d="M133.136 52.3042V53.0826H130.178V52.3042H133.136Z" fill="#2E353A"/>
<path d="M136.802 52.3042V53.0826H133.852V52.3042H136.802Z" fill="#2E353A"/>
<path d="M140.476 52.3042V53.0826H137.526V52.3042H140.476Z" fill="#2E353A"/>
<path d="M144.15 52.3042V53.0826H141.192V52.3042H144.15Z" fill="#2E353A"/>
<path d="M150.354 52.3042V53.0826H147.404V52.3042H150.354Z" fill="#2E353A"/>
<path d="M154.027 52.3042V53.0826H151.069V52.3042H154.027Z" fill="#2E353A"/>
<path d="M157.701 52.3042V53.0826H154.743V52.3042H157.701Z" fill="#2E353A"/>
<path d="M163.874 52.3042V53.0826H160.924V52.3042H163.874Z" fill="#2E353A"/>
<path d="M167.579 52.3042V53.0826H164.652V52.3042H167.579Z" fill="#2E353A"/>
<path d="M171.253 52.3042V53.0826H168.295V52.3042H171.253Z" fill="#2E353A"/>
<path d="M185.061 52.3042V53.0826H182.111V52.3042H185.061Z" fill="#2E353A"/>
<path d="M188.735 52.3042V53.0826H185.777V52.3042H188.735Z" fill="#2E353A"/>
<path d="M192.409 52.3042V53.0826H189.451V52.3042H192.409Z" fill="#2E353A"/>
<path d="M196.075 52.3042V53.0826H193.125V52.3042H196.075Z" fill="#2E353A"/>
<path d="M199.749 52.3042V53.0826H196.791V52.3042H199.749Z" fill="#2E353A"/>
<path d="M205.953 52.3042V53.0826H203.003V52.3042H205.953Z" fill="#2E353A"/>
<path d="M209.627 52.3042V53.0826H206.684V52.3042H209.627Z" fill="#2E353A"/>
<path d="M213.301 52.3042V53.0826H210.343V52.3042H213.301Z" fill="#2E353A"/>
<path d="M219.504 52.3042V53.0826H216.554V52.3042H219.504Z" fill="#2E353A"/>
<path d="M225.716 52.3042V53.0826H222.758V52.3042H225.716Z" fill="#2E353A"/>
<path d="M274.94 180.23L266.611 212.362L274.488 214.673L274.94 180.23Z" fill="white" stroke="#2E353A" stroke-linecap="round" stroke-linejoin="round"/>
<path d="M278.676 146.27C277.737 144.826 277.393 143.073 277.719 141.382C278.147 138.214 281.969 137.49 281.969 137.49C281.969 137.49 282.802 136.859 285.861 138.019C288.92 139.179 312.575 142.386 327.691 144.433C342.807 146.48 347.703 145.157 347.493 150.348C347.283 155.54 334.019 202.134 333.817 203.597C333.614 205.06 278.676 146.27 278.676 146.27Z" fill="white" stroke="#2E353A" stroke-miterlimit="10"/>
<path d="M342.257 154.891L278.669 146.271L268.394 222.069L331.982 230.689L342.257 154.891Z" fill="white" stroke="#2E353A" stroke-linecap="round" stroke-linejoin="round"/>
<path d="M330.438 170.01L334.135 170.516" stroke="#2E353A" stroke-width="0.5" stroke-linecap="round" stroke-linejoin="round"/>
<path d="M307.281 166.873L327.511 169.621" stroke="#2E353A" stroke-width="0.5" stroke-linecap="round" stroke-linejoin="round"/>
<path d="M282.763 163.55L304.355 166.476" stroke="#2E353A" stroke-width="0.5" stroke-linecap="round" stroke-linejoin="round"/>
<path d="M324.647 176.089L333.225 177.257" stroke="#2E353A" stroke-width="0.5" stroke-linecap="round" stroke-linejoin="round"/>
<path d="M281.852 170.29L315.875 174.898" stroke="#2E353A" stroke-width="0.5" stroke-linecap="round" stroke-linejoin="round"/>
<path d="M299.116 179.491L332.314 183.99" stroke="#2E353A" stroke-width="0.5" stroke-linecap="round" stroke-linejoin="round"/>
<path d="M280.934 177.023L295.699 179.032" stroke="#2E353A" stroke-width="0.5" stroke-linecap="round" stroke-linejoin="round"/>
<path d="M310.146 187.851L331.396 190.731" stroke="#2E353A" stroke-width="0.5" stroke-linecap="round" stroke-linejoin="round"/>
<path d="M292.111 185.399L307.709 187.516" stroke="#2E353A" stroke-width="0.5" stroke-linecap="round" stroke-linejoin="round"/>
<path d="M280.023 183.764L289.426 185.041" stroke="#2E353A" stroke-width="0.5" stroke-linecap="round" stroke-linejoin="round"/>
<path d="M322.88 196.436L330.485 197.464" stroke="#2E353A" stroke-width="0.5" stroke-linecap="round" stroke-linejoin="round"/>
<path d="M279.112 190.505L317.766 195.743" stroke="#2E353A" stroke-width="0.5" stroke-linecap="round" stroke-linejoin="round"/>
<path d="M308.076 201.285L329.574 204.204" stroke="#2E353A" stroke-width="0.5" stroke-linecap="round" stroke-linejoin="round"/>
<path d="M278.193 197.238L304.417 200.795" stroke="#2E353A" stroke-width="0.5" stroke-linecap="round" stroke-linejoin="round"/>
<path d="M314.715 209.054L328.656 210.937" stroke="#2E353A" stroke-width="0.5" stroke-linecap="round" stroke-linejoin="round"/>
<path d="M286.444 205.216L311.306 208.587" stroke="#2E353A" stroke-width="0.5" stroke-linecap="round" stroke-linejoin="round"/>
<path d="M277.283 203.979L283.518 204.819" stroke="#2E353A" stroke-width="0.5" stroke-linecap="round" stroke-linejoin="round"/>
<path d="M342.262 154.894C342.262 154.894 343.352 144.324 347.244 148.574" stroke="#2E353A" stroke-linecap="round" stroke-linejoin="round"/>
<path d="M320.701 236.32L320.631 243.037L316.715 237.511L301 184.651L304.985 183.461L320.701 236.32Z" fill="white" stroke="#2E353A" stroke-linecap="round" stroke-linejoin="round"/>
<path d="M303.425 185.719L301.251 186.354L316.692 239.296L318.867 238.661L303.425 185.719Z" fill="#133551" stroke="#2E353A" stroke-width="0.5" stroke-linecap="round" stroke-linejoin="round"/>
<path d="M320.701 236.336L316.723 237.519L320.631 243.037L320.701 236.336Z" stroke="#2E353A" stroke-linecap="round" stroke-linejoin="round"/>
<path d="M318.677 240.274L320.631 243.037L320.67 239.683L318.677 240.274Z" fill="#2E353A" stroke="#2E353A" stroke-linecap="round" stroke-linejoin="round"/>
<path d="M301.234 178.137C300.706 178.295 300.263 178.656 300.001 179.14C299.738 179.624 299.678 180.192 299.833 180.721L301 184.652L304.986 183.468L303.818 179.538C303.659 179.01 303.299 178.567 302.815 178.305C302.33 178.042 301.762 177.982 301.234 178.137Z" fill="white" stroke="#2E353A" stroke-linecap="round" stroke-linejoin="round"/>
<path d="M301.234 178.137C300.706 178.295 300.263 178.656 300.001 179.14C299.738 179.624 299.678 180.192 299.833 180.721L300.393 182.597L304.371 181.413L303.818 179.538C303.659 179.01 303.299 178.567 302.815 178.305C302.33 178.042 301.762 177.982 301.234 178.137Z" fill="#2E353A" stroke="#2E353A" stroke-linecap="round" stroke-linejoin="round"/>
<path d="M105.223 146.916C104.725 147.616 104.235 148.348 103.744 149.119" stroke="white" stroke-linecap="round" stroke-linejoin="round"/>
<path d="M113.365 137.544C111.196 139.555 109.189 141.733 107.364 144.059" stroke="white" stroke-linecap="round" stroke-linejoin="round"/>
<path d="M104.53 141.677C102.404 144.66 100.477 147.78 98.7625 151.018" stroke="white" stroke-linecap="round" stroke-linejoin="round"/>
<path d="M159.429 158.794C158.939 159.494 158.441 160.226 157.95 160.989" stroke="white" stroke-linecap="round" stroke-linejoin="round"/>
<path d="M167.571 149.422C165.406 151.434 163.402 153.612 161.578 155.937" stroke="white" stroke-linecap="round" stroke-linejoin="round"/>
<path d="M158.744 153.54C156.619 156.54 154.692 159.675 152.976 162.927" stroke="white" stroke-linecap="round" stroke-linejoin="round"/>
<path d="M237.127 139.529C236.418 139.046 235.671 138.564 234.901 138.081" stroke="white" stroke-linecap="round" stroke-linejoin="round"/>
<path d="M246.623 147.531C244.576 145.399 242.367 143.429 240.015 141.638" stroke="white" stroke-linecap="round" stroke-linejoin="round"/>
<path d="M242.357 138.751C239.328 136.671 236.167 134.791 232.892 133.123" stroke="white" stroke-linecap="round" stroke-linejoin="round"/>
<path d="M157.063 187.788C156.658 190.715 156.051 194.794 155.444 197.214" stroke="#2E353A" stroke-linecap="round" stroke-linejoin="round"/>
<path d="M157.514 184.231C157.514 184.231 157.452 184.784 157.335 185.679" stroke="#2E353A" stroke-linecap="round" stroke-linejoin="round"/>
<path d="M159.593 192.536C158.743 195.372 157.702 198.146 156.479 200.842" stroke="#2E353A" stroke-linecap="round" stroke-linejoin="round"/>
<path d="M198.511 196.685C198.511 196.685 199.033 203.434 202.66 207.069" stroke="#2E353A" stroke-linecap="round" stroke-linejoin="round"/>
<path d="M197.99 203.434C197.99 203.434 199.547 208.104 202.66 210.182" stroke="#2E353A" stroke-linecap="round" stroke-linejoin="round"/>
<g style="mix-blend-mode:multiply">
<g style="mix-blend-mode:multiply">
<path d="M92.2629 239.504C92.2629 239.504 95.7189 236.725 95.7189 212.836C95.7189 188.948 99.6964 171.497 104.6 163.845C109.504 156.194 114.089 153.127 116.237 153.127C118.385 153.127 116.844 155.883 113.785 159.86C110.726 163.838 107.971 165.986 106.741 170.89C105.511 175.794 105.519 181.912 107.052 181.297C108.585 180.682 111.03 168.438 113.17 163.845C115.311 159.253 120.526 153.431 123.585 150.675C126.644 147.92 133.385 139.654 136.444 141.794C139.503 143.935 137.673 147.001 135.836 148.223C133.999 149.445 126.644 156.786 123.281 161.394C119.919 166.002 117.77 177.623 119.607 177.926C121.444 178.23 126.955 161.09 130.014 157.416C133.073 153.742 145.325 143.631 148.08 143.327C150.836 143.024 151.147 147.305 148.695 149.453C146.243 151.602 137.977 160.779 135.222 166.29C132.466 171.8 131.236 181.912 133.665 179.46C136.093 177.008 140.094 166.904 143.465 163.534C146.835 160.164 156.938 149.453 159.39 150.675C161.842 151.897 161.227 154.964 159.087 157.105C156.946 159.245 148.672 170.89 146.531 177.008C144.391 183.126 141.931 200.281 143.161 197.837C144.391 195.393 148.368 182.83 150.509 177.599C152.649 172.369 156.938 169.948 157.553 172.392C158.168 174.836 156.938 176.066 155.405 181.585C153.871 187.103 153.848 201.822 149.287 210.058C144.725 218.293 126.418 235.915 123.974 242.033C122.204 246.247 120.09 250.308 117.654 254.176" fill="#133551"/>
</g>
</g>
<g style="mix-blend-mode:multiply">
<g style="mix-blend-mode:multiply">
<path d="M262.377 241.574C262.377 241.574 258.835 236.725 258.835 212.836C258.835 188.948 254.85 171.497 249.954 163.845C245.058 156.194 240.458 153.127 238.317 153.127C236.177 153.127 237.703 155.883 240.769 159.86C243.836 163.838 246.584 165.986 247.775 170.89C248.966 175.794 249.005 181.912 247.471 181.297C245.938 180.682 243.494 168.438 241.345 163.845C239.197 159.253 233.997 153.431 230.938 150.675C227.879 147.92 221.139 139.654 218.072 141.794C215.005 143.935 216.85 147.001 218.687 148.223C220.524 149.445 227.872 156.786 231.242 161.394C234.612 166.002 236.753 177.623 234.916 177.926C233.079 178.23 227.591 161.09 224.532 157.432C221.473 153.773 209.214 143.647 206.459 143.343C203.703 143.039 203.4 147.321 205.851 149.469C208.303 151.617 216.57 160.794 219.325 166.305C222.081 171.816 223.303 181.927 220.882 179.475C218.461 177.023 214.452 166.92 211.09 163.55C207.727 160.179 197.616 149.469 195.164 150.691C192.712 151.913 193.327 154.98 195.468 157.12C197.608 159.261 205.883 170.905 208.023 177.023C210.164 183.141 212.615 200.297 211.393 197.853C210.171 195.409 206.186 182.846 204.046 177.615C201.905 172.384 197.616 169.963 197.001 172.408C196.386 174.852 197.616 176.081 199.142 181.6C200.667 187.119 200.699 201.838 205.268 210.073C209.837 218.308 227.623 234.382 230.074 240.508C232.526 246.633 236.963 256.285 236.963 256.285" fill="#133551"/>
</g>
</g>
<path d="M91.0955 245.388C91.0955 245.388 95.6879 230.389 95.6879 206.469C95.6879 182.55 99.6654 165.13 104.569 157.478C109.473 149.827 114.058 146.76 116.206 146.76C118.354 146.76 116.813 149.516 113.754 153.493C110.695 157.471 107.94 159.619 106.71 164.515C105.48 169.411 105.488 175.544 107.021 174.93C108.554 174.315 110.999 162.071 113.139 157.478C115.28 152.886 120.495 147.064 123.554 144.308C126.613 141.553 133.353 133.286 136.412 135.427C139.472 137.568 137.642 140.634 135.805 141.856C133.968 143.078 126.613 150.419 123.25 155.026C119.888 159.634 117.739 171.256 119.576 171.559C121.413 171.863 126.924 154.723 129.983 151.041C133.042 147.359 145.294 137.264 148.049 136.96C150.805 136.657 151.116 140.938 148.664 143.086C146.212 145.235 137.946 154.412 135.19 159.922C132.435 165.433 131.205 175.544 133.634 173.093C136.062 170.641 140.063 160.537 143.433 157.167C146.804 153.797 156.907 143.086 159.359 144.308C161.811 145.53 161.196 148.597 159.055 150.738C156.915 152.878 148.641 164.515 146.5 170.641C144.36 176.767 141.9 193.914 143.13 191.462C144.36 189.01 148.337 176.463 150.478 171.224C152.618 165.986 156.907 163.565 157.522 166.017C158.137 168.469 156.907 169.691 155.374 175.202C153.84 180.713 153.817 195.44 149.256 203.683C144.694 211.926 126.901 234.304 124.449 240.43C121.997 246.556 116.486 260.029 116.486 260.029" fill="white"/>
<path d="M91.0955 245.388C91.0955 245.388 95.6879 230.389 95.6879 206.469C95.6879 182.55 99.6654 165.13 104.569 157.478C109.473 149.827 114.058 146.76 116.206 146.76C118.354 146.76 116.813 149.516 113.754 153.493C110.695 157.471 107.94 159.619 106.71 164.515C105.48 169.411 105.488 175.544 107.021 174.93C108.554 174.315 110.999 162.071 113.139 157.478C115.28 152.886 120.495 147.064 123.554 144.308C126.613 141.553 133.353 133.286 136.412 135.427C139.472 137.568 137.642 140.634 135.805 141.856C133.968 143.078 126.613 150.419 123.25 155.026C119.888 159.634 117.739 171.256 119.576 171.559C121.413 171.863 126.924 154.723 129.983 151.041C133.042 147.359 145.294 137.264 148.049 136.96C150.805 136.657 151.116 140.938 148.664 143.086C146.212 145.235 137.946 154.412 135.19 159.922C132.435 165.433 131.205 175.544 133.634 173.093C136.062 170.641 140.063 160.537 143.433 157.167C146.804 153.797 156.907 143.086 159.359 144.308C161.811 145.53 161.196 148.597 159.055 150.738C156.915 152.878 148.641 164.515 146.5 170.641C144.36 176.767 141.9 193.914 143.13 191.462C144.36 189.01 148.337 176.463 150.478 171.224C152.618 165.986 156.907 163.565 157.522 166.017C158.137 168.469 156.907 169.691 155.374 175.202C153.84 180.713 153.817 195.44 149.256 203.683C144.694 211.926 126.901 234.304 124.449 240.43C121.997 246.556 116.486 260.029 116.486 260.029" stroke="#2E353A" stroke-linecap="round" stroke-linejoin="round"/>
<path d="M263.42 245.388C263.42 245.388 258.828 230.389 258.828 206.469C258.828 182.55 254.843 165.13 249.947 157.478C245.051 149.827 240.45 146.76 238.31 146.76C236.169 146.76 237.695 149.516 240.762 153.493C243.828 157.471 246.576 159.619 247.767 164.515C248.958 169.411 248.997 175.544 247.464 174.93C245.93 174.315 243.486 162.071 241.338 157.478C239.189 152.886 233.99 147.064 230.931 144.308C227.872 141.553 221.131 133.286 218.064 135.427C214.997 137.568 216.842 140.634 218.679 141.856C220.516 143.078 227.864 150.419 231.234 155.026C234.605 159.634 236.745 171.256 234.908 171.559C233.071 171.863 227.56 154.723 224.501 151.041C221.442 147.359 209.183 137.264 206.428 136.96C203.672 136.657 203.369 140.938 205.82 143.086C208.272 145.235 216.539 154.412 219.294 159.922C222.05 165.433 223.272 175.544 220.851 173.093C218.43 170.641 214.421 160.537 211.059 157.167C207.696 153.797 197.585 143.086 195.133 144.308C192.681 145.53 193.296 148.597 195.437 150.738C197.577 152.878 205.852 164.515 207.992 170.641C210.133 176.767 212.585 193.914 211.362 191.462C210.14 189.01 206.155 176.463 204.015 171.224C201.874 165.986 197.585 163.565 196.97 166.017C196.355 168.469 197.585 169.691 199.111 175.202C200.636 180.713 200.668 195.44 205.237 203.683C209.806 211.926 227.592 234.304 230.043 240.43C232.495 246.556 238.006 260.029 238.006 260.029" fill="white"/>
<path d="M263.42 245.388C263.42 245.388 258.828 230.389 258.828 206.469C258.828 182.55 254.843 165.13 249.947 157.478C245.051 149.827 240.45 146.76 238.31 146.76C236.169 146.76 237.695 149.516 240.762 153.493C243.828 157.471 246.576 159.619 247.767 164.515C248.958 169.411 248.997 175.544 247.464 174.93C245.93 174.315 243.486 162.071 241.338 157.478C239.189 152.886 233.99 147.064 230.931 144.308C227.872 141.553 221.131 133.286 218.064 135.427C214.997 137.568 216.842 140.634 218.679 141.856C220.516 143.078 227.864 150.419 231.234 155.026C234.605 159.634 236.745 171.256 234.908 171.559C233.071 171.863 227.56 154.723 224.501 151.041C221.442 147.359 209.183 137.264 206.428 136.96C203.672 136.657 203.369 140.938 205.82 143.086C208.272 145.235 216.539 154.412 219.294 159.922C222.05 165.433 223.272 175.544 220.851 173.093C218.43 170.641 214.421 160.537 211.059 157.167C207.696 153.797 197.585 143.086 195.133 144.308C192.681 145.53 193.296 148.597 195.437 150.738C197.577 152.878 205.852 164.515 207.992 170.641C210.133 176.767 212.585 193.914 211.362 191.462C210.14 189.01 206.155 176.463 204.015 171.224C201.874 165.986 197.585 163.565 196.97 166.017C196.355 168.469 197.585 169.691 199.111 175.202C200.636 180.713 200.668 195.44 205.237 203.683C209.806 211.926 227.592 234.304 230.043 240.43C232.495 246.556 238.006 260.029 238.006 260.029" stroke="#2E353A" stroke-linecap="round" stroke-linejoin="round"/>
<path d="M71.7141 292.091H118.417C119.024 289.756 119.787 287.14 120.752 284.307C124.426 273.301 136.319 259.539 136.319 259.539C127.795 252.032 117.778 246.413 106.928 243.053C89.0252 237.542 75.9173 239.161 75.9173 239.161C78.3303 249.11 78.5957 259.458 76.6957 269.518C74.3606 280.851 72.8038 288.02 71.7141 292.091Z" fill="#2E353A" stroke="#2E353A" stroke-linecap="round" stroke-linejoin="round"/>
<path d="M235.796 292.091H284.32C282.763 288.059 279.4 279.302 276.038 270.545C271.445 258.62 273.282 242.57 271.445 242.57C269.608 242.57 248.974 241.193 238.886 244.4C228.798 247.606 217.325 256.784 217.325 256.784C222.519 262.818 226.984 269.444 230.627 276.523C232.97 281.486 234.705 286.713 235.796 292.091Z" fill="#2E353A" stroke="#2E353A" stroke-linecap="round" stroke-linejoin="round"/>
<path d="M100.888 248.657C100.553 247.334 95.5713 249.327 95.5713 249.327C95.5713 249.327 97.237 243.022 94.5828 243.022C91.9285 243.022 91.5938 247.692 91.5938 247.692C91.5938 247.692 86.6122 245.707 86.6122 248.688C86.6122 251.67 89.9281 251.615 89.9281 251.615C89.9281 251.615 85.9428 256.597 88.9318 257.585C91.9207 258.574 93.9056 254.931 93.9056 254.931C93.9056 254.931 95.8982 258.255 98.5758 256.924C101.253 255.593 99.2375 252.611 99.2375 252.611C99.2375 252.611 101.215 249.988 100.888 248.657ZM94.2481 253.639C93.9975 253.583 93.7678 253.458 93.5854 253.277C93.4031 253.097 93.2754 252.868 93.2172 252.618C93.159 252.368 93.1726 252.107 93.2564 251.864C93.3403 251.622 93.491 251.408 93.6911 251.247C93.8913 251.086 94.1327 250.985 94.3877 250.956C94.6427 250.927 94.9008 250.97 95.1323 251.081C95.3638 251.192 95.5592 251.366 95.6961 251.583C95.833 251.8 95.9058 252.051 95.906 252.308C95.8499 252.699 95.6475 253.053 95.3397 253.301C95.0319 253.548 94.6417 253.669 94.2481 253.639ZM108.189 285.864C107.854 284.54 102.872 286.533 102.872 286.533C102.872 286.533 104.538 280.228 101.876 280.228C99.2141 280.228 98.895 284.898 98.895 284.898C98.895 284.898 93.9134 282.906 93.9134 285.887C93.9134 288.868 97.237 288.876 97.237 288.876C97.237 288.876 93.2518 293.858 96.2407 294.854C99.2297 295.85 101.215 292.192 101.215 292.192C101.215 292.192 103.207 295.516 105.885 294.185C108.562 292.853 106.546 289.872 106.546 289.872C106.546 289.872 108.516 287.156 108.189 285.864ZM101.549 290.845C101.299 290.79 101.069 290.664 100.887 290.484C100.704 290.303 100.577 290.075 100.518 289.825C100.46 289.575 100.474 289.313 100.558 289.071C100.641 288.828 100.792 288.614 100.992 288.453C101.192 288.293 101.434 288.192 101.689 288.162C101.944 288.133 102.202 288.176 102.433 288.287C102.665 288.398 102.86 288.572 102.997 288.789C103.134 289.006 103.207 289.258 103.207 289.514C103.151 289.902 102.947 290.253 102.638 290.494C102.329 290.735 101.939 290.847 101.549 290.806V290.845ZM78.9763 290.845C78.6416 289.514 73.6678 291.507 73.6678 291.507C73.6678 291.507 75.3258 285.202 72.6715 285.202C70.0172 285.202 69.6825 289.872 69.6825 289.872C69.6825 289.872 64.7009 287.88 64.7009 290.869C64.7009 293.858 68.0246 293.858 68.0246 293.858C68.0246 293.858 64.0393 298.831 67.0283 299.828C70.0172 300.824 72.0021 297.173 72.0021 297.173C72.0021 297.173 73.9947 300.489 76.6724 299.166C79.35 297.843 77.3418 294.854 77.3418 294.854C77.3418 294.854 79.311 292.13 78.9841 290.806L78.9763 290.845ZM72.3368 295.819C72.0859 295.763 71.856 295.638 71.6735 295.457C71.491 295.276 71.3634 295.047 71.3055 294.796C71.2476 294.546 71.2617 294.284 71.3461 294.042C71.4306 293.799 71.582 293.585 71.7829 293.425C71.9837 293.264 72.2259 293.164 72.4813 293.136C72.7367 293.107 72.995 293.151 73.2263 293.263C73.4576 293.375 73.6525 293.551 73.7885 293.769C73.9244 293.987 73.9959 294.239 73.9947 294.496C73.9368 294.881 73.7332 295.228 73.4261 295.467C73.119 295.706 72.7318 295.818 72.3446 295.78L72.3368 295.819ZM115.147 264.956H118.798C121.452 264.956 123.11 267.945 123.11 267.945C117.475 269.564 115.155 264.918 115.155 264.918L115.147 264.956ZM111.497 290.845H115.147C117.802 290.845 119.46 293.834 119.46 293.834C113.824 295.453 111.505 290.806 111.505 290.806L111.497 290.845ZM79.6457 285.864H83.2963C85.9506 285.864 87.6085 288.853 87.6085 288.853C81.9653 290.472 79.6457 285.864 79.6457 285.864ZM97.2915 262.442L99.4243 265.408C100.981 267.572 99.5099 270.654 99.5099 270.654C94.8708 267.004 97.2915 262.403 97.2915 262.403V262.442ZM79.0308 272.359L80.6966 269.113C81.9186 266.778 85.3279 266.638 85.3279 266.638C84.1837 272.413 79.0308 272.359 79.0308 272.359Z" fill="white"/>
<path d="M257.193 254.962C256.859 253.639 251.877 255.632 251.877 255.632C251.877 255.632 253.543 249.327 250.888 249.327C248.234 249.327 247.899 253.997 247.899 253.997C247.899 253.997 242.918 252.012 242.918 254.993C242.918 257.974 246.241 257.982 246.241 257.982C246.241 257.982 242.256 262.964 245.245 263.96C248.234 264.956 250.219 261.298 250.219 261.298C250.219 261.298 252.212 264.622 254.889 263.291C257.567 261.96 255.551 258.979 255.551 258.979C255.551 258.979 257.52 256.285 257.193 254.962ZM250.554 259.944C250.303 259.888 250.073 259.763 249.891 259.582C249.709 259.401 249.581 259.173 249.523 258.923C249.465 258.673 249.478 258.412 249.562 258.169C249.646 257.927 249.797 257.713 249.997 257.552C250.197 257.391 250.438 257.29 250.693 257.261C250.948 257.232 251.206 257.275 251.438 257.386C251.669 257.496 251.865 257.67 252.002 257.888C252.139 258.105 252.211 258.356 252.212 258.613C252.165 259.008 251.965 259.368 251.655 259.617C251.345 259.866 250.949 259.983 250.554 259.944ZM272.784 280.851C272.457 279.52 267.476 281.513 267.476 281.513C267.476 281.513 269.134 275.208 266.479 275.208C263.825 275.208 263.498 279.878 263.498 279.878C263.498 279.878 258.516 277.885 258.516 280.874C258.516 283.863 261.832 283.863 261.832 283.863C261.832 283.863 257.855 288.837 260.844 289.833C263.833 290.83 265.818 287.179 265.818 287.179C265.818 287.179 267.81 290.495 270.488 289.172C273.166 287.849 271.15 284.86 271.15 284.86C271.15 284.86 273.119 282.174 272.784 280.851ZM266.152 285.864C265.901 285.808 265.672 285.682 265.489 285.501C265.307 285.32 265.179 285.091 265.121 284.841C265.063 284.591 265.077 284.329 265.162 284.086C265.246 283.844 265.398 283.63 265.598 283.469C265.799 283.309 266.041 283.209 266.297 283.18C266.552 283.152 266.811 283.196 267.042 283.308C267.273 283.42 267.468 283.595 267.604 283.813C267.74 284.031 267.811 284.283 267.81 284.54C267.761 284.934 267.561 285.292 267.251 285.54C266.941 285.787 266.547 285.903 266.152 285.864ZM256.197 290.845C255.862 289.514 250.888 291.507 250.888 291.507C250.888 291.507 252.546 285.202 249.892 285.202C247.238 285.202 246.903 289.872 246.903 289.872C246.903 289.872 241.921 287.88 241.921 290.869C241.921 293.858 245.245 293.858 245.245 293.858C245.245 293.858 241.26 298.831 244.249 299.828C247.238 300.824 249.223 297.173 249.223 297.173C249.223 297.173 251.215 300.489 253.893 299.166C256.571 297.843 254.562 294.854 254.562 294.854C254.562 294.854 256.5 292.13 256.197 290.806V290.845ZM249.557 295.819C249.306 295.763 249.077 295.638 248.894 295.457C248.712 295.276 248.584 295.047 248.526 294.796C248.468 294.546 248.482 294.284 248.567 294.042C248.651 293.799 248.803 293.585 249.003 293.425C249.204 293.265 249.446 293.164 249.702 293.136C249.957 293.107 250.216 293.151 250.447 293.263C250.678 293.375 250.873 293.551 251.009 293.769C251.145 293.987 251.217 294.239 251.215 294.496C251.157 294.882 250.953 295.231 250.644 295.47C250.335 295.71 249.946 295.821 249.557 295.78V295.819ZM271.461 271.261H275.111C277.766 271.261 279.424 274.25 279.424 274.25C273.78 275.869 271.461 271.222 271.461 271.222V271.261ZM232.301 290.145H235.951C238.606 290.145 240.264 293.126 240.264 293.126C234.62 294.792 232.301 290.145 232.301 290.145ZM253.597 268.739L255.73 271.705C257.287 273.869 255.816 276.951 255.816 276.951C251.176 273.308 253.597 268.739 253.597 268.739ZM275.182 287.296L277.306 290.262C278.863 292.418 277.392 295.508 277.392 295.508C272.753 291.888 275.182 287.296 275.182 287.296ZM235.305 278.664L236.971 275.418C238.193 273.083 241.641 272.943 241.641 272.943C240.489 278.718 235.298 278.664 235.298 278.664H235.305Z" fill="white"/>
</g>
<defs>
<clipPath id="clip0">
<rect width="348" height="300" fill="white"/>
</clipPath>
</defs>
</svg>
