<svg width="404" height="300" viewBox="0 0 404 300" fill="none" xmlns="http://www.w3.org/2000/svg">
<path d="M403.31 263.635H0.689941V263.837H403.31V263.635Z" fill="#EBEBEB"/>
<path d="M292.187 270.029H265.517V270.23H292.187V270.029Z" fill="#EBEBEB"/>
<path d="M355.736 270.134H322.609V270.335H355.736V270.134Z" fill="#EBEBEB"/>
<path d="M303.419 275.392H287.967V275.593H303.419V275.392Z" fill="#EBEBEB"/>
<path d="M182.408 273.87H140.802V274.071H182.408V273.87Z" fill="#EBEBEB"/>
<path d="M133.635 273.87H105.943V274.071H133.635V273.87Z" fill="#EBEBEB"/>
<path d="M89.3712 270.472H51.6538V270.673H89.3712V270.472Z" fill="#EBEBEB"/>
<path d="M191.532 227.722H36.0484C34.8303 227.72 33.6629 227.234 32.8023 226.372C31.9418 225.51 31.4585 224.342 31.4585 223.124V4.55765C31.4691 3.3466 31.9571 2.18862 32.8165 1.33526C33.6759 0.481902 34.8373 0.00207461 36.0484 0H191.532C192.751 0 193.921 0.484422 194.783 1.3467C195.646 2.20898 196.13 3.37847 196.13 4.59792V223.124C196.13 224.343 195.646 225.513 194.783 226.375C193.921 227.237 192.751 227.722 191.532 227.722ZM36.0484 0.161048C34.8837 0.163182 33.7675 0.627334 32.9447 1.45163C32.1219 2.27592 31.6598 3.393 31.6598 4.55765V223.124C31.6598 224.288 32.1219 225.406 32.9447 226.23C33.7675 227.054 34.8837 227.518 36.0484 227.52H191.532C192.697 227.518 193.814 227.054 194.639 226.23C195.463 225.406 195.927 224.289 195.929 223.124V4.55765C195.927 3.39226 195.463 2.2752 194.639 1.45114C193.814 0.627072 192.697 0.163177 191.532 0.161048H36.0484Z" fill="#EBEBEB"/>
<path d="M365.713 227.722H210.221C209.003 227.72 207.834 227.234 206.973 226.373C206.111 225.511 205.626 224.343 205.624 223.124V4.55765C205.636 3.34586 206.126 2.1879 206.987 1.33476C207.847 0.481621 209.01 0.00205198 210.221 0H365.713C366.923 0.00419086 368.082 0.484955 368.94 1.33809C369.798 2.19122 370.284 3.34799 370.295 4.55765V223.124C370.295 224.34 369.813 225.507 368.954 226.369C368.095 227.231 366.93 227.717 365.713 227.722ZM210.221 0.161048C209.056 0.163177 207.939 0.627072 207.115 1.45114C206.291 2.2752 205.827 3.39226 205.825 4.55765V223.124C205.827 224.289 206.291 225.406 207.115 226.23C207.939 227.054 209.056 227.518 210.221 227.52H365.713C366.879 227.518 367.996 227.054 368.82 226.23C369.644 225.406 370.108 224.289 370.11 223.124V4.55765C370.108 3.39226 369.644 2.2752 368.82 1.45114C367.996 0.627072 366.879 0.163177 365.713 0.161048H210.221Z" fill="#EBEBEB"/>
<path d="M224.997 64.9265C225.569 64.053 226.343 63.3313 227.255 62.8235C228.167 62.3158 229.188 62.0371 230.232 62.0115C230.826 61.9956 231.404 62.2123 231.842 62.6155C234.958 60.5138 238.695 59.2174 241.932 59.3945C243.343 59.4027 244.721 59.8256 245.893 60.6104C249.114 57.4297 253.463 55.1831 256.837 55.1831C258.745 55.1831 260.058 55.9078 260.621 57.1237C264.076 54.9979 267.748 53.6854 270.84 53.6854C275.784 53.6854 277.829 57.011 276.42 61.6814C277.346 62.5591 281.404 63.7911 281.445 65.2647H224.82L224.997 64.9265Z" fill="#FAFAFA"/>
<path d="M51.6539 48.5076C52.4653 47.2719 53.5635 46.2509 54.8549 45.5316C56.1463 44.8122 57.5925 44.416 59.0702 44.3767C59.8967 44.3671 60.6953 44.6755 61.3007 45.2383C65.7215 42.2589 71.0119 40.4069 75.6098 40.6243C77.6161 40.6321 79.5759 41.2284 81.2465 42.3394C85.78 37.8462 91.9401 34.6252 96.7151 34.6252C99.4288 34.6252 101.249 35.656 102.078 37.3792C106.974 34.3595 112.176 32.5477 116.572 32.5477C123.57 32.5477 126.461 37.2584 124.48 43.8774C125.792 45.1175 131.534 46.8649 131.59 48.9505H51.4204C51.4848 48.7975 51.5573 48.6525 51.6539 48.5076Z" fill="#FAFAFA"/>
<path d="M138.466 28.2639C138.912 27.5873 139.515 27.0283 140.222 26.6343C140.93 26.2404 141.723 26.0232 142.533 26.0012C142.986 25.994 143.424 26.1612 143.757 26.4683C146.049 24.8399 148.788 23.957 151.6 23.9398C152.695 23.9484 153.764 24.2757 154.676 24.8819C157.18 22.4179 160.554 20.6705 163.179 20.6705C164.661 20.6705 165.659 21.2342 166.118 22.1763C168.8 20.5256 171.65 19.5029 174.058 19.5029C177.899 19.5029 179.485 22.0877 178.398 25.7194C179.115 26.4038 182.272 27.3299 182.296 28.5055H138.33C138.386 28.425 138.386 28.3445 138.466 28.2639Z" fill="#FAFAFA"/>
<path d="M302.341 51.9782C302.587 51.9766 302.831 52.0317 303.053 52.1392C303.275 52.2467 303.469 52.4038 303.621 52.5983C306.238 50.4402 309.338 49.1196 311.996 49.2726C313.184 49.2842 314.328 49.7246 315.217 50.5127C317.946 47.2917 321.57 44.9726 324.34 44.9726C324.998 44.9161 325.655 45.0801 326.209 45.4387C326.763 45.7974 327.182 46.3304 327.4 46.9535C330.291 44.7713 333.343 43.4346 335.887 43.4346C339.044 43.4346 340.719 45.496 340.719 48.6526C341.897 47.7989 343.293 47.2938 344.745 47.1951C345.103 47.1692 345.462 47.2201 345.799 47.3445C346.136 47.4688 346.442 47.6637 346.698 47.9161C346.953 48.1684 347.152 48.4725 347.28 48.8078C347.409 49.1431 347.464 49.502 347.442 49.8604H347.885C350.494 50.1342 351.758 52.2762 350.832 54.6919H298.113C299.055 53.0814 300.891 51.8977 302.341 51.9782Z" fill="#FAFAFA"/>
<path d="M151.528 80.5239C152.146 80.6693 152.75 80.8714 153.332 81.1279C153.935 81.3959 154.51 81.725 155.047 82.1103C155.485 82.4279 155.887 82.7924 156.246 83.1973C156.938 82.2091 157.722 81.2896 158.59 80.4515C159.058 79.9981 159.556 79.5758 160.079 79.1872C160.553 78.8216 161.063 78.5059 161.601 78.2451L160.249 79.9442C159.806 80.5159 159.363 81.0715 158.928 81.6432C158.493 82.2149 158.123 82.7947 157.672 83.3745C157.221 83.9543 156.867 84.5743 156.496 85.1863L156.045 85.919L155.651 85.4359C155.233 84.9393 154.766 84.4861 154.258 84.0831C153.758 83.6644 153.243 83.2779 152.728 82.8752C151.643 82.0731 150.603 81.2129 149.611 80.2985C150.257 80.2871 150.902 80.3629 151.528 80.5239Z" fill="#EBEBEB"/>
<path d="M245.7 26.9433C246.321 27.0899 246.928 27.292 247.512 27.5472C248.114 27.8137 248.686 28.143 249.219 28.5296C249.657 28.8477 250.06 29.2122 250.419 29.6167C251.113 28.6282 251.9 27.7087 252.77 26.8709C253.241 26.4197 253.738 25.9975 254.26 25.6066C254.735 25.2432 255.245 24.9276 255.782 24.6645L254.421 26.3635C253.978 26.9353 253.535 27.4909 253.109 28.0626C252.682 28.6343 252.255 29.2141 251.844 29.7939C251.434 30.3736 251.039 30.9937 250.669 31.6057L250.226 32.3384L249.831 31.8553C249.41 31.3624 248.943 30.9095 248.438 30.5025C247.939 30.0838 247.424 29.6972 246.9 29.2946C245.87 28.4894 244.807 27.6841 243.792 26.7259C244.435 26.7083 245.078 26.7815 245.7 26.9433Z" fill="#EBEBEB"/>
<path d="M109.51 72.077C110.428 72.2986 111.326 72.6004 112.191 72.9789C113.088 73.3755 113.94 73.8639 114.736 74.4364C115.384 74.9087 115.981 75.4486 116.516 76.0468C117.546 74.5815 118.714 73.2172 120.002 71.9723C120.703 71.2987 121.445 70.6694 122.225 70.0881C122.929 69.5512 123.684 69.0847 124.479 68.695L122.466 71.2235C121.806 72.0287 121.146 72.8903 120.51 73.7439C119.873 74.5974 119.245 75.459 118.633 76.3206C118.021 77.1822 117.45 78.1083 116.886 79.0101L116.226 80.0972L115.646 79.3805C115.016 78.6475 114.321 77.9737 113.568 77.3674C112.828 76.7474 112.063 76.1596 111.29 75.5718C109.684 74.38 108.141 73.106 106.667 71.7549C107.625 71.7317 108.582 71.8401 109.51 72.077Z" fill="#EBEBEB"/>
<path d="M163.26 54.0718C163.952 54.2377 164.629 54.464 165.281 54.7482C165.952 55.0492 166.591 55.416 167.19 55.8434C167.682 56.1975 168.133 56.6053 168.534 57.0593C169.306 55.9551 170.183 54.9278 171.151 53.9913C171.677 53.4872 172.234 53.0165 172.818 52.5822C173.348 52.1744 173.917 51.821 174.517 51.5273L173.012 53.4276C172.512 54.0638 172.021 54.6838 171.538 55.32C171.055 55.9561 170.588 56.6164 170.129 57.2606C169.67 57.9048 169.235 58.5973 168.816 59.2817L168.317 60.087L167.882 59.5555C167.41 59.003 166.887 58.4961 166.32 58.0417C165.764 57.5746 165.193 57.1318 164.605 56.6889C163.396 55.7946 162.238 54.8349 161.134 53.8142C161.851 53.8062 162.566 53.8928 163.26 54.0718Z" fill="#EBEBEB"/>
<path d="M304.821 33.7557C305.513 33.9215 306.189 34.1479 306.842 34.4321C307.512 34.7348 308.151 35.1015 308.75 35.5272C309.24 35.8815 309.688 36.2894 310.087 36.7431C310.86 35.6371 311.739 34.6095 312.712 33.6752C313.236 33.1666 313.793 32.6931 314.379 32.2579C314.909 31.8537 315.479 31.5031 316.078 31.2111L314.564 33.1115C314.065 33.7476 313.574 34.3677 313.091 35.0038C312.608 35.6399 312.14 36.2922 311.682 36.9444C311.223 37.5967 310.788 38.2811 310.369 38.9656L309.87 39.7708L309.435 39.2313C308.961 38.6833 308.438 38.1793 307.873 37.7255C307.317 37.2585 306.737 36.8156 306.158 36.3727C304.94 35.4795 303.771 34.5226 302.655 33.5061C303.385 33.4919 304.113 33.5758 304.821 33.7557Z" fill="#EBEBEB"/>
<path d="M336.523 263.048C335.718 259.867 332.014 257.411 328.269 257.564C327.005 257.587 325.776 257.982 324.734 258.699C319.827 254.555 313.56 252.372 307.14 252.571C304.114 252.653 301.148 253.436 298.475 254.858C294.377 248.875 287.403 244.64 280.76 244.64C279.107 244.572 277.459 244.864 275.93 245.495C274.401 246.126 273.027 247.082 271.903 248.296C266.596 244.269 260.299 241.813 254.187 241.813C244.452 241.813 238.083 248.078 237.511 256.879C235.055 258.538 226.181 260.857 225.07 263.635H336.652C336.612 263.442 336.579 263.249 336.523 263.048Z" fill="#F5F5F5"/>
<path d="M173.18 258.884C172.16 258.921 171.183 259.305 170.41 259.972C168.775 258.075 166.739 256.566 164.45 255.552C162.161 254.538 159.675 254.046 157.172 254.109C154.764 254.216 152.429 254.973 150.416 256.3C147.541 250.582 142.364 246.532 137.258 246.532C135.904 246.518 134.567 246.829 133.358 247.438C132.149 248.048 131.103 248.938 130.309 250.035C126.42 246.186 121.685 243.835 116.99 243.835C111.169 243.835 106.732 247.45 104.662 253.03C102.874 251.459 100.6 250.549 98.2204 250.454C96.7513 250.456 95.3182 250.908 94.1134 251.749C92.9087 252.589 91.9899 253.778 91.4805 255.156C91.2114 255.158 90.9426 255.174 90.6753 255.205C85.6828 255.68 81.9545 259.392 82.0512 263.635H179.187C178.873 262.28 178.107 261.071 177.016 260.208C175.924 259.344 174.572 258.878 173.18 258.884Z" fill="#FAFAFA"/>
<path d="M293.499 232.964L293.218 221.288L287.227 205.545H292.839L292.412 187.886H309.854L311.561 219.742L315.78 220.45L313.606 237.336L312.511 237.401L313.912 263.635H294.248L293.942 251.09L291.494 232.754L293.499 232.964Z" fill="#F0F0F0"/>
<path d="M351.194 158.552C353.9 152.327 352.177 147.858 347.168 145.853C345.219 138.163 331.764 129.587 314.153 125.44C294.151 120.721 280.164 125.118 273.762 131.6C269.461 130.959 265.068 131.736 261.249 133.815C254.324 137.406 250.04 143.373 250.016 148.631C245.072 150.733 243.477 155.29 246.368 161.612C248.247 165.387 251.31 168.444 255.089 170.316C255.02 172.532 255.507 174.73 256.506 176.71C257.105 177.997 257.871 179.199 258.785 180.285C256.522 182.749 256.224 186.437 258.35 191.075C260.339 195.415 264.937 199.691 272.176 201.833C274.93 207.035 284.367 210.876 295.592 210.876C307.357 210.876 317.165 206.657 319.363 201.076C320.788 201.205 322.246 201.278 323.744 201.278C337.127 201.278 345.163 195.246 347.973 189.094C349.584 185.624 349.801 182.652 348.867 180.39C352.27 178.514 355.018 175.643 356.742 172.16C359.915 165.074 357.564 160.243 351.194 158.552Z" fill="#E6E6E6"/>
<path d="M146.47 183.015H134.939L130.438 194.691H126.726L126.42 205.094L123.441 212.817L122.168 212.672L120.163 219.919L118.899 212.873L122.241 194.006H115.509L111.708 172.829H90.8042L96.5375 211.021L91.6497 211.867L98.3734 232.11L99.7101 232.183L104.429 263.635H128.006L125.309 248.594L124.471 236.732L134.794 215.74L135.543 215.699L141.558 204.539L138.958 204.072L146.47 183.015Z" fill="#F0F0F0"/>
<path d="M64.3042 137.696C61.0832 130.231 63.1285 124.877 69.1356 122.469C71.4789 113.257 87.5997 102.982 108.737 97.9976C132.725 92.3609 149.482 97.6192 157.164 105.39C162.33 104.599 167.613 105.521 172.206 108.015C180.508 112.323 185.646 119.473 185.67 125.778C191.604 128.299 193.521 133.758 190.042 141.344C188.279 145.201 184.8 149.01 179.574 151.772C179.642 154.431 179.047 157.065 177.843 159.437C177.123 160.978 176.206 162.418 175.113 163.721C177.819 166.676 178.173 171.089 175.629 176.653C173.213 181.855 167.737 186.985 159.057 189.537C155.755 195.778 144.442 200.376 130.986 200.376C116.878 200.376 105.13 195.319 102.489 188.627C100.79 188.78 99.0341 188.869 97.2465 188.869C81.1981 188.869 71.5674 181.622 68.1935 174.27C66.2851 170.099 66.0113 166.58 67.1225 163.802C63.0517 161.567 59.7637 158.139 57.7012 153.978C53.8361 145.523 56.6544 139.701 64.3042 137.696Z" fill="#F5F5F5"/>
<path d="M201.999 300C288.226 300 358.127 295.919 358.127 290.885C358.127 285.85 288.226 281.769 201.999 281.769C115.772 281.769 45.8716 285.85 45.8716 290.885C45.8716 295.919 115.772 300 201.999 300Z" fill="#F5F5F5"/>
<path d="M264.438 103.981C264.309 106.211 264.052 108.256 263.762 110.422C263.472 112.589 263.069 114.61 262.61 116.687C262.151 118.765 261.652 120.85 261 122.904C260.371 124.976 259.627 127.011 258.769 128.999L258.093 130.505C257.996 130.731 257.811 131.061 257.666 131.31C257.521 131.56 257.352 131.858 257.191 132.116C256.564 133.098 255.864 134.032 255.097 134.91C253.674 136.548 252.141 138.087 250.508 139.516C247.347 142.299 243.985 144.845 240.45 147.133L238.405 144.492C239.846 143.099 241.312 141.658 242.729 140.224C244.146 138.791 245.547 137.326 246.876 135.844C248.189 134.405 249.428 132.9 250.588 131.335C251.114 130.612 251.593 129.856 252.021 129.072C252.102 128.895 252.207 128.709 252.279 128.54C252.366 128.359 252.444 128.174 252.513 127.985L253.028 126.64C254.334 122.942 255.352 119.149 256.072 115.294C256.458 113.354 256.74 111.381 257.03 109.416C257.32 107.451 257.537 105.39 257.714 103.554L264.438 103.981Z" fill="#FFB573"/>
<path d="M259.848 95.9523C257.135 96.6368 255.234 107.822 255.234 107.822L262.723 112.911C262.723 112.911 269.898 101.637 267.812 98.6498C265.614 95.5336 263.818 94.9377 259.848 95.9523Z" fill="#133551"/>
<path opacity="0.2" d="M260.098 98.4485L258.012 109.714L262.216 112.572L260.098 98.4485Z" fill="black"/>
<path d="M239.645 143.542L232.172 144.082L236.633 149.082C236.633 149.082 240.764 148.14 241.465 145.499L239.645 143.542Z" fill="#FFB573"/>
<path d="M228.049 146.731L231.109 151.441L236.633 149.082L232.172 144.081L228.049 146.731Z" fill="#FFB573"/>
<path d="M274.552 284.153H267.957L267.522 268.885H274.109L274.552 284.153Z" fill="#FFB573"/>
<path d="M320.144 264.723L314.04 267.211L306.31 253.884L312.414 251.388L320.144 264.723Z" fill="#FFB573"/>
<path d="M312.89 266.301L319.259 262.516C319.368 262.449 319.498 262.424 319.624 262.447C319.75 262.469 319.864 262.537 319.944 262.637L323.664 267.243C323.752 267.362 323.814 267.499 323.846 267.644C323.878 267.79 323.88 267.94 323.85 268.086C323.821 268.231 323.761 268.369 323.675 268.49C323.588 268.612 323.478 268.713 323.35 268.789C321.111 270.069 319.96 270.577 317.157 272.235C315.434 273.258 311.384 276.769 309.008 278.186C306.633 279.603 305.103 277.316 305.973 276.519C308.778 273.982 310.901 270.781 312.149 267.211C312.282 266.83 312.544 266.509 312.89 266.301Z" fill="#263238"/>
<path d="M267.731 283.388H275.139C275.268 283.383 275.393 283.427 275.49 283.511C275.587 283.594 275.649 283.711 275.663 283.839L276.468 289.701C276.484 289.849 276.468 289.998 276.423 290.139C276.377 290.281 276.302 290.411 276.202 290.521C276.102 290.631 275.981 290.719 275.845 290.779C275.709 290.839 275.562 290.869 275.413 290.869C272.828 290.828 271.588 290.675 268.327 290.675C266.322 290.675 262.183 290.885 259.413 290.885C256.643 290.885 256.498 288.147 257.65 287.897C262.819 286.786 264.848 285.256 266.588 283.791C266.909 283.525 267.314 283.382 267.731 283.388Z" fill="#263238"/>
<g opacity="0.2">
<path opacity="0.2" d="M267.522 268.886L267.747 276.761H274.342L274.117 268.886H267.522Z" fill="black"/>
<path opacity="0.2" d="M312.414 251.388L306.31 253.884L310.296 260.753L316.4 258.265L312.414 251.388Z" fill="black"/>
</g>
<path d="M259.848 95.9523C259.848 95.9523 256.708 97.0555 263.005 135.739H289.771C289.32 124.844 289.304 118.121 294.514 95.759C290.765 94.9825 286.965 94.4819 283.144 94.2613C279.096 93.9711 275.032 93.9711 270.985 94.2613C265.775 94.7364 259.848 95.9523 259.848 95.9523Z" fill="#133551"/>
<path d="M283.151 94.2613C279.104 93.9711 275.04 93.9711 270.992 94.2613C269.535 94.3901 268.021 94.5834 266.596 94.7847C265.976 97.136 266.096 100.421 268.496 104.721C268.88 105.407 269.501 105.928 270.242 106.188C270.984 106.447 271.795 106.427 272.522 106.131C274.471 105.325 284.335 101.178 287.508 96.0409L288.313 94.7122C286.719 94.519 284.939 94.3499 283.151 94.2613Z" fill="white"/>
<path d="M294.522 71.4408C294.522 81.1037 286.566 87.4812 278.135 91.5154C269.414 95.6865 260.637 83.6804 260.637 74.0176C260.636 71.719 261.088 69.4428 261.967 67.3189C262.846 65.1951 264.134 63.2652 265.759 61.6395C267.384 60.0138 269.314 58.7242 271.437 57.8444C273.561 56.9645 275.837 56.5117 278.135 56.5117C287.798 56.5117 294.522 61.7779 294.522 71.4408Z" fill="#263238"/>
<path d="M296.744 60.2722C296.744 63.936 294.2 67.8817 290.528 67.8817C288.768 67.8817 287.08 67.1826 285.836 65.9383C284.592 64.6939 283.893 63.0063 283.893 61.2465C283.893 59.4867 284.592 57.7991 285.836 56.5547C287.08 55.3104 288.768 54.6113 290.528 54.6113C294.2 54.6113 296.744 56.6083 296.744 60.2722Z" fill="#263238"/>
<path d="M281.952 80.5723C281.147 84.4777 280.414 91.6524 283.152 94.2613C283.152 94.2613 282.081 98.2312 274.818 98.2312C266.822 98.2312 270.993 94.2613 270.993 94.2613C275.357 93.2145 275.244 89.9775 274.487 86.9417L281.952 80.5723Z" fill="#FFB573"/>
<path d="M283.151 94.2613C279.104 93.9711 275.04 93.9711 270.992 94.2613L270.187 94.3418C269.364 96.0236 269.237 97.9619 269.833 99.7369C269.956 100.193 270.179 100.616 270.484 100.977C270.79 101.337 271.171 101.626 271.6 101.822C272.03 102.019 272.497 102.119 272.97 102.115C273.442 102.111 273.908 102.003 274.334 101.798C277.7 100.188 282.918 97.3132 284.738 94.366C284.222 94.3257 283.683 94.2854 283.151 94.2613Z" fill="#FFB573"/>
<path opacity="0.2" d="M278.909 83.1732L274.472 86.9659C274.659 87.6731 274.786 88.3951 274.85 89.1239C276.517 88.8824 278.804 87.0545 278.981 85.3071C279.086 84.5973 279.061 83.8743 278.909 83.1732Z" fill="black"/>
<path d="M282.588 70.4262C283.804 76.8681 284.456 79.5496 282.081 83.608C278.505 89.7117 270.34 89.8003 267.232 83.8576C264.43 78.5189 262.916 68.8963 268.48 64.8137C269.701 63.9063 271.134 63.3262 272.643 63.1287C274.152 62.9311 275.686 63.1227 277.099 63.6851C278.513 64.2475 279.759 65.1622 280.72 66.342C281.681 67.5219 282.324 68.9278 282.588 70.4262Z" fill="#FFB573"/>
<path d="M263.004 135.739C263.004 135.739 257.802 186.526 258.237 206.6C258.68 227.536 266.346 275.199 266.346 275.199H275.276C275.276 275.199 273.867 228.728 274.656 208.195C275.51 185.801 282.628 135.723 282.628 135.723L263.004 135.739Z" fill="#263238"/>
<path d="M276.033 275.553H265.573L264.808 272.219L276.516 271.809L276.033 275.553Z" fill="#133551"/>
<path opacity="0.2" d="M274.552 148.373C267.973 161.603 273.231 185.737 275.558 194.715C276.75 181.235 278.779 164.744 280.325 152.641C279.303 145.797 277.588 142.278 274.552 148.373Z" fill="black"/>
<path d="M270.075 135.739C270.075 135.739 276.138 188.539 280.72 205.489C286.155 225.62 308.251 259.947 308.251 259.947L316.569 256.549C316.569 256.549 302.308 217.455 298.145 206.85C289.288 184.223 296.873 150.483 289.779 135.739H270.075Z" fill="#263238"/>
<path d="M317.704 256.59L307.381 260.809L304.958 258.007L316.883 252.507L317.704 256.59Z" fill="#133551"/>
<path d="M272.917 74.6618C273.046 75.1772 272.877 75.6603 272.547 75.7489C272.217 75.8375 271.83 75.4832 271.693 74.9437C271.557 74.4042 271.734 73.9452 272.072 73.8566C272.41 73.768 272.789 74.1465 272.917 74.6618Z" fill="#263238"/>
<path d="M267.087 76.1353C267.224 76.6507 267.087 77.1419 266.717 77.2224C266.346 77.3029 266 76.9567 265.871 76.4172C265.742 75.8777 265.871 75.4187 266.242 75.3301C266.612 75.2415 266.958 75.62 267.087 76.1353Z" fill="#263238"/>
<path d="M266.419 75.3463H265.09C265.09 75.3463 265.952 76.1112 266.419 75.3463Z" fill="#263238"/>
<path d="M269.124 76.6105C268.962 77.9015 268.624 79.1642 268.118 80.3629C268.428 80.4852 268.761 80.5378 269.093 80.5169C269.426 80.496 269.75 80.4022 270.042 80.2421L269.124 76.6105Z" fill="#ED893E"/>
<path d="M273.368 81.5546C273.124 81.6534 272.873 81.7368 272.619 81.8042C272.578 81.8122 272.536 81.8052 272.501 81.7844C272.465 81.7637 272.438 81.7306 272.426 81.6915C272.416 81.651 272.422 81.6082 272.443 81.5721C272.464 81.5361 272.498 81.5096 272.538 81.4983C273.181 81.3504 273.78 81.0551 274.289 80.6359C274.797 80.2166 275.201 79.6849 275.469 79.0825C275.476 79.0635 275.487 79.046 275.5 79.0311C275.514 79.0161 275.53 79.004 275.549 78.9954C275.567 78.9868 275.587 78.9819 275.607 78.9809C275.627 78.98 275.648 78.9831 275.667 78.9899C275.686 78.9968 275.703 79.0074 275.718 79.021C275.733 79.0346 275.745 79.0511 275.754 79.0694C275.762 79.0877 275.767 79.1076 275.768 79.1278C275.769 79.148 275.766 79.1682 275.759 79.1872C275.537 79.7205 275.211 80.2043 274.801 80.6107C274.39 81.0171 273.903 81.3379 273.368 81.5546Z" fill="#263238"/>
<path d="M266.282 65.627C266.282 65.627 274.898 74.4847 283.49 74.4847C290.56 74.4847 290.326 62.6315 280.978 62.1403C271.629 61.6491 262.167 59.1207 266.282 65.627Z" fill="#263238"/>
<path d="M285.785 75.8374C285.621 77.0917 284.967 78.2298 283.965 79.002C282.628 80.0166 281.348 79.002 281.203 77.3916C281.074 75.9663 281.614 73.7197 283.2 73.3654C283.545 73.2884 283.904 73.2979 284.245 73.3929C284.586 73.4879 284.898 73.6656 285.153 73.9101C285.409 74.1546 285.6 74.4585 285.711 74.7947C285.821 75.1309 285.846 75.489 285.785 75.8374Z" fill="#FFB573"/>
<path d="M274.069 71.5133C274.023 71.5606 273.962 71.5916 273.897 71.6018C273.832 71.6119 273.765 71.6007 273.706 71.5697C272.426 70.9094 270.767 71.7549 270.751 71.7629C270.715 71.782 270.676 71.7937 270.635 71.7976C270.595 71.8014 270.554 71.7972 270.515 71.7852C270.476 71.7733 270.44 71.7538 270.409 71.7278C270.377 71.7019 270.351 71.67 270.332 71.6341C270.313 71.5981 270.302 71.5588 270.298 71.5183C270.294 71.4778 270.298 71.4369 270.31 71.398C270.322 71.3592 270.342 71.323 270.367 71.2917C270.393 71.2603 270.425 71.2344 270.461 71.2154C270.542 71.167 272.426 70.2088 273.996 71.0141C274.033 71.0327 274.065 71.0584 274.091 71.0897C274.117 71.121 274.137 71.1572 274.149 71.1963C274.161 71.2353 274.165 71.2763 274.161 71.3169C274.157 71.3575 274.145 71.3969 274.125 71.4328C274.111 71.4626 274.092 71.4899 274.069 71.5133Z" fill="#263238"/>
<path d="M264.067 72.85C264.017 72.871 263.963 72.8783 263.909 72.8713C263.855 72.8642 263.804 72.843 263.761 72.8097C263.695 72.7613 263.65 72.6885 263.636 72.6072C263.623 72.5258 263.642 72.4424 263.689 72.3749C263.974 71.9679 264.352 71.635 264.792 71.4039C265.232 71.1727 265.721 71.0501 266.217 71.0463C266.299 71.0525 266.376 71.0905 266.43 71.1522C266.484 71.2139 266.512 71.2944 266.507 71.3764C266.506 71.4173 266.497 71.4576 266.48 71.4948C266.463 71.5321 266.439 71.5656 266.409 71.5934C266.379 71.6212 266.344 71.6427 266.305 71.6566C266.267 71.6705 266.226 71.6765 266.185 71.6744C265.793 71.6833 265.408 71.785 265.062 71.9711C264.717 72.1573 264.42 72.4225 264.196 72.7453C264.163 72.7909 264.119 72.827 264.067 72.85Z" fill="#263238"/>
<path d="M310.361 268.797H310.28C310.133 268.762 309.997 268.691 309.884 268.59C309.771 268.488 309.686 268.36 309.636 268.217C309.594 268.131 309.577 268.036 309.585 267.941C309.594 267.846 309.628 267.755 309.684 267.678C310.16 266.985 312.543 267.074 312.817 267.09C312.847 267.09 312.876 267.099 312.901 267.116C312.925 267.134 312.944 267.158 312.954 267.186C312.966 267.215 312.969 267.247 312.962 267.278C312.955 267.308 312.938 267.336 312.913 267.356C312.318 267.943 311.174 268.894 310.361 268.797ZM312.422 267.38C311.472 267.38 310.192 267.484 309.934 267.847C309.913 267.883 309.902 267.925 309.902 267.968C309.902 268.01 309.913 268.052 309.934 268.088C309.965 268.184 310.019 268.271 310.093 268.34C310.166 268.409 310.255 268.458 310.353 268.483C310.796 268.58 311.553 268.145 312.422 267.38Z" fill="#133551"/>
<path d="M312.567 267.38C311.762 267.283 310.304 266.727 310.079 266.083C310.038 265.966 310.038 265.839 310.079 265.722C310.12 265.605 310.199 265.505 310.304 265.439C310.399 265.366 310.509 265.314 310.625 265.286C310.742 265.258 310.863 265.255 310.981 265.278C311.923 265.463 312.897 267.09 312.938 267.154C312.952 267.179 312.959 267.206 312.959 267.235C312.959 267.263 312.952 267.291 312.938 267.315C312.922 267.338 312.902 267.357 312.878 267.371C312.855 267.385 312.828 267.393 312.801 267.396L312.567 267.38ZM310.876 265.584C310.809 265.575 310.741 265.58 310.676 265.598C310.611 265.616 310.55 265.647 310.498 265.689C310.337 265.81 310.345 265.906 310.377 265.979C310.53 266.413 311.714 266.953 312.511 267.058C312.156 266.534 311.488 265.697 310.9 265.584H310.876Z" fill="#133551"/>
<path d="M265.259 284.539C264.692 284.591 264.125 284.449 263.649 284.137C263.544 284.041 263.464 283.921 263.415 283.788C263.366 283.655 263.35 283.513 263.367 283.372C263.372 283.286 263.399 283.204 263.446 283.132C263.493 283.06 263.557 283.001 263.633 282.961C264.438 282.51 267.071 283.855 267.369 284.016C267.398 284.031 267.421 284.055 267.435 284.083C267.45 284.112 267.455 284.145 267.449 284.177C267.445 284.208 267.431 284.238 267.409 284.261C267.388 284.284 267.36 284.3 267.329 284.306C266.648 284.448 265.955 284.526 265.259 284.539ZM264.084 283.179C263.984 283.173 263.884 283.192 263.794 283.235C263.762 283.251 263.736 283.275 263.718 283.305C263.699 283.335 263.689 283.369 263.689 283.404C263.677 283.495 263.686 283.588 263.717 283.675C263.748 283.762 263.799 283.84 263.866 283.903C264.269 284.266 265.356 284.322 266.813 284.08C265.962 283.625 265.039 283.32 264.084 283.179Z" fill="#133551"/>
<path d="M267.305 284.306H267.224C266.419 283.944 264.881 282.526 265.002 281.777C265.002 281.6 265.155 281.383 265.59 281.335C265.746 281.319 265.903 281.335 266.053 281.382C266.202 281.429 266.34 281.506 266.459 281.608C267.265 282.301 267.434 284.072 267.442 284.145C267.446 284.173 267.443 284.201 267.431 284.227C267.42 284.253 267.401 284.274 267.377 284.29C267.355 284.301 267.33 284.306 267.305 284.306ZM265.694 281.632H265.614C265.332 281.632 265.308 281.777 265.308 281.81C265.227 282.261 266.29 283.38 267.087 283.863C267.032 283.12 266.751 282.412 266.282 281.834C266.131 281.701 265.936 281.629 265.735 281.632H265.694Z" fill="#133551"/>
<path d="M272.225 73.8727L270.896 73.8324C270.896 73.8324 271.782 74.6376 272.225 73.8727Z" fill="#263238"/>
<path d="M290.182 134.169L290.866 136.585C290.955 136.778 290.737 136.963 290.423 136.963H262.868C262.626 136.963 262.425 136.842 262.417 136.697L262.175 134.282C262.175 134.113 262.36 133.976 262.626 133.976H289.771C289.85 133.973 289.928 133.989 289.999 134.023C290.071 134.057 290.133 134.107 290.182 134.169Z" fill="#133551"/>
<path opacity="0.2" d="M290.182 134.169L290.866 136.585C290.955 136.778 290.737 136.963 290.423 136.963H262.868C262.626 136.963 262.425 136.842 262.417 136.697L262.175 134.282C262.175 134.113 262.36 133.976 262.626 133.976H289.771C289.85 133.973 289.928 133.989 289.999 134.023C290.071 134.057 290.133 134.107 290.182 134.169Z" fill="#FAFAFA"/>
<path d="M286.55 137.197H287.282C287.427 137.197 287.532 137.124 287.524 137.036L287.186 133.919C287.163 133.864 287.124 133.818 287.073 133.788C287.022 133.757 286.963 133.744 286.904 133.75H286.179C286.034 133.75 285.922 133.831 285.93 133.919L286.268 137.036C286.268 137.124 286.389 137.197 286.55 137.197Z" fill="#263238"/>
<path d="M264.913 137.197H265.638C265.783 137.197 265.887 137.124 265.879 137.036L265.541 133.919C265.541 133.831 265.404 133.75 265.259 133.75H264.535C264.39 133.75 264.277 133.831 264.285 133.919L264.631 137.036C264.639 137.124 264.808 137.197 264.913 137.197Z" fill="#263238"/>
<path d="M275.728 137.197H276.452C276.597 137.197 276.702 137.124 276.694 137.036L276.356 133.919C276.356 133.831 276.219 133.75 276.074 133.75H275.349C275.204 133.75 275.091 133.831 275.1 133.919L275.446 137.036C275.454 137.124 275.583 137.197 275.728 137.197Z" fill="#263238"/>
<path d="M278.876 135.482L273.079 131.343L273.618 138.026C273.618 138.026 277.483 139.757 279.649 138.091L278.876 135.482Z" fill="#FFB573"/>
<path d="M297.646 103.699C298.146 107.636 298.573 111.59 298.967 115.544C299.362 119.498 299.732 123.451 300.062 127.405L300.119 128.146V128.54C300.119 128.75 300.119 128.959 300.119 129.168C300.125 130.047 299.964 130.919 299.643 131.737C299.044 133.178 298.033 134.411 296.737 135.28C295.721 135.981 294.616 136.541 293.451 136.947C292.399 137.32 291.323 137.621 290.23 137.849C286.132 138.631 281.949 138.87 277.789 138.558L277.749 135.224C279.625 134.974 281.574 134.676 283.442 134.298C285.314 133.948 287.16 133.469 288.966 132.865C290.541 132.406 292.022 131.67 293.338 130.69C293.698 130.434 293.964 130.066 294.095 129.644C294.116 129.526 294.116 129.406 294.095 129.289L293.918 128.089C293.338 124.152 292.799 120.222 292.308 116.277C291.817 112.331 291.317 108.385 290.915 104.432L297.646 103.699Z" fill="#FFB573"/>
<path d="M294.521 95.7591C297.203 96.5643 300.432 105.808 300.432 105.808L290.02 113.249C290.02 113.249 286.228 105.543 287.355 102.072C288.522 98.4647 291.462 94.825 294.521 95.7591Z" fill="#133551"/>
<path d="M266.821 120.303C264.094 117.538 260.442 115.877 256.565 115.639C252.689 115.402 248.861 116.604 245.816 119.016C242.772 121.427 240.725 124.878 240.069 128.706C239.413 132.534 240.194 136.47 242.261 139.757L241.561 145.539L247.35 144.846C250.636 146.913 254.57 147.693 258.396 147.039C262.222 146.385 265.672 144.341 268.084 141.3C270.497 138.259 271.702 134.434 271.469 130.56C271.236 126.685 269.581 123.033 266.821 120.303ZM251.03 136.085C250.111 135.167 249.486 133.996 249.232 132.721C248.979 131.447 249.109 130.125 249.606 128.925C250.103 127.724 250.945 126.698 252.026 125.976C253.107 125.254 254.377 124.869 255.677 124.869C256.976 124.869 258.247 125.254 259.327 125.976C260.408 126.698 261.25 127.724 261.747 128.925C262.244 130.125 262.375 131.447 262.121 132.721C261.868 133.996 261.242 135.167 260.323 136.085C259.713 136.697 258.989 137.181 258.192 137.512C257.394 137.843 256.54 138.013 255.677 138.013C254.813 138.013 253.959 137.843 253.161 137.512C252.364 137.181 251.64 136.697 251.03 136.085Z" fill="#133551"/>
<path opacity="0.4" d="M266.821 120.303C264.094 117.538 260.442 115.877 256.565 115.639C252.689 115.402 248.861 116.604 245.816 119.016C242.772 121.427 240.725 124.878 240.069 128.706C239.413 132.534 240.194 136.47 242.261 139.757L241.561 145.539L247.35 144.846C250.636 146.913 254.57 147.693 258.396 147.039C262.222 146.385 265.672 144.341 268.084 141.3C270.497 138.259 271.702 134.434 271.469 130.56C271.236 126.685 269.581 123.033 266.821 120.303ZM251.03 136.085C250.111 135.167 249.486 133.996 249.232 132.721C248.979 131.447 249.109 130.125 249.606 128.925C250.103 127.724 250.945 126.698 252.026 125.976C253.107 125.254 254.377 124.869 255.677 124.869C256.976 124.869 258.247 125.254 259.327 125.976C260.408 126.698 261.25 127.724 261.747 128.925C262.244 130.125 262.375 131.447 262.121 132.721C261.868 133.996 261.242 135.167 260.323 136.085C259.713 136.697 258.989 137.181 258.192 137.512C257.394 137.843 256.54 138.013 255.677 138.013C254.813 138.013 253.959 137.843 253.161 137.512C252.364 137.181 251.64 136.697 251.03 136.085Z" fill="black"/>
<path d="M267.538 131.592L268.295 137.164L273.618 138.026L273.078 131.343L267.538 131.592Z" fill="#FFB573"/>
<path d="M172.632 278.524C154.763 278.525 137.294 273.227 122.436 263.299C107.577 253.372 95.9964 239.261 89.1579 222.752C82.3193 206.242 80.5301 188.076 84.0166 170.549C87.503 153.023 96.1085 136.924 108.745 124.289C108.896 124.139 109.1 124.055 109.312 124.055C109.525 124.055 109.729 124.139 109.88 124.289L119.446 133.847C119.598 133.999 119.683 134.204 119.683 134.419C119.683 134.633 119.598 134.839 119.446 134.99C119.295 135.142 119.089 135.227 118.875 135.227C118.66 135.227 118.455 135.142 118.303 134.99L109.316 126.004C92.9228 142.696 83.7845 165.187 83.8899 188.583C83.9954 211.978 93.3361 234.386 109.88 250.929C126.423 267.473 148.831 276.813 172.226 276.919C195.622 277.024 218.113 267.886 234.805 251.492L225.802 242.49C225.651 242.338 225.566 242.133 225.566 241.918C225.566 241.704 225.651 241.498 225.802 241.346C225.954 241.195 226.16 241.11 226.374 241.11C226.589 241.11 226.794 241.195 226.946 241.346L236.52 250.921C236.596 250.996 236.655 251.085 236.696 251.183C236.737 251.281 236.758 251.386 236.758 251.492C236.758 251.599 236.737 251.704 236.696 251.802C236.655 251.9 236.596 251.989 236.52 252.064C228.149 260.479 218.192 267.15 207.226 271.692C196.26 276.234 184.502 278.556 172.632 278.524Z" fill="#133551"/>
<path d="M172.632 265.029C215.077 265.029 249.484 230.621 249.484 188.176C249.484 145.732 215.077 111.324 172.632 111.324C130.188 111.324 95.7803 145.732 95.7803 188.176C95.7803 230.621 130.188 265.029 172.632 265.029Z" fill="#133551"/>
<g opacity="0.2">
<path opacity="0.2" d="M171.763 147.133L167.06 148.164C167.575 147.407 168.977 146.062 169.057 145.225C169.218 143.445 168.252 144.371 167.962 143.711C166.625 140.957 167.35 140.869 169.838 139.484C170.176 140.844 170.273 142.761 170.957 144.025C171.642 145.289 173.703 145.877 171.763 147.133Z" fill="black"/>
<path opacity="0.2" d="M167.511 143.848C166.142 146.199 167.262 146.175 164.065 146.691C164.886 144.79 164.419 142.632 167.511 143.848Z" fill="black"/>
<path opacity="0.2" d="M208.183 130.022C202.619 128.339 211.348 125.891 212.443 125.617C210.172 125.617 207.008 125.158 205.196 126.938C203.207 128.911 205.566 131.133 208.183 130.022Z" fill="black"/>
<path opacity="0.2" d="M182.561 125.617L184.574 124.007C182.792 123.272 180.837 123.057 178.938 123.387L182.561 125.617Z" fill="black"/>
<path opacity="0.2" d="M183.681 122.791C185.162 124.401 187.175 123.596 189.148 123.347C187.32 123.089 185.525 122.912 183.681 122.791Z" fill="black"/>
<path opacity="0.2" d="M276.887 163.762C277.336 164.696 277.925 165.557 278.634 166.314C279.439 162.811 281.63 164.599 283.925 162.473C285.165 161.33 285.076 158.914 283.425 157.279C281.106 154.968 282.958 158.528 282.032 160.162C281.002 161.934 278.215 162.014 276.887 163.762Z" fill="black"/>
<path opacity="0.2" d="M281.557 156.216L282.274 155.951C282.161 155.685 282.04 155.419 281.919 155.146C283.24 155.629 284.561 155.621 284.963 154.179L280.575 152.367C281.799 154.05 279.914 154.952 281.557 156.216Z" fill="black"/>
<path opacity="0.2" d="M280.261 151.723H281.38C279.736 149.104 277.877 146.627 275.824 144.315C275.107 145.966 279.182 150.064 280.261 151.723Z" fill="black"/>
<path opacity="0.2" d="M272.78 171.87C271.5 172.442 271.556 173.73 272.45 174.809L272.78 171.87Z" fill="black"/>
<path opacity="0.2" d="M263.077 176.984H264.446C264.027 178.264 264.205 178.095 262.892 178.248L263.077 176.984Z" fill="black"/>
<path opacity="0.2" d="M252.142 190.423C256.869 192.412 261.491 196.623 261.491 201.624C259.035 201.431 257.263 198.29 256.249 196.454C255.234 194.618 252.633 192.17 252.142 190.423Z" fill="black"/>
<path opacity="0.2" d="M266.105 194.626L264.72 194.32C263.375 198.033 267.731 201.568 270.59 198.814C271.91 197.541 271.637 195.182 271.91 193.676C272.297 191.575 273.102 190.85 271.033 189.247L266.105 194.626Z" fill="black"/>
<path opacity="0.2" d="M270.896 188.627C271.903 187.412 273.312 186.3 273.312 184.658C272.515 186.01 271.701 187.307 270.896 188.627Z" fill="black"/>
<path opacity="0.2" d="M274.35 183.957C272.74 181.71 272.845 180.978 273.046 178.248C275.003 178.473 274.012 181.211 275.196 182.604C276.903 184.609 278.989 184.593 279.126 187.798C279.206 189.731 278.143 191.43 275.985 189.344C274.56 187.967 275.51 185.68 274.35 183.957Z" fill="black"/>
<path opacity="0.2" d="M278.2 194.667C276.315 195.665 274.495 194.119 273.32 196.35C274.93 195.174 276.195 195.689 277.974 196.019C278.101 195.579 278.176 195.125 278.2 194.667Z" fill="black"/>
<path opacity="0.2" d="M276.412 196.607C274.576 197.936 273.601 196.173 272.86 198.604C272.563 199.579 273.046 201.656 274.125 201.624C274.084 200.464 273.658 199.208 274.592 198.459C274.358 199.861 274.849 200.746 276.412 200.183L275.107 197.767C275.703 197.831 276.347 197.517 276.943 197.59L276.412 196.607Z" fill="black"/>
<path opacity="0.2" d="M268.971 203.621C267.191 203.154 262.948 201.117 261.49 202.429C263.326 203.243 267.457 205.336 268.971 203.621Z" fill="black"/>
<path opacity="0.2" d="M280.977 193.612C280.523 194.059 280.232 194.645 280.151 195.277C280.069 195.909 280.201 196.551 280.527 197.098C280.83 196.576 281.026 195.999 281.103 195.401C281.181 194.802 281.138 194.194 280.977 193.612Z" fill="black"/>
<path opacity="0.2" d="M280.64 198.894C280.857 199.949 282.009 199.699 283.216 199.82C282.975 198.669 281.888 198.62 280.64 198.894Z" fill="black"/>
<path opacity="0.2" d="M279.407 198.894L279.898 199.361C279.598 199.478 279.265 199.478 278.964 199.361L279.407 198.894Z" fill="black"/>
<path opacity="0.2" d="M283.393 197.099C283.393 199.514 285.728 200.247 287.419 201.012C289.11 201.777 291.059 202.55 288.402 204.281C289.682 204.096 290.777 204.942 291.784 204.853C292.32 204.892 292.858 204.892 293.394 204.853C293.813 204.756 294.03 203.355 294.449 203.347C295.681 203.347 295.52 203.806 296.615 204.595C297.603 205.459 298.79 206.065 300.07 206.359C298.58 204.555 296.937 201.656 295.117 200.271C294.312 199.659 290.898 198.097 289.803 198.073C288.498 198.073 288.112 198.572 286.856 199.522C286.372 197.904 285.632 195.673 283.393 197.099Z" fill="black"/>
<path opacity="0.2" d="M297.686 201.06C299.103 202.115 303.323 201.793 301.986 199.522C300.762 201.237 299.691 201.06 297.686 201.06Z" fill="black"/>
<path opacity="0.2" d="M283.981 206.794C283.377 207.55 281.936 210.176 281.066 210.457C279.714 210.884 279.19 209.58 278.135 209.773C275.824 210.208 273.36 214.29 271.355 215.466C267.877 217.495 266.033 216.94 265.533 221.433C265.356 223.084 266.21 225 265.823 226.611C265.469 228.1 263.408 228.777 266.065 229.606C268.585 230.411 273.674 227.512 276.34 227.013C277.773 226.739 278.417 226.208 279.842 227.013C280.986 227.681 281.026 228.93 281.799 230.057C286.558 237.022 294.683 230.105 297.461 225.008C299.337 221.594 298.411 218.816 296.31 215.764C295.408 214.459 294.884 214.153 294.288 212.68C293.548 210.844 293.298 208.654 292.815 206.761L289.65 213.203C286.663 210.989 285.624 211.182 287.388 207.969L283.981 206.794Z" fill="black"/>
<path opacity="0.2" d="M285.116 234.84L288.877 235.074C287.774 236.523 287.065 238.52 284.851 237.9L285.116 234.84Z" fill="black"/>
<path opacity="0.2" d="M299.152 239.784C302.035 241.306 302.067 240.767 304.789 238.979C306.254 238.013 310.039 236.789 308.009 234.824L299.152 239.784Z" fill="black"/>
<path opacity="0.2" d="M308.767 234.84C309.042 235.266 309.364 235.66 309.725 236.016C310.53 235.372 313.977 233.391 314.105 232.497C314.234 231.603 312.181 229.84 311.512 229.018L308.767 234.84Z" fill="black"/>
<path opacity="0.2" d="M322.101 212.487C321.629 212.692 321.179 212.942 320.756 213.236C321.98 214.137 323.446 214.033 322.101 212.487Z" fill="black"/>
<path opacity="0.2" d="M308.525 215.659C308.525 215.659 312.277 218.542 311.979 217.648C311.601 216.529 309.636 215.579 308.525 215.659Z" fill="black"/>
<path opacity="0.2" d="M270.059 203.975C270.574 205.835 277.04 204.394 278.965 203.975H270.059Z" fill="black"/>
<path opacity="0.2" d="M273.32 205.384C273.722 206.286 275.872 207.261 276.452 206.093L273.32 205.384Z" fill="black"/>
<path opacity="0.2" d="M212.572 207.857C210.736 209.515 208.425 210.9 207.878 213.244C207.588 214.468 206.702 219.589 207.781 220.378C210.277 222.214 211.115 216.537 211.598 215.2C212.685 212.165 213.273 210.973 212.572 207.857Z" fill="black"/>
<path opacity="0.2" d="M162.188 133.404C164.04 133.903 164.926 133.324 166.601 132.599C165.683 131.786 159.797 131.423 162.188 133.404Z" fill="black"/>
<path opacity="0.2" d="M114.011 190.922C112.457 193.499 111 195.577 110.468 198.475C109.759 202.341 110.782 203.307 112.827 206.794C113.377 207.999 114.072 209.132 114.897 210.168C116.089 211.383 118.118 211.826 119.366 213.034C121.25 214.918 120.815 216.626 120.976 219.476C121.363 225.54 121.113 231.627 123.11 237.417C124.117 240.34 124.673 242.764 126.686 245.075C129.568 248.392 130.623 248.489 134.963 248.489C131.428 245.695 129.955 245.268 129.874 241.016C129.794 237.103 129.464 235.975 131.879 232.964C136.421 227.327 142.71 221.69 145.134 214.967C145.928 212.76 146.72 210.554 147.509 208.348C147.968 207.075 150.046 203.573 149.707 202.228C149.232 200.352 142.855 198.942 140.592 198.089C139.634 197.719 137.589 197.348 136.904 196.615C135.616 195.246 136.051 192.476 134.843 191.035C133.232 189.094 126.694 186.848 124.149 186.107C122.321 185.576 121.653 185.656 119.559 185.954C117.715 186.212 115.686 187.178 114.092 187.395C112.73 187.399 111.375 187.212 110.065 186.84C107.779 185.648 108.85 183.264 109.172 181.404L104.686 180.881L107.102 175.244C105.21 175.784 104.759 176.541 103.398 177.241C102.512 177.692 100.636 178.763 99.549 178.2C97.1333 176.943 97.5521 171.758 98.9854 169.873C100.193 168.263 104.67 167.127 106.981 166.894C111.571 166.435 111.386 168.504 112.658 172.064C114.382 169.881 112.425 167.595 113.464 165.541C114.325 163.882 117.812 162.795 119.205 161.378C123.143 157.4 124.681 154.211 130.245 152.255V153.43L135.02 151.546H131.614C131.721 150.609 132.074 149.718 132.636 148.961L129.053 149.493C132.065 147.882 136.695 148.47 139.255 146.844C141.977 145.112 138.587 140.828 137.589 138.67L134.303 140.611C133.071 138.847 135.358 138.38 132.483 137.301C130.068 136.408 129.705 137.301 128.409 138.783C127.112 140.265 123.577 147.262 121.403 147.254C122.039 144.581 122.829 144.259 120.719 143.083C119.334 142.278 114.712 142.648 115.38 139.862C115.839 137.954 123.908 134.789 125.945 133.63C125.574 134.306 125.494 135.119 125.14 135.804L129.029 135.747L126.613 133.63C129.649 133.251 130.196 133.468 131.694 130.924C129.713 130.537 128.369 131.729 126.798 132.687C127.217 130.513 124.785 131.254 123.191 131.23L112.224 131.061C109.381 131.061 106.466 130.787 103.632 130.932C101.514 131.045 99.3638 131.85 97.2622 131.834C91.9395 131.834 88.3079 129.539 82.9853 130.779C77.3486 132.083 74.1276 134.668 69.4009 137.921C69.9726 138.59 70.5524 139.258 71.1322 139.918L67.106 142.745C71.3013 141.336 77.107 138.123 81.4714 138.34C84.0079 138.469 86.7135 139.242 87.3497 141.11C87.9858 142.978 87.551 146.288 87.0115 148.1C85.7875 152.223 79.6918 158.415 82.5746 163.085C82.945 163.689 84.1851 163.762 84.5877 164.406C85.2722 165.493 84.6763 167.868 84.9742 169.133C85.3446 170.743 86.5847 174.117 88.6703 174.02C87.3094 170.944 86.3914 168.786 86.1016 165.501C88.5173 166.169 90.8686 171.943 91.3115 173.924C91.5047 174.793 91.1021 176.017 91.4483 176.71C91.9154 177.644 95.2652 179.496 96.167 179.874C97.4232 180.398 99.0659 179.874 100.258 180.43C101.143 180.825 102.593 182.467 103.479 183.095C104.139 183.554 104.968 183.458 105.556 183.973C106.144 184.488 106.361 185.664 106.933 186.3C107.956 187.395 109.695 188.072 111.048 188.837C111.813 185.495 113.625 189.988 114.011 190.922Z" fill="white"/>
<path opacity="0.2" d="M109.026 174.737C112.304 173.473 114.236 177.298 117.506 176.678C113.995 174.858 112.73 173.328 109.026 174.737Z" fill="black"/>
<path opacity="0.2" d="M118.255 177.104C119.865 177.274 122.087 176.863 122.555 178.578C120.614 178.924 118.979 179.488 117.184 178.401C117.788 178.401 118.432 178.159 119.036 178.135L118.255 177.104Z" fill="black"/>
<path opacity="0.2" d="M113.922 178.135C114.506 178.23 115.084 178.356 115.654 178.514C115.109 178.809 114.526 179.028 113.922 179.166V178.135Z" fill="black"/>
<path opacity="0.2" d="M123.416 178.135C123.617 178.422 123.912 178.631 124.25 178.725C124.588 178.819 124.947 178.792 125.268 178.65C124.696 178.481 124.044 178.272 123.416 178.135Z" fill="black"/>
<path opacity="0.2" d="M139.006 147.222L136.01 150.089L141.204 151.385C141.132 150.636 141.301 149.155 140.93 148.47C140.487 147.617 138.837 149.235 139.006 147.222Z" fill="black"/>
<path opacity="0.2" d="M136.01 132.599L130.881 134.886C132.37 135.417 135.712 137.358 137.218 137.124C138.724 136.891 141.164 134.177 142.412 133.243C140.801 131.737 138.538 128.685 136.461 127.953C135.047 127.524 133.549 127.447 132.099 127.728C130.648 128.008 129.287 128.638 128.135 129.563C128.698 130.038 129.52 131.101 130.228 131.327C130.72 131.488 131.581 130.586 132.097 130.674C133.554 130.924 135.527 131.093 136.01 132.599Z" fill="black"/>
<path opacity="0.2" d="M134.287 131.89C132 132.551 133.385 133.259 134.947 132.39L134.287 131.89Z" fill="black"/>
<path opacity="0.2" d="M124.076 131.89C120.574 129.474 127.748 126.833 129.81 126.833C128.755 127.445 126.404 128.291 125.864 129.249C125.164 130.545 126.871 132.679 124.076 131.89Z" fill="black"/>
<path opacity="0.2" d="M109.148 131.89C109.148 130.924 110.516 129.297 110.992 128.42C109.598 128.79 107.545 130.095 106.965 128.42C109.494 127.566 110.863 126.89 113.359 127.357C116.274 127.904 117.119 128.46 120.099 127.953C119.559 129.322 118.883 130.417 119.294 131.89H109.148Z" fill="black"/>
<path opacity="0.2" d="M113.206 125.835C116.838 127.558 118.843 127.027 122.869 126.568C121.5 126.262 119.648 125.231 118.384 125.07C116.87 124.877 114.744 125.617 113.206 125.835Z" fill="black"/>
<path opacity="0.2" d="M123.601 127.308C122.805 127.451 122.023 127.667 121.266 127.953C121.503 128.473 121.827 128.95 122.224 129.362L125.566 127.308C124.912 127.272 124.256 127.272 123.601 127.308Z" fill="black"/>
<path opacity="0.2" d="M124.85 125.956C126.412 126.97 130.977 126.495 132.854 126.632C135.439 126.825 135.946 126.632 138.265 125.481C142.525 123.339 146.849 122.63 151.551 121.599C146.664 121.599 141.381 121.028 136.542 121.599C133.917 121.913 125.019 122.855 124.85 125.956Z" fill="black"/>
<path opacity="0.2" d="M143.861 125.497C148.057 124.2 151.527 123.186 155.94 122.896C160.241 122.592 164.562 122.768 168.824 123.419C166.835 125.44 164.612 128.75 162.052 129.974C160.2 130.86 157.663 130.473 155.811 131.359C154.378 132.051 153.073 133.67 151.873 134.701C148.846 137.334 147.404 134.403 147.928 131.278C148.137 129.99 149.748 127.759 148.314 126.447C147.292 125.617 145.005 126.471 143.861 125.497Z" fill="black"/>
<path opacity="0.2" d="M231.705 125.175L238.598 126.495C237.994 126.954 237.575 127.663 236.947 128.106C241.875 128.162 247.085 127.598 251.836 128.911C256.273 130.151 260.082 128.565 264.615 129.048C267.272 129.338 296.607 131.31 295.762 135.288C293.692 134.966 290.987 133.936 289.038 135.071L292.533 136.569C290.681 137.591 285.688 138.461 285.712 140.224C285.712 141.489 287.452 142.052 287.919 143.18C288.386 144.307 288.176 146.095 288.281 147.278C286.84 145.974 282.91 143.647 282.362 141.899C281.815 140.152 285.012 136.915 280.317 137.607C278.602 137.857 278.779 139.395 278.336 139.564C277.241 139.991 275.204 139.677 274.012 139.717C270.058 139.854 270.324 140.603 268.569 144.017C270.944 144.444 274.052 144.412 275.607 145.974C277.161 147.536 278.36 152.706 276.621 154.292C275.768 155.097 274.544 154.469 274.004 154.896C273.465 155.323 272.506 157.585 272.684 158.205C273.183 159.953 278.658 161.91 273.763 163.198C273.142 162.175 271.774 158.56 270.695 158.133C269.173 157.529 267.361 159.921 267.313 156.764L265.122 158.632C265.643 159.263 266.33 159.735 267.107 159.993C267.883 160.251 268.716 160.284 269.511 160.09C266.411 160.895 268.528 163.311 269.463 164.414C270.904 166.105 270.984 166.153 271.073 168.046C271.242 171.524 268.859 174.31 265.283 175.099C263.488 175.494 262.183 174.898 261.024 176.162C259.26 178.071 260.975 178.224 261.966 179.81C262.658 180.929 264.067 183.184 263.834 184.537C263.633 185.688 261.418 187.106 260.46 188.007C259.244 186.228 258.334 183.86 255.983 183.289C255.773 186.228 255.508 187.355 257.593 189.634C258.238 190.335 259.035 190.689 259.478 191.446C259.92 192.203 259.808 193.805 260.283 194.796C254.131 191.494 255.089 185.197 252.979 179.359C251.578 182.934 250.217 178.047 249.605 176.943C248.22 174.528 246.779 173.722 244.049 175.333C242.729 176.098 239.169 179.48 238.646 180.865C237.438 184.038 239.636 185.318 237.036 188.112C235.087 186.735 234.62 183.715 233.895 181.67C233.09 179.432 231.665 176.943 231.882 174.504C230.449 177.571 228.419 173.771 227.099 172.651C225.15 171.041 223.878 171.75 221.277 171.508C220.262 171.318 219.267 171.032 218.306 170.654C218.813 170.791 217.146 169.672 217.38 169.769C217.033 169.616 216.486 170.276 216.003 170.091C214.481 169.495 211.638 166.419 210.294 167.184C210.873 168.327 212.025 171.597 213.2 172.249C215.028 173.263 216.421 171.194 217.831 171.444C218.918 172.178 219.871 173.093 220.649 174.149C220.891 175.204 220.649 174.826 219.844 176.203C218.92 177.982 217.426 179.4 215.6 180.229C214.175 181.034 210.865 183.128 209.158 183.168C206.936 183.216 206.976 182.266 206.026 180.478C205.076 178.691 200.687 167.876 198.545 169.1C200.22 172.724 201.645 176.629 203.715 180.068C204.456 181.3 206.557 185.31 207.902 185.857C209.512 186.51 212.588 185.052 213.998 184.625C213.313 191.067 208.023 193.483 204.931 198.443C202.128 202.904 207.226 208.106 203.852 212.02C202.95 213.074 200.445 213.566 199.825 214.765C199.31 215.756 200.292 217.27 199.986 218.373C199.584 219.814 198.714 219.291 197.828 220.563C197.104 221.594 197.337 223.076 196.508 224.251C195.843 225.34 194.959 226.278 193.91 227.005C192.862 227.731 191.673 228.231 190.42 228.471C186.563 229.34 186.233 229.22 184.969 225.846L181.063 215.49C180.081 212.873 180.492 211.834 181.281 209.048C182.07 206.262 182.36 205.626 181.192 203.098C180.325 201.52 179.564 199.888 178.913 198.21C178.487 196.776 178.913 195.714 178.728 194.224C178.567 193.048 178.615 192.412 177.52 191.454C177.222 191.188 176.192 191.736 175.821 191.542C175.451 191.349 175.105 190.173 174.646 190.085C172.721 189.723 170.08 191.011 167.857 191.1C164.475 191.228 162.221 191.172 159.998 189.094C157.776 187.017 155.835 184.658 155.658 181.533C155.272 174.705 160.353 172.209 163.171 166.701C164.105 164.873 163.171 164.205 165.546 162.803C166.746 162.087 167.076 162.151 168.582 161.869C172.157 161.201 175.918 161.064 179.533 160.629C179.219 163.351 178.994 162.94 181.208 164.277C182.972 165.34 185.017 166.121 186.845 167.023C187.465 163.15 192.651 165.976 195.501 166.218C199.866 166.604 199.101 164.527 199.833 160.879C198.126 160.967 195.88 161.475 194.253 160.935C191.837 160.13 192.208 159.107 191.837 156.861L189.148 157.352C189.434 157.891 189.599 158.486 189.631 159.095C189.663 159.704 189.561 160.313 189.333 160.879C188.416 160.046 187.573 159.135 186.813 158.157C186.458 157.577 186.426 156.45 186.104 156.023C184.945 154.485 182.73 153.221 181.224 151.997C179.421 154.566 183.64 156.563 185.476 157.553C183.729 159.615 183.238 161.676 180.733 159.454C183.552 159.631 183.866 158.906 182.481 156.965C181.007 154.888 179.058 153.744 176.965 153.865C176.643 153.865 176.393 154.743 176.071 154.775C175.749 154.807 174.766 154.123 174.46 154.276C174.154 154.429 173.599 154.083 173.325 154.203C173.051 154.324 173.462 155.307 173.325 155.435C172.093 156.531 171.191 158.205 170.104 159.325C168.663 160.831 167.117 162.183 164.91 160.935C163.3 159.993 162.704 156.788 163.767 155.105C165.063 153.052 167.922 155.613 169.782 154.228C171.642 152.843 169.146 150.717 168.171 149.646C169.697 149.193 171.185 148.625 172.624 147.947C174.235 147.021 173.776 146.288 175.088 145.322C176.103 144.565 176.788 145.032 177.448 144.17C178.422 142.906 176.288 141.569 179.147 141.44C177.585 145.467 184.631 144.967 186.668 143.526C187.103 143.22 186.724 142.197 187.03 141.762C187.419 141.376 187.839 141.024 188.286 140.708V139.637H189.655C190.573 138.96 191.201 140.192 191.652 138.533C189.671 138.872 188.536 139.596 187.272 138.308C185.484 136.488 187.014 136.053 188.6 134.781C185.693 132.704 181.418 138.582 184.977 139.105C184.308 139.91 182.513 143.172 181.522 143.381C179.55 143.808 179.912 141.062 179.646 139.725C178.326 140.249 177.432 140.901 176.538 140.337C175.507 139.693 175.539 137.97 175.837 137.438C176.449 136.351 179.252 135.981 180.314 135.135C181.377 134.29 181.925 132.543 183.149 131.761C187.231 129.088 195.308 130.07 199.036 132.929C197.337 133.96 195.219 133.283 193.351 133.066C194.446 134.515 195.976 136.287 197.965 135.667C198.215 135.586 198.682 134.314 199.149 134.016C200.22 133.316 202.064 132.993 203.288 132.559C207.387 131.117 210.535 131.085 214.851 131.874C212.75 126.237 216.148 129.458 220.053 128.758C221.921 128.428 223.636 126.954 225.44 126.382C227.503 125.857 229.595 125.454 231.705 125.175Z" fill="white"/>
</g>
<path d="M172.632 289.331C172.419 289.331 172.214 289.246 172.063 289.095C171.912 288.944 171.827 288.739 171.827 288.525V277.719C171.827 277.505 171.912 277.301 172.063 277.15C172.214 276.999 172.419 276.914 172.632 276.914C172.846 276.914 173.051 276.999 173.202 277.15C173.353 277.301 173.438 277.505 173.438 277.719V288.525C173.438 288.739 173.353 288.944 173.202 289.095C173.051 289.246 172.846 289.331 172.632 289.331Z" fill="#133551"/>
<path d="M195.711 288.525C195.711 289.83 185.38 290.885 172.633 290.885C159.886 290.885 149.546 289.83 149.546 288.525C149.546 287.221 159.886 283.968 172.633 283.968C185.38 283.968 195.711 287.221 195.711 288.525Z" fill="#133551"/>
</svg>
