<svg width="352" height="300" viewBox="0 0 352 300" fill="none" xmlns="http://www.w3.org/2000/svg">
<path d="M299.197 296.462C285.61 288.39 281.441 271.845 280.846 256.749C280.742 254.229 280.274 251.598 281.299 249.316C282.325 247.034 285.016 245.31 287.342 246.202C289.275 246.945 290.248 249.056 291.43 250.773C293 253.069 295.188 254.873 297.741 255.976C299.406 256.719 301.457 257.054 302.944 256.065C305.025 254.705 305.062 251.695 304.861 249.19C304.49 244.537 304.115 239.879 303.739 235.216C303.538 232.719 303.345 230.162 303.947 227.732C304.549 225.301 306.102 222.975 308.407 222.127C310.711 221.28 313.78 222.439 314.457 224.855C314.63 225.882 314.732 226.921 314.762 227.962C314.91 228.995 315.505 230.11 316.486 230.326C317.467 230.541 318.448 229.761 319.147 228.973C321.54 226.26 323.049 222.878 324.446 219.518C325.844 216.159 327.189 212.74 329.33 209.811C331.47 206.883 334.533 204.46 338.115 203.991C341.698 203.523 345.659 205.478 346.819 208.904C347.978 212.331 346.195 216.092 344.173 219.11C341.171 223.581 337.539 227.594 333.388 231.024C332.571 231.561 331.944 232.341 331.597 233.254C331.181 234.956 332.883 236.495 334.57 236.926C336.48 237.409 338.487 237.067 340.449 237.149C342.411 237.231 344.597 237.937 345.466 239.728C346.678 242.21 344.723 245.042 342.768 246.953C338.81 250.773 334.224 253.883 329.211 256.147C327.42 256.957 325.532 257.685 324.142 259.12C322.752 260.554 322.023 262.836 323.049 264.531C324.075 266.226 326.416 266.62 328.319 266.122C330.222 265.624 331.864 264.449 333.656 263.624C336.993 262.071 341.445 261.982 343.868 264.784C345.459 266.634 345.786 269.34 345.228 271.718C344.561 274.076 343.426 276.275 341.891 278.185C336.927 285.128 330.21 290.63 322.425 294.128C314.658 297.48 307.329 298.774 299.19 296.462" fill="#F5F5F5"/>
<path d="M301.65 297.168C301.754 291.162 300.714 294.492 302.394 286.762C304.285 278.372 306.66 270.098 309.507 261.982L311.699 255.582C312.443 253.479 313.149 251.397 313.981 249.405C315.58 245.591 317.392 241.868 319.407 238.256C321.302 234.785 323.228 231.567 325.056 228.557C326.884 225.546 328.646 222.796 330.356 220.343C333.036 216.465 336.018 212.804 339.275 209.395C340.427 208.191 341.356 207.284 341.988 206.675L342.731 205.991L342.984 205.768C342.921 205.864 342.846 205.951 342.761 206.028L342.07 206.771C341.453 207.403 340.583 208.325 339.423 209.551C336.219 212.966 333.275 216.615 330.616 220.47C328.928 222.923 327.189 225.673 325.413 228.69C323.636 231.708 321.696 234.926 319.809 238.398C317.81 242.011 316.013 245.734 314.427 249.547C313.602 251.531 312.889 253.59 312.197 255.693L309.968 262.093C307.136 270.196 304.754 278.449 302.832 286.814C301.145 294.544 302.163 291.185 302.015 297.168" fill="#E0E0E0"/>
<path d="M314.1 249.346C313.957 249.009 313.85 248.657 313.78 248.298C313.594 247.621 313.364 246.625 313.096 245.392C312.561 242.931 311.937 239.505 311.261 235.729C310.584 231.953 309.908 228.534 309.335 226.067C309.053 224.84 308.815 223.837 308.637 223.168C308.524 222.818 308.451 222.456 308.421 222.09C308.585 222.418 308.714 222.762 308.808 223.116C309.038 223.785 309.328 224.766 309.648 225.985C310.309 228.423 311.038 231.834 311.714 235.647C312.39 239.46 312.963 242.753 313.416 245.31C313.632 246.477 313.81 247.458 313.951 248.246C314.041 248.606 314.091 248.975 314.1 249.346Z" fill="#E0E0E0"/>
<path d="M345.808 240.969C345.393 241.089 344.967 241.171 344.537 241.214C343.719 241.348 342.53 241.542 341.073 241.817C338.152 242.352 334.139 243.236 329.761 244.396C325.383 245.555 321.458 246.804 318.656 247.778C317.244 248.253 316.114 248.67 315.334 248.952C314.936 249.123 314.523 249.255 314.1 249.346C314.472 249.124 314.862 248.935 315.267 248.781C316.01 248.447 317.147 247.978 318.545 247.465C321.332 246.41 325.234 245.124 329.642 243.95C333.387 242.934 337.183 242.112 341.014 241.49C342.5 241.252 343.682 241.118 344.515 241.036C344.942 240.969 345.376 240.947 345.808 240.969Z" fill="#E0E0E0"/>
<path d="M302.735 286.108C302.635 285.996 302.55 285.871 302.483 285.737L301.851 284.614C301.301 283.633 300.55 282.199 299.621 280.415C297.8 276.847 295.436 271.837 292.932 266.293C290.427 260.748 288.085 255.701 286.339 252.103L284.258 247.845L283.7 246.678C283.624 246.547 283.567 246.407 283.529 246.261C283.632 246.372 283.717 246.497 283.782 246.633L284.414 247.755C284.964 248.736 285.722 250.171 286.643 251.955C288.464 255.523 290.828 260.532 293.333 266.077C295.838 271.622 298.179 276.669 299.926 280.266L302.007 284.525C302.23 284.993 302.416 285.372 302.564 285.692C302.64 285.822 302.698 285.962 302.735 286.108Z" fill="#E0E0E0"/>
<path d="M344.44 269.184C344.316 269.274 344.178 269.344 344.031 269.392L342.82 269.897L338.36 271.718C334.592 273.257 329.441 275.435 323.688 277.865C317.935 280.296 312.747 282.422 308.949 283.886C307.046 284.629 305.5 285.187 304.43 285.566L303.189 285.989C303.047 286.051 302.896 286.091 302.743 286.108C302.87 286.022 303.007 285.952 303.151 285.9L304.363 285.395L308.823 283.574C312.591 282.035 317.742 279.857 323.502 277.434C329.263 275.011 334.428 272.871 338.234 271.414C340.137 270.67 341.683 270.106 342.753 269.734L343.994 269.303C344.138 269.246 344.287 269.206 344.44 269.184Z" fill="#E0E0E0"/>
<path d="M95.288 12.1823C95.3276 12.2839 95.3599 12.3882 95.3846 12.4944C95.4515 12.7174 95.5332 13.0296 95.6447 13.4235C95.7708 13.928 95.9272 14.4244 96.113 14.9101C96.3269 15.5838 96.575 16.2461 96.8563 16.8946L97.3691 18.0541C97.5698 18.448 97.7928 18.8643 98.0158 19.2954C98.2388 19.7265 98.4989 20.165 98.759 20.611C99.0192 21.0569 99.3016 21.5401 99.651 21.9935C101.105 24.1203 102.829 26.0491 104.78 27.7315C107.135 29.7777 109.802 31.4338 112.681 32.6371C114.279 33.3077 115.936 33.8277 117.631 34.1906C119.439 34.5378 121.266 34.7859 123.101 34.9338C126.818 35.3055 130.928 35.5062 134.823 37.0745C138.717 38.6428 142.107 41.4672 145.043 44.7153C147.987 47.8436 150.368 51.4569 152.081 55.3961C152.853 57.2944 153.329 59.2998 153.494 61.3423C153.615 63.2976 153.49 65.2603 153.122 67.1845C152.352 70.7051 151.313 74.1615 150.015 77.5234C148.912 80.4509 148.094 83.4775 147.57 86.5616C147.137 89.1009 147.234 91.702 147.852 94.2024C148.32 96.0893 149.17 97.8601 150.35 99.4054C151.09 100.386 152.001 101.225 153.04 101.88C153.784 102.334 154.163 102.512 154.148 102.535C153.747 102.374 153.361 102.178 152.996 101.947C151.93 101.308 150.993 100.476 150.231 99.4946C149.014 97.9461 148.134 96.1617 147.644 94.2545C146.993 91.7299 146.874 89.0975 147.295 86.5244C147.814 83.4264 148.628 80.385 149.725 77.4416C151.006 74.0944 152.025 70.6526 152.773 67.1473C153.135 65.2501 153.255 63.3144 153.129 61.3869C152.971 59.3818 152.502 57.4134 151.74 55.5522C150.039 51.6557 147.678 48.0824 144.76 44.9902C141.854 41.7644 138.502 38.9698 134.689 37.4387C130.876 35.9075 126.84 35.6845 123.079 35.3055C121.231 35.1572 119.392 34.9089 117.571 34.5621C115.856 34.188 114.179 33.6556 112.562 32.9715C107.242 30.7123 102.696 26.9517 99.48 22.1495C99.1381 21.6961 98.878 21.2056 98.5955 20.7522C98.3241 20.3198 98.076 19.8732 97.8523 19.4143L97.213 18.1656L96.7225 16.9912C96.4365 16.3371 96.1883 15.667 95.9792 14.9844C95.8039 14.4986 95.6599 14.0021 95.5481 13.4978C95.454 13.1014 95.3796 12.7893 95.3251 12.5613C95.3009 12.4364 95.2885 12.3095 95.288 12.1823Z" fill="#E0E0E0"/>
<path d="M118.671 0C118.758 0.0690831 118.84 0.143558 118.917 0.222981L119.66 0.914226C119.965 1.2264 120.314 1.6575 120.745 2.1109C121.176 2.56429 121.622 3.16634 122.083 3.86502C124.781 7.74145 126.362 12.2847 126.654 16.9987C126.735 18.5564 126.68 20.1182 126.491 21.6664C126.251 23.336 125.888 24.9856 125.405 26.6017C124.446 29.9613 123.042 33.425 122.09 37.2083C121.596 39.1362 121.317 41.113 121.258 43.1024C121.213 45.1815 121.423 47.2583 121.882 49.2864C122.862 53.5615 124.807 57.5557 127.568 60.9633C130.342 64.3609 133.773 67.1644 137.654 69.2062C141.26 71.1189 145.138 72.4675 149.153 73.205C152.996 73.9111 156.719 74.1043 160.176 74.6321C163.406 75.0147 166.543 75.9632 169.444 77.4342C171.802 78.7256 173.885 80.4652 175.576 82.5554C177.687 85.1065 179.142 88.1355 179.813 91.378C179.887 91.7943 179.939 92.1213 179.976 92.3591C180.014 92.597 180.014 92.6936 180.014 92.6936C180.014 92.6936 180.014 92.5821 179.939 92.3666C179.865 92.151 179.82 91.8091 179.739 91.3929C179.446 90.1605 179.05 88.9547 178.557 87.788C177.753 85.9497 176.694 84.2333 175.413 82.6891C173.72 80.6433 171.651 78.9403 169.318 77.6721C166.434 76.2384 163.323 75.3155 160.124 74.9442C156.69 74.4388 152.966 74.253 149.093 73.5543C145.036 72.8234 141.117 71.4669 137.476 69.5332C133.544 67.4744 130.07 64.64 127.264 61.2011C124.468 57.7475 122.5 53.6998 121.511 49.3682C121.047 47.3105 120.837 45.2037 120.886 43.095C120.95 41.0874 121.236 39.093 121.741 37.1488C122.715 33.3358 124.134 29.8796 125.101 26.5423C125.581 24.9402 125.946 23.3058 126.193 21.6516C126.39 20.1239 126.452 18.5818 126.379 17.0433C126.097 12.3655 124.556 7.85091 121.919 3.97651C121.473 3.28527 120.998 2.72038 120.619 2.21495C120.24 1.70953 119.875 1.31559 119.563 0.995986L118.879 0.252713C118.806 0.172086 118.736 0.0877376 118.671 0Z" fill="#E0E0E0"/>
<path d="M175.814 82.3993C175.536 82.6975 175.233 82.971 174.907 83.2169C174.313 83.7297 173.421 84.4433 172.321 85.3055C169.42 87.5325 166.408 89.6114 163.297 91.5341C160.181 93.4518 156.968 95.2083 153.672 96.7965C152.408 97.406 151.375 97.8742 150.654 98.1716C150.287 98.3521 149.904 98.4988 149.51 98.6101C149.856 98.3953 150.216 98.2041 150.587 98.0378L153.56 96.5512C156.058 95.2802 159.462 93.4443 163.097 91.1996C166.731 88.955 169.905 86.74 172.165 85.0825L174.818 83.1054C175.128 82.8409 175.462 82.6046 175.814 82.3993Z" fill="#E0E0E0"/>
<path d="M169.637 77.5829C169.359 77.7956 169.058 77.9752 168.738 78.118L166.226 79.4782C164.107 80.6303 161.209 82.2655 158.05 84.1906C154.891 86.1157 152.156 87.9739 150.171 89.3415L147.822 90.9692C147.542 91.1791 147.246 91.3679 146.938 91.5341C147.18 91.2783 147.446 91.0468 147.733 90.8429C148.261 90.4192 149.034 89.832 150.008 89.1185C151.955 87.684 154.713 85.7961 157.849 83.8636C160.986 81.931 163.922 80.333 166.077 79.2404C167.155 78.6904 168.032 78.2667 168.649 77.9843C168.967 77.8234 169.297 77.6892 169.637 77.5829Z" fill="#E0E0E0"/>
<path d="M160.778 75.7247C160.23 76.2111 159.638 76.6442 159.009 77.018C157.879 77.7612 156.303 78.7795 154.549 79.8424C152.795 80.9053 151.145 81.8269 149.948 82.4662C149.324 82.8484 148.664 83.1695 147.978 83.425C148.551 82.9741 149.16 82.5713 149.799 82.2209L154.333 79.5079L158.86 76.7801C159.469 76.3758 160.11 76.0228 160.778 75.7247Z" fill="#E0E0E0"/>
<path d="M152.535 65.9432C152.119 66.3134 151.669 66.642 151.189 66.9244L147.859 69.1542L144.596 71.4212C144.16 71.768 143.687 72.0647 143.184 72.3057C143.554 71.8871 143.973 71.5151 144.433 71.1982C145.236 70.559 146.38 69.7116 147.681 68.8346C148.982 67.9575 150.186 67.1994 151.078 66.6939C151.531 66.3849 152.02 66.1328 152.535 65.9432Z" fill="#E0E0E0"/>
<path d="M151.866 57.2246C151.866 57.2766 150.9 57.8118 149.317 58.7112C147.734 59.6105 145.6 60.941 143.326 62.5316C141.052 64.1222 139.082 65.7054 137.692 66.8797C136.302 68.0541 135.462 68.8048 135.418 68.7602C135.571 68.5428 135.748 68.3433 135.945 68.1656C136.302 67.794 136.837 67.2885 137.514 66.679C139.284 65.0802 141.151 63.5909 143.103 62.2194C145.051 60.853 147.085 59.6117 149.19 58.503C149.993 58.0719 150.677 57.7598 151.123 57.5368C151.356 57.4014 151.606 57.2965 151.866 57.2246Z" fill="#E0E0E0"/>
<path d="M147.57 50.4609C147.629 50.55 143.593 53.434 138.561 56.9794C133.529 60.5248 129.389 63.2675 129.33 63.1783C129.27 63.0891 133.299 60.2052 138.338 56.6598C143.377 53.1143 147.495 50.3717 147.57 50.4609Z" fill="#E0E0E0"/>
<path d="M144.113 42.8274C143.886 43.0428 143.636 43.2345 143.37 43.3997L141.192 44.8863C139.356 46.1127 136.829 47.8594 134.079 49.7919C131.329 51.7244 128.876 53.5826 127.122 54.9204L125.033 56.5036C124.785 56.7096 124.519 56.8936 124.238 57.0536C124.443 56.8033 124.678 56.5786 124.937 56.3847C125.405 55.9833 126.089 55.4036 126.951 54.7049C128.675 53.315 131.099 51.4419 133.856 49.502C136.614 47.562 139.163 45.8525 141.044 44.6781C141.988 44.091 142.753 43.6227 143.273 43.318C143.535 43.1248 143.817 42.9604 144.113 42.8274Z" fill="#E0E0E0"/>
<path d="M137.03 38.613C137.089 38.7022 133.663 41.1847 129.382 44.1578C125.1 47.1309 121.57 49.4648 121.51 49.3607C121.451 49.2567 124.877 46.7965 129.159 43.8234C133.44 40.8503 136.97 38.5238 137.03 38.613Z" fill="#E0E0E0"/>
<path d="M129.582 34.369C128.354 35.594 127.037 36.7269 125.643 37.7583C124.331 38.8901 122.937 39.9236 121.473 40.8503C122.696 39.6202 124.01 38.4847 125.405 37.4535C126.717 36.3214 128.114 35.2903 129.582 34.369Z" fill="#E0E0E0"/>
<path d="M124.565 23.6732C124.06 24.244 123.5 24.7643 122.893 25.2267C121.815 26.1409 120.299 27.3673 118.575 28.6531C116.85 29.939 115.245 31.0465 114.063 31.8195C113.447 32.2679 112.79 32.6562 112.101 32.979C112.668 32.4685 113.274 32.0038 113.914 31.5891C115.052 30.764 116.627 29.6268 118.374 28.341C120.121 27.0551 121.637 25.8733 122.752 25.0185C123.322 24.5253 123.928 24.0756 124.565 23.6732Z" fill="#E0E0E0"/>
<path d="M126.758 16.4114C126.53 16.6332 126.281 16.8323 126.015 17.0061C125.509 17.3703 124.766 17.8757 123.844 18.4926C121.994 19.7264 119.385 21.3616 116.456 23.0637C113.528 24.7658 110.807 26.1929 108.815 27.1889C107.819 27.6795 107.009 28.0734 106.444 28.3261C106.159 28.4803 105.857 28.6024 105.545 28.6903C105.807 28.499 106.085 28.3323 106.378 28.1923L108.689 26.9436C110.644 25.8956 113.335 24.4239 116.263 22.7293C119.192 21.0346 121.808 19.4366 123.696 18.2696L125.926 16.8871C126.186 16.7008 126.465 16.5414 126.758 16.4114Z" fill="#E0E0E0"/>
<path d="M123.272 8.63684C123.015 8.8749 122.736 9.08886 122.44 9.27606C121.882 9.66256 121.08 10.2126 120.069 10.889C118.062 12.2269 115.252 14.0404 112.116 15.9804C108.979 17.9203 106.103 19.6299 104.007 20.8265C102.951 21.4286 102.096 21.9043 101.502 22.2239C101.202 22.4079 100.886 22.5646 100.558 22.6921C100.827 22.465 101.118 22.2658 101.427 22.0975L103.865 20.611L111.893 15.6608L119.898 10.666L122.336 9.17943C122.627 8.96442 122.941 8.78244 123.272 8.63684Z" fill="#E0E0E0"/>
<path d="M315.326 72.4989C315.259 72.5732 314.189 71.5029 312.123 69.7414C311.097 68.8569 309.811 67.8014 308.258 66.6642C306.506 65.375 304.66 64.2196 302.735 63.208C301.627 62.6257 300.477 62.1288 299.294 61.7214C298.048 61.267 296.733 61.0331 295.406 61.0302C294.752 61.0385 294.107 61.1908 293.519 61.4762C292.946 61.7778 292.491 62.2617 292.225 62.8512C291.949 63.4937 291.817 64.1888 291.839 64.8878C291.854 65.6389 291.949 66.3864 292.121 67.1176C292.516 68.678 293.079 70.1908 293.801 71.6293C294.551 73.1499 295.4 74.6198 296.343 76.0295C300.363 81.9731 305.394 87.1655 311.208 91.3706C312.588 92.3565 314.03 93.2504 315.527 94.0464C316.941 94.815 318.437 95.4233 319.986 95.86C320.715 96.0578 321.462 96.175 322.216 96.2093C322.916 96.2523 323.616 96.1406 324.268 95.8823C324.861 95.6355 325.355 95.199 325.673 94.641C325.976 94.0613 326.149 93.4218 326.178 92.768C326.218 91.4413 326.024 90.1179 325.606 88.8583C325.231 87.6606 324.766 86.4928 324.216 85.365C323.261 83.4133 322.163 81.5351 320.93 79.7458C319.838 78.1627 318.827 76.8471 317.957 75.7916C316.255 73.6733 315.222 72.5732 315.289 72.4989C315.602 72.7094 315.887 72.9592 316.136 73.2422C316.657 73.7402 317.4 74.4909 318.314 75.5166C319.228 76.5423 320.306 77.8207 321.458 79.3891C322.774 81.1701 323.945 83.0542 324.959 85.0231C325.545 86.1777 326.042 87.3754 326.446 88.6056C326.922 89.9688 327.154 91.4058 327.129 92.8497C327.101 93.6575 326.895 94.4492 326.527 95.1687C326.106 95.933 325.442 96.5346 324.639 96.8783C323.851 97.2138 322.997 97.3639 322.142 97.3168C321.306 97.2911 320.476 97.1714 319.667 96.96C318.032 96.514 316.452 95.8883 314.955 95.0944C313.409 94.2821 311.919 93.3683 310.495 92.3592C307.527 90.2372 304.767 87.838 302.252 85.194C299.695 82.5782 297.388 79.7289 295.362 76.6835C294.401 75.2241 293.535 73.7047 292.768 72.1347C292.012 70.6105 291.426 69.0078 291.021 67.3555C290.838 66.538 290.743 65.7032 290.739 64.8655C290.725 64.0103 290.9 63.1627 291.252 62.383C291.623 61.5949 292.245 60.952 293.021 60.5545C293.75 60.2078 294.547 60.0251 295.354 60.0193C296.799 60.0367 298.229 60.3136 299.576 60.837C300.795 61.2836 301.978 61.8228 303.114 62.4499C305.049 63.5257 306.896 64.7535 308.637 66.1216C310.168 67.3257 311.424 68.4406 312.413 69.3846C313.401 70.3285 314.137 71.1016 314.642 71.6144C314.912 71.8749 315.142 72.1728 315.326 72.4989Z" fill="#E0E0E0"/>
<path d="M301.539 75.9477C301.636 75.9477 301.219 77.3748 300.669 79.9465C300.394 81.2324 300.09 82.8155 299.844 84.6588C299.565 86.7426 299.451 88.8452 299.502 90.9469C299.53 92.1565 299.654 93.362 299.874 94.5518C300.084 95.816 300.519 97.032 301.16 98.1418C301.484 98.6856 301.923 99.1523 302.446 99.5094C302.974 99.849 303.595 100.015 304.222 99.9851C304.896 99.9498 305.554 99.7645 306.147 99.4425C306.798 99.113 307.407 98.7062 307.961 98.231C309.133 97.2117 310.186 96.0621 311.097 94.8045C312.069 93.484 312.948 92.0982 313.729 90.6571C317.009 84.533 319.128 77.8551 319.98 70.9603C320.175 69.3327 320.256 67.6936 320.225 66.0547C320.207 64.5011 320.01 62.9548 319.638 61.4464C319.467 60.7418 319.218 60.0587 318.894 59.4098C318.59 58.8048 318.159 58.2724 317.631 57.849C317.133 57.469 316.532 57.2488 315.906 57.2172C315.272 57.2072 314.642 57.3366 314.063 57.5963C312.901 58.1328 311.843 58.8728 310.941 59.7815C310.076 60.6292 309.278 61.5438 308.555 62.5167C307.304 64.206 306.185 65.9903 305.211 67.8534C304.349 69.5035 303.68 70.9677 303.167 72.1718C302.134 74.5875 301.68 75.9774 301.569 75.9477C301.59 75.5899 301.663 75.237 301.784 74.8997C301.978 74.2307 302.275 73.2422 302.728 72.0009C303.182 70.7596 303.799 69.2508 304.616 67.5413C305.544 65.6075 306.633 63.7551 307.872 62.0039C308.601 60.9796 309.412 60.0153 310.295 59.12C311.261 58.102 312.407 57.2728 313.677 56.6746C314.388 56.3491 315.161 56.1818 315.944 56.184C316.782 56.2131 317.591 56.4984 318.263 57.0016C318.92 57.5051 319.458 58.1472 319.838 58.8821C320.221 59.5883 320.52 60.3366 320.73 61.1119C321.145 62.7026 321.369 64.3368 321.399 65.9804C321.443 67.6732 321.368 69.367 321.176 71.0495C320.345 78.1066 318.176 84.9404 314.784 91.1848C313.975 92.6717 313.058 94.0976 312.041 95.4512C311.07 96.7783 309.945 97.9858 308.689 99.0486C308.067 99.5691 307.386 100.016 306.66 100.379C305.922 100.758 305.111 100.972 304.282 101.003C303.443 101.031 302.618 100.797 301.918 100.334C301.276 99.8845 300.739 99.3014 300.342 98.625C299.656 97.4057 299.2 96.0702 298.997 94.6856C298.791 93.4426 298.686 92.1847 298.685 90.9246C298.679 88.7803 298.856 86.6395 299.213 84.5251C299.477 82.9329 299.822 81.3552 300.246 79.7978C300.588 78.5194 300.915 77.568 301.145 76.8842C301.233 76.5557 301.366 76.2406 301.539 75.9477Z" fill="#E0E0E0"/>
<path d="M306.259 69.2954C306.259 69.392 304.869 69.7711 302.394 70.6556C301.16 71.1015 299.659 71.6739 297.934 72.4394C296.016 73.2841 294.167 74.2782 292.404 75.4125C291.39 76.0787 290.431 76.8243 289.535 77.6423C288.569 78.4813 287.763 79.4887 287.157 80.6154C286.867 81.1782 286.702 81.7968 286.674 82.429C286.663 83.0566 286.848 83.6719 287.201 84.1906C287.59 84.7464 288.098 85.2085 288.688 85.5433C289.312 85.92 289.978 86.2218 290.672 86.4427C292.155 86.9059 293.687 87.1977 295.236 87.3123C296.871 87.4379 298.512 87.4552 300.149 87.3644C307.092 86.933 313.896 85.222 320.217 82.3175C321.703 81.6241 323.141 80.832 324.521 79.9465C325.83 79.1108 327.04 78.1283 328.126 77.018C328.633 76.4945 329.077 75.9132 329.449 75.2862C329.804 74.7097 330.03 74.063 330.11 73.3908C330.18 72.767 330.049 72.1374 329.739 71.5921C329.413 71.0493 328.975 70.5829 328.453 70.2245C327.383 69.5215 326.194 69.0179 324.945 68.7379C323.77 68.4472 322.575 68.2484 321.37 68.1433C319.274 67.9804 317.169 67.9804 315.074 68.1433C313.216 68.2771 311.618 68.4778 310.317 68.671C307.723 69.065 306.296 69.4143 306.274 69.3028C306.589 69.1347 306.927 69.0121 307.277 68.9386C307.946 68.7454 308.942 68.4778 310.25 68.1953C311.558 67.9129 313.149 67.6528 315.029 67.4521C317.162 67.2243 319.311 67.1771 321.451 67.3108C322.702 67.3903 323.945 67.5693 325.168 67.846C326.54 68.1349 327.848 68.6741 329.025 69.4366C329.675 69.8715 330.223 70.4421 330.631 71.109C331.051 71.8354 331.235 72.6742 331.158 73.5097C331.084 74.3326 330.83 75.1291 330.415 75.8436C330.008 76.5461 329.522 77.1995 328.966 77.791C327.83 78.9793 326.557 80.0296 325.175 80.9202C323.759 81.8466 322.281 82.676 320.753 83.4027C314.309 86.3936 307.36 88.1435 300.268 88.561C298.576 88.6471 296.88 88.6173 295.191 88.4718C293.553 88.341 291.937 88.0167 290.375 87.5056C289.593 87.2561 288.844 86.9116 288.145 86.4799C287.433 86.0564 286.824 85.4802 286.361 84.7926C285.897 84.0939 285.66 83.2679 285.685 82.429C285.73 81.6494 285.943 80.8888 286.309 80.1992C286.986 78.9875 287.877 77.9095 288.941 77.018C289.887 76.1938 290.898 75.4481 291.966 74.7882C293.793 73.6359 295.715 72.6412 297.711 71.8151C299.458 71.0718 300.996 70.5887 302.267 70.2096C303.538 69.8305 304.534 69.5853 305.241 69.4663C305.57 69.3622 305.913 69.3047 306.259 69.2954Z" fill="#E0E0E0"/>
<path d="M313.505 77.6127C313.689 78.3544 313.648 79.1339 313.388 79.8524C313.128 80.5708 312.66 81.1958 312.044 81.6482C311.429 82.1005 310.692 82.3597 309.929 82.393C309.166 82.4263 308.41 82.2322 307.757 81.8352C307.104 81.4383 306.584 80.8565 306.262 80.1634C305.94 79.4704 305.831 78.6973 305.95 77.9424C306.068 77.1875 306.408 76.4848 306.926 75.9233C307.444 75.3617 308.117 74.9667 308.86 74.7882C309.85 74.5504 310.895 74.7138 311.765 75.2429C312.635 75.772 313.261 76.624 313.505 77.6127Z" fill="#E0E0E0"/>
<path d="M42.0249 124.944C41.9728 124.944 42.3965 124.142 43.058 122.714C43.3851 121.971 43.8013 121.094 44.1581 120.031C44.6037 118.822 44.9541 117.579 45.2061 116.315C45.356 115.595 45.4505 114.864 45.4885 114.13C45.5442 113.353 45.4612 112.573 45.2433 111.826C45.1315 111.456 44.9385 111.115 44.6784 110.83C44.4172 110.557 44.0713 110.382 43.6972 110.332C43.2902 110.277 42.876 110.315 42.4857 110.443C42.0606 110.572 41.6516 110.749 41.2667 110.971C40.4664 111.461 39.7235 112.04 39.0518 112.695C38.3148 113.366 37.6245 114.086 36.9855 114.851C34.2858 118.09 32.1797 121.782 30.7643 125.754C30.4301 126.694 30.1594 127.655 29.9541 128.631C29.7528 129.554 29.6556 130.496 29.6642 131.441C29.6687 131.884 29.7236 132.325 29.8278 132.756C29.9152 133.158 30.0931 133.534 30.3481 133.856C30.5843 134.154 30.9143 134.364 31.2846 134.451C31.6593 134.532 32.0471 134.532 32.4218 134.451C33.1772 134.257 33.892 133.929 34.5327 133.485C35.1453 133.077 35.7266 132.625 36.2719 132.132C37.2192 131.277 38.0989 130.35 38.9031 129.359C39.6464 128.49 40.1964 127.702 40.6573 127.048C41.5715 125.74 42.0249 124.974 42.0769 125.004C42.0119 125.212 41.9221 125.412 41.8093 125.598C41.6161 125.97 41.3113 126.52 40.8877 127.196C40.464 127.873 39.9066 128.683 39.2153 129.605C38.4237 130.638 37.5513 131.608 36.6064 132.503C36.0525 133.027 35.4586 133.507 34.83 133.938C34.1293 134.431 33.3429 134.789 32.511 134.993C32.0519 135.113 31.5719 135.128 31.1062 135.038C30.6074 134.922 30.1606 134.645 29.8352 134.25C29.52 133.861 29.2964 133.407 29.1811 132.92C29.0583 132.433 28.9886 131.935 28.973 131.433C28.9583 130.434 29.0556 129.437 29.2629 128.46C29.4631 127.451 29.7338 126.458 30.073 125.487C31.4965 121.417 33.6472 117.639 36.4206 114.338C37.0817 113.546 37.797 112.801 38.5612 112.108C39.2961 111.435 40.1039 110.847 40.9694 110.354C41.4011 110.117 41.8572 109.928 42.3296 109.789C42.8103 109.64 43.3179 109.6 43.8162 109.67C44.321 109.754 44.7852 109.999 45.1392 110.369C45.4538 110.726 45.6871 111.147 45.823 111.603C46.0473 112.42 46.1253 113.27 46.0534 114.115C45.998 114.865 45.8862 115.611 45.7189 116.345C45.4293 117.612 45.0391 118.855 44.552 120.061C44.1209 121.124 43.6972 122.008 43.3256 122.722C42.954 123.435 42.6418 123.978 42.4188 124.335C42.3189 124.557 42.1861 124.762 42.0249 124.944Z" fill="#E0E0E0"/>
<path d="M37.8399 117.735C37.8399 117.787 36.9852 117.779 35.4392 117.891C34.6959 117.95 33.7296 118.032 32.6519 118.195C31.4307 118.38 30.2256 118.658 29.047 119.028C28.3687 119.245 27.7078 119.514 27.0699 119.831C26.3912 120.156 25.7768 120.602 25.2563 121.146C25.0041 121.417 24.8138 121.739 24.6989 122.09C24.5873 122.441 24.5873 122.817 24.6989 123.168C24.8322 123.543 25.0452 123.886 25.3232 124.171C25.6178 124.481 25.947 124.755 26.3043 124.989C27.0695 125.487 27.8902 125.893 28.7497 126.2C29.6546 126.533 30.5808 126.803 31.5221 127.011C33.5104 127.452 35.5365 127.7 37.5724 127.754C39.6075 127.815 41.6438 127.678 43.6523 127.345C44.6035 127.192 45.5425 126.971 46.4619 126.684C47.3357 126.419 48.1762 126.055 48.9667 125.598C49.3332 125.39 49.6748 125.141 49.985 124.855C50.2802 124.589 50.5093 124.259 50.654 123.889C50.7914 123.549 50.82 123.175 50.7357 122.819C50.6342 122.46 50.4596 122.126 50.2229 121.837C49.7303 121.269 49.1384 120.796 48.4762 120.44C47.8574 120.086 47.2111 119.783 46.5437 119.533C45.3853 119.103 44.1948 118.766 42.9834 118.522C41.9131 118.307 40.984 118.166 40.2184 118.076C38.6798 117.883 37.8251 117.846 37.8251 117.794C38.0286 117.74 38.2399 117.723 38.4494 117.742C38.8582 117.742 39.4677 117.742 40.2407 117.801C41.1848 117.865 42.125 117.976 43.0577 118.136C44.3014 118.342 45.5249 118.656 46.7146 119.072C47.4154 119.311 48.0942 119.609 48.7438 119.964C49.4715 120.337 50.1242 120.841 50.6688 121.451C50.974 121.794 51.1953 122.204 51.3155 122.648C51.4369 123.125 51.4083 123.629 51.2337 124.09C51.0576 124.543 50.7835 124.951 50.431 125.286C50.0899 125.622 49.7107 125.916 49.3012 126.163C48.4702 126.654 47.5846 127.045 46.6626 127.33C45.7174 127.645 44.7512 127.894 43.7713 128.073C41.7164 128.418 39.6329 128.562 37.5501 128.505C35.4693 128.461 33.3978 128.212 31.366 127.761C30.3995 127.511 29.4509 127.195 28.5267 126.817C27.6205 126.485 26.7572 126.046 25.955 125.509C25.5573 125.247 25.1929 124.938 24.8698 124.588C24.536 124.235 24.2824 123.814 24.1266 123.354C23.9778 122.885 23.9778 122.381 24.1266 121.912C24.2841 121.472 24.5381 121.073 24.8698 120.745C25.444 120.154 26.125 119.677 26.8767 119.34C27.5434 119.021 28.2343 118.755 28.943 118.545C30.1583 118.191 31.4016 117.943 32.6593 117.801C33.7594 117.675 34.7108 117.623 35.4912 117.608C36.2716 117.593 36.8737 117.608 37.2825 117.608C37.4738 117.621 37.6618 117.664 37.8399 117.735Z" fill="#E0E0E0"/>
<path d="M42.3663 119.303C42.3143 119.303 41.8683 118.604 40.9615 117.348C40.5081 116.724 39.9432 115.973 39.2371 115.118C38.4405 114.172 37.568 113.292 36.6283 112.487C36.0905 112.023 35.5163 111.603 34.9113 111.231C34.2776 110.822 33.5749 110.533 32.8376 110.376C32.475 110.298 32.1 110.298 31.7375 110.376C31.3814 110.472 31.0644 110.678 30.8307 110.963C30.5792 111.271 30.4012 111.632 30.3104 112.019C30.1982 112.431 30.1358 112.855 30.1246 113.282C30.1065 114.196 30.1938 115.109 30.3848 116.003C30.5688 116.945 30.8171 117.874 31.128 118.783C31.8054 120.7 32.6666 122.546 33.6998 124.298C34.7228 126.06 35.9099 127.723 37.2452 129.263C37.8793 129.987 38.5622 130.668 39.2892 131.299C39.9706 131.901 40.7188 132.422 41.519 132.853C41.8984 133.055 42.3 133.212 42.7157 133.321C43.0983 133.425 43.4989 133.445 43.89 133.38C44.2511 133.317 44.5836 133.143 44.8414 132.882C45.0956 132.609 45.2882 132.285 45.4063 131.931C45.6272 131.209 45.7203 130.455 45.6813 129.701C45.6525 128.99 45.568 128.281 45.4286 127.583C45.184 126.372 44.8461 125.181 44.4178 124.023C44.0387 122.997 43.6745 122.135 43.34 121.436C42.6934 120.031 42.2771 119.281 42.3292 119.251C42.469 119.405 42.5912 119.575 42.6934 119.756C42.9163 120.106 43.2285 120.626 43.5853 121.31C43.9421 121.993 44.3286 122.856 44.7894 123.881C45.2783 125.074 45.6686 126.304 45.9563 127.561C46.1154 128.282 46.2173 129.015 46.2611 129.753C46.3201 130.573 46.2294 131.397 45.9935 132.184C45.8553 132.623 45.6218 133.027 45.3097 133.366C44.9698 133.721 44.5285 133.962 44.0461 134.057C43.5674 134.144 43.0754 134.126 42.6042 134.005C42.1452 133.891 41.7012 133.724 41.2811 133.507C40.4255 133.061 39.6247 132.518 38.8952 131.886C38.1367 131.238 37.424 130.537 36.762 129.79C34.0145 126.65 31.8905 123.015 30.5037 119.08C30.1906 118.139 29.9423 117.178 29.7604 116.203C29.5649 115.258 29.4825 114.292 29.5151 113.327C29.5337 112.849 29.6085 112.375 29.7381 111.915C29.86 111.444 30.0861 111.007 30.3996 110.636C30.7209 110.27 31.1461 110.011 31.6186 109.893C32.069 109.793 32.5358 109.793 32.9862 109.893C33.7819 110.077 34.5375 110.405 35.216 110.859C35.8391 111.256 36.4283 111.703 36.9776 112.197C37.9056 113.032 38.761 113.945 39.5344 114.925C40.2257 115.795 40.7683 116.575 41.1919 117.229C41.6156 117.883 41.9352 118.411 42.1062 118.775C42.2116 118.941 42.2988 119.118 42.3663 119.303Z" fill="#E0E0E0"/>
<path d="M38.8511 124.751C38.4691 124.966 38.0323 125.064 37.5951 125.032C37.158 125 36.74 124.84 36.3933 124.571C36.0466 124.303 35.7866 123.939 35.6458 123.524C35.5051 123.109 35.4898 122.661 35.6018 122.238C35.7138 121.814 35.9483 121.433 36.2758 121.141C36.6034 120.85 37.0095 120.662 37.4434 120.6C37.8773 120.538 38.3198 120.606 38.7156 120.794C39.1114 120.983 39.4429 121.283 39.6687 121.659C39.8223 121.915 39.9231 122.198 39.9651 122.494C40.0071 122.789 39.9895 123.089 39.9133 123.378C39.837 123.666 39.7037 123.936 39.5213 124.172C39.3389 124.408 39.111 124.605 38.8511 124.751Z" fill="#E0E0E0"/>
<path d="M59.8631 240.471C59.8631 240.787 59.9884 241.089 60.2114 241.312C60.4344 241.535 60.7369 241.66 61.0523 241.66H63.1335V263.215L50.1336 292.099C49.7955 292.847 49.6497 293.668 49.7095 294.487C49.7692 295.306 50.0326 296.096 50.4756 296.788C50.9187 297.479 51.5274 298.048 52.2465 298.444C52.9656 298.841 53.7723 299.051 54.5933 299.056H80.4369C81.2591 299.05 82.0668 298.839 82.7866 298.441C83.5064 298.044 84.1155 297.473 84.5586 296.78C85.0016 296.088 85.2646 295.295 85.3236 294.475C85.3826 293.655 85.2358 292.833 84.8965 292.084L71.3912 262.294V241.794H73.3089C73.642 241.794 73.9615 241.662 74.1971 241.426C74.4327 241.191 74.565 240.871 74.565 240.538C74.565 240.205 74.4327 239.885 74.1971 239.65C73.9615 239.414 73.642 239.282 73.3089 239.282H61.0151C60.7062 239.292 60.4132 239.421 60.1981 239.643C59.9831 239.865 59.8629 240.162 59.8631 240.471Z" fill="#EBEBEB"/>
<path d="M100.506 299.74H78.6384C77.43 299.74 76.2711 299.26 75.4167 298.405C74.5622 297.551 74.0822 296.392 74.0822 295.184V257.633H108.54L105.054 261.09V295.191C105.052 296.397 104.573 297.553 103.72 298.405C102.867 299.258 101.711 299.738 100.506 299.74Z" fill="#F5F5F5"/>
<path d="M82.407 268.247C81.0782 268.438 79.7343 268.503 78.3933 268.441C77.0498 268.503 75.7035 268.438 74.3722 268.247C75.703 268.052 77.0498 267.987 78.3933 268.054C79.7343 267.987 81.0786 268.052 82.407 268.247Z" fill="#E0E0E0"/>
<path d="M77.9399 263.773C77.3661 263.965 76.7576 264.031 76.156 263.966C75.5545 264.031 74.9458 263.965 74.3722 263.773C74.9468 263.584 75.5545 263.519 76.156 263.58C76.7576 263.52 77.3651 263.585 77.9399 263.773Z" fill="#E0E0E0"/>
<path d="M82.407 277.122C81.0782 277.313 79.7343 277.378 78.3933 277.315C77.0498 277.378 75.7035 277.313 74.3722 277.122C75.703 276.927 77.0498 276.862 78.3933 276.929C79.7343 276.862 81.0786 276.927 82.407 277.122Z" fill="#E0E0E0"/>
<path d="M77.9399 272.655C77.3651 272.842 76.7576 272.908 76.156 272.848C75.5545 272.909 74.9468 272.843 74.3722 272.655C74.9448 272.458 75.5539 272.389 76.156 272.454C76.7582 272.39 77.3671 272.458 77.9399 272.655Z" fill="#E0E0E0"/>
<path d="M82.407 285.997C81.0782 286.188 79.7343 286.252 78.3933 286.19C77.0498 286.252 75.7035 286.188 74.3722 285.997C75.7035 285.806 77.0498 285.741 78.3933 285.803C79.7343 285.741 81.0782 285.806 82.407 285.997Z" fill="#E0E0E0"/>
<path d="M77.9399 281.53C77.3651 281.717 76.7576 281.783 76.156 281.723C75.5545 281.784 74.9468 281.718 74.3722 281.53C74.9458 281.337 75.5545 281.271 76.156 281.336C76.7576 281.272 77.3661 281.338 77.9399 281.53Z" fill="#E0E0E0"/>
<path d="M82.407 294.871C81.0782 295.062 79.7343 295.127 78.3933 295.065C77.0498 295.127 75.7035 295.062 74.3722 294.871C75.7035 294.68 77.0498 294.616 78.3933 294.678C79.7343 294.616 81.0782 294.681 82.407 294.871Z" fill="#E0E0E0"/>
<path d="M77.9399 290.404C77.3651 290.592 76.7576 290.658 76.156 290.598C75.5545 290.659 74.9468 290.593 74.3722 290.404C74.9458 290.212 75.5545 290.146 76.156 290.211C76.7576 290.146 77.3661 290.212 77.9399 290.404Z" fill="#E0E0E0"/>
<path d="M351.628 299.74C351.628 299.844 272.908 299.933 175.821 299.933C78.7349 299.933 0 299.844 0 299.74C0 299.636 78.7052 299.547 175.821 299.547C272.937 299.547 351.628 299.628 351.628 299.74Z" fill="#263238"/>
<path d="M264.144 123.361L232.05 121.875C231.864 118.47 233.603 97.4059 233.603 97.4059C233.603 97.4059 221.473 95.518 221.324 83.3878C221.176 71.2575 223.279 43.4071 223.279 43.4071C237.32 37.3717 254.422 36.3534 266.53 45.6369L268.329 47.0194L264.144 123.361Z" fill="#B78876"/>
<path d="M233.581 97.2351C239.179 97.3491 244.685 95.7968 249.398 92.7755C249.398 92.7755 245.682 101.501 233.559 100.409L233.581 97.2351Z" fill="#AA6550"/>
<path d="M265.936 62.6877C266.144 62.5985 274.268 60.22 274.008 68.5149C273.748 76.8099 265.467 74.8328 265.46 74.5949C265.453 74.3571 265.936 62.6877 265.936 62.6877Z" fill="#B78876"/>
<path d="M268.099 71.5326C268.099 71.5326 268.24 71.6367 268.478 71.7556C268.816 71.9157 269.203 71.9371 269.556 71.815C270.44 71.5177 271.228 70.1501 271.31 68.6636C271.346 67.9617 271.224 67.2607 270.953 66.6121C270.884 66.3495 270.752 66.1077 270.568 65.9082C270.384 65.7086 270.154 65.5573 269.898 65.4675C269.734 65.4202 269.559 65.4305 269.402 65.4968C269.245 65.5631 269.116 65.6813 269.035 65.8317C268.917 66.0621 268.969 66.2331 268.924 66.2405C268.879 66.2479 268.746 66.0993 268.827 65.7574C268.878 65.5537 268.999 65.3745 269.169 65.2519C269.284 65.1695 269.414 65.1106 269.552 65.0787C269.69 65.0468 269.833 65.0425 269.972 65.0661C270.314 65.1404 270.63 65.302 270.891 65.5352C271.151 65.7684 271.347 66.0652 271.459 66.3966C271.786 67.1263 271.932 67.9247 271.882 68.723C271.778 70.3954 270.871 71.9265 269.652 72.2387C269.428 72.2958 269.193 72.3021 268.965 72.2571C268.738 72.2121 268.523 72.117 268.337 71.9786C268.106 71.7333 268.069 71.5475 268.099 71.5326Z" fill="#AA6550"/>
<path d="M225.948 62.4276C225.944 62.8793 226.116 63.3148 226.429 63.6411C226.741 63.9675 227.169 64.1588 227.62 64.1743C227.841 64.1925 228.062 64.1662 228.272 64.097C228.482 64.0279 228.676 63.9172 228.843 63.7716C229.009 63.626 229.144 63.4485 229.241 63.2495C229.337 63.0505 229.393 62.8342 229.404 62.6134C229.408 62.1629 229.237 61.7285 228.926 61.4023C228.615 61.0762 228.189 60.8841 227.739 60.8667C227.518 60.8485 227.296 60.8747 227.086 60.9438C226.875 61.0129 226.681 61.1234 226.514 61.2689C226.347 61.4144 226.211 61.5919 226.114 61.791C226.016 61.99 225.96 62.2064 225.948 62.4276Z" fill="#263238"/>
<path d="M225.569 60.4803C225.784 60.7033 227.1 59.737 228.965 59.737C230.831 59.737 232.191 60.6735 232.392 60.4803C232.496 60.3762 232.273 59.9674 231.649 59.5363C230.842 58.9754 229.881 58.6793 228.898 58.689C227.93 58.6856 226.985 58.9901 226.2 59.5586C225.658 59.9674 225.464 60.3762 225.569 60.4803Z" fill="#263238"/>
<path d="M244.195 62.8958C244.191 63.3476 244.364 63.7831 244.676 64.1094C244.988 64.4357 245.416 64.627 245.868 64.6425C246.088 64.6607 246.31 64.6345 246.52 64.5653C246.73 64.4961 246.924 64.3855 247.09 64.2399C247.256 64.0943 247.392 63.9167 247.488 63.7177C247.585 63.5188 247.64 63.3025 247.651 63.0816C247.657 62.6306 247.487 62.1951 247.175 61.8686C246.864 61.542 246.437 61.3505 245.986 61.335C245.766 61.3167 245.544 61.343 245.333 61.412C245.123 61.4811 244.928 61.5917 244.761 61.7372C244.594 61.8827 244.458 62.0602 244.361 62.2592C244.264 62.4582 244.207 62.6747 244.195 62.8958Z" fill="#263238"/>
<path d="M243.89 60.8296C244.106 61.0526 245.421 60.0863 247.287 60.0863C249.153 60.0863 250.513 61.0228 250.714 60.8296C250.818 60.7329 250.602 60.3241 249.97 59.893C249.166 59.3331 248.208 59.037 247.228 59.0457C246.256 59.0413 245.309 59.3458 244.522 59.9153C243.98 60.3167 243.786 60.7255 243.89 60.8296Z" fill="#263238"/>
<path d="M237.127 74.647C237.127 74.5429 235.982 74.3423 234.102 74.1044C233.626 74.0524 233.172 73.9632 233.091 73.6361C233.052 73.1439 233.164 72.6516 233.41 72.2239C233.856 71.0718 234.325 69.8677 234.823 68.5967C236.777 63.4384 238.19 59.1943 237.981 59.12C237.773 59.0457 236.019 63.1634 234.064 68.3217C233.596 69.5927 233.143 70.8117 232.719 71.9712C232.417 72.5438 232.328 73.2046 232.466 73.8368C232.537 74.0048 232.645 74.1547 232.781 74.2756C232.917 74.3965 233.079 74.4853 233.254 74.5355C233.517 74.6042 233.786 74.6416 234.057 74.647C235.952 74.7882 237.119 74.7882 237.127 74.647Z" fill="#263238"/>
<path d="M242.612 75.9403C242.307 75.9403 242.307 77.9472 240.575 79.3817C238.843 80.8162 236.688 80.5932 236.673 80.8682C236.673 80.9946 237.156 81.2622 238.063 81.2845C239.248 81.306 240.402 80.9055 241.319 80.1547C242.199 79.4337 242.766 78.4004 242.902 77.2708C242.976 76.4309 242.753 75.9255 242.612 75.9403Z" fill="#263238"/>
<path d="M243.452 53.5232C243.63 54.0286 245.496 53.7908 247.681 54.0509C249.866 54.3111 251.635 54.9131 251.925 54.4597C252.059 54.2442 251.747 53.761 251.033 53.2705C250.087 52.6601 249.01 52.2831 247.889 52.1704C246.769 52.0374 245.634 52.1698 244.574 52.5569C243.734 52.884 243.333 53.2853 243.452 53.5232Z" fill="#263238"/>
<path d="M226.26 55.084C226.587 55.5077 227.866 55.084 229.412 55.084C230.958 55.084 232.266 55.3665 232.563 54.928C232.697 54.7124 232.489 54.2887 231.916 53.8874C231.156 53.3919 230.258 53.1499 229.352 53.1961C228.447 53.2101 227.569 53.5064 226.84 54.0435C226.29 54.4448 226.111 54.8759 226.26 55.084Z" fill="#263238"/>
<path d="M266.53 37.565C264.925 36.4129 263.015 35.2311 261.201 35.6324C261.201 32.5627 256.675 28.943 253.211 27.8727C249.168 26.5942 243.831 28.5713 239.832 29.9018C237.29 30.7491 234.756 31.9235 232.08 31.812C230.29 31.6293 228.537 31.1835 226.877 30.489C225.209 29.7805 223.412 29.4262 221.6 29.4484C219.808 29.5673 217.965 30.5187 217.289 32.1837C217.029 32.8615 217.002 33.6061 217.21 34.3013C217.418 34.9965 217.851 35.6031 218.441 36.0264C216.293 35.5581 213.758 37.0893 213.438 39.3265C213.363 40.3321 213.647 41.3317 214.239 42.1481C214.831 42.9644 215.693 43.5448 216.672 43.7862C216.296 43.9822 215.983 44.2815 215.771 44.6488C215.559 45.0161 215.457 45.4362 215.475 45.8599C215.616 47.3464 216.962 48.3796 218.277 48.9668C221.696 50.4533 225.71 49.9851 229.226 48.7958C232.741 47.6066 236.056 45.7484 239.565 44.47C243.073 43.1915 248.952 40.8948 252.475 42.1361C252.944 42.3074 253.391 42.5345 253.806 42.8125L253.873 42.8645C255.785 44.3702 257.042 46.5564 257.381 48.9668C257.381 49.0485 257.381 49.1303 257.381 49.212C257.849 52.6311 257.767 56.1096 258.265 59.5287C258.763 62.9477 259.953 66.4263 262.48 68.7824C263.52 69.7487 265.356 70.4176 266.196 69.2804C266.486 68.8092 266.635 68.2652 266.627 67.7121C267.266 59.4469 269.518 52.1034 269.504 43.474C269.511 42.324 269.246 41.1886 268.729 40.1613C268.212 39.134 267.459 38.2441 266.53 37.565Z" fill="#263238"/>
<path d="M258.987 36.1974C258.987 36.1974 258.437 35.8629 257.374 35.4541C255.861 34.879 254.25 34.6063 252.632 34.6514C250.229 34.7327 247.861 35.2516 245.645 36.1825C243.118 37.1636 240.494 38.613 237.632 39.9435C232.731 42.2163 227.423 43.4802 222.024 43.6599C220.392 43.7156 218.758 43.661 217.133 43.4963C216.561 43.4517 216.115 43.37 215.817 43.3328C215.662 43.3122 215.508 43.2825 215.356 43.2436C215.512 43.2227 215.669 43.2227 215.825 43.2436C216.129 43.2436 216.568 43.3105 217.148 43.3402C218.769 43.4427 220.394 43.4576 222.016 43.3848C227.375 43.1245 232.634 41.835 237.506 39.5867C240.345 38.2637 242.991 36.8217 245.556 35.8703C247.81 34.9352 250.221 34.431 252.661 34.3838C254.309 34.3575 255.944 34.6739 257.463 35.3129C257.875 35.4866 258.271 35.6981 258.645 35.9447C258.769 36.014 258.884 36.0989 258.987 36.1974Z" fill="#455A64"/>
<path d="M218.663 34.9934C219.061 35.4189 219.516 35.7867 220.016 36.086C221.456 36.767 223.055 37.042 224.639 36.8813C227.001 36.7415 229.34 36.3503 231.619 35.7143C232.965 35.3439 234.285 34.887 235.573 34.3467C236.918 33.7967 238.263 33.1129 239.646 32.4142C242.389 31.0168 245.154 29.7384 247.896 29.5229C250.315 29.3329 252.733 29.8908 254.824 31.1209C256.23 31.9308 257.452 33.0243 258.414 34.3318C258.673 34.6864 258.906 35.059 259.112 35.4467C259.194 35.5739 259.259 35.7114 259.306 35.8556C259.268 35.8556 258.986 35.313 258.295 34.421C257.304 33.1756 256.079 32.1355 254.69 31.3587C252.637 30.1916 250.279 29.6733 247.926 29.8722C245.273 30.0952 242.56 31.3587 239.817 32.7561C238.434 33.4473 237.082 34.1386 235.721 34.696C234.416 35.231 233.078 35.6828 231.715 36.0488C229.407 36.6738 227.036 37.0428 224.647 37.1488C223.021 37.2878 221.388 36.9604 219.942 36.2049C219.566 35.9841 219.223 35.7114 218.923 35.3947C218.823 35.2706 218.735 35.1361 218.663 34.9934Z" fill="#455A64"/>
<path d="M268.879 53.4934C268.571 53.5228 268.261 53.5078 267.957 53.4488C267.124 53.3481 266.304 53.1561 265.512 52.8765C264.328 52.4695 263.205 51.9018 262.175 51.1893C261.573 50.7621 261.004 50.29 260.473 49.777C259.888 49.2321 259.387 48.6034 258.986 47.9114C258.238 46.5697 257.759 45.0955 257.574 43.5707C257.417 42.3347 257.444 41.0822 257.656 39.8543C257.808 39.0247 258.078 38.2212 258.458 37.4684C258.596 37.2011 258.766 36.9516 258.964 36.7252C258.481 37.7153 258.141 38.7688 257.953 39.8543C257.774 41.0617 257.774 42.289 257.953 43.4964C258.131 44.9779 258.593 46.4112 259.313 47.7182C259.699 48.3796 260.18 48.9806 260.74 49.502C261.249 50.0111 261.799 50.4784 262.383 50.8994C263.378 51.609 264.459 52.1885 265.601 52.6238C266.672 52.99 267.767 53.2806 268.879 53.4934Z" fill="#455A64"/>
<path d="M269.384 47.7182C269.384 47.7182 269.154 47.7182 268.768 47.5844C268.214 47.4151 267.673 47.209 267.147 46.9675C266.373 46.6082 265.628 46.1907 264.917 45.7188C264.509 45.4587 264.092 45.1688 263.661 44.8715C263.202 44.5693 262.772 44.226 262.375 43.8458C261.025 42.4721 260.007 40.8064 259.402 38.9773C259.214 38.4272 259.082 37.8594 259.008 37.2826C258.973 37.071 258.973 36.855 259.008 36.6434C259.075 36.6434 259.15 37.5428 259.67 38.8733C260.326 40.6251 261.339 42.222 262.643 43.5633C263.42 44.2389 264.245 44.8575 265.111 45.4141C265.806 45.8929 266.531 46.3273 267.281 46.7148C268.552 47.3689 269.407 47.6587 269.384 47.7182Z" fill="#455A64"/>
<path d="M197.473 241.698L199.703 299.963H248.684L248.491 283.276L254.244 299.963H304.965L288.665 242.315L197.473 241.698Z" fill="#455A64"/>
<path d="M232.429 109.217C231.187 109.365 230.266 109.64 228.2 109.886L227.798 109.93C220.028 110.929 212.933 114.856 207.96 120.909C202.987 126.962 200.512 134.685 201.04 142.5L204.222 165.378C204.222 165.378 197.636 240.717 197.874 250.766H290.136L290.211 208.592V197.109L289.705 165.973L302.111 132.243C299.517 123.592 290.278 114.182 277.382 111.744C273.294 110.963 269.31 109.514 264.508 109.284C255.485 116.411 241.623 116.129 232.436 109.217H232.429Z" fill="#133551"/>
<path d="M264.055 136.48C264.055 136.584 256.392 136.814 246.96 136.985C237.527 137.156 229.864 137.208 229.864 137.104C229.864 137 237.527 136.77 246.96 136.599C256.392 136.428 264.047 136.339 264.055 136.48Z" fill="#FAFAFA"/>
<path d="M263.884 141.75C263.884 141.861 256.176 141.75 246.677 141.564C237.178 141.378 229.478 141.088 229.485 140.984C229.493 140.88 237.186 140.984 246.685 141.177C256.184 141.371 263.884 141.683 263.884 141.75Z" fill="#FAFAFA"/>
<path d="M118.82 96.6107C118.82 96.6107 155.745 140.94 158.719 143.407C161.692 145.875 205.166 119.667 205.166 119.667C209.945 115.416 213.929 112.978 219.243 111.372L219.459 111.305C222.776 110.398 226.162 109.764 229.582 109.41L231.418 109.202L225.546 212.212L225.844 212.368C225.844 212.368 225.717 212.569 225.502 212.888L223.368 250.29H223.331L227.977 299.941H189.602L196.447 233.707C196.655 231.537 196.841 228.973 197.019 226.089L201.903 176.914L203.256 165.639C203.256 165.639 165.802 180.593 153.189 179.999C136.837 179.255 98.2458 113.163 98.2458 113.163L118.82 96.6107Z" fill="#133551"/>
<path d="M320.99 208.25L303.426 131.79C300.855 123.131 291.594 113.758 278.72 111.29C274.632 110.51 269.556 109.425 264.747 109.217L264.538 190.233L263.052 190.018L253.612 206.942L264.479 211.105L264.397 241.698L264.687 250.305L271.57 300H305.344L291.527 224.677V222.031L296.224 224.186C298.966 225.42 301.973 225.951 304.972 225.731C307.97 225.512 310.868 224.549 313.401 222.93C316.609 220.817 319.082 217.76 320.477 214.182C321.26 212.306 321.439 210.233 320.99 208.25Z" fill="#133551"/>
<path d="M118.82 96.6107C118.82 96.6107 155.745 140.94 158.719 143.407C161.692 145.875 205.166 119.667 205.166 119.667C209.945 115.416 213.929 112.978 219.243 111.372L219.459 111.305C222.776 110.398 226.162 109.764 229.582 109.41L231.418 109.202L225.546 212.212L225.844 212.368C225.844 212.368 225.717 212.569 225.502 212.888L223.368 250.29H223.331L227.977 299.941H189.602L196.447 233.707C196.655 231.537 196.841 228.973 197.019 226.089L201.903 176.914L203.256 165.639C203.256 165.639 165.802 180.593 153.189 179.999C136.837 179.255 98.2458 113.163 98.2458 113.163L118.82 96.6107Z" fill="#133551"/>
<path d="M320.99 208.25L303.426 131.79C300.855 123.131 291.594 113.758 278.72 111.29C274.632 110.51 269.556 109.425 264.747 109.217L264.538 190.233L263.052 190.018L253.612 206.942L264.479 211.105L264.397 241.698L264.687 250.305L271.57 300H305.344L291.527 224.677V222.031L296.224 224.186C298.966 225.42 301.973 225.951 304.972 225.731C307.97 225.512 310.868 224.549 313.401 222.93C316.609 220.817 319.082 217.76 320.477 214.182C321.26 212.306 321.439 210.233 320.99 208.25Z" fill="#133551"/>
<path opacity="0.8" d="M118.82 96.6107C118.82 96.6107 155.745 140.94 158.719 143.407C161.692 145.875 205.166 119.667 205.166 119.667C209.945 115.416 213.929 112.978 219.243 111.372L219.459 111.305C222.776 110.398 226.162 109.764 229.582 109.41L231.418 109.202L225.546 212.212L225.844 212.368C225.844 212.368 225.717 212.569 225.502 212.888L223.368 250.29H223.331L227.977 299.941H189.602L196.447 233.707C196.655 231.537 196.841 228.973 197.019 226.089L201.903 176.914L203.256 165.639C203.256 165.639 165.802 180.593 153.189 179.999C136.837 179.255 98.2458 113.163 98.2458 113.163L118.82 96.6107Z" fill="white"/>
<path opacity="0.8" d="M320.99 208.25L303.426 131.79C300.855 123.131 291.594 113.758 278.72 111.29C274.632 110.51 269.556 109.425 264.747 109.217L264.538 190.233L263.052 190.018L253.612 206.942L264.479 211.105L264.397 241.698L264.687 250.305L271.57 300H305.344L291.527 224.677V222.031L296.224 224.186C298.966 225.42 301.973 225.951 304.972 225.731C307.97 225.512 310.868 224.549 313.401 222.93C316.609 220.817 319.082 217.76 320.477 214.182C321.26 212.306 321.439 210.233 320.99 208.25Z" fill="white"/>
<path d="M271.236 190.508C271.236 190.508 271.236 190.456 271.273 190.352C271.31 190.248 271.362 190.085 271.422 189.899L272.031 188.152C272.551 186.621 273.302 184.391 274.127 181.552C275.124 178.18 275.926 174.752 276.528 171.287C277.315 166.917 277.602 162.47 277.383 158.035L277.591 158.206L270.307 159.276L269.4 159.41L270.143 158.927C272.156 157.791 273.996 156.371 275.606 154.712C276.142 154.117 276.6 153.455 276.966 152.743C277.312 152.039 277.55 151.287 277.672 150.513C277.808 148.96 277.657 147.395 277.227 145.897L275.056 137.208C273.651 131.678 272.269 126.736 270.976 122.618C269.682 118.5 268.493 115.222 267.623 112.955C267.2 111.826 266.88 110.956 266.613 110.361C266.501 110.086 266.419 109.863 266.352 109.692C266.317 109.617 266.292 109.537 266.278 109.454C266.319 109.527 266.356 109.601 266.39 109.677L266.687 110.332C266.94 110.919 267.319 111.773 267.765 112.896C268.679 115.126 269.905 118.411 271.236 122.521C272.566 126.632 273.978 131.582 275.398 137.104C276.141 139.877 276.833 142.783 277.628 145.793C278.075 147.336 278.229 148.95 278.081 150.55C277.957 151.372 277.707 152.169 277.338 152.914C276.951 153.655 276.474 154.347 275.918 154.973C274.285 156.659 272.415 158.099 270.366 159.246L270.24 158.897L277.524 157.842H277.724V158.042C277.943 162.522 277.639 167.012 276.818 171.421C276.191 174.891 275.359 178.321 274.328 181.693C273.466 184.533 272.685 186.755 272.098 188.264C271.823 189.007 271.592 189.602 271.436 189.996L271.258 190.434C271.252 190.459 271.244 190.484 271.236 190.508Z" fill="#263238"/>
<path d="M292.969 193.11C292.858 193.11 291.824 184.005 290.643 172.744C289.461 161.484 288.599 152.349 288.71 152.341C288.822 152.334 289.855 161.446 291.029 172.707C292.204 183.968 293.073 193.095 292.969 193.11Z" fill="#263238"/>
<path d="M293.734 223.019C293.67 223.009 293.607 222.989 293.549 222.96L293.021 222.766L291.021 221.956L283.425 218.983L257.515 208.503L257.359 208.436L257.403 208.273C258.6 204.281 259.878 200.015 261.194 195.637C261.766 193.727 262.331 191.839 262.859 190.062L262.911 189.906H263.067L295.92 193.333L305.694 194.388L308.332 194.693L309.016 194.782L309.247 194.827H309.009L308.325 194.775L305.679 194.537L295.89 193.6L263.03 190.3L263.23 190.167C262.695 191.943 262.13 193.831 261.566 195.741C260.243 200.141 258.964 204.415 257.767 208.377L257.656 208.146L283.514 218.76L291.036 221.882L293.043 222.737L293.563 222.96L293.734 223.019Z" fill="#263238"/>
<path d="M224.52 207.306C224.468 207.239 224.428 207.164 224.401 207.083C224.317 206.92 224.213 206.697 224.089 206.414C223.822 205.82 223.398 204.928 222.93 203.806C221.566 200.55 220.38 197.223 219.377 193.838C215.985 182.44 214.614 170.537 215.326 158.667V158.458H215.527L221.83 159.373L222.811 159.521L222.685 159.878C221.035 158.921 219.486 157.801 218.061 156.533C216.624 155.305 215.588 153.674 215.088 151.851C214.763 150.073 214.865 148.244 215.386 146.514C215.802 144.827 216.24 143.184 216.686 141.586C218.478 135.201 220.477 129.582 222.216 124.892C223.956 120.202 225.464 116.456 226.505 113.862C227.018 112.584 227.427 111.58 227.709 110.889L228.036 110.146C228.068 110.056 228.107 109.968 228.155 109.886C228.136 109.978 228.106 110.068 228.066 110.153C227.999 110.354 227.902 110.614 227.783 110.941L226.639 113.914C225.65 116.523 224.186 120.291 222.469 124.989C220.752 129.686 218.797 135.306 217.028 141.683C216.592 143.278 216.164 144.919 215.742 146.603C215.236 148.29 215.137 150.073 215.452 151.806C215.937 153.541 216.925 155.093 218.292 156.266C219.701 157.509 221.229 158.61 222.855 159.551L223.658 160.042L222.729 159.908L221.748 159.767L215.445 158.845L215.668 158.667C214.959 170.496 216.281 182.359 219.578 193.742C220.834 198.045 222.09 201.427 223.019 203.724C223.465 204.883 223.866 205.76 224.112 206.362C224.223 206.652 224.32 206.875 224.387 207.046C224.437 207.13 224.482 207.217 224.52 207.306Z" fill="#263238"/>
<path d="M269.072 167.734H283.395V162.918H269.072V167.734Z" fill="#455A64"/>
<path d="M306.125 189.698C306.125 189.765 305.307 189.505 303.976 189.334C300.497 188.879 296.969 189.668 294.017 191.564C292.894 192.307 292.285 192.865 292.24 192.813C292.196 192.76 292.359 192.642 292.627 192.367C293.008 191.988 293.421 191.642 293.861 191.333C295.32 190.301 296.97 189.568 298.714 189.178C300.456 188.782 302.259 188.732 304.021 189.029C304.551 189.121 305.073 189.255 305.582 189.431C305.939 189.587 306.132 189.668 306.125 189.698Z" fill="#263238"/>
<path d="M208.771 127.516C208.775 127.723 208.758 127.93 208.719 128.133C208.667 128.571 208.592 129.151 208.496 129.887L207.663 136.331C206.98 141.802 206.036 149.309 205.002 157.596C203.969 165.884 202.988 173.421 202.223 178.861C201.836 181.574 201.479 183.774 201.264 185.283C201.145 186.026 201.041 186.591 200.966 187.03C200.944 187.234 200.901 187.436 200.84 187.632C200.841 187.425 200.858 187.219 200.892 187.015C200.952 186.584 201.026 185.997 201.115 185.261C201.316 183.707 201.598 181.545 201.948 178.824C202.639 173.346 203.575 165.839 204.616 157.552C205.656 149.264 206.623 141.727 207.388 136.294C207.775 133.574 208.132 131.381 208.347 129.865C208.473 129.121 208.57 128.557 208.644 128.118C208.672 127.915 208.714 127.713 208.771 127.516Z" fill="#263238"/>
<path d="M117.883 103.999C117.883 103.999 117.72 104.155 117.504 104.452C117.145 104.977 116.987 105.614 117.06 106.246C117.132 106.878 117.43 107.463 117.898 107.894C118.273 108.133 118.708 108.261 119.152 108.265C119.597 108.269 120.034 108.148 120.413 107.915C120.792 107.683 121.098 107.348 121.296 106.95C121.494 106.552 121.576 106.106 121.533 105.664C121.355 105.043 120.958 104.509 120.414 104.162C119.871 103.814 119.219 103.677 118.582 103.776C118.218 103.843 118.032 103.947 118.017 103.917C118.002 103.887 118.166 103.746 118.552 103.627C119.1 103.48 119.681 103.522 120.202 103.746C120.598 103.902 120.953 104.147 121.238 104.463C121.523 104.779 121.731 105.157 121.845 105.567C121.965 106.066 121.91 106.591 121.689 107.054C121.443 107.542 121.068 107.954 120.604 108.243C120.143 108.534 119.61 108.688 119.065 108.689C118.547 108.688 118.045 108.507 117.645 108.176C117.328 107.892 117.081 107.537 116.924 107.142C116.767 106.746 116.703 106.319 116.739 105.894C116.771 105.33 116.988 104.792 117.355 104.363C117.493 104.194 117.676 104.068 117.883 103.999Z" fill="#263238"/>
<path d="M263.475 188.464L267.333 169.734H217.667L220.187 211.699C220.187 211.699 258.793 211.632 257.566 211.751L263.475 188.464Z" fill="#263238"/>
<path d="M267.177 179.924C266.287 179.923 265.416 180.191 264.681 180.694C263.946 181.197 263.381 181.911 263.059 182.741C262.368 184.532 261.365 186.629 260.25 187.201C258.184 188.331 254.623 189.223 252.75 188.308C250.877 187.394 243.385 180.645 242.069 181.396C240.754 182.147 239.639 183.834 240.947 185.328C242.255 186.822 249.19 191.326 247.882 192.827C246.574 194.329 231.953 187.729 229.709 188.308C227.464 188.888 226.149 190.271 227.479 191.177C228.809 192.084 238.725 195.823 239.282 197.124C239.282 197.124 224.298 193.184 223.733 194.15C223.168 195.117 222.246 196.588 223.733 197.124C225.219 197.659 238.16 201.055 239.282 201.62C241.142 202.391 243.081 202.954 245.065 203.3C247.107 203.838 249.122 204.478 251.1 205.218C254.134 206.27 257.448 206.18 260.421 204.965L261.907 204.348C263.063 203.883 264.044 203.067 264.71 202.015C265.377 200.962 265.697 199.727 265.624 198.484L265.319 193.37L266.954 189.156L267.177 179.924Z" fill="#B78876"/>
<path d="M116.196 98.9967C116.196 98.9967 108.875 86.6063 107.143 85.3056C105.411 84.0048 90.0478 78.6681 88.7322 79.0992C87.4166 79.5303 68.9611 83.0014 71.1241 85.1643C73.287 87.3273 86.1679 84.7258 86.1679 84.7258L87.9146 85.5657C87.9146 85.5657 76.7655 87.5279 74.4614 88.9253C72.3207 90.2112 73.1012 92.8498 75.1452 92.6045C77.1892 92.3592 86.8443 90.3227 87.4315 90.7092C88.0187 91.0957 76.929 93.4964 75.7398 94.2248C74.1417 95.206 74.0303 98.075 76.0594 97.8966C77.2635 97.7925 87.7065 94.9235 87.7065 94.9235C87.7065 94.9235 79.4413 98.2608 78.6831 99.0041C77.4493 100.216 78.475 102.014 80.2737 101.583C81.5001 101.293 87.3348 98.3946 88.9849 98.0007C88.9849 98.0007 90.5383 98.3946 91.958 101.501C93.3777 104.608 101.16 110.763 101.16 110.763L116.196 98.9967Z" fill="#B78876"/>
<path d="M71.1609 85.194C71.1609 85.2981 72.3947 85.7961 74.5502 86.0711C75.8175 86.2271 77.097 86.2595 78.3706 86.1677C79.7829 85.9893 81.3437 85.744 82.9566 85.4913L86.398 84.9339H86.1899C90.7833 86.4873 94.1503 87.4907 94.2172 87.3123C94.2841 87.134 91.0286 85.8258 86.4575 84.146H86.3683H86.2493L82.8303 84.6663L78.3037 85.4096C77.069 85.5334 75.8266 85.5633 74.5874 85.4988C72.4988 85.365 71.1906 85.0825 71.1609 85.194Z" fill="#AA6550"/>
<path d="M102.475 71.4213C102.483 71.6361 102.447 71.8503 102.371 72.0511C102.294 72.2519 102.178 72.4351 102.028 72.5899C101.879 72.7446 101.7 72.8677 101.502 72.9517C101.305 73.0357 101.092 73.0789 100.877 73.0788H99.3903V113.528C99.3903 114.758 98.9016 115.937 98.0318 116.807C97.162 117.677 95.9823 118.166 94.7523 118.166C93.5222 118.166 92.3425 117.677 91.4727 116.807C90.6029 115.937 90.1142 114.758 90.1142 113.528V73.1234H88.6723C88.4567 73.1263 88.2426 73.0864 88.0425 73.0059C87.8424 72.9254 87.6604 72.806 87.5068 72.6546C87.3533 72.5031 87.2314 72.3226 87.1482 72.1236C87.065 71.9247 87.0222 71.7113 87.0222 71.4956C87.0222 71.0619 87.1945 70.646 87.5012 70.3393C87.8078 70.0327 88.2237 69.8604 88.6574 69.8604H100.899C101.313 69.8661 101.708 70.0319 102.002 70.323C102.296 70.614 102.465 71.0077 102.475 71.4213Z" fill="#F5F5F5"/>
<path d="M102.475 71.4212C102.456 71.2986 102.432 71.1771 102.401 71.057C102.293 70.7089 102.07 70.4076 101.769 70.2022C101.546 70.0547 101.291 69.9629 101.026 69.9347C100.736 69.9347 100.401 69.9347 100.045 69.9347H97.5993L90.9098 69.9718H88.8509C88.5201 69.9409 88.1874 70.0054 87.8921 70.1576C87.5961 70.3262 87.3637 70.5873 87.2306 70.9009C87.0924 71.2243 87.0733 71.5862 87.1767 71.9223C87.2801 72.2585 87.4994 72.5471 87.7955 72.7368C88.1104 72.933 88.4824 73.0168 88.8509 72.9746H90.0699H90.2186V73.1233C90.2186 83.5291 90.2186 97.2351 90.2632 112.227C90.2177 113.012 90.2601 113.8 90.3895 114.576C90.5685 115.322 90.9401 116.009 91.4673 116.568C91.9866 117.118 92.6357 117.53 93.3552 117.764C94.077 117.988 94.8425 118.031 95.585 117.891C96.3098 117.746 96.9885 117.428 97.5621 116.962C98.1182 116.493 98.5561 115.899 98.8405 115.23C99.1034 114.553 99.2199 113.829 99.1824 113.104V110.874C99.1824 105.047 99.1824 99.6136 99.1824 94.7154C99.227 84.9488 99.2568 77.3377 99.2716 73.049V72.9821H99.3385C100.007 72.9821 100.61 72.9821 101.1 72.9821C101.305 72.9501 101.502 72.8778 101.68 72.7694C101.857 72.661 102.011 72.5185 102.133 72.3503C102.33 72.0716 102.439 71.7402 102.445 71.3989C102.493 71.7511 102.402 72.108 102.193 72.3949C102.068 72.5764 101.909 72.7311 101.724 72.8498C101.539 72.9686 101.332 73.0489 101.115 73.0861C100.595 73.1382 100.015 73.0861 99.3385 73.0861L99.4054 73.0192C99.4054 77.3079 99.4575 84.9116 99.4946 94.6857C99.4946 99.5838 99.4946 105.017 99.4946 110.844V113.074C99.5299 113.835 99.4059 114.594 99.1304 115.304C98.825 116.04 98.3432 116.689 97.7275 117.195C97.1118 117.7 96.3811 118.047 95.5999 118.203C94.7999 118.35 93.9763 118.301 93.1991 118.062C92.415 117.811 91.7085 117.363 91.1477 116.761C90.5765 116.157 90.1741 115.414 89.9807 114.605C89.8817 114.199 89.8342 113.782 89.8395 113.364V112.16C89.8395 97.1682 89.8395 83.4547 89.8841 73.0563L90.0327 73.2051H88.8509C88.4268 73.2499 88 73.1504 87.6394 72.9226C87.3817 72.7567 87.1717 72.5265 87.0302 72.2546C86.8887 71.9827 86.8206 71.6786 86.8327 71.3724C86.8447 71.0661 86.9364 70.7683 87.0987 70.5083C87.2611 70.2484 87.4884 70.0353 87.7583 69.8901C88.0932 69.7195 88.4688 69.6448 88.8435 69.6745H90.8726H97.5621H100.007C100.372 69.6745 100.691 69.6745 100.996 69.6745C101.325 69.7113 101.636 69.8478 101.885 70.0656C102.135 70.2834 102.312 70.5722 102.393 70.8935C102.467 71.0589 102.496 71.2411 102.475 71.4212Z" fill="#263238"/>
<path d="M94.7973 116.657C95.7166 116.655 96.5975 116.288 97.2469 115.637C97.8962 114.987 98.2609 114.105 98.2609 113.186V86.2495H91.3262V113.186C91.3262 113.642 91.416 114.093 91.5904 114.514C91.7648 114.935 92.0205 115.318 92.3428 115.64C92.6652 115.962 93.0478 116.218 93.4689 116.393C93.8901 116.567 94.3414 116.657 94.7973 116.657Z" fill="#133551"/>
<path d="M91.5122 73.1977C92.6712 73.0069 93.8475 72.9421 95.0205 73.0044C96.1959 72.9421 97.3746 73.0069 98.5361 73.1977C97.3746 73.3884 96.1959 73.4532 95.0205 73.3909C93.8475 73.4533 92.6712 73.3885 91.5122 73.1977Z" fill="#263238"/>
<path d="M98.2458 86.2495C98.2137 85.9908 98.0986 85.7495 97.9176 85.5619C97.7367 85.3742 97.4997 85.2504 97.2424 85.2089C96.6548 85.1275 96.0572 85.1577 95.4808 85.2981L92.0767 85.7961C91.8448 85.8045 91.6213 85.885 91.4374 86.0265C91.3936 86.0635 91.3584 86.1096 91.3343 86.1616C91.3101 86.2135 91.2976 86.2702 91.2976 86.3275C91.2976 86.3848 91.3101 86.4415 91.3343 86.4935C91.3584 86.5455 91.3936 86.5916 91.4374 86.6285" fill="#133551"/>
<path opacity="0.21" d="M95.9938 91.2591C96.5726 91.2591 97.0418 90.7899 97.0418 90.2111C97.0418 89.6323 96.5726 89.1631 95.9938 89.1631C95.415 89.1631 94.9458 89.6323 94.9458 90.2111C94.9458 90.7899 95.415 91.2591 95.9938 91.2591Z" fill="white"/>
<path opacity="0.21" d="M94.916 94.916C94.916 94.985 94.9297 95.0533 94.9563 95.1169C94.9829 95.1805 95.0219 95.2382 95.071 95.2866C95.1201 95.335 95.1784 95.3732 95.2423 95.3989C95.3063 95.4246 95.3748 95.4373 95.4437 95.4363C95.5817 95.4363 95.7141 95.3815 95.8116 95.2839C95.9092 95.1864 95.964 95.054 95.964 94.916C95.965 94.8471 95.9523 94.7786 95.9266 94.7146C95.9009 94.6507 95.8627 94.5924 95.8143 94.5433C95.7659 94.4942 95.7082 94.4552 95.6446 94.4286C95.581 94.402 95.5127 94.3883 95.4437 94.3883C95.3038 94.3883 95.1695 94.4439 95.0706 94.5429C94.9716 94.6418 94.916 94.7761 94.916 94.916Z" fill="white"/>
<path d="M114.583 98.0972C113.565 99.0784 111.863 98.8405 110.644 98.1567C109.425 97.4729 108.481 96.3505 107.314 95.5627C103.828 93.1916 98.8704 93.8457 95.5034 91.3112C95.0277 90.9618 94.5594 90.3746 94.8047 89.8246C95.05 89.2746 95.6966 89.2672 96.2466 89.2672L110.213 89.3712" fill="#B78876"/>
<path d="M110.213 89.3862C109.726 89.2664 109.227 89.2114 108.726 89.2227C107.752 89.1632 106.348 89.1111 104.608 89.0665L98.5135 88.9105H96.7445C96.0292 88.7948 95.2969 88.9599 94.7005 89.3713C94.5394 89.5439 94.4341 89.7611 94.3983 89.9944C94.3625 90.2278 94.3979 90.4664 94.4998 90.6794C94.6724 91.0321 94.9273 91.338 95.2431 91.5713C95.7919 91.9854 96.3853 92.337 97.0121 92.6194C99.5541 93.7418 102.126 93.9127 104.281 94.5668C105.301 94.8417 106.276 95.265 107.173 95.8229C107.99 96.3655 108.659 97.027 109.402 97.5696C109.925 98.0639 110.548 98.4384 111.23 98.6669C111.911 98.8954 112.635 98.9724 113.349 98.8926C114.382 98.6771 114.709 98.1047 114.672 98.1047C114.249 98.3451 113.786 98.5065 113.305 98.5805C112.645 98.5983 111.99 98.4785 111.379 98.2289C110.769 97.9794 110.217 97.6055 109.759 97.131C109.048 96.4761 108.304 95.8583 107.529 95.2803C106.597 94.6524 105.571 94.1758 104.489 93.868C102.26 93.1248 99.6804 92.9465 97.3391 91.8985C96.7711 91.6434 96.2327 91.3268 95.7337 90.9545C95.2728 90.5977 95.0424 90.1072 95.2877 89.9139C95.533 89.7207 96.1648 89.6612 96.7742 89.6761H98.5358L104.646 89.6315C106.385 89.6315 107.797 89.5793 108.771 89.5422C109.256 89.5554 109.741 89.503 110.213 89.3862Z" fill="#AA6550"/>
<path d="M29.2102 267.839C28.3034 270.314 25.2783 270.381 23.6208 269.459C21.9633 268.537 20.9227 266.843 19.9044 265.215C17.6746 261.498 15.3853 257.596 15.1475 253.27C15.0264 251.973 15.2628 250.667 15.8313 249.495C16.1287 248.906 16.5773 248.407 17.1311 248.049C17.6849 247.691 18.324 247.487 18.9828 247.458C20.5139 247.458 21.7775 248.618 22.7809 249.784C25.7255 253.219 27.8684 257.266 29.0541 261.632C29.6041 263.661 29.9312 265.854 29.2325 267.839" fill="#133551"/>
<g opacity="0.2">
<path opacity="0.2" d="M29.2102 267.839C28.3034 270.314 25.2783 270.381 23.6208 269.459C21.9633 268.537 20.9227 266.843 19.9044 265.215C17.6746 261.498 15.3853 257.596 15.1475 253.27C15.0264 251.973 15.2628 250.667 15.8313 249.495C16.1287 248.906 16.5773 248.407 17.1311 248.049C17.6849 247.691 18.324 247.487 18.9828 247.458C20.5139 247.458 21.7775 248.618 22.7809 249.784C25.7255 253.219 27.8684 257.266 29.0541 261.632C29.6041 263.661 29.9312 265.854 29.2325 267.839" fill="black"/>
</g>
<path d="M26.5572 279.865C23.8012 279.371 20.9597 279.772 18.448 281.009C17.0308 281.522 15.8267 282.496 15.029 283.774C14.3452 285.105 14.6574 287.037 16.0175 287.662C16.8625 287.97 17.7889 287.97 18.6339 287.662C20.7002 287.089 22.9077 286.108 24.8997 286.918C26.0369 287.379 26.9808 288.405 28.2072 288.45C28.8081 288.428 29.3858 288.212 29.8535 287.834C30.3212 287.456 30.6537 286.936 30.8013 286.354C31.0628 285.169 30.8607 283.93 30.2364 282.89C29.8988 282.135 29.3908 281.47 28.7524 280.945C28.114 280.42 27.3626 280.05 26.5572 279.865Z" fill="#133551"/>
<path d="M34.0195 269.764C33.0051 268.981 32.1972 267.963 31.6661 266.797C31.135 265.631 30.8967 264.353 30.9721 263.074C31.1521 260.517 32.0315 258.059 33.5141 255.969C35.1653 253.469 37.2856 251.313 39.7576 249.621C40.6978 248.901 41.7833 248.394 42.9388 248.134C43.5162 248.016 44.1137 248.04 44.6796 248.205C45.2456 248.369 45.7629 248.669 46.1869 249.078C47.3613 250.364 47.0937 252.364 46.6775 254.051C45.9523 257.053 44.9854 259.991 43.7862 262.836C42.8348 265.111 41.653 267.407 39.661 268.849C37.669 270.291 35.3277 270.812 33.7148 269.593" fill="#133551"/>
<path d="M37.7061 299.257C37.541 298.971 37.4112 298.667 37.3196 298.35C37.0669 297.674 36.7547 296.863 36.3756 295.83C35.9093 294.589 35.3784 293.374 34.785 292.188C34.0364 290.761 33.1739 289.396 32.2059 288.108C31.2539 286.803 30.1201 285.642 28.8388 284.659C27.7973 283.861 26.5913 283.305 25.3083 283.031C24.4508 282.851 23.5702 282.809 22.6994 282.905C22.3764 282.972 22.0481 283.012 21.7183 283.024C22.0255 282.893 22.3475 282.801 22.6771 282.749C23.5743 282.588 24.4929 282.588 25.39 282.749C26.7373 282.99 28.0098 283.542 29.1064 284.362C30.4305 285.35 31.6003 286.53 32.5775 287.862C33.5557 289.182 34.421 290.582 35.1641 292.047C35.7326 293.255 36.229 294.496 36.6506 295.763C37.0297 296.841 37.2973 297.726 37.4757 298.335C37.5813 298.634 37.6585 298.943 37.7061 299.257Z" fill="#263238"/>
<path d="M36.9923 297.347C36.9346 297.207 36.8874 297.062 36.8511 296.915C36.7619 296.581 36.6579 296.172 36.5166 295.652C36.2342 294.559 35.7734 292.984 35.2308 291.044C34.0936 287.171 32.3172 281.872 30.0948 276.126C27.8724 270.381 25.5682 265.282 23.7621 261.669C23.3161 260.763 22.8999 259.945 22.5208 259.239C22.1417 258.533 21.837 257.916 21.5546 257.425L20.9302 256.281C20.8507 256.15 20.7883 256.011 20.7444 255.864C20.8402 255.982 20.9271 256.106 21.0045 256.236L21.6883 257.344C21.9931 257.827 22.335 258.429 22.7215 259.135C23.108 259.841 23.554 260.621 24.0148 261.536C26.4218 266.231 28.5755 271.052 30.4664 275.977C32.6962 281.738 34.4355 287.06 35.5058 290.969C36.0484 292.917 36.4349 294.515 36.6727 295.615C36.7768 296.135 36.866 296.559 36.9329 296.893C36.9709 297.041 36.9908 297.194 36.9923 297.347Z" fill="#263238"/>
<path d="M34.1904 286.933C34.0397 286.505 33.9253 286.065 33.8485 285.618C33.6702 284.763 33.462 283.507 33.2985 281.946C33.1242 280.12 33.0497 278.287 33.0755 276.453C33.0941 274.214 33.2705 271.978 33.6033 269.764C34.1263 265.698 35.3856 261.761 37.3196 258.146C37.6541 257.525 38.029 256.927 38.442 256.355C38.6204 256.095 38.7764 255.85 38.94 255.612L39.4157 255.054C39.6913 254.694 39.9971 254.359 40.3299 254.051C39.3255 255.394 38.4022 256.797 37.5649 258.25C35.7305 261.869 34.5217 265.771 33.9898 269.793C33.6563 272.008 33.4701 274.243 33.4323 276.483C33.387 278.305 33.4341 280.128 33.5735 281.946C33.6925 283.499 33.8634 284.748 33.9898 285.61C34.0893 286.046 34.1563 286.488 34.1904 286.933Z" fill="#263238"/>
<path d="M126.572 161.521V164.301H130.429V189.483L115.244 223.22C114.85 224.098 114.682 225.06 114.754 226.02C114.827 226.98 115.139 227.906 115.661 228.714C116.184 229.522 116.9 230.187 117.745 230.648C118.59 231.108 119.537 231.35 120.499 231.351H150.691C151.659 231.352 152.611 231.11 153.46 230.646C154.31 230.183 155.029 229.513 155.552 228.699C156.074 227.885 156.384 226.952 156.451 225.987C156.519 225.021 156.343 224.055 155.939 223.175L140.137 188.398V164.457H143.853V161.521H126.572Z" fill="#F5F5F5"/>
<path d="M126.572 161.521H126.847H127.702H131.054L143.868 161.461H143.979V161.573C143.979 162.472 143.979 163.476 143.979 164.509V164.62H140.137L140.256 164.501C140.256 171.191 140.256 179.367 140.3 188.442V188.375C143.63 195.719 147.294 203.783 151.197 212.368L154.17 218.909C154.675 220.009 155.173 221.139 155.656 222.246C155.938 222.808 156.186 223.387 156.4 223.978C156.67 224.911 156.708 225.896 156.51 226.847C156.311 227.798 155.883 228.686 155.262 229.434C154.419 230.446 153.263 231.149 151.977 231.433L151.487 231.53L150.996 231.567C150.661 231.567 150.349 231.567 150.03 231.567H121.243C120.406 231.611 119.568 231.52 118.76 231.299C117.961 231.056 117.223 230.646 116.593 230.098C115.963 229.55 115.455 228.875 115.103 228.118C114.757 227.377 114.57 226.571 114.553 225.753C114.537 224.936 114.691 224.123 115.007 223.368C115.631 221.919 116.278 220.522 116.902 219.132L130.281 189.453V189.512C130.318 178.363 130.34 169.645 130.355 164.33L130.422 164.397H126.565H126.52V164.353C126.52 163.416 126.52 162.717 126.52 162.242C126.52 161.766 126.52 161.573 126.52 161.573C126.52 161.573 126.52 161.803 126.52 162.271C126.52 162.74 126.52 163.423 126.52 164.353L126.483 164.308H130.34H130.474V164.375C130.474 169.689 130.519 178.386 130.549 189.557L117.222 219.288C116.605 220.685 115.951 222.097 115.334 223.517C115.043 224.234 114.904 225.004 114.927 225.777C114.949 226.551 115.132 227.311 115.464 228.01C115.796 228.709 116.27 229.331 116.855 229.837C117.441 230.343 118.125 230.722 118.864 230.95C119.637 231.156 120.437 231.239 121.235 231.195H150.03C150.349 231.195 150.676 231.195 150.981 231.195H151.442L151.888 231.106C153.095 230.845 154.179 230.185 154.965 229.233C155.742 228.292 156.191 227.123 156.243 225.903C156.271 225.304 156.201 224.704 156.035 224.127C155.834 223.554 155.601 222.993 155.337 222.447L153.85 219.11L150.877 212.569L140.025 188.554C140.025 179.456 140.025 171.324 140.062 164.613V164.486H143.853L143.742 164.605C143.742 163.572 143.742 162.569 143.742 161.669L143.846 161.773L131.099 161.714H127.717H126.847L126.572 161.521Z" fill="#263238"/>
<path d="M120.811 216.382C121.223 215.403 121.933 214.581 122.841 214.032C123.75 213.483 124.808 213.236 125.866 213.327C127.495 213.592 129.143 213.714 130.794 213.691C133.655 213.431 136.123 211.684 138.665 210.346C141.207 209.008 144.366 208.117 146.885 209.477L153.27 222.15C153.609 222.823 153.77 223.572 153.737 224.325C153.705 225.078 153.48 225.81 153.084 226.452C152.689 227.093 152.135 227.623 151.477 227.99C150.819 228.357 150.077 228.55 149.323 228.549H122.298C121.57 228.549 120.853 228.368 120.211 228.024C119.569 227.679 119.023 227.181 118.62 226.574C118.218 225.967 117.972 225.269 117.904 224.544C117.836 223.819 117.949 223.088 118.232 222.417L120.811 216.382Z" fill="#133551"/>
<path d="M146.395 212.056C145.272 212.49 144.212 213.072 143.243 213.788C142.344 214.449 141.348 215.341 140.166 216.263C138.913 217.333 137.418 218.083 135.811 218.448C134.187 218.678 132.533 218.577 130.95 218.151C129.463 217.816 128.207 217.445 127.122 217.155L124.558 216.411C124.239 216.334 123.929 216.23 123.628 216.099C123.956 216.121 124.28 216.178 124.595 216.27L127.189 216.865C128.281 217.125 129.582 217.467 131.024 217.787C132.566 218.176 134.169 218.262 135.744 218.039C137.29 217.684 138.73 216.971 139.951 215.958C141.125 215.059 142.181 214.182 143.08 213.542C143.805 213.013 144.6 212.588 145.443 212.279C145.67 212.19 145.904 212.12 146.142 212.071C146.306 212.056 146.395 212.041 146.395 212.056Z" fill="#FAFAFA"/>
<path d="M149.435 247.131C148.514 243.169 145.934 239.438 142.159 237.929C141.475 237.654 140.613 237.476 140.063 237.974C139.871 238.199 139.727 238.461 139.637 238.743C139.548 239.025 139.516 239.322 139.542 239.616C139.431 242.389 139.312 245.154 139.2 247.926C139.011 246.823 138.493 245.802 137.714 244.998C136.852 244.255 135.298 244.307 134.822 245.317C134.443 246.113 134.882 247.027 135.164 247.859C135.626 249.262 135.673 250.769 135.3 252.198C134.927 253.627 134.149 254.918 133.061 255.916C131.53 257.269 129.508 257.953 127.925 259.239C126.694 260.235 125.772 261.56 125.265 263.06C124.758 264.56 124.688 266.173 125.061 267.711C125.435 269.25 126.238 270.651 127.376 271.751C128.515 272.851 129.942 273.605 131.493 273.926H136.956C140.122 273.859 143.816 270.797 145.801 268.322C147.762 265.655 149.167 262.622 149.933 259.402C150.937 255.448 150.364 251.085 149.435 247.131Z" fill="#133551"/>
<g opacity="0.8">
<path opacity="0.8" d="M149.435 247.131C148.514 243.169 145.934 239.438 142.159 237.929C141.475 237.654 140.613 237.476 140.063 237.974C139.871 238.199 139.727 238.461 139.637 238.743C139.548 239.025 139.516 239.322 139.542 239.616C139.431 242.389 139.312 245.154 139.2 247.926C139.011 246.823 138.493 245.802 137.714 244.998C136.852 244.255 135.298 244.307 134.822 245.317C134.443 246.113 134.882 247.027 135.164 247.859C135.626 249.262 135.673 250.769 135.3 252.198C134.927 253.627 134.149 254.918 133.061 255.916C131.53 257.269 129.508 257.953 127.925 259.239C126.694 260.235 125.772 261.56 125.265 263.06C124.758 264.56 124.688 266.173 125.061 267.711C125.435 269.25 126.238 270.651 127.376 271.751C128.515 272.851 129.942 273.605 131.493 273.926H136.956C140.122 273.859 143.816 270.797 145.801 268.322C147.762 265.655 149.167 262.622 149.933 259.402C150.937 255.448 150.364 251.085 149.435 247.131Z" fill="white"/>
</g>
<path d="M132.206 273.926C129.82 272.714 128.542 269.429 128.542 267.474C128.542 265.52 130.028 263.394 131.611 262.271C133.455 260.956 136.071 260.837 137.595 259.194C138.769 257.938 139.081 256.102 139.824 254.579C140.293 253.679 141.11 252.795 142.121 252.862C143.333 252.951 143.987 254.311 144.254 255.493C144.998 258.838 145.369 263.394 144.202 265.847C142.716 268.946 140.843 272.766 136.926 273.933" fill="#133551"/>
<path d="M145.436 246.031C145.18 245.779 144.849 245.617 144.492 245.57H144.232C144.029 245.564 143.828 245.602 143.642 245.682C143.455 245.761 143.288 245.879 143.151 246.028C143.014 246.178 142.911 246.355 142.849 246.548C142.787 246.741 142.767 246.945 142.79 247.146C142.823 247.424 142.94 247.686 143.126 247.896C143.312 248.106 143.558 248.254 143.831 248.32C144.106 248.379 144.391 248.367 144.661 248.285C144.93 248.203 145.174 248.054 145.369 247.852C145.609 247.63 145.762 247.329 145.8 247.005C145.81 246.826 145.783 246.647 145.72 246.48C145.658 246.312 145.561 246.159 145.436 246.031Z" fill="#133551"/>
<path d="M139.476 273.376H131.805V292.478H139.476V273.376Z" fill="#455A64"/>
<path d="M121.005 300C121.007 298.646 121.545 297.349 122.503 296.391C123.46 295.434 124.758 294.896 126.111 294.894H145.213C146.568 294.894 147.868 295.431 148.827 296.389C149.785 297.346 150.325 298.645 150.327 300H121.005Z" fill="#263238"/>
<path d="M145.213 294.857H125.71C125.71 294.503 125.779 294.153 125.915 293.827C126.05 293.5 126.248 293.204 126.498 292.954C126.748 292.704 127.044 292.506 127.371 292.371C127.697 292.236 128.047 292.166 128.4 292.166H142.523C142.876 292.166 143.226 292.236 143.552 292.371C143.879 292.506 144.175 292.704 144.425 292.954C144.675 293.204 144.873 293.5 145.008 293.827C145.144 294.153 145.213 294.503 145.213 294.857Z" fill="#455A64"/>
<path d="M171.213 170.284C171.213 170.388 159.797 170.477 145.719 170.477C131.641 170.477 120.217 170.388 120.217 170.284C120.217 170.18 131.634 170.091 145.719 170.091C159.804 170.091 171.213 170.18 171.213 170.284Z" fill="#263238"/>
<path d="M172.521 298.558C172.409 298.558 172.328 267.705 172.328 229.649C172.328 191.594 172.409 160.733 172.521 160.733C172.632 160.733 172.714 191.586 172.714 229.649C172.714 267.712 172.625 298.558 172.521 298.558Z" fill="#263238"/>
<path d="M180.155 299.74C180.155 297.715 179.35 295.774 177.919 294.342C176.487 292.911 174.546 292.106 172.521 292.106C171.518 292.105 170.525 292.302 169.599 292.686C168.672 293.069 167.83 293.631 167.121 294.34C166.412 295.049 165.85 295.891 165.467 296.818C165.083 297.744 164.887 298.737 164.888 299.74H180.155Z" fill="#455A64"/>
<path d="M172.521 166.471C171.509 166.471 170.539 166.872 169.823 167.587C169.106 168.302 168.703 169.272 168.701 170.284C168.701 171.297 169.103 172.269 169.82 172.985C170.536 173.702 171.508 174.104 172.521 174.104V166.471Z" fill="#455A64"/>
<path d="M237.186 238.836C237.178 239.05 237.214 239.264 237.291 239.465C237.367 239.665 237.484 239.848 237.633 240.002C237.783 240.156 237.962 240.279 238.159 240.362C238.357 240.445 238.57 240.487 238.784 240.486H240.271V280.942C240.272 281.554 240.394 282.159 240.629 282.723C240.864 283.287 241.208 283.8 241.642 284.23C242.076 284.661 242.59 285.002 243.156 285.234C243.722 285.466 244.327 285.583 244.939 285.581C246.169 285.581 247.349 285.092 248.218 284.222C249.088 283.352 249.577 282.173 249.577 280.942V240.538H251.019C251.235 240.54 251.449 240.499 251.649 240.418C251.849 240.337 252.031 240.217 252.185 240.065C252.338 239.912 252.46 239.732 252.543 239.532C252.626 239.333 252.669 239.119 252.669 238.903C252.669 238.689 252.626 238.476 252.544 238.278C252.462 238.08 252.341 237.901 252.189 237.749C252.037 237.598 251.857 237.478 251.659 237.397C251.46 237.316 251.248 237.274 251.034 237.275H238.784C238.367 237.275 237.966 237.438 237.667 237.73C237.369 238.022 237.196 238.419 237.186 238.836Z" fill="#F5F5F5"/>
<path d="M237.186 238.836C237.175 238.708 237.188 238.58 237.223 238.457C237.311 238.088 237.53 237.763 237.84 237.543C238.07 237.378 238.339 237.275 238.62 237.245C238.925 237.245 239.252 237.245 239.609 237.245H242.054H248.744H250.773C251.147 237.209 251.524 237.282 251.858 237.454C252.126 237.6 252.352 237.814 252.513 238.074C252.674 238.334 252.765 238.631 252.777 238.936C252.789 239.242 252.721 239.545 252.581 239.816C252.441 240.088 252.233 240.319 251.977 240.486C251.616 240.713 251.19 240.815 250.765 240.776H249.554L249.703 240.627C249.703 251.033 249.703 264.747 249.747 279.731V280.942C249.752 281.358 249.705 281.773 249.606 282.176C249.413 282.985 249.01 283.728 248.439 284.332C247.878 284.936 247.172 285.387 246.388 285.64C245.23 286.013 243.975 285.936 242.872 285.423C241.77 284.911 240.902 284 240.441 282.875C240.165 282.165 240.041 281.406 240.077 280.645C240.077 279.902 240.077 279.159 240.077 278.415C240.077 272.588 240.077 267.155 240.077 262.257C240.077 252.49 240.151 244.879 240.166 240.59L240.233 240.664C239.557 240.664 238.977 240.664 238.457 240.62C238.241 240.584 238.034 240.504 237.85 240.385C237.666 240.266 237.508 240.111 237.386 239.929C237.177 239.644 237.084 239.291 237.126 238.94C237.17 239.255 237.302 239.551 237.505 239.795C237.626 239.964 237.78 240.108 237.958 240.216C238.135 240.325 238.333 240.396 238.539 240.427C239.029 240.471 239.631 240.427 240.3 240.427H240.374V240.494C240.374 244.782 240.419 252.386 240.464 262.16C240.464 267.058 240.464 272.491 240.464 278.319V280.549C240.426 281.271 240.543 281.993 240.806 282.667C241.235 283.696 242.033 284.526 243.045 284.996C244.056 285.465 245.206 285.538 246.269 285.201C246.995 284.969 247.649 284.555 248.17 283.998C248.69 283.441 249.059 282.76 249.242 282.02C249.371 281.242 249.413 280.452 249.368 279.664C249.368 264.68 249.368 250.959 249.413 240.56V240.412H249.561H250.78C251.148 240.453 251.519 240.372 251.836 240.181C252.056 240.042 252.237 239.848 252.358 239.617C252.48 239.387 252.539 239.128 252.529 238.868C252.519 238.607 252.441 238.354 252.302 238.133C252.164 237.912 251.97 237.732 251.739 237.61C251.443 237.459 251.112 237.392 250.78 237.416H248.751H242.062H239.616C239.26 237.416 238.925 237.416 238.635 237.416C238.369 237.439 238.114 237.528 237.892 237.677C237.592 237.883 237.37 238.184 237.26 238.531C237.23 238.632 237.205 238.733 237.186 238.836Z" fill="#263238"/>
<path d="M244.879 284.064C243.96 284.064 243.079 283.699 242.43 283.05C241.78 282.4 241.415 281.519 241.415 280.601V253.657H248.35V280.601C248.348 281.52 247.981 282.401 247.331 283.05C246.68 283.7 245.798 284.064 244.879 284.064Z" fill="#133551"/>
<path d="M248.149 240.605C245.815 240.863 243.46 240.863 241.125 240.605C243.46 240.347 245.815 240.347 248.149 240.605Z" fill="#263238"/>
<path d="M241.415 253.657C241.447 253.398 241.563 253.157 241.743 252.969C241.924 252.782 242.161 252.658 242.419 252.616C243.007 252.534 243.605 252.567 244.18 252.713L247.584 253.203C247.816 253.215 248.038 253.295 248.224 253.434C248.267 253.471 248.303 253.517 248.327 253.569C248.351 253.621 248.363 253.678 248.363 253.735C248.363 253.792 248.351 253.849 248.327 253.901C248.303 253.953 248.267 253.999 248.224 254.036" fill="#133551"/>
<path opacity="0.21" d="M244.716 257.633C244.714 257.84 244.651 258.042 244.535 258.214C244.419 258.385 244.255 258.518 244.064 258.596C243.872 258.675 243.661 258.694 243.459 258.653C243.256 258.612 243.07 258.511 242.924 258.364C242.778 258.218 242.679 258.031 242.639 257.828C242.599 257.625 242.621 257.414 242.7 257.223C242.78 257.032 242.914 256.869 243.086 256.754C243.258 256.639 243.461 256.578 243.668 256.578C243.806 256.578 243.943 256.605 244.07 256.658C244.198 256.712 244.314 256.789 244.411 256.888C244.509 256.986 244.586 257.102 244.638 257.23C244.69 257.358 244.717 257.495 244.716 257.633Z" fill="white"/>
<path opacity="0.21" d="M244.745 262.323C244.745 262.392 244.732 262.461 244.705 262.524C244.678 262.588 244.639 262.646 244.59 262.694C244.541 262.742 244.483 262.781 244.419 262.806C244.355 262.832 244.287 262.845 244.218 262.844C244.08 262.844 243.947 262.789 243.85 262.691C243.752 262.594 243.697 262.461 243.697 262.323C243.696 262.255 243.709 262.186 243.735 262.122C243.76 262.058 243.799 262 243.847 261.951C243.895 261.902 243.953 261.863 244.017 261.836C244.08 261.809 244.149 261.796 244.218 261.796C244.358 261.796 244.492 261.851 244.591 261.95C244.69 262.049 244.745 262.184 244.745 262.323Z" fill="white"/>
<path d="M261.134 238.836C261.127 239.05 261.163 239.264 261.241 239.464C261.318 239.663 261.434 239.846 261.583 240C261.732 240.154 261.911 240.276 262.108 240.36C262.306 240.443 262.518 240.486 262.732 240.486H264.219V280.942C264.219 282.171 264.706 283.35 265.575 284.219C266.443 285.089 267.621 285.579 268.849 285.58C270.079 285.58 271.259 285.092 272.129 284.222C272.999 283.352 273.487 282.173 273.487 280.942V240.538H274.929C275.145 240.54 275.36 240.499 275.56 240.418C275.76 240.337 275.942 240.217 276.095 240.064C276.249 239.912 276.37 239.732 276.453 239.532C276.537 239.333 276.579 239.119 276.579 238.903C276.579 238.471 276.408 238.057 276.103 237.752C275.797 237.447 275.383 237.275 274.952 237.275H262.732C262.315 237.275 261.914 237.438 261.615 237.73C261.316 238.022 261.144 238.419 261.134 238.836Z" fill="#F5F5F5"/>
<path d="M261.134 238.836C261.111 238.711 261.111 238.582 261.134 238.457C261.225 238.087 261.447 237.762 261.758 237.543C261.978 237.384 262.233 237.282 262.502 237.245C262.814 237.245 263.133 237.245 263.49 237.245H265.943H272.632H274.654C275.028 237.209 275.405 237.282 275.739 237.454C276.008 237.6 276.233 237.814 276.394 238.074C276.555 238.334 276.646 238.631 276.658 238.936C276.67 239.242 276.603 239.545 276.462 239.816C276.322 240.088 276.114 240.319 275.858 240.486C275.497 240.713 275.071 240.815 274.647 240.776H273.435L273.584 240.627C273.584 251.033 273.584 264.747 273.628 279.731V280.942C273.637 281.358 273.59 281.773 273.487 282.176C273.297 282.986 272.894 283.73 272.32 284.332C271.761 284.938 271.054 285.388 270.269 285.64C269.499 285.882 268.68 285.929 267.887 285.776C267.094 285.623 266.352 285.275 265.727 284.763C265.122 284.252 264.646 283.605 264.338 282.875C264.061 282.165 263.937 281.406 263.973 280.645C263.973 279.902 263.973 279.159 263.973 278.415C263.973 272.588 263.973 267.155 263.973 262.257C264.018 252.49 264.048 244.879 264.063 240.59L264.137 240.664C263.453 240.664 262.873 240.664 262.353 240.62C262.137 240.584 261.93 240.504 261.746 240.385C261.562 240.266 261.404 240.111 261.283 239.929C261.074 239.644 260.981 239.291 261.023 238.94C261.036 239.279 261.147 239.607 261.342 239.884C261.46 240.055 261.612 240.2 261.788 240.308C261.965 240.417 262.162 240.488 262.368 240.516C262.858 240.56 263.46 240.516 264.137 240.516H264.204V240.583C264.204 244.871 264.248 252.475 264.293 262.249C264.293 267.147 264.293 272.581 264.293 278.408C264.293 279.151 264.293 279.894 264.293 280.638C264.249 281.36 264.363 282.083 264.627 282.756C264.913 283.427 265.353 284.021 265.913 284.488C266.484 284.956 267.16 285.277 267.883 285.424C268.626 285.565 269.392 285.519 270.113 285.291C270.832 285.06 271.48 284.648 271.993 284.094C272.522 283.539 272.893 282.855 273.071 282.109C273.204 281.332 273.246 280.541 273.197 279.753C273.197 264.769 273.235 251.048 273.249 240.65V240.501H273.398H274.61C274.977 240.542 275.348 240.461 275.665 240.271C275.963 240.081 276.183 239.791 276.287 239.453C276.39 239.115 276.37 238.751 276.23 238.427C276.103 238.112 275.872 237.85 275.576 237.684C275.277 237.533 274.943 237.467 274.61 237.491H272.588H265.898H263.446C263.089 237.491 262.754 237.491 262.464 237.491C262.199 237.514 261.944 237.604 261.721 237.751C261.421 237.955 261.2 238.257 261.097 238.606C261.141 238.702 261.149 238.836 261.134 238.836Z" fill="#263238"/>
<path d="M268.835 284.064C267.916 284.064 267.034 283.7 266.383 283.05C265.732 282.401 265.366 281.52 265.364 280.601V253.657H272.299V280.601C272.299 281.519 271.934 282.4 271.284 283.05C270.634 283.699 269.753 284.064 268.835 284.064Z" fill="#133551"/>
<path d="M272.105 240.605C269.768 240.863 267.41 240.863 265.074 240.605C267.41 240.347 269.768 240.347 272.105 240.605Z" fill="#263238"/>
<path d="M265.364 253.657C265.397 253.399 265.513 253.158 265.693 252.971C265.874 252.783 266.11 252.659 266.367 252.616C266.955 252.534 267.553 252.566 268.129 252.713L271.533 253.203C271.764 253.215 271.987 253.295 272.172 253.434C272.216 253.471 272.251 253.517 272.275 253.569C272.299 253.621 272.312 253.678 272.312 253.735C272.312 253.792 272.299 253.849 272.275 253.901C272.251 253.953 272.216 253.999 272.172 254.036" fill="#133551"/>
<path opacity="0.21" d="M268.671 257.633C268.671 257.842 268.609 258.046 268.493 258.22C268.377 258.393 268.212 258.529 268.019 258.609C267.827 258.688 267.614 258.709 267.41 258.669C267.205 258.628 267.017 258.527 266.869 258.38C266.722 258.232 266.621 258.044 266.58 257.839C266.54 257.635 266.561 257.422 266.64 257.23C266.72 257.037 266.856 256.872 267.029 256.756C267.203 256.64 267.407 256.578 267.616 256.578C267.895 256.578 268.164 256.689 268.362 256.887C268.56 257.085 268.671 257.353 268.671 257.633Z" fill="white"/>
<path opacity="0.21" d="M268.723 262.323C268.723 262.461 268.669 262.594 268.571 262.691C268.473 262.789 268.341 262.844 268.203 262.844C268.134 262.845 268.066 262.832 268.002 262.806C267.938 262.781 267.879 262.742 267.83 262.694C267.781 262.646 267.742 262.588 267.716 262.524C267.689 262.461 267.675 262.392 267.675 262.323C267.675 262.184 267.731 262.049 267.83 261.95C267.929 261.851 268.063 261.796 268.203 261.796C268.272 261.796 268.34 261.809 268.404 261.836C268.467 261.863 268.525 261.902 268.574 261.951C268.622 262 268.66 262.058 268.686 262.122C268.712 262.186 268.724 262.255 268.723 262.323Z" fill="white"/>
<g opacity="0.3">
<path opacity="0.3" d="M243.667 279.723C243.132 279.723 242.701 276.825 242.701 273.25C242.701 269.674 243.132 266.768 243.667 266.768C244.203 266.768 244.634 269.667 244.634 273.25C244.634 276.832 244.195 279.723 243.667 279.723Z" fill="white"/>
</g>
<g opacity="0.3">
<path opacity="0.3" d="M267.281 279.723C266.746 279.723 266.315 276.825 266.315 273.25C266.315 269.674 266.746 266.768 267.281 266.768C267.816 266.768 268.255 269.667 268.255 273.25C268.255 276.832 267.816 279.723 267.281 279.723Z" fill="white"/>
</g>
<path d="M220.916 237.29C221.027 237.29 221.109 251.085 221.109 268.106C221.109 285.127 221.027 298.922 220.916 298.922C220.804 298.922 220.723 285.127 220.723 268.106C220.723 251.085 220.812 237.29 220.916 237.29Z" fill="#263238"/>
<path d="M310.748 237.357C310.852 237.357 310.941 251.16 310.941 268.173C310.941 285.187 310.852 298.997 310.748 298.997C310.644 298.997 310.555 285.201 310.555 268.173C310.555 251.145 310.636 237.357 310.748 237.357Z" fill="#263238"/>
<path d="M310.837 248.194C310.837 248.298 290.59 248.387 265.623 248.387C240.657 248.387 220.41 248.298 220.41 248.194C220.41 248.09 240.649 248.001 265.623 248.001C290.597 248.001 310.837 248.09 310.837 248.194Z" fill="#263238"/>
<path d="M228.586 299.74C228.587 298.737 228.39 297.744 228.007 296.818C227.624 295.891 227.062 295.049 226.353 294.34C225.644 293.631 224.802 293.069 223.875 292.686C222.949 292.302 221.955 292.105 220.953 292.106C218.928 292.106 216.987 292.911 215.555 294.342C214.124 295.774 213.319 297.715 213.319 299.74H228.586Z" fill="#455A64"/>
<path d="M318.381 300C318.381 297.975 317.577 296.034 316.145 294.602C314.714 293.171 312.772 292.367 310.748 292.367C308.723 292.367 306.782 293.171 305.35 294.602C303.919 296.034 303.114 297.975 303.114 300H318.381Z" fill="#455A64"/>
<path d="M220.41 252.884C221.423 252.884 222.395 252.481 223.111 251.765C223.828 251.048 224.23 250.077 224.23 249.063C224.228 248.051 223.825 247.082 223.109 246.367C222.392 245.652 221.422 245.25 220.41 245.25V252.884Z" fill="#455A64"/>
<path d="M310.837 245.25C309.826 245.25 308.856 245.652 308.141 246.367C307.426 247.082 307.024 248.052 307.024 249.063C307.023 249.565 307.121 250.061 307.312 250.525C307.503 250.988 307.784 251.41 308.138 251.764C308.492 252.119 308.913 252.401 309.376 252.593C309.839 252.785 310.336 252.884 310.837 252.884V245.25Z" fill="#455A64"/>
<path d="M286.049 226.067H285.239H282.86L273.703 226.104L240.04 226.163H228.891H222.945C221.934 226.163 220.916 226.163 219.912 226.223C218.895 226.328 217.895 226.565 216.939 226.929C216.453 227.113 215.979 227.326 215.52 227.568C215.064 227.82 214.624 228.1 214.204 228.408C212.475 229.672 211.128 231.387 210.309 233.366C209.9 234.375 209.63 235.435 209.507 236.517C209.336 238.702 209.507 240.977 209.336 243.281C209.108 245.612 208.545 247.897 207.663 250.067C205.742 254.563 202.428 258.322 198.209 260.792C193.815 263.398 188.656 264.409 183.603 263.654C178.285 262.893 173.411 260.264 169.853 256.239C166.295 252.214 164.285 247.054 164.182 241.683C164.182 219.994 164.182 199.316 164.182 180.534C164.182 171.131 164.182 162.205 164.182 153.85C164.183 151.927 163.794 150.023 163.039 148.253C162.284 146.484 161.179 144.886 159.79 143.555C158.401 142.225 156.757 141.189 154.957 140.511C153.157 139.832 151.238 139.526 149.316 139.609C145.937 139.746 142.72 141.091 140.248 143.4C139.12 144.454 138.162 145.678 137.409 147.027C136.726 148.309 136.226 149.68 135.922 151.1C135.7 152.438 135.608 153.795 135.647 155.151C135.647 156.459 135.647 157.723 135.647 158.927C135.647 161.35 135.647 163.557 135.647 165.542C135.647 169.511 135.647 172.595 135.61 174.699C135.61 175.74 135.61 176.535 135.61 177.077C135.61 177.62 135.61 177.888 135.61 177.888C135.61 177.888 135.61 177.613 135.61 177.077C135.61 176.542 135.61 175.74 135.61 174.699C135.61 172.595 135.61 169.496 135.573 165.542C135.573 163.56 135.573 161.355 135.573 158.927C135.573 157.723 135.573 156.459 135.573 155.151C135.528 153.78 135.618 152.409 135.841 151.055C136.135 149.611 136.636 148.217 137.327 146.915C138.083 145.534 139.051 144.28 140.196 143.199C142.705 140.834 145.983 139.456 149.428 139.319C151.389 139.23 153.347 139.539 155.186 140.228C157.024 140.916 158.703 141.971 160.122 143.327C161.542 144.683 162.671 146.312 163.443 148.117C164.215 149.922 164.613 151.865 164.613 153.828C164.613 162.182 164.613 171.109 164.613 180.511C164.613 199.301 164.613 219.964 164.613 241.653C164.722 246.931 166.7 252 170.195 255.956C173.69 259.913 178.476 262.501 183.7 263.26C186.193 263.608 188.727 263.545 191.2 263.074C194.76 262.35 198.092 260.773 200.91 258.479C203.728 256.185 205.949 253.243 207.381 249.903C208.25 247.764 208.805 245.511 209.031 243.214C209.232 240.947 209.031 238.695 209.209 236.443C209.346 235.329 209.626 234.237 210.042 233.195C210.47 232.178 211.032 231.223 211.714 230.355C212.389 229.506 213.179 228.755 214.063 228.125C214.496 227.809 214.948 227.519 215.416 227.256C215.885 227.012 216.369 226.796 216.865 226.609C217.847 226.231 218.874 225.981 219.92 225.866C220.968 225.792 221.979 225.814 222.99 225.814H228.936H240.085L273.748 225.873L282.905 225.91H285.283L286.049 226.067Z" fill="#263238"/>
<path d="M244.626 226.067C244.884 229.106 244.884 232.162 244.626 235.201C244.369 232.162 244.369 229.106 244.626 226.067Z" fill="#263238"/>
<path d="M267.281 226.067C267.539 229.106 267.539 232.162 267.281 235.201C267.024 232.162 267.024 229.106 267.281 226.067Z" fill="#263238"/>
<path d="M61.8033 143.407L66.263 148.328C67.1364 149.285 67.7484 150.452 68.04 151.714C68.3317 152.977 68.293 154.294 67.9279 155.537L50.9441 213.357C50.4635 214.991 50.3706 216.716 50.6727 218.392C50.9748 220.069 51.6636 221.653 52.6844 223.017C53.7053 224.381 55.03 225.489 56.5536 226.252C58.0771 227.014 59.7575 227.412 61.4614 227.412H93.4222C95.2388 227.411 97.03 226.984 98.6515 226.165C100.273 225.346 101.679 224.157 102.758 222.695C103.836 221.233 104.556 219.538 104.859 217.747C105.162 215.956 105.041 214.119 104.504 212.383L86.8219 155.062C86.4233 153.77 86.3793 152.396 86.6944 151.081C87.0096 149.767 87.6723 148.562 88.6132 147.592L92.6417 143.429L61.8033 143.407Z" fill="#F5F5F5"/>
<path d="M61.8031 143.407L92.6415 143.281H92.9388L92.7307 143.496L89.6684 146.67C89.1168 147.208 88.5957 147.776 88.1075 148.372C87.6379 148.991 87.2714 149.681 87.0223 150.416C86.5012 151.959 86.5012 153.63 87.0223 155.173C87.5179 156.779 88.0283 158.424 88.5535 160.108L95.3321 181.931C97.7404 189.713 100.297 197.971 102.966 206.578C103.3 207.648 103.635 208.733 103.969 209.819C104.14 210.361 104.311 210.904 104.474 211.454C104.658 212.001 104.815 212.556 104.943 213.119C105.217 214.262 105.324 215.438 105.262 216.612L105.151 217.489L105.099 217.928L104.995 218.359L104.787 219.221L104.482 220.061C103.609 222.309 102.078 224.241 100.089 225.606C98.048 226.956 95.6462 227.659 93.199 227.62H61.5206C60.0208 227.621 58.5362 227.319 57.1557 226.733C55.7752 226.147 54.5271 225.289 53.4861 224.209C52.4452 223.129 51.6329 221.85 51.0977 220.449C50.5625 219.048 50.3155 217.553 50.3715 216.055C50.4087 215.572 50.4607 215.096 50.5202 214.62C50.5797 214.144 50.7283 213.684 50.8472 213.23C51.1148 212.331 51.375 211.439 51.6351 210.554C52.1554 208.785 52.6757 207.039 53.1811 205.314C54.2019 201.875 55.1929 198.536 56.1542 195.295C58.057 188.829 59.8706 182.808 61.4612 177.308L65.8539 162.442C66.5006 160.265 67.1026 158.228 67.6601 156.362C67.7939 155.894 67.9425 155.433 68.0466 154.987C68.1396 154.547 68.1967 154.099 68.2175 153.649C68.2425 152.812 68.1296 151.975 67.8831 151.174C67.662 150.458 67.3337 149.779 66.9094 149.16C66.5179 148.634 66.0881 148.137 65.6235 147.674L63.5275 145.34L61.8328 143.437L63.5795 145.31L65.6904 147.584C66.1611 148.046 66.596 148.543 66.9911 149.071C67.4264 149.698 67.7647 150.387 67.9946 151.115C68.2568 151.931 68.3775 152.785 68.3513 153.642C68.3364 154.102 68.2816 154.559 68.1878 155.01C68.0837 155.478 67.9425 155.931 67.8087 156.4C67.2587 158.273 66.6666 160.302 66.0323 162.487L61.699 177.352L56.4292 195.347C55.4828 198.578 54.5041 201.92 53.4933 205.374L51.9547 210.614C51.479 212.398 50.7506 214.159 50.7134 216.032C50.6687 217.48 50.915 218.922 51.438 220.272C51.9609 221.622 52.7497 222.854 53.7577 223.894C54.7656 224.934 55.9721 225.761 57.3056 226.325C58.6391 226.89 60.0725 227.181 61.5206 227.181H93.1915C95.5461 227.245 97.8623 226.575 99.8196 225.265C101.777 223.955 103.279 222.069 104.118 219.868L104.408 219.057L104.616 218.225L104.712 217.809L104.764 217.385L104.868 216.53C104.931 215.397 104.829 214.26 104.564 213.156C104.438 212.601 104.284 212.053 104.103 211.513C103.939 210.971 103.768 210.421 103.597 209.878L102.601 206.637C99.9404 198.023 97.3984 189.773 94.9902 181.983C92.582 174.194 90.3373 166.954 88.2562 160.183L86.7696 155.24C86.2304 153.642 86.2304 151.911 86.7696 150.312C87.0306 149.55 87.4121 148.835 87.8994 148.194C88.392 147.595 88.918 147.024 89.4751 146.484L92.5523 143.325L92.6415 143.533L61.8031 143.407Z" fill="#263238"/>
<path d="M40.8805 296.685C40.7765 296.685 40.6873 263.654 40.6873 222.923C40.6873 182.191 40.7765 149.16 40.8805 149.16C40.9846 149.16 41.0738 182.184 41.0738 222.923C41.0738 263.661 40.992 296.685 40.8805 296.685Z" fill="#263238"/>
<path d="M107.433 158.035C107.433 158.139 93.0579 158.228 75.3234 158.228C57.5889 158.228 43.2065 158.139 43.2065 158.035C43.2065 157.931 57.5815 157.842 75.3234 157.842C93.0653 157.842 107.433 157.908 107.433 158.035Z" fill="#263238"/>
<path d="M92.0695 179.084C88.9081 179.811 85.6155 179.74 82.4887 178.876C79.5156 178.044 76.7209 176.498 73.7553 175.509C70.7896 174.521 67.4077 174.149 64.6502 175.606L54.4896 212.428C54.1139 213.808 54.0614 215.257 54.3362 216.661C54.6109 218.066 55.2056 219.388 56.074 220.525C56.9425 221.662 58.0613 222.584 59.3436 223.219C60.626 223.854 62.0374 224.185 63.4684 224.186H92.1438C93.5751 224.187 94.9873 223.858 96.2707 223.225C97.5541 222.591 98.674 221.67 99.5434 220.533C100.413 219.396 101.008 218.074 101.283 216.67C101.559 215.265 101.506 213.816 101.13 212.435L92.0695 179.084Z" fill="#133551"/>
<path d="M48.5134 300C48.5134 297.975 47.7092 296.034 46.2776 294.602C44.8461 293.171 42.9045 292.367 40.88 292.367C39.8776 292.367 38.8849 292.564 37.9588 292.948C37.0327 293.331 36.1912 293.894 35.4824 294.602C34.7735 295.311 34.2113 296.153 33.8276 297.079C33.444 298.005 33.2466 298.998 33.2466 300H48.5134Z" fill="#455A64"/>
<path d="M40.8801 163.238C42.1615 163.238 43.3903 162.729 44.2964 161.823C45.2024 160.917 45.7114 159.688 45.7114 158.406C45.7114 157.125 45.2024 155.896 44.2964 154.99C43.3903 154.084 42.1615 153.575 40.8801 153.575V163.238Z" fill="#455A64"/>
<path d="M92.1363 144.009C91.7894 144.231 91.4238 144.423 91.0437 144.582C90.613 144.8 90.1714 144.996 89.7206 145.169C89.1929 145.369 88.6057 145.63 87.9219 145.83C87.2381 146.031 86.5097 146.298 85.6921 146.492C84.8745 146.685 84.0049 146.871 83.0832 147.049C81.069 147.382 79.0299 147.541 76.9884 147.525C74.9451 147.486 72.9087 147.275 70.901 146.893C69.9867 146.692 69.1097 146.514 68.3069 146.269C67.5042 146.023 66.7609 145.793 66.0771 145.525C65.3933 145.258 64.821 145.027 64.3007 144.782C63.8544 144.599 63.4177 144.393 62.9925 144.165C62.617 143.995 62.2565 143.794 61.9148 143.563C62.3044 143.692 62.6844 143.849 63.052 144.031C63.4088 144.195 63.8547 144.388 64.3825 144.582C64.9102 144.775 65.4899 145.035 66.1663 145.236C66.8427 145.436 67.5711 145.704 68.3961 145.897C69.2212 146.09 70.0685 146.291 70.9753 146.484C74.9555 147.225 79.0332 147.277 83.0312 146.64C83.9454 146.469 84.8225 146.328 85.6252 146.12C86.428 145.912 87.1712 145.719 87.855 145.511C88.5388 145.302 89.126 145.087 89.6612 144.909C90.1963 144.73 90.6349 144.544 90.9991 144.388C91.3675 144.232 91.7478 144.105 92.1363 144.009Z" fill="#263238"/>
<g opacity="0.3">
<path opacity="0.3" d="M67.1695 220.648C67.1695 220.76 66.4857 220.864 65.3411 220.462C63.7454 219.801 62.4201 218.62 61.5801 217.11C60.9736 216.083 60.5557 214.955 60.3463 213.78C60.1187 212.46 60.0711 211.115 60.2051 209.782C60.5943 206.863 61.1955 203.976 62.0038 201.145C65.0289 189.171 67.8979 179.59 68.4108 179.709C68.9236 179.828 66.9242 189.646 63.8843 201.62C63.1016 204.367 62.464 207.153 61.974 209.967C61.8223 211.152 61.8223 212.351 61.974 213.535C62.0911 214.549 62.3775 215.537 62.8214 216.456C63.4489 217.816 64.4488 218.971 65.7053 219.786C66.5526 220.343 67.1993 220.47 67.1695 220.648Z" fill="white"/>
</g>
<path d="M91.0809 184.428C90.7769 184.613 90.4558 184.767 90.1221 184.889C89.4903 185.157 88.5687 185.536 87.4017 185.922C86.0303 186.39 84.6034 186.674 83.1576 186.77C82.2966 186.818 81.4329 186.761 80.5859 186.599C79.681 186.416 78.7969 186.142 77.9473 185.781C76.208 185.038 74.662 184.161 73.1903 183.507C71.9038 182.913 70.5317 182.527 69.1246 182.362C68.1732 182.263 67.2117 182.349 66.2928 182.615C65.6536 182.823 65.3191 183.016 65.3042 182.979C65.2894 182.942 65.3711 182.912 65.5272 182.823C65.7643 182.685 66.013 182.568 66.2705 182.474C67.1977 182.138 68.1864 182.006 69.1692 182.087C70.6177 182.215 72.0347 182.584 73.3613 183.18C74.8478 183.826 76.4162 184.703 78.1182 185.41C78.9444 185.761 79.8034 186.03 80.6825 186.212C81.5003 186.368 82.3332 186.431 83.1651 186.398C84.5827 186.323 85.9857 186.073 87.3423 185.655C88.5092 185.305 89.4457 184.964 90.0924 184.741C90.4107 184.604 90.7418 184.499 91.0809 184.428Z" fill="#FAFAFA"/>
</svg>
