<svg width="313" height="300" viewBox="0 0 313 300" fill="none" xmlns="http://www.w3.org/2000/svg">
<path d="M26.1543 239.136C26.0253 239.134 25.8989 239.099 25.7879 239.033L9.16323 229.435C9.05249 229.371 8.96041 229.279 8.89614 229.168C8.83187 229.058 8.79765 228.932 8.79688 228.805V209.608C8.79637 209.479 8.82998 209.352 8.89431 209.24C8.95864 209.128 9.05141 209.035 9.16323 208.971L25.7879 199.373C25.8993 199.308 26.0257 199.274 26.1543 199.274C26.2829 199.274 26.4092 199.308 26.5206 199.373L43.1453 208.971C43.2571 209.035 43.3499 209.128 43.4142 209.24C43.4786 209.352 43.5122 209.479 43.5117 209.608V228.805C43.5109 228.932 43.4767 229.058 43.4124 229.168C43.3481 229.279 43.2561 229.371 43.1453 229.435L26.5206 239.033C26.4097 239.099 26.2833 239.134 26.1543 239.136ZM10.2329 228.38L26.125 237.553L42.017 228.38V210.026L26.1543 200.853L10.2329 210.026V228.38Z" fill="#EBEBEB"/>
<path d="M59.4109 239.136C59.2819 239.134 59.1555 239.099 59.0445 239.033L42.4125 229.435C42.3018 229.371 42.2097 229.279 42.1454 229.168C42.0811 229.058 42.0469 228.932 42.0461 228.805V209.608C42.0456 209.479 42.0792 209.352 42.1436 209.24C42.2079 209.128 42.3007 209.035 42.4125 208.971L59.0445 199.373C59.1559 199.308 59.2823 199.274 59.4109 199.274C59.5395 199.274 59.6658 199.308 59.7772 199.373L76.4019 208.971C76.5137 209.035 76.6065 209.128 76.6708 209.24C76.7352 209.352 76.7688 209.479 76.7683 209.608V228.805C76.7675 228.932 76.7333 229.058 76.669 229.168C76.6047 229.279 76.5127 229.371 76.4019 229.435L59.7772 239.033C59.6663 239.099 59.5399 239.134 59.4109 239.136ZM43.5115 228.38L59.4109 237.553L75.3029 228.38V210.026L59.4109 200.853L43.5115 210.026V228.38Z" fill="#EBEBEB"/>
<path d="M59.4109 200.735C59.2166 200.735 59.0302 200.658 58.8928 200.521C58.7554 200.383 58.6782 200.197 58.6782 200.003V188.653C58.6782 188.459 58.7554 188.273 58.8928 188.135C59.0302 187.998 59.2166 187.921 59.4109 187.921C59.6052 187.921 59.7916 187.998 59.929 188.135C60.0664 188.273 60.1436 188.459 60.1436 188.653V200.039C60.1342 200.227 60.0529 200.404 59.9165 200.534C59.7801 200.663 59.599 200.736 59.4109 200.735Z" fill="#EBEBEB"/>
<path d="M76.0357 210.341C75.8723 210.342 75.7133 210.288 75.584 210.188C75.4547 210.088 75.3625 209.948 75.3221 209.789C75.2817 209.631 75.2953 209.464 75.3609 209.314C75.4265 209.164 75.5402 209.041 75.684 208.963L85.3555 203.666C85.5248 203.574 85.7236 203.552 85.9087 203.606C86.0939 203.659 86.2505 203.784 86.3446 203.952C86.3913 204.036 86.421 204.129 86.4319 204.224C86.4428 204.32 86.4348 204.417 86.4083 204.509C86.3817 204.602 86.3372 204.688 86.2773 204.764C86.2173 204.839 86.1431 204.902 86.0589 204.948L76.3874 210.246C76.2801 210.306 76.1591 210.339 76.0357 210.341Z" fill="#EBEBEB"/>
<path d="M12.5554 227.383C12.3611 227.383 12.1748 227.306 12.0374 227.169C11.8999 227.031 11.8228 226.845 11.8228 226.651V211.997C11.8228 211.802 11.8999 211.616 12.0374 211.479C12.1748 211.341 12.3611 211.264 12.5554 211.264C12.7498 211.264 12.9361 211.341 13.0735 211.479C13.2109 211.616 13.2881 211.802 13.2881 211.997V226.651C13.2881 226.845 13.2109 227.031 13.0735 227.169C12.9361 227.306 12.7498 227.383 12.5554 227.383Z" fill="#EBEBEB"/>
<path d="M46.8672 227.383C46.6729 227.383 46.4865 227.306 46.3491 227.169C46.2117 227.031 46.1345 226.845 46.1345 226.651V211.997C46.1345 211.802 46.2117 211.616 46.3491 211.479C46.4865 211.341 46.6729 211.264 46.8672 211.264C47.0615 211.264 47.2479 211.341 47.3853 211.479C47.5227 211.616 47.5999 211.802 47.5999 211.997V226.651C47.5999 226.845 47.5227 227.031 47.3853 227.169C47.2479 227.306 47.0615 227.383 46.8672 227.383Z" fill="#EBEBEB"/>
<path d="M39.3939 211.938C39.2656 211.939 39.1393 211.906 39.0276 211.843L26.3521 204.472C26.1926 204.371 26.0784 204.212 26.0335 204.028C25.9885 203.844 26.0162 203.651 26.1108 203.487C26.2054 203.323 26.3595 203.203 26.541 203.15C26.7225 203.097 26.9173 203.117 27.0848 203.204L39.753 210.575C39.8363 210.624 39.9093 210.688 39.9676 210.765C40.026 210.842 40.0687 210.929 40.0932 211.022C40.1177 211.116 40.1236 211.213 40.1104 211.308C40.0973 211.404 40.0655 211.496 40.0167 211.579C39.9525 211.687 39.8615 211.777 39.7524 211.84C39.6433 211.903 39.5198 211.937 39.3939 211.938Z" fill="#EBEBEB"/>
<path d="M72.4235 211.938C72.2951 211.939 72.1688 211.906 72.0571 211.843L59.3889 204.472C59.2295 204.371 59.1153 204.212 59.0704 204.028C59.0254 203.844 59.0531 203.651 59.1477 203.487C59.2422 203.323 59.3964 203.203 59.5779 203.15C59.7594 203.097 59.9542 203.117 60.1216 203.204L72.7898 210.575C72.8732 210.624 72.9461 210.688 73.0045 210.765C73.0629 210.842 73.1056 210.929 73.1301 211.022C73.1546 211.116 73.1604 211.213 73.1473 211.308C73.1342 211.404 73.1023 211.496 73.0536 211.579C72.9887 211.688 72.8965 211.779 72.7861 211.842C72.6756 211.905 72.5506 211.938 72.4235 211.938Z" fill="#EBEBEB"/>
<path d="M259.941 151.55C259.812 151.549 259.685 151.513 259.574 151.447L242.95 141.849C242.839 141.785 242.747 141.693 242.683 141.583C242.618 141.472 242.584 141.347 242.583 141.219V122.023C242.583 121.893 242.616 121.766 242.681 121.655C242.745 121.543 242.838 121.45 242.95 121.385L259.574 111.787C259.686 111.723 259.812 111.689 259.941 111.689C260.069 111.689 260.196 111.723 260.307 111.787L276.932 121.385C277.044 121.45 277.136 121.543 277.201 121.655C277.265 121.766 277.299 121.893 277.298 122.023V141.219C277.297 141.347 277.263 141.472 277.199 141.583C277.135 141.693 277.042 141.785 276.932 141.849L260.307 151.447C260.196 151.513 260.07 151.549 259.941 151.55ZM244.049 140.794L259.941 149.967L275.833 140.794V122.44L259.941 113.267L244.049 122.44V140.794Z" fill="#EBEBEB"/>
<path d="M259.941 113.186C259.746 113.186 259.56 113.109 259.423 112.972C259.285 112.834 259.208 112.648 259.208 112.454V101.031C259.208 100.837 259.285 100.65 259.423 100.513C259.56 100.376 259.746 100.298 259.941 100.298C260.135 100.298 260.321 100.376 260.459 100.513C260.596 100.65 260.673 100.837 260.673 101.031V112.454C260.673 112.648 260.596 112.834 260.459 112.972C260.321 113.109 260.135 113.186 259.941 113.186Z" fill="#EBEBEB"/>
<path d="M291.527 110.593C291.333 110.593 291.146 110.515 291.009 110.378C290.871 110.241 290.794 110.054 290.794 109.86V98.4666C290.794 98.2723 290.871 98.086 291.009 97.9485C291.146 97.8111 291.333 97.7339 291.527 97.7339C291.721 97.7339 291.908 97.8111 292.045 97.9485C292.182 98.086 292.26 98.2723 292.26 98.4666V109.86C292.26 110.054 292.182 110.241 292.045 110.378C291.908 110.515 291.721 110.593 291.527 110.593Z" fill="#EBEBEB"/>
<path d="M276.565 122.755C276.433 122.756 276.304 122.72 276.19 122.653C276.077 122.586 275.984 122.49 275.92 122.374C275.874 122.29 275.845 122.197 275.834 122.101C275.824 122.005 275.833 121.908 275.86 121.815C275.887 121.723 275.932 121.636 275.993 121.561C276.054 121.486 276.129 121.424 276.213 121.378L285.885 116.08C285.969 116.032 286.062 116.001 286.158 115.989C286.254 115.977 286.352 115.984 286.446 116.009C286.539 116.035 286.627 116.078 286.703 116.138C286.78 116.197 286.844 116.271 286.892 116.355C286.941 116.439 286.972 116.532 286.984 116.628C286.996 116.725 286.989 116.822 286.964 116.916C286.938 117.009 286.894 117.097 286.835 117.174C286.776 117.25 286.702 117.315 286.618 117.363L276.931 122.66C276.821 122.725 276.694 122.758 276.565 122.755Z" fill="#EBEBEB"/>
<path d="M306.276 122.755C306.152 122.756 306.031 122.723 305.924 122.66L296.253 117.363C296.168 117.315 296.095 117.25 296.035 117.174C295.976 117.097 295.932 117.009 295.907 116.916C295.881 116.822 295.874 116.725 295.887 116.628C295.899 116.532 295.93 116.439 295.978 116.355C296.026 116.271 296.09 116.197 296.167 116.138C296.244 116.078 296.331 116.035 296.425 116.009C296.518 115.984 296.616 115.977 296.712 115.989C296.808 116.001 296.901 116.032 296.985 116.08L306.657 121.378C306.742 121.424 306.817 121.486 306.877 121.561C306.938 121.636 306.983 121.723 307.01 121.815C307.038 121.908 307.046 122.005 307.036 122.101C307.026 122.197 306.996 122.29 306.95 122.374C306.884 122.494 306.786 122.594 306.667 122.661C306.548 122.728 306.413 122.761 306.276 122.755Z" fill="#EBEBEB"/>
<path d="M273.393 139.798C273.199 139.798 273.012 139.72 272.875 139.583C272.737 139.446 272.66 139.259 272.66 139.065V124.411C272.66 124.217 272.737 124.03 272.875 123.893C273.012 123.756 273.199 123.678 273.393 123.678C273.587 123.678 273.774 123.756 273.911 123.893C274.048 124.03 274.126 124.217 274.126 124.411V139.065C274.126 139.259 274.048 139.446 273.911 139.583C273.774 139.72 273.587 139.798 273.393 139.798Z" fill="#EBEBEB"/>
<path d="M247.016 124.353C246.889 124.353 246.764 124.319 246.653 124.256C246.543 124.194 246.451 124.103 246.386 123.994C246.337 123.91 246.305 123.818 246.292 123.723C246.279 123.627 246.285 123.53 246.309 123.437C246.334 123.344 246.376 123.256 246.435 123.179C246.493 123.103 246.566 123.038 246.649 122.99L259.347 115.619C259.43 115.566 259.524 115.53 259.621 115.514C259.719 115.498 259.818 115.502 259.914 115.526C260.01 115.549 260.101 115.592 260.18 115.651C260.259 115.71 260.325 115.785 260.374 115.871C260.424 115.956 260.455 116.051 260.467 116.149C260.479 116.247 260.471 116.346 260.444 116.441C260.416 116.536 260.37 116.625 260.307 116.701C260.245 116.778 260.167 116.841 260.08 116.886L247.411 124.257C247.291 124.326 247.154 124.359 247.016 124.353Z" fill="#EBEBEB"/>
<path d="M171.234 70.6904C171.105 70.6891 170.979 70.6537 170.868 70.5878L154.243 60.9896C154.132 60.9257 154.04 60.8339 153.976 60.7233C153.912 60.6128 153.877 60.4874 153.877 60.3595V41.1557C153.876 41.0266 153.91 40.8997 153.974 40.7877C154.038 40.6758 154.131 40.5828 154.243 40.5183L170.868 30.9201C170.979 30.8558 171.105 30.8219 171.234 30.8219C171.363 30.8219 171.489 30.8558 171.6 30.9201L188.225 40.5183C188.337 40.5828 188.43 40.6758 188.494 40.7877C188.558 40.8997 188.592 41.0266 188.592 41.1557V60.3522C188.591 60.48 188.557 60.6055 188.492 60.716C188.428 60.8265 188.336 60.9183 188.225 60.9823L171.6 70.5805C171.49 70.6489 171.364 70.6869 171.234 70.6904ZM155.342 59.9345L171.234 69.1078L187.126 59.9345V41.6173L171.234 32.4001L155.342 41.5734V59.9345Z" fill="#EBEBEB"/>
<path d="M187.859 41.8884C187.695 41.8892 187.536 41.8354 187.407 41.7355C187.278 41.6356 187.186 41.4953 187.145 41.337C187.105 41.1787 187.118 41.0114 187.184 40.8617C187.249 40.712 187.363 40.5886 187.507 40.511L197.179 35.2136C197.349 35.1165 197.55 35.0908 197.739 35.1424C197.928 35.1939 198.089 35.3184 198.186 35.4884C198.283 35.6584 198.309 35.8601 198.257 36.049C198.206 36.2379 198.081 36.3987 197.911 36.4958L188.24 41.7932C188.125 41.8612 187.992 41.8943 187.859 41.8884Z" fill="#EBEBEB"/>
<path d="M158.309 58.9674C158.115 58.9674 157.929 58.8902 157.791 58.7528C157.654 58.6154 157.577 58.429 157.577 58.2347V43.5809C157.577 43.3866 157.654 43.2002 157.791 43.0628C157.929 42.9254 158.115 42.8482 158.309 42.8482C158.504 42.8482 158.69 42.9254 158.827 43.0628C158.965 43.2002 159.042 43.3866 159.042 43.5809V58.2347C159.042 58.429 158.965 58.6154 158.827 58.7528C158.69 58.8902 158.504 58.9674 158.309 58.9674Z" fill="#EBEBEB"/>
<path d="M184.613 43.4856C184.482 43.4878 184.353 43.4549 184.239 43.3904L171.586 36.0195C171.498 35.9737 171.421 35.9107 171.358 35.8342C171.296 35.7577 171.249 35.6694 171.222 35.5745C171.194 35.4796 171.186 35.3801 171.198 35.282C171.21 35.1839 171.242 35.0892 171.291 35.0037C171.34 34.9181 171.407 34.8434 171.486 34.7841C171.565 34.7249 171.655 34.6822 171.751 34.6587C171.847 34.6352 171.947 34.6313 172.044 34.6473C172.142 34.6634 172.235 34.699 172.318 34.752L184.987 42.1155C185.07 42.164 185.143 42.2284 185.201 42.3052C185.26 42.3819 185.302 42.4694 185.327 42.5627C185.351 42.6559 185.357 42.7531 185.344 42.8486C185.331 42.9441 185.299 43.0361 185.25 43.1193C185.186 43.2311 185.093 43.3239 184.981 43.3882C184.869 43.4525 184.742 43.4862 184.613 43.4856Z" fill="#EBEBEB"/>
<path d="M171.952 67.0269C171.79 67.0281 171.632 66.9753 171.503 66.877C171.374 66.7786 171.281 66.6403 171.239 66.4835C171.197 66.3268 171.209 66.1606 171.271 66.011C171.334 65.8614 171.445 65.7368 171.586 65.6568L184.247 58.286C184.33 58.2375 184.423 58.2061 184.519 58.1935C184.614 58.1809 184.712 58.1874 184.805 58.2126C184.898 58.2378 184.986 58.2812 185.062 58.3403C185.139 58.3994 185.203 58.4731 185.25 58.5571C185.347 58.7244 185.373 58.9229 185.323 59.1095C185.274 59.2961 185.153 59.4556 184.987 59.5535L172.319 66.9537C172.205 67.0093 172.079 67.0346 171.952 67.0269Z" fill="#EBEBEB"/>
<path d="M229.307 216.664C228.949 214.231 228.46 211.82 227.842 209.44C229.705 209.012 231.535 208.446 233.315 207.747C233.703 207.582 234.01 207.269 234.168 206.878C234.327 206.486 234.322 206.048 234.157 205.659C233.992 205.27 233.679 204.963 233.288 204.805C232.896 204.647 232.458 204.651 232.069 204.816C230.431 205.459 228.746 205.974 227.028 206.355C226.405 204.157 225.643 201.798 224.691 199.314C219.994 187.071 213.093 178.513 204.718 174.571C197.098 170.981 188.372 171.904 179.748 173.325C179.36 170.226 179.096 167.112 178.825 164.094C178.151 156.29 177.535 149.257 175.271 144.311C174.478 142.448 173.249 140.802 171.688 139.512C170.238 138.358 168.623 137.429 166.896 136.757C166.796 136.712 166.694 136.672 166.589 136.64H166.523C160.764 134.493 154.104 134.962 147.517 135.651C147.568 135.504 147.627 135.365 147.678 135.218C152.895 121.693 158.28 107.699 146.909 96.5543C141.963 91.7039 135.559 89.2274 127.331 88.971C122.02 88.9221 116.717 89.3958 111.498 90.3851C115.161 76.3687 118.649 61.9201 105.776 48.8343C97.1225 40.042 80.747 39.1188 57.1031 46.1087C55.5644 46.563 54.0331 47.0392 52.5384 47.5301C52.6117 46.3798 52.6923 45.2368 52.7729 44.1011C53.8499 28.7659 54.7878 15.5263 46.9114 10.4341C46.7376 10.3046 46.5391 10.2122 46.3282 10.1626C46.1173 10.113 45.8984 10.1072 45.6851 10.1456C45.4719 10.1841 45.2688 10.2659 45.0884 10.386C44.9081 10.5061 44.7543 10.662 44.6367 10.844C44.5191 11.026 44.4401 11.2302 44.4046 11.4439C44.3691 11.6577 44.3779 11.8765 44.4304 12.0867C44.4829 12.2969 44.578 12.4942 44.7099 12.6661C44.8417 12.8381 45.0075 12.9811 45.1969 13.0864C51.4687 17.1602 50.5528 30.1361 49.593 43.8593C49.4831 45.42 49.3732 47.0099 49.2706 48.5998C40.8355 51.5405 32.5915 55.003 24.5864 58.9674C24.4016 59.0636 24.2376 59.1953 24.1038 59.3548C23.9699 59.5144 23.8688 59.6988 23.8062 59.8975C23.7436 60.0962 23.7208 60.3052 23.739 60.5127C23.7572 60.7202 23.8161 60.9221 23.9123 61.1068C24.0085 61.2916 24.1402 61.4555 24.2998 61.5894C24.4593 61.7233 24.6437 61.8244 24.8424 61.887C25.0411 61.9496 25.2501 61.9724 25.4576 61.9542C25.6651 61.936 25.867 61.8771 26.0517 61.7809C33.5239 58.0875 41.2086 54.8409 49.0655 52.0581C48.1789 68.4923 48.9556 85.183 62.0414 92.781H62.1C75.0173 100.21 90.2572 97.4042 104.999 94.6933L107.138 94.2976C104.054 106.497 102.01 118.923 111.762 130.287C120.554 140.545 132.05 140.318 142.688 139.277C138.607 150.429 135.852 161.632 143.692 171.149C145.554 173.46 147.913 175.321 150.594 176.593C158.229 180.191 167.615 178.571 176.773 176.996L177.015 176.952C178.598 187.422 181.821 197.387 190.555 203.153C197.406 207.688 205.355 210.29 213.561 210.685H213.605H213.913C215.855 210.775 217.8 210.748 219.738 210.605C221.526 210.473 223.189 210.26 224.676 210.004C225.269 212.308 225.744 214.641 226.098 216.994C226.132 217.256 226.232 217.506 226.388 217.72C226.544 217.934 226.752 218.105 226.992 218.217C227.265 218.349 227.57 218.397 227.871 218.356C228.076 218.34 228.277 218.283 228.46 218.189C228.643 218.095 228.807 217.965 228.94 217.808C229.073 217.651 229.174 217.469 229.237 217.273C229.3 217.076 229.324 216.869 229.307 216.664ZM52.3186 50.9518C63.9904 47.0392 77.5378 43.808 88.4915 44.8338L54.3115 78.0173C51.6885 70.2654 51.7618 60.5353 52.3186 50.9518ZM62.7521 89.4912C59.6387 87.4265 57.1604 84.5373 55.5937 81.1459L92.426 45.42C96.8221 46.3358 100.639 48.1236 103.519 51.0543C104.032 51.5745 104.515 52.1021 104.984 52.6223L62.7521 89.4912ZM78.1899 94.283C73.8615 94.0221 69.6211 92.9483 65.6902 91.1178L106.948 55.1134C108.938 57.9158 110.344 61.0905 111.08 64.4479C110.777 64.4962 110.495 64.631 110.267 64.8362L78.6222 93.6822C78.4315 93.8445 78.2832 94.0507 78.1899 94.283ZM104.493 91.638C97.1299 92.9934 89.6418 94.3709 82.4761 94.4222L111.586 67.8989C112.238 75.1232 110.26 82.6479 108.223 90.4217L108.076 90.9859L104.493 91.638ZM108.084 114.872C107.153 108.116 108.728 101.046 110.619 93.7408C119.785 92.1582 128.46 91.169 135.779 93.4917L108.084 114.872ZM113.124 126.917C111.14 124.355 109.67 121.435 108.794 118.315C108.857 118.283 108.916 118.244 108.97 118.198L139.01 95.0083L139.186 94.8691C141.228 95.8901 143.097 97.2251 144.725 98.8256C145.433 99.5109 146.092 100.245 146.696 101.024L113.124 126.917ZM122.356 132.778C122.145 132.928 121.974 133.127 121.859 133.358C121.744 133.59 121.688 133.846 121.697 134.105C119.247 132.921 117.035 131.3 115.169 129.32L148.381 103.676C149.834 106.492 150.548 109.631 150.455 112.798L122.356 132.778ZM124.401 135.196L150.089 116.938C149.239 122.389 147.011 128.163 144.74 134.083C144.484 134.727 144.242 135.379 144.007 136.024C137.296 136.728 130.526 137.248 124.401 135.204V135.196ZM142.036 159.346C141.362 153.052 143.56 146.157 146.249 138.992C152.309 138.347 158.126 137.746 163.16 138.94L142.036 159.346ZM146.191 169.215C144.658 167.38 143.5 165.261 142.784 162.98C142.859 162.928 142.931 162.869 142.996 162.804L166.53 140.091C167.678 140.613 168.758 141.272 169.747 142.054C170.655 142.812 171.402 143.743 171.945 144.795L148.213 171.289C147.484 170.645 146.808 169.944 146.191 169.193V169.215ZM174.56 154.862L161.812 175.677C157.782 175.677 154.052 175.04 150.821 173.164L173.315 148.026C173.952 150.206 174.42 152.433 174.714 154.686C174.656 154.73 174.604 154.782 174.56 154.84V154.862ZM176.297 173.956C172.633 174.586 169.051 175.208 165.622 175.502L175.278 159.734C175.432 161.265 175.572 162.833 175.703 164.409C175.982 167.515 176.253 170.71 176.649 173.89L176.297 173.956ZM180.195 176.498C184.02 175.8 187.892 175.393 191.779 175.282L188.423 197.226C183.558 191.914 181.396 184.382 180.217 176.476L180.195 176.498ZM192.365 200.589C191.947 200.318 191.544 200.025 191.156 199.724C191.234 199.57 191.286 199.404 191.31 199.233L194.973 175.377C196.788 175.509 198.585 175.823 200.336 176.315L198.82 204.113C196.57 203.119 194.411 201.932 192.365 200.567V200.589ZM201.772 205.293C201.87 205.096 201.928 204.882 201.941 204.663L203.406 177.487C205.499 178.482 207.451 179.751 209.209 181.26C209.191 181.387 209.191 181.515 209.209 181.641L212.103 207.513C208.58 207.2 205.109 206.447 201.772 205.271V205.293ZM219.46 207.564C218.06 207.659 216.675 207.696 215.313 207.674L212.748 184.763C218.529 191.423 221.973 200.274 223.922 207.029C222.559 207.234 221.057 207.425 219.46 207.542V207.564Z" fill="#EBEBEB"/>
<path d="M185.133 177.458C184.913 177.458 184.693 177.458 184.466 177.458C184.688 177.429 184.912 177.429 185.133 177.458Z" fill="#EBEBEB"/>
<path d="M76.1814 49.4199C81.2971 32.3575 71.6124 14.3786 54.55 9.26283C37.4876 4.14711 19.5087 13.8318 14.393 30.8942C9.27724 47.9566 18.9619 65.9356 36.0244 71.0513C53.0868 76.167 71.0657 66.4823 76.1814 49.4199Z" fill="#EBEBEB"/>
<path d="M58.4157 69.3425C74.1457 62.9073 81.6805 44.9388 75.2452 29.2088C68.8099 13.4789 50.8414 5.94407 35.1115 12.3794C19.3815 18.8147 11.8467 36.7831 18.282 52.5131C24.7173 68.243 42.6858 75.7778 58.4157 69.3425Z" fill="#DBDBDB"/>
<path d="M51.3358 69.3328C67.0576 66.809 77.7566 52.0179 75.2328 36.2961C72.7089 20.5743 57.9179 9.8753 42.1961 12.3992C26.4743 14.923 15.7752 29.714 18.2991 45.4358C20.8229 61.1576 35.614 71.8567 51.3358 69.3328Z" fill="white"/>
<path opacity="0.5" d="M74.9366 34.7886C61.8142 42.709 40.2731 55.7582 28.1765 62.9092C24.7656 60.0339 22.0672 56.4076 20.2927 52.3145L60.1803 15.3504C63.9111 17.315 67.1659 20.0737 69.7154 23.4321C72.2649 26.7905 74.0472 30.667 74.9366 34.7886Z" fill="#EBEBEB"/>
<path opacity="0.5" d="M75.5743 41.8811C75.4687 45.0871 74.8247 48.2525 73.6693 51.2449L37.7089 68.2506C36.1406 67.732 34.6206 67.0774 33.1663 66.2943C44.032 60.0225 63.8806 48.5999 75.5743 41.8811Z" fill="#EBEBEB"/>
<path d="M47.0432 14.1342H46.4863V18.501H47.0432V14.1342Z" fill="#C7C7C7"/>
<path d="M33.6319 17.5745L33.1497 17.8529L35.3331 21.6347L35.8153 21.3563L33.6319 17.5745Z" fill="#C7C7C7"/>
<path d="M23.7457 27.2505L23.4673 27.7327L27.2491 29.9161L27.5275 29.4339L23.7457 27.2505Z" fill="#C7C7C7"/>
<path d="M24.3886 40.5915H20.0217V41.1483H24.3886V40.5915Z" fill="#C7C7C7"/>
<path d="M27.2471 51.8228L23.4653 54.0062L23.7438 54.4884L27.5255 52.305L27.2471 51.8228Z" fill="#C7C7C7"/>
<path d="M35.3297 60.1009L33.1489 63.8842L33.6314 64.1622L35.8121 60.3789L35.3297 60.1009Z" fill="#C7C7C7"/>
<path d="M47.0432 63.239H46.4863V67.6058H47.0432V63.239Z" fill="#C7C7C7"/>
<path d="M58.1849 60.1063L57.7026 60.3848L59.8861 64.1666L60.3683 63.8881L58.1849 60.1063Z" fill="#C7C7C7"/>
<path d="M66.2716 51.8035L65.9932 52.2858L69.7749 54.4692L70.0534 53.9869L66.2716 51.8035Z" fill="#C7C7C7"/>
<path d="M73.5006 40.5915H69.1338V41.1483H73.5006V40.5915Z" fill="#C7C7C7"/>
<path d="M69.7779 27.2663L65.9961 29.4497L66.2745 29.9319L70.0563 27.7485L69.7779 27.2663Z" fill="#C7C7C7"/>
<path d="M59.8838 17.5707L57.7024 21.3536L58.1848 21.6318L60.3662 17.8489L59.8838 17.5707Z" fill="#C7C7C7"/>
<path d="M47.1823 16.1124L48.1275 42.8189L45.3945 42.7823L46.4423 16.1051L47.1823 16.1124Z" fill="#C7C7C7"/>
<path d="M63.8144 31.5575L45.8489 43.0241L44.5447 40.6208L63.4627 30.9054L63.8144 31.5575Z" fill="#A6A6A6"/>
<path d="M47.6954 40.8699C47.6925 41.0551 47.6349 41.2352 47.5297 41.3877C47.4246 41.5401 47.2767 41.658 47.1047 41.7265C46.9327 41.7951 46.7442 41.8111 46.5631 41.7727C46.3819 41.7343 46.2162 41.6431 46.0868 41.5106C45.9574 41.3782 45.8701 41.2104 45.8359 41.0284C45.8018 40.8464 45.8222 40.6584 45.8947 40.488C45.9672 40.3176 46.0886 40.1725 46.2434 40.071C46.3983 39.9694 46.5797 39.916 46.7649 39.9174C46.8889 39.9174 47.0118 39.9422 47.1261 39.9903C47.2405 40.0385 47.344 40.109 47.4307 40.1977C47.5174 40.2865 47.5855 40.3916 47.631 40.5071C47.6764 40.6225 47.6983 40.7459 47.6954 40.8699Z" fill="#C7C7C7"/>
<path d="M6.10059 269.073L43.7681 268.89L81.4356 268.831L156.771 268.707L232.106 268.831L269.773 268.89L307.441 269.073L269.773 269.249L232.106 269.315L156.771 269.44L81.4356 269.315L43.7681 269.249L6.10059 269.073Z" fill="#263238"/>
<path d="M156.771 300C225.671 300 281.525 294.774 281.525 288.328C281.525 281.882 225.671 276.656 156.771 276.656C87.8703 276.656 32.0156 281.882 32.0156 288.328C32.0156 294.774 87.8703 300 156.771 300Z" fill="#EBEBEB"/>
<path opacity="0.5" d="M226.794 80.8747C226.794 80.8747 236.319 72.2144 233.065 65.862C228.486 57.0038 209.37 63.8397 205.348 48.5485C202.314 36.9867 211.986 27.6449 204.674 18.6695C199.765 12.6101 178.077 14.2733 178.077 14.2733C192.05 3.36361 212.352 -1.11312 224.5 8.99799C235.417 18.054 230.486 31.8505 235.212 38.7232C241.916 48.4679 257.295 48.7903 257.024 61.627C256.709 76.5006 237.359 80.0981 236.026 81.9811L226.794 80.8747Z" fill="#133551"/>
<path d="M258.255 64.9314L255.493 65.4443L254.87 68.3604L254.255 65.4443L251.485 64.9314L254.24 64.2574L254.87 61.4951L255.5 64.2574L258.255 64.9314Z" fill="white"/>
<path d="M224.691 46.1673L221.921 46.6802L221.306 49.5962L220.69 46.6802L217.921 46.1673L220.676 45.4932L221.306 42.7383L221.936 45.4932L224.691 46.1673Z" fill="white"/>
<path d="M231.058 37.3677L229.512 37.6535L229.16 39.2873L228.816 37.6535L227.27 37.3677L228.809 36.9867L229.16 35.4481L229.519 36.9867L231.058 37.3677Z" fill="white"/>
<path d="M209.173 29.9236L207.627 30.2093L207.282 31.8359L206.93 30.2093L205.385 29.9236L206.923 29.5426L207.282 28.0039L207.634 29.5426L209.173 29.9236Z" fill="white"/>
<path d="M241.462 75.211L239.916 75.4968L239.564 77.1307L239.22 75.4968L237.674 75.211L239.213 74.8374L239.564 73.2914L239.923 74.8374L241.462 75.211Z" fill="white"/>
<path d="M220.837 5.42245L219.291 5.7082L218.939 7.34209L218.595 5.7082L217.049 5.42245L218.587 5.04878L218.939 3.51013L219.291 5.04878L220.837 5.42245Z" fill="white"/>
<path d="M248.62 58.3373C248.511 58.3513 248.41 58.4048 248.337 58.4877C248.264 58.5707 248.224 58.6774 248.224 58.7879C248.224 58.8984 248.264 59.0051 248.337 59.0881C248.41 59.171 248.511 59.2245 248.62 59.2385C248.73 59.2245 248.831 59.171 248.904 59.0881C248.977 59.0051 249.017 58.8984 249.017 58.7879C249.017 58.6774 248.977 58.5707 248.904 58.4877C248.831 58.4048 248.73 58.3513 248.62 58.3373Z" fill="white"/>
<path d="M196.519 4.97552C196.409 4.98953 196.308 5.04301 196.235 5.12596C196.162 5.2089 196.122 5.31562 196.122 5.42613C196.122 5.53663 196.162 5.64335 196.235 5.7263C196.308 5.80924 196.409 5.86273 196.519 5.87673C196.628 5.86273 196.729 5.80924 196.802 5.7263C196.875 5.64335 196.915 5.53663 196.915 5.42613C196.915 5.31562 196.875 5.2089 196.802 5.12596C196.729 5.04301 196.628 4.98953 196.519 4.97552Z" fill="white"/>
<path d="M210.425 18.838C210.307 18.838 210.193 18.8851 210.109 18.9689C210.026 19.0527 209.979 19.1664 209.979 19.2849C209.979 19.4035 210.026 19.5172 210.109 19.601C210.193 19.6848 210.307 19.7319 210.425 19.7319C210.544 19.7319 210.658 19.6848 210.742 19.601C210.825 19.5172 210.872 19.4035 210.872 19.2849C210.872 19.1664 210.825 19.0527 210.742 18.9689C210.658 18.8851 210.544 18.838 210.425 18.838Z" fill="white"/>
<path d="M188.093 10.6099C188.01 10.6099 187.929 10.6431 187.87 10.7022C187.811 10.7613 187.778 10.8414 187.778 10.925C187.778 11.0085 187.811 11.0887 187.87 11.1478C187.929 11.2068 188.01 11.24 188.093 11.24C188.177 11.24 188.257 11.2068 188.316 11.1478C188.375 11.0887 188.408 11.0085 188.408 10.925C188.408 10.8414 188.375 10.7613 188.316 10.7022C188.257 10.6431 188.177 10.6099 188.093 10.6099Z" fill="white"/>
<path d="M231.138 55.8021C231.062 55.8137 230.993 55.8522 230.942 55.9107C230.892 55.9692 230.865 56.0437 230.865 56.1208C230.865 56.1979 230.892 56.2725 230.942 56.331C230.993 56.3894 231.062 56.428 231.138 56.4396C231.215 56.428 231.284 56.3894 231.334 56.331C231.385 56.2725 231.412 56.1979 231.412 56.1208C231.412 56.0437 231.385 55.9692 231.334 55.9107C231.284 55.8522 231.215 55.8137 231.138 55.8021Z" fill="white"/>
<path d="M206.681 45.8522C206.598 45.8522 206.518 45.8854 206.458 45.9445C206.399 46.0036 206.366 46.0837 206.366 46.1673C206.366 46.2508 206.399 46.331 206.458 46.3901C206.518 46.4492 206.598 46.4823 206.681 46.4823C206.765 46.4823 206.845 46.4492 206.904 46.3901C206.963 46.331 206.996 46.2508 206.996 46.1673C206.996 46.0837 206.963 46.0036 206.904 45.9445C206.845 45.8854 206.765 45.8522 206.681 45.8522Z" fill="white"/>
<path d="M250.298 51.5452C250.084 51.565 249.884 51.6643 249.739 51.8236C249.594 51.9828 249.513 52.1906 249.513 52.4061C249.513 52.6217 249.594 52.8294 249.739 52.9887C249.884 53.148 250.084 53.2472 250.298 53.267C250.513 53.2472 250.713 53.148 250.858 52.9887C251.003 52.8294 251.084 52.6217 251.084 52.4061C251.084 52.1906 251.003 51.9828 250.858 51.8236C250.713 51.6643 250.513 51.565 250.298 51.5452Z" fill="white"/>
<path d="M215.034 50.688C214.819 50.7078 214.62 50.8071 214.475 50.9663C214.33 51.1256 214.249 51.3334 214.249 51.5489C214.249 51.7644 214.33 51.9722 214.475 52.1315C214.62 52.2907 214.819 52.39 215.034 52.4098C215.249 52.39 215.448 52.2907 215.593 52.1315C215.739 51.9722 215.819 51.7644 215.819 51.5489C215.819 51.3334 215.739 51.1256 215.593 50.9663C215.448 50.8071 215.249 50.7078 215.034 50.688Z" fill="white"/>
<path d="M113.791 171.215C117.513 173.562 121.478 175.498 125.617 176.989C118.949 167.947 119.023 146.765 119.909 149.74C124.181 163.969 135.098 179.246 139.032 179.824C139.032 179.824 139.076 179.824 139.098 179.824C149.627 180.506 159.027 177.531 166.816 173.23C166.822 173.216 166.822 173.2 166.816 173.186C158.236 163.009 157.679 141.49 158.28 142.772C164.808 156.496 177.425 164.072 179.528 163.947C187.119 156.899 191.009 150.026 189.859 149.432C181.484 144.934 174.004 132.639 167.146 119.583C160.39 106.717 155.884 87.2565 146.63 75.9291C138.197 65.5616 122.166 64.3233 113.374 70.2727C90.3818 85.879 108.589 167.977 113.791 171.215Z" fill="#263238"/>
<path d="M115.007 69.2983C113.051 70.2935 111.32 71.6801 109.922 73.372C108.541 74.985 107.315 76.7242 106.259 78.5668C104.296 82.21 102.759 86.0674 101.68 90.0627C99.4596 97.9464 99.6941 113.186 99.8479 121.246C100.148 129.315 101.226 137.335 103.064 145.198C103.489 147.168 104.054 149.11 104.53 151.059L106.215 156.884L108.142 162.635L110.267 168.328L108.538 162.533L106.948 156.671L105.482 150.81C105.065 148.846 104.574 146.905 104.215 144.948C102.567 137.117 101.609 129.157 101.35 121.158C101.057 113.186 100.866 98.0783 102.815 90.2458C103.762 86.296 105.148 82.4646 106.948 78.8232C107.885 76.971 108.997 75.2119 110.267 73.5698C110.928 72.7405 111.648 71.9594 112.421 71.2326C113.189 70.4711 114.06 69.8202 115.007 69.2983Z" fill="#263238"/>
<path d="M190.76 147.198C188.176 144.643 185.731 141.953 183.433 139.138C181.111 136.376 178.912 133.54 176.876 130.61C174.839 127.679 172.897 124.704 171.175 121.627C169.453 118.55 167.849 115.384 166.178 112.263C162.757 106.043 158.5 92.7297 154.668 86.685C152.734 83.6736 150.733 80.6916 148.513 77.8341C147.384 76.4 146.176 75.0302 144.894 73.731C143.624 72.3453 142.083 71.2355 140.366 70.4706C141.983 71.3551 143.416 72.5415 144.586 73.9655C145.77 75.3136 146.873 76.7301 147.89 78.2078C149.964 81.1385 151.84 84.1352 153.635 87.1905C157.24 93.3085 161.496 106.592 164.801 112.835C166.523 115.941 168.157 119.07 169.93 122.169C171.724 125.286 173.711 128.289 175.879 131.159C180.243 137.029 185.233 142.407 190.76 147.198Z" fill="#263238"/>
<path d="M130.694 145.732C144.93 159.302 171.351 179.612 182.312 182.77C194.497 186.279 218.734 156.767 234.663 138.721C237.828 135.13 211.502 108.805 208.286 112.805C199.999 123.268 183.309 146.89 180.305 147.015C177.843 147.139 154.316 138.662 141.091 133.724C120.041 125.869 120.678 136.178 130.694 145.732Z" fill="#D3766A"/>
<path d="M201.934 119.378L228.201 150.7C228.201 150.7 198.285 184.169 186.225 184.308C174.165 184.448 141.267 157.675 130.731 146.524C120.195 135.372 121.506 127.166 137.486 132.258C153.466 137.35 178.217 145.703 180.437 145.183C182.657 144.663 201.934 119.378 201.934 119.378Z" fill="#EBEBEB"/>
<path d="M219.049 157.748C210.176 143.732 198.724 130.353 196.893 127.877C196.805 127.759 196.629 127.877 196.724 128.023C198.644 130.361 210.074 147.073 218.859 157.917C218.99 158.041 219.166 157.88 219.049 157.748Z" fill="#263238"/>
<path d="M196.753 179.898C192.79 182.535 189.097 184.294 186.225 184.294C174.165 184.44 141.26 157.661 130.731 146.516C126.225 141.739 123.888 137.512 123.939 134.617C141.384 145.535 182.041 170.783 196.753 179.898Z" fill="#C7C7C7"/>
<path d="M225.812 148.817L202.366 120.535C202.703 119.722 204.564 117.795 206.205 115.143C206.205 115.143 209.832 105.698 209.868 96.4884C209.868 88.7585 209.048 77.2699 213.202 77.1307C219.269 76.9109 222.082 91.3009 223.196 99.6609C226.859 96.906 230.274 94.8765 232.721 94.4222C240.781 92.9128 252.057 127.957 246.642 134.266C241.359 140.347 230.332 148.275 225.812 148.817Z" fill="#D3766A"/>
<g opacity="0.7">
<path opacity="0.7" d="M249.639 152.143C249.073 156.98 247.165 161.563 244.132 165.373C241.098 169.183 237.06 172.068 232.473 173.704C227.886 175.339 222.932 175.66 218.173 174.628C213.413 173.597 209.037 171.255 205.538 167.867C202.04 164.479 199.558 160.181 198.374 155.457C197.19 150.733 197.35 145.772 198.837 141.135C200.324 136.497 203.078 132.368 206.788 129.213C210.499 126.059 215.017 124.004 219.833 123.283L224.31 84.7946L222.215 84.5528L222.691 80.4351L240.466 82.5086L239.99 86.6263L237.887 86.3845L233.403 124.909C238.723 127.038 243.195 130.857 246.129 135.779C249.063 140.701 250.297 146.451 249.639 152.143Z" fill="white"/>
<path opacity="0.7" d="M249.639 152.143C249.072 156.98 247.172 161.564 244.151 165.383L243.594 166.116C243.396 166.35 243.184 166.563 242.971 166.782C242.554 167.222 242.151 167.676 241.719 168.094C240.834 168.923 239.896 169.694 238.912 170.402C237.927 171.109 236.899 171.755 235.835 172.336C235.293 172.607 234.736 172.849 234.186 173.106C233.908 173.23 233.637 173.369 233.359 173.479L232.494 173.78C230.209 174.604 227.818 175.097 225.394 175.245L223.577 175.311C222.969 175.311 222.368 175.252 221.76 175.223C220.547 175.139 219.34 174.978 218.148 174.739C213.366 173.702 208.967 171.356 205.443 167.962L204.776 167.332L204.176 166.651C203.78 166.189 203.355 165.749 202.981 165.266C202.24 164.315 201.562 163.317 200.952 162.276C200.337 161.226 199.792 160.137 199.318 159.016C199.098 158.444 198.908 157.866 198.702 157.294C198.607 157.008 198.497 156.723 198.409 156.43L198.197 155.543C196.983 150.777 197.126 145.766 198.61 141.076C200.093 136.387 202.859 132.206 206.593 129.005C210.349 125.815 214.913 123.723 219.782 122.96L219.503 123.246C220.236 116.828 220.969 110.409 221.701 103.998L224.002 84.7653L224.259 85.0877L222.163 84.8386H221.877V84.5528L222.368 80.4278V80.1567H222.647L240.414 82.2815H240.634V82.5013L240.143 86.6263V86.8388H239.931L237.828 86.5897L238.055 86.4138L233.498 124.909L233.439 124.807C238.766 126.959 243.238 130.803 246.165 135.747C249.092 140.691 250.313 146.46 249.639 152.165V152.143ZM249.639 152.143C250.287 146.455 249.044 140.712 246.103 135.801C243.162 130.889 238.686 127.082 233.366 124.968H233.293V124.895L237.689 86.3919V86.1867H237.894L240.004 86.4212L239.762 86.6117L240.231 82.4866L240.429 82.7357L222.647 80.7135L222.954 80.4717L222.485 84.5968L222.236 84.2744L224.332 84.5089L224.625 84.5455L224.588 84.8386L222.39 104.086C221.658 110.505 220.888 116.916 220.126 123.334V123.576L219.877 123.62C215.121 124.349 210.658 126.377 206.982 129.481C203.3 132.596 200.563 136.678 199.08 141.267C197.598 145.856 197.429 150.768 198.592 155.448L198.798 156.32C198.878 156.613 198.988 156.891 199.083 157.177C199.281 157.741 199.464 158.313 199.677 158.877C200.137 159.986 200.67 161.063 201.274 162.101C201.867 163.146 202.53 164.15 203.26 165.105C203.626 165.581 204.036 166.02 204.425 166.475L205.018 167.156L205.67 167.779C209.137 171.156 213.475 173.5 218.199 174.549C219.379 174.791 220.573 174.958 221.775 175.047C222.376 175.047 222.976 175.15 223.577 175.15L225.387 175.091C227.797 174.943 230.173 174.449 232.443 173.626L233.3 173.333C233.578 173.223 233.849 173.084 234.121 172.966C234.67 172.71 235.227 172.475 235.769 172.234C236.831 171.663 237.856 171.027 238.839 170.329C239.823 169.631 240.76 168.87 241.645 168.05C242.085 167.632 242.488 167.185 242.905 166.753C243.111 166.533 243.33 166.321 243.528 166.094L244.085 165.361C247.129 161.557 249.052 156.98 249.639 152.143Z" fill="#263238"/>
</g>
<path d="M244.979 151.601C244.609 154.768 243.536 157.813 241.84 160.512C240.143 163.212 237.865 165.499 235.172 167.206C232.479 168.914 229.439 169.999 226.274 170.382C223.108 170.765 219.897 170.436 216.875 169.42C213.852 168.405 211.095 166.727 208.803 164.51C206.512 162.293 204.744 159.592 203.629 156.605C202.514 153.617 202.08 150.419 202.358 147.243C202.637 144.066 203.62 140.992 205.238 138.244C209.293 140.532 213.663 142.211 218.207 143.227C227.292 145.278 234.575 140.963 242.708 139.211C244.692 143.019 245.484 147.337 244.979 151.601Z" fill="#133551"/>
<path d="M202.417 146.641C202.417 146.641 203.531 131.855 219.108 128.639L202.417 146.641Z" fill="white"/>
<path d="M220.764 99.2212C220.031 103.412 225.402 101.844 225.402 101.844C225.402 101.844 218.251 105.955 219.196 110.563C220.112 114.996 226.523 112.871 226.962 112.761C226.589 112.988 220.112 116.938 221.54 121.466C223.006 126.17 229.072 122.931 229.461 122.726C229.175 123.048 225.409 127.342 227.263 130.536C230.464 136.024 240.392 125.305 245.536 125.327C245.536 125.327 246.503 134.053 246.584 134.302C246.584 134.302 256.233 124.294 255.867 117.348C255.835 116.333 255.453 115.36 254.785 114.594C254.117 113.829 253.205 113.318 252.203 113.15C252.203 113.15 255.669 110.263 254.658 106.665C254.138 104.819 250.716 104.006 250.716 104.006C250.716 104.006 253.398 101.588 252.299 98.4373C251.434 95.9241 248.137 95.5065 248.137 95.5065C248.137 95.5065 249.602 91.9823 247.91 89.7036C244.495 85.0584 222.28 90.2458 220.764 99.2212Z" fill="#D3766A"/>
<path d="M247.668 95.3234C247.741 95.3234 247.741 95.1989 247.668 95.1989C239.945 95.1256 231.439 97.3969 225.101 101.896C224.896 102.05 225.042 102.445 225.306 102.328C232.721 98.9502 239.564 96.5397 247.668 95.3234Z" fill="#263238"/>
<path d="M250.862 103.903C250.95 103.903 250.928 103.742 250.862 103.742C242.905 103.705 233.395 106.541 226.684 112.578C226.449 112.783 226.449 113.201 226.735 112.981C231.505 109.303 243.565 104.958 250.862 103.903Z" fill="#263238"/>
<path d="M229.138 123.275C235.784 117.729 243.536 114.879 251.918 113.084C252.028 113.084 251.976 112.915 251.881 112.908C247.544 112.666 242.319 114.373 238.37 116.029C234.669 117.5 231.42 119.918 228.948 123.041C228.853 123.166 228.999 123.393 229.138 123.275Z" fill="#263238"/>
<path d="M225.262 101.8C225.013 101.976 225.548 102.145 225.306 102.328C224.281 103.105 218.514 108.321 219.679 110.834C220.617 112.849 223.973 112.981 225.284 112.527L228.581 111.391L225.885 113.589C224.678 114.564 223.639 115.73 222.808 117.04C222.39 117.625 222.1 118.291 221.956 118.996C221.812 119.7 221.818 120.427 221.973 121.129C222.13 121.782 222.507 122.361 223.041 122.769C223.574 123.177 224.232 123.389 224.903 123.371C226.399 123.31 227.854 122.869 229.131 122.088L232.728 120.059L230.003 123.144C229.242 123.998 228.597 124.949 228.083 125.972C227.552 126.919 227.312 128.002 227.395 129.086C227.454 129.57 227.647 130.028 227.953 130.409C228.258 130.789 228.664 131.077 229.124 131.24C230.209 131.455 231.333 131.353 232.362 130.947C234.6 130.105 236.768 129.088 238.846 127.906C239.916 127.349 240.993 126.785 242.1 126.272C243.176 125.697 244.362 125.357 245.58 125.276C244.396 125.491 243.265 125.932 242.246 126.573C241.198 127.159 240.173 127.803 239.147 128.441C237.104 129.789 234.941 130.944 232.685 131.892C231.471 132.424 230.129 132.589 228.823 132.368C228.124 132.169 227.498 131.771 227.021 131.222C226.545 130.673 226.239 129.997 226.142 129.276C225.996 127.938 226.251 126.586 226.874 125.393C227.431 124.246 228.136 123.177 228.97 122.213L229.842 123.261C228.346 124.209 226.629 124.75 224.859 124.829C223.879 124.842 222.924 124.516 222.156 123.906C221.423 123.28 220.897 122.447 220.646 121.517C220.445 120.63 220.434 119.71 220.615 118.818C220.795 117.926 221.163 117.083 221.694 116.344C222.631 114.917 223.794 113.652 225.138 112.6L225.739 113.677C224.053 114.197 220.287 114.461 218.412 111.516C216.58 107.325 223.87 102.577 225.262 101.8Z" fill="#263238"/>
<path d="M225.402 101.844C224.529 101.924 223.649 101.869 222.793 101.683C222.449 101.616 222.128 101.458 221.864 101.226C221.6 100.995 221.403 100.697 221.291 100.364C221.151 99.5984 221.24 98.8083 221.548 98.0929C221.833 97.287 222.185 96.4517 222.573 95.6091C221.808 96.1688 221.169 96.8827 220.698 97.7046C220.127 98.5922 219.93 99.669 220.148 100.701C220.33 101.249 220.672 101.729 221.13 102.079C221.579 102.386 222.103 102.565 222.647 102.599C223.622 102.646 224.587 102.382 225.402 101.844Z" fill="#263238"/>
<path d="M95.1443 210.92C95.1443 210.92 96.1847 222.687 97.7307 239.714C97.7746 240.205 97.8186 240.703 97.8699 241.18C98.6026 249.54 99.4891 259.065 100.398 269.022H153.884C150.052 239.048 146.74 213.228 146.454 211.03V210.868L95.1443 210.92Z" fill="#37474F"/>
<path d="M102.639 217.66C102.967 221.778 103.311 225.896 103.673 230.014C103.775 231.208 103.892 232.395 103.995 233.582V233.618C105.028 245.437 106.12 257.262 107.336 269.066H108.105C106.801 256.918 105.585 244.763 104.354 232.593C104.222 231.274 104.09 229.962 103.951 228.636C103.585 224.973 103.218 221.353 102.837 217.704C102.815 217.536 102.625 217.536 102.639 217.66Z" fill="#263238"/>
<path d="M82.6592 210.92C82.6592 210.92 85.099 224.724 88.5207 244.059C88.5866 244.367 88.6379 244.675 88.6965 245.004C90.008 252.397 91.4514 260.567 92.9608 269.059H130.218L131.068 263.454L131.229 262.354L131.273 262.069L131.889 257.951L132.13 256.412L139.04 210.92H82.6592Z" fill="#263238"/>
<path d="M68.3276 269.073H118.934C118.934 268.853 118.934 268.685 118.934 268.546C118.934 268.406 118.934 268.201 118.934 268.201C119.22 268.047 119.499 267.886 119.784 267.74C122.759 266.12 125.375 264.86 127.522 263.9L128.584 263.424C129.558 262.999 130.43 262.648 131.156 262.362C133.017 261.629 134.086 261.299 134.086 261.299C134.145 261.138 134.204 260.992 134.255 260.838C141.582 242.169 145.978 213.726 146.418 211.081V210.876H74.1965C74.1965 210.876 71.4416 237.634 68.3276 269.073Z" fill="#37474F"/>
<path d="M75.4421 269.073H76.1162C77.4424 252.317 78.6733 235.553 79.9555 218.796C79.9555 218.518 79.5525 218.518 79.5379 218.796C78.1799 235.55 76.8147 252.309 75.4421 269.073Z" fill="#263238"/>
<path d="M136.702 259.959C130.574 262.188 124.651 264.946 119 268.201C118.781 268.326 118.927 268.67 119.162 268.568C125.126 266.011 131.207 263.556 137.025 260.669C137.119 260.627 137.192 260.548 137.229 260.451C137.265 260.354 137.262 260.247 137.219 260.153C137.176 260.058 137.098 259.985 137.001 259.949C136.904 259.912 136.796 259.916 136.702 259.959Z" fill="#263238"/>
<path d="M138.6 219.038C138.6 218.833 138.219 218.789 138.219 219.038C138.22 225.693 137.888 232.345 137.222 238.967C136.944 242.037 134.475 259.013 129.163 257.775C128.269 257.57 127.815 256.691 127.697 255.343C127.529 253.731 128.137 251.745 128.43 250.14C129.023 246.587 129.5 243.019 129.8 239.429C130.422 232.745 130.351 226.015 129.588 219.346C129.579 219.306 129.558 219.27 129.526 219.245C129.495 219.219 129.456 219.205 129.415 219.205C129.375 219.205 129.336 219.219 129.304 219.245C129.273 219.27 129.251 219.306 129.243 219.346C129.243 228.621 129.009 237.883 127.624 247.07C126.957 251.467 124.73 258.134 129.346 258.794C133.962 259.453 137.098 248.353 137.669 245.305C139.186 236.813 139.266 227.64 138.6 219.038Z" fill="#263238"/>
<path d="M129.287 258.2C128.814 259.345 128.415 260.52 128.093 261.717C127.748 262.642 127.579 263.624 127.595 264.611C127.595 264.802 127.859 264.816 127.961 264.692C128.512 263.821 128.93 262.873 129.199 261.878C129.602 260.786 130.035 259.68 130.408 258.61C130.443 258.467 130.423 258.316 130.354 258.186C130.284 258.056 130.169 257.956 130.031 257.905C129.892 257.855 129.74 257.857 129.603 257.911C129.466 257.965 129.354 258.068 129.287 258.2Z" fill="#263238"/>
<path d="M105.189 224.592C105.199 223.853 105.123 223.115 104.962 222.394C104.954 222.371 104.939 222.352 104.919 222.338C104.9 222.324 104.876 222.317 104.852 222.317C104.828 222.317 104.805 222.324 104.785 222.338C104.766 222.352 104.751 222.371 104.742 222.394C104.593 223.018 104.51 223.657 104.493 224.299C104.42 225.031 104.325 225.764 104.244 226.497C104.088 227.99 103.829 229.472 103.468 230.929C102.796 233.693 101.391 236.224 99.4012 238.256C97.4251 240.2 95.0879 241.738 92.5212 242.784C89.6564 243.993 86.6597 244.448 83.6923 245.319C83.5678 245.319 83.6044 245.532 83.729 245.532C86.9952 245.526 90.2295 244.89 93.2539 243.656C95.9403 242.647 98.386 241.087 100.434 239.077C102.489 237 103.936 234.4 104.618 231.56C104.95 230.099 105.142 228.609 105.189 227.112C105.238 226.273 105.238 225.431 105.189 224.592Z" fill="#263238"/>
<path d="M153.144 224.687L147.033 190.683C147.033 190.683 153.473 180.828 152.536 169.186C151.854 160.716 133.486 131.086 131.954 129.62C125.697 123.759 115.146 126.111 110.816 129.386C86.8207 147.527 77.7061 186.455 69.5806 224.687H153.144Z" fill="#133551"/>
<path d="M124.268 187.525C127.723 187.322 131.189 187.376 134.636 187.686C136.343 187.862 138.036 188.118 139.765 188.419C140.607 188.565 141.45 188.683 142.3 188.792C143.186 188.936 144.087 188.971 144.981 188.895C144.994 188.9 145.006 188.908 145.014 188.919C145.021 188.93 145.026 188.944 145.026 188.957C145.026 188.971 145.021 188.984 145.014 188.996C145.006 189.007 144.994 189.015 144.981 189.02C144.152 189.184 143.312 189.295 142.468 189.349C141.647 189.369 140.824 189.337 140.006 189.254C138.263 189.086 136.534 188.844 134.804 188.661C131.302 188.302 127.8 187.928 124.276 187.825C124.1 187.811 124.1 187.532 124.268 187.525Z" fill="#263238"/>
<path d="M116.289 191.804C119.053 191.08 121.857 190.518 124.686 190.119C126.1 189.921 127.514 189.811 128.943 189.738C129.624 189.701 130.306 189.679 130.987 189.664C131.669 189.65 132.489 189.738 133.244 189.708C133.317 189.708 133.339 189.826 133.244 189.833C132.511 189.877 131.837 190.045 131.134 190.133L129.016 190.39C127.602 190.566 126.188 190.756 124.774 190.917C121.939 191.24 119.125 191.591 116.304 192.016C116.165 192.06 116.143 191.84 116.289 191.804Z" fill="#263238"/>
<path d="M133.2 130.903L141.487 169.398L148.967 269.044H166.061C166.061 269.044 148.367 188.88 148.433 188.236C148.498 187.591 156.228 179.099 154.067 167.464C151.905 155.829 134.695 131.965 133.2 130.903Z" fill="#EBEBEB"/>
<path d="M135.002 134.002C135.801 135.98 136.621 137.951 137.449 139.915C138.277 141.878 139.091 143.857 139.933 145.813C141.609 149.721 143.318 153.628 145.062 157.536L145.231 156.803C143.377 158.313 139.625 161.778 139.625 161.778L146.278 170.849C146.278 170.849 145.685 198.398 145.472 200.889C145.963 198.427 147.399 170.556 147.399 170.556L140.805 161.566L140.637 162.438C142.454 160.892 144.256 159.338 146.051 157.756L146.41 157.433L146.212 157.008C144.405 153.15 142.571 149.3 140.71 145.461C139.787 143.534 138.834 141.629 137.889 139.717C136.944 137.805 135.984 135.9 135.002 134.002Z" fill="#DBDBDB"/>
<path d="M117.257 130.192C117.689 131.716 124.584 140.604 131.588 139.937C133.867 139.717 134.131 127.935 134.131 127.935L134.292 127.005L136.556 113.919L120.869 104.914L118.671 103.735C118.671 103.735 118.283 107.354 117.85 111.86C117.85 112.065 117.806 112.278 117.784 112.505C117.762 112.732 117.726 112.996 117.704 113.238C117.63 113.904 117.557 114.593 117.506 115.282C117.455 115.802 117.411 116.308 117.381 116.857C117.352 117.407 117.308 117.949 117.264 118.498C116.934 123.935 117.081 129.547 117.257 130.192Z" fill="#D3766A"/>
<path d="M117.821 111.86C119.302 115.429 121.543 118.632 124.387 121.248C127.232 123.863 130.612 125.828 134.292 127.005L136.556 113.919L120.869 104.914L118.671 103.735C118.671 103.735 118.253 107.325 117.821 111.86Z" fill="#263238"/>
<path d="M153.671 90.8613C158.58 113.619 145.502 119.128 140.593 120.169C136.138 121.129 120.81 123.832 113.608 101.683C106.405 79.534 115.403 70.075 125.477 67.3494C135.552 64.6238 148.762 68.0967 153.671 90.8613Z" fill="#D3766A"/>
<path d="M148.711 87.5422C148.174 87.5347 147.639 87.4981 147.106 87.4323C146.538 87.4751 145.971 87.3283 145.494 87.0146C145.361 86.888 145.274 86.7202 145.247 86.5381C145.221 86.3561 145.256 86.1704 145.348 86.0109C145.577 85.7289 145.877 85.5127 146.216 85.384C146.556 85.2553 146.924 85.2188 147.282 85.2782C148.034 85.2802 148.757 85.5623 149.312 86.0695C149.421 86.1933 149.494 86.3454 149.522 86.5086C149.55 86.6717 149.532 86.8394 149.469 86.9927C149.407 87.146 149.303 87.2787 149.169 87.3758C149.035 87.4729 148.876 87.5305 148.711 87.5422Z" fill="#263238"/>
<path d="M133.435 93.4038C133.962 93.2646 134.431 93.0448 134.944 92.8543C135.501 92.7319 136.003 92.4309 136.373 91.997C136.463 91.8376 136.498 91.653 136.473 91.4716C136.448 91.2902 136.364 91.1222 136.233 90.9932C135.935 90.7812 135.586 90.6525 135.222 90.6203C134.857 90.5881 134.491 90.6536 134.16 90.8101C133.441 91.0186 132.827 91.4892 132.438 92.1289C132.358 92.2801 132.324 92.4512 132.339 92.6216C132.354 92.7919 132.418 92.9543 132.524 93.089C132.629 93.2238 132.771 93.3252 132.933 93.3811C133.094 93.4369 133.269 93.4448 133.435 93.4038Z" fill="#263238"/>
<path d="M137.34 96.2539C137.34 96.2026 137.23 96.3492 137.237 96.4151C137.552 97.9684 137.647 99.8001 136.321 100.562C136.277 100.562 136.321 100.657 136.321 100.643C138.028 100.115 137.882 97.6826 137.34 96.2539Z" fill="#263238"/>
<path d="M135.669 94.8691C133.119 95.1036 133.764 100.181 136.131 99.9979C138.497 99.8148 137.801 94.664 135.669 94.8691Z" fill="#263238"/>
<path d="M134.702 95.2501C134.299 95.5945 133.925 96.1586 133.398 96.2832C132.87 96.4077 132.255 95.9462 131.786 95.4919C131.735 95.4406 131.698 95.4919 131.705 95.5578C131.815 96.5323 132.313 97.4848 133.376 97.4921C134.438 97.4995 134.922 96.5543 135.039 95.5505C135.061 95.36 134.871 95.1109 134.702 95.2501Z" fill="#263238"/>
<path d="M146.095 94.2243C146.095 94.1657 146.227 94.2903 146.227 94.3562C146.286 95.9461 146.623 97.7485 148.088 98.1735C148.14 98.1735 148.14 98.2688 148.088 98.2614C146.323 98.1369 145.898 95.741 146.095 94.2243Z" fill="#263238"/>
<path d="M147.4 92.4805C149.927 92.1069 150.477 97.199 148.132 97.5361C145.788 97.8731 145.275 92.7883 147.4 92.4805Z" fill="#263238"/>
<path d="M148.425 92.6711C148.902 92.9055 149.393 93.3671 149.935 93.3598C150.477 93.3525 150.968 92.7736 151.32 92.2168C151.356 92.1582 151.408 92.2168 151.415 92.2681C151.532 93.2425 151.268 94.283 150.235 94.5394C149.202 94.7959 148.521 93.9899 148.169 93.0301C148.103 92.8249 148.235 92.5392 148.425 92.6711Z" fill="#263238"/>
<path d="M139.062 108.424C139.472 108.761 139.889 109.237 140.468 109.244C141.057 109.185 141.627 109 142.139 108.702C142.15 108.698 142.162 108.697 142.173 108.7C142.185 108.703 142.195 108.709 142.203 108.718C142.211 108.726 142.216 108.737 142.217 108.749C142.219 108.761 142.217 108.772 142.212 108.783C142.011 109.111 141.725 109.379 141.385 109.558C141.044 109.737 140.662 109.821 140.278 109.801C139.948 109.744 139.642 109.591 139.4 109.36C139.157 109.129 138.988 108.831 138.915 108.504C138.886 108.417 139.003 108.373 139.062 108.424Z" fill="#263238"/>
<path d="M144.835 101.83C144.835 101.83 145.487 104.13 145.641 105.237C145.641 105.339 145.399 105.427 145.026 105.5C145.026 105.5 145.026 105.5 144.982 105.5C144.055 105.806 143.063 105.851 142.113 105.63C141.163 105.409 140.293 104.931 139.596 104.248C139.508 104.152 139.633 104.02 139.743 104.072C141.285 104.851 143.039 105.108 144.74 104.804C144.74 104.482 143.487 100.899 143.663 100.863C144.533 100.818 145.406 100.892 146.257 101.082C145.04 96.2539 143.055 91.6526 141.912 86.8242C141.875 86.6557 142.124 86.5678 142.19 86.7143C144.615 91.3889 146.132 96.9134 147.524 101.866C147.7 102.467 145.304 101.954 144.835 101.83Z" fill="#263238"/>
<path d="M112.304 101.119C116.26 101.427 117.169 93.1253 117.169 93.1253C117.169 93.1253 125.228 93.1253 127.859 81.5928C127.627 85.0461 126.392 88.3566 124.305 91.1177C124.305 91.1177 138.483 89.6523 144.447 77.7535C144.447 77.7535 142.066 83.7982 139.838 85.9449C139.838 85.9449 145.78 84.2891 148.682 79.4606C148.682 79.4606 151.166 86.304 153.078 88.1943C153.078 88.1943 152.499 63.3928 129.515 66.0305C129.515 66.0305 115.125 66.983 109.959 78.3763C104.794 89.7696 112.304 101.119 112.304 101.119Z" fill="#263238"/>
<path d="M125.756 92.715C125.756 92.715 111.945 95.3526 109.336 97.5947C108.267 98.5179 109.468 103.529 110.34 104.145C110.89 104.533 118.4 101.156 126.459 100.057C126.467 100.057 124.979 95.8729 125.756 92.715Z" fill="#455A64"/>
<path opacity="0.2" d="M154.133 98.3934C153.96 98.6644 153.767 98.9216 153.554 99.1627C152.704 100.108 151.583 100.547 149.685 100.064C148.447 99.7489 147.487 98.5399 145.465 98.7671C144.208 98.8607 143.001 99.2993 141.978 100.035C141.307 100.508 140.666 101.022 140.058 101.573C139.904 101.698 139.75 101.837 139.596 101.976C139.457 102.108 139.308 102.228 139.149 102.335C138.917 102.509 138.672 102.666 138.417 102.804C135.42 104.409 130.452 104.475 128.547 103.061C126.804 101.771 125.477 97.9977 125.683 94.3563C125.717 93.5742 125.835 92.7981 126.034 92.041C126.228 91.2966 126.516 90.5801 126.892 89.9088C126.965 89.7843 127.031 89.6671 127.104 89.5572C127.317 89.2394 127.563 88.9447 127.837 88.6779C129.646 86.8096 133.134 85.3076 136.922 84.399L138.087 84.1499C138.93 83.9741 139.78 83.8349 140.622 83.725C141.597 83.6004 142.571 83.5125 143.509 83.4832C146.835 83.3513 149.759 83.8202 151.297 85.0511C152.383 85.9912 153.195 87.2059 153.649 88.568C153.896 89.2175 154.096 89.8835 154.25 90.5609C154.738 92.724 154.842 94.956 154.558 97.1551C154.491 97.5898 154.347 98.009 154.133 98.3934Z" fill="white"/>
<g opacity="0.2">
<path opacity="0.2" d="M154.133 98.3933C153.96 98.6644 153.767 98.9216 153.554 99.1627L145.78 95.2501C145.532 95.1276 145.339 94.9171 145.238 94.6598C145.136 94.4024 145.134 94.1166 145.232 93.8579C145.33 93.5992 145.521 93.3861 145.767 93.2602C146.013 93.1343 146.297 93.1045 146.564 93.1766C146.64 93.1944 146.713 93.2189 146.784 93.2499L154.551 97.1478C154.486 97.5845 154.345 98.0063 154.133 98.3933Z" fill="white"/>
<path opacity="0.2" d="M141.978 100.035C141.307 100.508 140.666 101.022 140.058 101.573L125.668 94.3563C125.703 93.5742 125.821 92.7981 126.02 92.041L141.978 100.035Z" fill="white"/>
<path opacity="0.2" d="M137.471 94.3709C137.398 94.5273 137.272 94.6528 137.115 94.7252C136.958 94.7975 136.781 94.8122 136.614 94.7665C136.561 94.7535 136.509 94.7338 136.46 94.7079L126.877 89.9088C126.95 89.7842 127.016 89.667 127.089 89.5571C127.302 89.2393 127.548 88.9447 127.822 88.6779L137.156 93.3597C137.245 93.4038 137.324 93.4653 137.388 93.5406C137.452 93.6159 137.5 93.7035 137.53 93.798C137.559 93.8925 137.569 93.9919 137.559 94.0904C137.549 94.1889 137.519 94.2843 137.471 94.3709Z" fill="white"/>
<path opacity="0.2" d="M154.213 90.5609L140.585 83.7249C141.56 83.6004 142.534 83.5125 143.472 83.4832L153.613 88.568C153.859 89.2175 154.06 89.8834 154.213 90.5609Z" fill="white"/>
<path opacity="0.2" d="M151.546 91.3376C151.507 91.4118 151.443 91.4708 151.366 91.5053C151.289 91.5398 151.203 91.5478 151.121 91.5281H151.041L136.885 84.4283L138.05 84.1792L151.378 90.8613C151.462 90.9039 151.526 90.9771 151.557 91.0658C151.589 91.1544 151.585 91.2517 151.546 91.3376Z" fill="white"/>
<path opacity="0.2" d="M139.186 102.335C138.954 102.509 138.709 102.666 138.453 102.804L131.126 99.1407C131.083 99.1182 131.043 99.0873 131.012 99.0497C130.98 99.0121 130.955 98.9685 130.941 98.9215C130.926 98.8745 130.92 98.825 130.924 98.7759C130.928 98.7267 130.942 98.6789 130.965 98.6351C131.002 98.5581 131.065 98.4966 131.143 98.4616C131.221 98.4267 131.308 98.4207 131.39 98.4447H131.471L139.186 102.335Z" fill="white"/>
</g>
<path d="M130.54 104.453C129.715 104.258 128.946 103.877 128.291 103.339C125.624 101.046 123.778 94.0045 126.774 89.3519C128.789 86.2307 134.834 84.2231 139.413 83.4904C143.648 82.809 149.048 82.7577 151.495 84.7433C155.532 87.9891 155.554 96.0047 154.485 98.5179C153.752 100.232 151.832 100.98 149.59 100.408C149.122 100.273 148.67 100.086 148.242 99.8514C147.405 99.3594 146.45 99.106 145.48 99.1187C143.604 99.2139 142.549 99.9613 139.838 102.247C138.545 103.275 137.042 104.005 135.435 104.386C133.828 104.767 132.157 104.79 130.54 104.453ZM127.404 89.7403C124.701 93.9386 126.298 100.613 128.782 102.753C131.046 104.709 136.387 104.167 139.362 101.668C141.992 99.4704 143.245 98.4739 145.443 98.364C146.542 98.3418 147.625 98.626 148.572 99.1846C148.954 99.392 149.357 99.559 149.773 99.6828C151.239 100.057 153.092 99.8733 153.796 98.2175C154.77 95.9242 154.734 88.2969 151.026 85.3148C149.143 83.7982 144.74 83.3805 139.53 84.2231C133.713 85.1683 128.95 87.3297 127.404 89.7329V89.7403Z" fill="#455A64"/>
<path d="M117.601 102.665C117.601 102.665 111.644 96.0707 108.604 98.3054C105.563 100.54 110.67 110.49 114.692 111.435C115.2 111.592 115.735 111.645 116.263 111.59C116.792 111.535 117.304 111.373 117.769 111.115C118.234 110.857 118.641 110.508 118.968 110.088C119.294 109.668 119.532 109.187 119.667 108.673L117.601 102.665Z" fill="#D3766A"/>
<path d="M110.142 101.126C110.131 101.13 110.122 101.138 110.115 101.148C110.108 101.158 110.104 101.169 110.104 101.181C110.104 101.193 110.108 101.205 110.115 101.215C110.122 101.224 110.131 101.232 110.142 101.236C112.971 101.969 114.707 104.299 116.004 106.768C115.081 105.874 113.916 105.464 112.707 106.585C112.641 106.643 112.707 106.746 112.795 106.717C113.249 106.506 113.757 106.442 114.249 106.532C114.741 106.623 115.193 106.864 115.542 107.222C116.126 107.824 116.641 108.487 117.081 109.2C117.242 109.428 117.66 109.244 117.528 108.981C117.531 108.959 117.531 108.937 117.528 108.915C117.147 105.478 113.872 101.009 110.142 101.126Z" fill="#263238"/>
<path d="M115.271 111.589C115.271 111.841 115.346 112.088 115.486 112.297C115.626 112.507 115.825 112.67 116.058 112.767C116.291 112.863 116.548 112.889 116.795 112.839C117.042 112.79 117.269 112.669 117.448 112.491C117.626 112.312 117.747 112.085 117.796 111.838C117.846 111.59 117.82 111.334 117.724 111.101C117.627 110.868 117.464 110.669 117.254 110.529C117.045 110.389 116.798 110.314 116.546 110.314C116.379 110.314 116.213 110.347 116.058 110.411C115.904 110.475 115.763 110.569 115.645 110.688C115.526 110.806 115.432 110.947 115.368 111.101C115.304 111.256 115.271 111.422 115.271 111.589Z" fill="white"/>
<path d="M134.057 129.181L133.435 135.673C133.134 142.78 132.204 145.622 130.672 145.732C125.639 146.077 117.777 132.947 117.235 130.192C116.693 127.437 134.057 129.181 134.057 129.181Z" fill="#D3766A"/>
<path d="M60.4514 269.073H128.423L116.964 126.675C116.964 126.675 114.524 126.507 108.465 130.705C101.995 135.182 95.4226 144.348 86.5351 163.566C66.0198 207.938 60.4514 269.073 60.4514 269.073Z" fill="#EBEBEB"/>
<path d="M114.59 142.413C112.311 149.74 92.675 197.87 85.5313 206.487C80.102 213.037 63.0304 221.463 58.4731 204.164C55.4397 192.639 90.3963 146.121 106.156 132.5C113.395 126.25 119.403 126.997 114.59 142.413Z" fill="#EBEBEB"/>
<path d="M69.7271 214.473C72.6407 214.325 75.4855 213.535 78.0577 212.158C80.622 210.826 82.9095 209.018 84.7985 206.831C85.7415 205.746 86.6058 204.596 87.3849 203.388C88.1615 202.171 88.8502 200.896 89.5829 199.622C90.953 197.057 92.2353 194.434 93.4735 191.789C96.0233 186.536 98.3825 181.195 100.8 175.861L107.922 159.822C106.948 162.584 105.885 165.31 104.852 168.05C103.819 170.79 102.654 173.479 101.577 176.19C99.3448 181.602 96.9831 186.961 94.4919 192.265C93.2171 194.903 91.8982 197.519 90.4841 200.098C89.7514 201.38 89.0187 202.662 88.2274 203.901C87.4176 205.149 86.4955 206.322 85.4725 207.403C83.4518 209.586 81.0319 211.361 78.3435 212.634C77.0004 213.252 75.5956 213.726 74.1525 214.048C72.7043 214.395 71.2148 214.538 69.7271 214.473Z" fill="#263238"/>
<path d="M105.241 166.27C105.758 165.422 106.331 164.609 106.955 163.837C107.563 163.068 108.179 162.32 108.824 161.544C108.514 162.509 108.016 163.403 107.358 164.174C106.753 164.967 106.04 165.673 105.241 166.27Z" fill="#263238"/>
<path d="M116.964 126.675C115.931 129.034 108.787 150.121 106.867 154.869L106.691 155.301L107.065 155.602C109.629 157.624 112.206 159.634 114.795 161.632L114.663 160.643L107.483 170.168L107.248 170.483L107.387 170.842C109.468 176.102 122.642 200.325 123.807 202.904C122.906 200.222 110.743 175.597 108.692 170.336L108.596 171.01L115.791 161.536L116.216 160.972L115.66 160.547C113.061 158.564 110.455 156.593 107.842 154.635L108.04 155.367C109.879 150.553 116.114 129.108 116.964 126.675Z" fill="#DBDBDB"/>
<path d="M78.1531 233.64C77.882 242.213 78.2777 251.906 80.1021 253.687C83.5164 257.028 92.6164 256.749 95.4885 256.72C98.3607 256.691 108.538 256.72 110.926 251.437C111.981 249.122 112.26 237.157 112.23 232.922C112.23 231.208 111.835 222.745 111.703 221.8C111.703 221.573 111.073 221.602 111.051 221.749C110.904 222.716 111 226.226 110.948 226.878C94.5507 228.988 84.3956 227.222 79.1349 226.211C79.1349 224.628 79.1349 223.397 79.1349 221.815C84.26 222.755 89.4574 223.245 94.6679 223.28C100.363 223.163 106.048 222.759 111.703 222.071C111.835 222.071 111.74 221.419 111.542 221.426C109.402 221.426 102.017 222.159 94.536 222.159C89.1992 222.059 83.8731 221.643 78.5854 220.914C78.285 221.038 78.2777 229.53 78.1531 233.64ZM81.0839 252.69C79.2741 250.609 79.047 244.631 79.0543 241.048C79.0543 236.117 79.0543 232.182 79.0543 227.251C91.6785 230.182 105.578 228.717 110.846 227.676C110.846 227.889 110.941 238.286 110.846 241.597C110.721 245.832 110.589 249.657 108.963 251.855C107.571 253.745 103.636 255.636 94.602 255.628C88.1177 255.636 82.6079 254.449 81.0985 252.712L81.0839 252.69Z" fill="#DBDBDB"/>
<path d="M66.9871 122.894C69.4196 113.216 73.7058 99.8074 77.5378 97.3163C81.5529 94.7079 96.0528 86.0988 100.068 85.1829C104.083 84.2671 119.118 86.4065 122.049 88.5899C124.423 90.3337 121.528 95.7263 113.212 96.2099C105.439 96.6642 103.556 96.3931 101.401 97.0525C99.2473 97.7119 93.3932 103.984 94.4409 107.149C95.0564 109.017 99.9947 111.67 103.372 110.571C106.75 109.472 108.347 105.779 112.348 103.178C116.348 100.577 122.789 101.661 122.972 103.449C123.155 105.237 120.92 105.823 116.956 111.399C114.407 114.989 113.146 121.561 107.585 127.606C104.801 130.646 99.599 138.977 99.599 138.977L66.9871 122.894Z" fill="#D3766A"/>
<path d="M77.5376 97.3163C81.201 92.7516 90.1618 84.78 98.4119 82.6112C103.988 81.1458 121.433 92.1362 120.51 95.5871C119.587 99.0381 116.443 98.7157 111.842 97.6533C110.172 97.265 101.54 93.0594 99.804 94.7812C97.3129 97.243 93.5029 106.189 93.5029 106.189L77.5376 97.3163Z" fill="#D3766A"/>
<path d="M120.209 94.1364C118.341 90.1213 113.557 87.5422 108.757 85.4321C108.677 85.3954 108.626 85.5127 108.699 85.542C109.922 86.0915 117.623 90.6708 120.143 94.195C120.173 94.2536 120.224 94.2024 120.209 94.1364Z" fill="#263238"/>
<path d="M77.5376 97.3163C81.201 92.7516 90.1618 84.78 98.4119 82.6112C103.988 81.1458 117.315 94.2097 116.392 97.6753C115.469 101.141 110.919 100.921 106.134 98.6424C104.581 97.9098 99.5402 93.5136 97.8404 95.2135C95.3493 97.6826 89.2533 103.815 89.2533 103.815L77.5376 97.3163Z" fill="#D3766A"/>
<path d="M92.7776 99.998C93.3638 99.2653 93.5616 99.0235 94.1624 98.3201C94.7632 97.6167 95.3713 96.9133 96.0161 96.2539C96.5351 95.6321 97.1572 95.1042 97.8552 94.6933C98.5684 94.3834 99.363 94.314 100.119 94.4955C101.834 94.8472 103.277 96.122 104.655 97.1258C106.193 98.2468 109.432 100.145 112.069 100.152C112.791 100.191 113.513 100.076 114.187 99.8148C114.696 99.6487 115.157 99.3592 115.528 98.9722C116.868 97.1771 115.689 94.8325 114.414 93.1107C112.04 89.9235 108.648 87.4324 105.329 85.3295C104.508 84.8093 103.68 84.3184 102.852 83.8202C101.932 83.19 100.888 82.7629 99.7895 82.5673C97.9797 82.3622 94.8072 83.8788 93.8254 84.3331C93.7521 84.3697 93.7155 84.2452 93.7887 84.2085C94.9757 83.637 97.9797 81.6807 100.888 82.1497C101.938 82.4249 102.93 82.8839 103.819 83.5051C104.786 84.0547 105.739 84.6408 106.677 85.2416C108.515 86.4053 110.259 87.711 111.893 89.1468C113.538 90.4861 114.924 92.1151 115.982 93.9533C116.416 94.7696 116.621 95.6881 116.576 96.6116C116.531 97.5351 116.237 98.4292 115.725 99.1993C114.78 100.438 113.044 100.577 112.253 100.591C111.474 100.605 110.697 100.511 109.945 100.313C108.283 99.7587 106.662 99.0878 105.094 98.3055C103.577 97.4995 102.273 96.2759 100.698 95.6018C100.328 95.428 99.9264 95.3295 99.5177 95.3119C99.1089 95.2943 98.7007 95.358 98.3168 95.4993C97.6029 95.8746 96.9486 96.3536 96.3751 96.9207C95.1662 97.8732 94.05 98.9379 93.0414 100.101C92.763 100.43 92.5285 100.291 92.7776 99.998Z" fill="#263238"/>
<path d="M74.7461 101.346C76.1529 99.148 79.1422 89.7256 81.3403 86.978C83.5384 84.2304 93.1146 74.9546 97.0198 75.8265C101.936 76.9255 95.7743 85.3515 92.7629 88.7365C89.7516 92.1215 89.5098 98.4666 89.5098 98.4666L74.7461 101.346Z" fill="#D3766A"/>
<path d="M97.0418 83.0069C95.9867 84.0766 95.0269 85.2855 94.111 86.4505C93.1524 87.5257 92.2733 88.6693 91.4807 89.8722C90.7939 91.1168 90.3162 92.4658 90.0666 93.8653C89.9274 94.5467 89.8248 95.2354 89.7442 95.9315C89.6636 96.6276 89.6416 97.4628 89.5464 98.2175C89.5509 98.2304 89.5593 98.2416 89.5705 98.2496C89.5816 98.2575 89.595 98.2618 89.6087 98.2618C89.6224 98.2618 89.6357 98.2575 89.6469 98.2496C89.658 98.2416 89.6664 98.2304 89.6709 98.2175C89.9096 96.8415 90.2401 95.483 90.6601 94.1511C91.0606 92.7634 91.629 91.4299 92.3526 90.1799C93.818 87.7034 95.7596 85.564 97.225 83.0948C97.2616 83.0215 97.1151 82.9336 97.0418 83.0069Z" fill="#263238"/>
<path d="M89.4365 99.529C89.3869 100.703 89.5078 101.878 89.7955 103.017C90.0505 104.159 90.3834 105.283 90.792 106.38C91.1845 107.478 91.637 108.554 92.1474 109.603C92.631 110.659 93.2611 111.633 93.8619 112.659C95.1508 114.678 96.1104 116.889 96.7048 119.209C97.2536 121.531 97.3851 123.933 97.0931 126.301C97.1167 123.953 96.8109 121.612 96.1845 119.348C95.4944 117.121 94.5087 114.997 93.2538 113.032C92.6157 112.027 92.0383 110.985 91.5246 109.911C91.0221 108.825 90.5937 107.707 90.2424 106.563C89.5757 104.299 89.0042 101.888 89.4365 99.529Z" fill="#263238"/>
<path d="M101.65 110.783C103.252 110.643 104.738 109.89 105.797 108.68C106.809 107.669 107.754 106.585 108.779 105.581C109.744 104.541 110.854 103.648 112.077 102.929C113.518 102.226 115.053 101.732 116.634 101.463C118.141 101.075 119.721 101.075 121.228 101.463C122.451 101.837 123.829 102.855 123.426 104.343C123.194 105.013 122.838 105.634 122.378 106.175C121.942 106.714 121.469 107.223 120.964 107.699C119.953 108.673 118.854 109.574 117.938 110.629C116.707 112.095 115.996 113.875 115.183 115.568C114.883 116.198 112.985 120.44 112.252 121.891C111.628 123.132 110.892 124.314 110.054 125.422C109.225 126.441 108.335 127.407 107.387 128.316C106.357 129.306 105.435 130.404 104.64 131.591C104.64 131.65 104.53 131.591 104.552 131.533C105.438 129.181 107.373 127.408 109.117 125.671C111.373 123.437 115.586 112.974 116.443 111.523C117.821 109.091 120.239 107.677 121.895 105.5C122.276 105.002 122.862 104.277 122.752 103.595C122.653 103.28 122.475 102.994 122.236 102.766C121.996 102.538 121.702 102.374 121.382 102.291C119.909 101.898 118.355 101.938 116.905 102.408C115.391 102.704 113.917 103.171 112.509 103.801C111.298 104.437 110.183 105.241 109.197 106.189C108.054 107.244 106.999 108.329 105.761 109.303C104.618 110.318 103.142 110.879 101.614 110.878C101.555 110.9 101.57 110.79 101.65 110.783Z" fill="#263238"/>
<path d="M119.491 87.74C118.4 87.3883 117.293 87.0073 116.224 86.6703V86.6263C117.506 86.9341 118.825 87.1539 120.114 87.4543C120.642 87.5242 121.151 87.7013 121.608 87.9747C122.065 88.2481 122.462 88.6121 122.774 89.0442C122.995 89.497 123.096 89.9993 123.066 90.5024C123.037 91.0055 122.878 91.4925 122.605 91.9164C121.966 92.8113 121.145 93.5605 120.195 94.1144C120.19 94.1178 120.185 94.1202 120.179 94.1214C120.173 94.1227 120.167 94.1228 120.161 94.1218C120.156 94.1208 120.15 94.1187 120.145 94.1155C120.14 94.1123 120.136 94.1082 120.133 94.1034C120.129 94.0986 120.127 94.0932 120.125 94.0875C120.124 94.0817 120.124 94.0758 120.125 94.07C120.126 94.0642 120.128 94.0587 120.131 94.0538C120.135 94.0488 120.139 94.0445 120.144 94.0411C121.484 92.9714 123.529 90.9272 122.049 89.1468C121.345 88.4477 120.459 87.9603 119.491 87.74Z" fill="#263238"/>
<path d="M115.974 98.2615C117.179 98.2208 118.348 97.8397 119.345 97.1624C119.749 96.846 120.052 96.4181 120.217 95.9315C120.3 95.6661 120.339 95.389 120.334 95.1109C120.355 94.8183 120.272 94.5277 120.099 94.2903C120.041 94.239 120.151 94.1731 120.173 94.239C120.195 94.3049 120.356 94.5174 120.429 94.664C120.492 94.7877 120.541 94.9179 120.576 95.0523C120.642 95.3206 120.657 95.599 120.62 95.8729C120.536 96.4726 120.245 97.0243 119.799 97.4335C119.277 97.8739 118.66 98.1866 117.996 98.3469C117.332 98.5071 116.64 98.5105 115.974 98.3567C115.965 98.3529 115.957 98.3463 115.951 98.3378C115.945 98.3294 115.942 98.3193 115.942 98.3091C115.942 98.2988 115.945 98.2888 115.951 98.2803C115.957 98.2718 115.965 98.2653 115.974 98.2615Z" fill="#263238"/>
<path d="M99.6209 138.977C98.4193 148.429 84.8645 198.142 80.505 205.754C76.1455 213.367 64.8548 218.21 59.4622 206.384C54.0696 194.559 64.3492 132.72 66.9943 122.894C68.4596 117.429 100.053 135.555 99.6209 138.977Z" fill="#D3766A"/>
<path d="M104.684 144.494L63.961 128.126C63.961 128.126 55.8501 185.576 58.0115 202.626C59.5648 214.862 74.4384 221.383 83.6556 203.219C92.8729 185.056 104.684 144.494 104.684 144.494Z" fill="#EBEBEB"/>
<path d="M100.515 151.931C94.3821 149.733 69.6172 139.644 64.4151 137.109C64.0561 136.933 64.0781 136.662 64.481 136.794C83.0181 143.043 94.6898 149.183 100.595 151.682C100.742 151.748 100.669 152.019 100.515 151.931Z" fill="#263238"/>
<path d="M92.6896 182.909C95.6203 174.849 98.3093 166.79 100.625 158.591C101.269 156.29 101.899 153.99 102.5 151.682C103.101 149.374 103.673 147.234 104.156 144.985C103.284 144.553 99.5109 142.787 99.086 142.494C99.0593 142.472 99.0406 142.443 99.0327 142.409C99.0249 142.376 99.0284 142.341 99.0427 142.31C99.057 142.279 99.0813 142.253 99.1117 142.237C99.142 142.222 99.1768 142.217 99.2105 142.223C99.6868 142.333 104.032 144.076 104.977 144.589C105.109 144.655 103.995 149.059 103.511 151.184C103.028 153.308 102.508 155.375 101.965 157.455C100.891 161.578 99.7112 165.676 98.4265 169.75C97.0491 174.146 95.5617 178.486 93.9645 182.77C92.5797 186.455 88.9675 193.24 92.6896 182.909Z" fill="#263238"/>
<path d="M169.175 239.355H166.288V295.67H169.175V239.355Z" fill="#263238"/>
<path d="M230.699 291.721H169.175V295.662H230.699V291.721Z" fill="#263238"/>
<path d="M190.203 235.619L189.991 282.76C189.984 284.235 189.391 285.646 188.344 286.685C187.296 287.723 185.879 288.302 184.404 288.295C182.929 288.288 181.517 287.696 180.479 286.648C179.441 285.601 178.862 284.183 178.868 282.709L179.081 235.567L190.203 235.619Z" fill="#EBEBEB"/>
<path d="M189.492 249.254L189.346 282.723C189.343 283.369 189.213 284.008 188.963 284.603C188.714 285.198 188.349 285.739 187.89 286.193C187.432 286.648 186.888 287.007 186.291 287.252C185.693 287.496 185.053 287.62 184.408 287.618C183.762 287.615 183.123 287.485 182.528 287.235C181.932 286.985 181.392 286.621 180.938 286.162C180.483 285.703 180.123 285.16 179.879 284.562C179.635 283.965 179.51 283.325 179.513 282.679L179.66 249.21L189.492 249.254Z" fill="#C7C7C7"/>
<path d="M191.961 231.471L177.352 231.404L177.319 238.731L191.928 238.797L191.961 231.471Z" fill="#133551"/>
<path d="M207.326 235.619L207.114 282.76C207.107 284.235 206.515 285.646 205.467 286.685C204.419 287.723 203.002 288.302 201.527 288.295C200.052 288.288 198.64 287.696 197.602 286.648C196.564 285.601 195.985 284.183 195.992 282.709L196.204 235.567L207.326 235.619Z" fill="#EBEBEB"/>
<path d="M206.63 249.254L206.484 282.723C206.478 284.027 205.954 285.275 205.028 286.193C204.102 287.111 202.849 287.623 201.545 287.618C200.241 287.612 198.993 287.088 198.075 286.162C197.157 285.236 196.645 283.983 196.651 282.679L196.805 249.21L206.63 249.254Z" fill="#37474F"/>
<path d="M209.099 231.475L194.489 231.409L194.456 238.736L209.066 238.802L209.099 231.475Z" fill="#455A64"/>
<path d="M230.692 260.383V265.652H169.175V260.383H179.162V262.149C179.162 263.021 181.623 263.717 184.642 263.717C187.661 263.717 190.123 263.021 190.123 262.149V260.383H196.336V262.149C196.336 263.021 198.783 263.717 201.809 263.717C204.835 263.717 207.282 263.021 207.282 262.149V260.383H213.473V262.149C213.473 263.021 215.921 263.717 218.947 263.717C221.973 263.717 224.427 263.021 224.427 262.149V260.383H230.692Z" fill="#455A64"/>
<path d="M230.699 265.652H169.175V267.776H230.699V265.652Z" fill="#263238"/>
<path d="M233.578 239.355H230.692V295.67H233.578V239.355Z" fill="#263238"/>
<path d="M116.663 288.797H62.8328C62.8328 288.797 70.0058 264.999 73.5373 256.676C74.0941 257.149 74.7009 257.559 75.3471 257.9C75.8608 258.173 76.4008 258.394 76.959 258.559C77.3043 258.671 77.6568 258.759 78.0141 258.823H78.1313L78.483 258.867C81.5163 259.116 85.9198 256.815 90.206 255.247C92.0355 254.501 93.967 254.034 95.9356 253.863C99.7017 253.701 103.724 255.614 106.054 256.955C109.527 265.219 116.663 288.797 116.663 288.797Z" fill="#133551"/>
<path d="M90.1767 255.262C85.6926 256.911 81.0474 259.38 78.014 258.823C76.3583 258.516 74.8135 257.775 73.5373 256.676C73.2735 255.211 77.8089 253.364 83.4946 253.863C85.7559 254.149 87.9904 254.617 90.1767 255.262Z" fill="#133551"/>
<g opacity="0.2">
<path opacity="0.2" d="M90.1767 255.262C85.6926 256.911 81.0474 259.38 78.014 258.823C76.3583 258.516 74.8135 257.775 73.5373 256.676C73.2735 255.211 77.8089 253.364 83.4946 253.863C85.7559 254.149 87.9904 254.617 90.1767 255.262Z" fill="black"/>
</g>
<path opacity="0.3" d="M70.3133 272.597C70.1954 272.597 70.0785 272.575 69.9689 272.531C69.7588 272.438 69.594 272.266 69.5103 272.052C69.4266 271.838 69.4308 271.599 69.522 271.388C73.9914 261.182 81.1278 244.404 81.245 242.814V224.365C81.2649 224.148 81.365 223.947 81.5256 223.8C81.6863 223.654 81.8958 223.572 82.1133 223.572C82.3307 223.572 82.5402 223.654 82.7009 223.8C82.8615 223.947 82.9616 224.148 82.9815 224.365V242.872C82.9815 244.807 73.8815 265.739 71.09 272.114C71.0194 272.26 70.909 272.382 70.7715 272.468C70.6341 272.553 70.4752 272.598 70.3133 272.597Z" fill="white"/>
<path opacity="0.3" d="M74.2333 268.45C74.2118 268.457 74.1888 268.457 74.1673 268.45C74.1463 268.442 74.1273 268.429 74.1114 268.412C74.0955 268.396 74.0831 268.377 74.0748 268.356C74.0666 268.334 74.0628 268.312 74.0636 268.289C74.0644 268.266 74.0697 268.244 74.0794 268.223C77.6403 260.01 84.4543 244.162 84.4543 242.872V226.614C84.4543 226.567 84.4728 226.523 84.5058 226.49C84.5388 226.457 84.5835 226.438 84.6301 226.438C84.6529 226.438 84.6754 226.443 84.6964 226.452C84.7173 226.46 84.7362 226.474 84.7519 226.49C84.7677 226.506 84.78 226.526 84.788 226.547C84.796 226.568 84.7996 226.591 84.7986 226.614V242.872C84.7986 244.565 74.8194 267.381 74.3945 268.355C74.38 268.385 74.357 268.41 74.3283 268.427C74.2996 268.444 74.2666 268.452 74.2333 268.45Z" fill="white"/>
<g opacity="0.2">
<path opacity="0.2" d="M116.663 288.797H62.8325C62.8325 288.797 70.0055 264.999 73.5371 256.676L73.9108 255.797C76.7829 249.012 79.2447 243.041 79.2447 242.308V219.8H100.192V242.308C100.192 243.041 102.933 249.708 106.054 256.962C109.527 265.219 116.663 288.797 116.663 288.797Z" fill="white"/>
<path opacity="0.2" d="M116.663 288.797L89.8249 288.951L62.8326 289.039H62.5103L62.5982 288.731C64.3273 282.997 66.1102 277.277 67.9468 271.572C68.8773 268.729 69.8152 265.879 70.8043 263.05C71.7934 260.222 72.8485 257.401 74.0428 254.661C75.2371 251.921 76.3507 249.137 77.4571 246.36L78.2631 244.272L78.6367 243.224C78.7551 242.909 78.841 242.582 78.8932 242.249V237.758L78.9298 219.8V219.47H79.2595L100.207 219.514H100.493V219.8V237.765V242.257C100.539 242.603 100.628 242.943 100.757 243.268L101.086 244.338L101.892 246.433C102.991 249.21 104.149 251.972 105.307 254.734C107.616 260.266 109.645 265.91 111.388 271.645C113.198 277.309 114.949 283.06 116.663 288.797ZM116.663 288.797C114.876 283.082 113.036 277.384 111.146 271.704C110.186 268.861 109.219 266.033 108.215 263.219C107.212 260.405 106.142 257.614 104.926 254.874C103.709 252.133 102.588 249.357 101.475 246.572L100.654 244.477L100.266 243.414C100.118 243.043 100.02 242.654 99.9726 242.257V237.743L99.9287 219.778L100.214 220.064L79.2668 220.108L79.5966 219.778V237.736V242.227C79.547 242.639 79.4461 243.043 79.2962 243.429L78.9078 244.491L78.0872 246.587C76.9735 249.371 75.8012 252.126 74.6362 254.888C73.4713 257.651 72.3722 260.405 71.3758 263.234C70.3793 266.062 69.4195 268.89 68.4817 271.726C66.6158 277.411 64.8085 283.116 63.0598 288.841L62.8326 288.533L89.671 288.621L116.663 288.797Z" fill="#263238"/>
<path opacity="0.2" d="M79.4353 224.797C80.2562 224.603 81.0976 224.509 81.9411 224.518C82.7872 224.505 83.6315 224.599 84.4542 224.797C82.8009 225.159 81.0887 225.159 79.4353 224.797Z" fill="#263238"/>
<path opacity="0.2" d="M79.4353 227.398C79.827 227.213 80.2549 227.117 80.6882 227.117C81.1215 227.117 81.5494 227.213 81.9411 227.398C81.5475 227.576 81.1204 227.669 80.6882 227.669C80.256 227.669 79.8289 227.576 79.4353 227.398Z" fill="#263238"/>
<path opacity="0.2" d="M79.4353 229.383C79.826 229.196 80.2551 229.104 80.6882 229.112C81.1216 229.1 81.5516 229.193 81.9411 229.383C81.5522 229.576 81.1222 229.672 80.6882 229.662C80.2546 229.668 79.8255 229.573 79.4353 229.383Z" fill="#263238"/>
<path opacity="0.2" d="M79.4353 231.376C79.827 231.191 80.2549 231.095 80.6882 231.095C81.1215 231.095 81.5494 231.191 81.9411 231.376C81.5475 231.555 81.1204 231.647 80.6882 231.647C80.256 231.647 79.8289 231.555 79.4353 231.376Z" fill="#263238"/>
<path opacity="0.2" d="M79.4353 233.201C80.2565 233.009 81.0979 232.918 81.9411 232.93C82.7869 232.914 83.6312 233.005 84.4542 233.201C82.8018 233.572 81.0877 233.572 79.4353 233.201Z" fill="#263238"/>
<path opacity="0.2" d="M79.4353 235.802C79.8255 235.612 80.2546 235.517 80.6882 235.523C81.1222 235.513 81.5522 235.609 81.9411 235.802C81.5475 235.98 81.1204 236.073 80.6882 236.073C80.256 236.073 79.8289 235.98 79.4353 235.802Z" fill="#263238"/>
<path opacity="0.2" d="M79.4353 237.787C79.8289 237.609 80.256 237.517 80.6882 237.517C81.1204 237.517 81.5475 237.609 81.9411 237.787C81.5494 237.973 81.1215 238.069 80.6882 238.069C80.2549 238.069 79.827 237.973 79.4353 237.787Z" fill="#263238"/>
<path opacity="0.2" d="M79.4353 239.78C79.8255 239.591 80.2546 239.496 80.6882 239.502C81.1222 239.492 81.5522 239.588 81.9411 239.78C81.5516 239.971 81.1216 240.064 80.6882 240.051C80.2551 240.06 79.826 239.967 79.4353 239.78Z" fill="#263238"/>
</g>
<path d="M17.6258 259.944H22.4615C23.2775 259.944 24.0854 260.105 24.8392 260.417C25.5931 260.729 26.278 261.187 26.8549 261.764C27.4319 262.341 27.8895 263.026 28.2018 263.779C28.514 264.533 28.6747 265.341 28.6747 266.157V289.347H11.4199V266.157C11.4199 264.51 12.0735 262.931 13.2371 261.766C14.4008 260.601 15.9792 259.946 17.6258 259.944Z" fill="#DBDBDB"/>
<path d="M24.4984 255.628H15.6035V260.794H24.4984V255.628Z" fill="#DBDBDB"/>
<path d="M26.0664 253.218H14.0356V257.819H26.0664V253.218Z" fill="#133551"/>
<path d="M25.5974 270.854H12.8633V282.489H25.5974V270.854Z" fill="white"/>
<path d="M38.4195 259.944H43.2552C44.9031 259.944 46.4834 260.598 47.6486 261.764C48.8138 262.929 49.4684 264.509 49.4684 266.157V289.347H32.2136V266.157C32.2136 264.51 32.8672 262.931 34.0308 261.766C35.1945 260.601 36.7729 259.946 38.4195 259.944Z" fill="#DBDBDB"/>
<path d="M45.2847 255.628H36.3899V260.794H45.2847V255.628Z" fill="#DBDBDB"/>
<path d="M46.8525 253.218H34.8218V257.819H46.8525V253.218Z" fill="#455A64"/>
<path d="M46.3838 270.854H33.6497V282.489H46.3838V270.854Z" fill="white"/>
<path d="M300.649 268.941H294.15C294.15 268.941 292.597 245.019 278.119 243.817C270.455 243.187 263.392 248.639 257.889 254.771C263.333 248.595 272.99 240.616 282.192 240.616C296.062 240.616 300.649 268.941 300.649 268.941Z" fill="#263238"/>
<path d="M257.743 194.837L267.715 174.512L271.085 179.077L262.534 194.837H257.743Z" fill="#263238"/>
<path d="M271.775 175.832L260.403 197.393L265.574 200.121L276.947 178.56L271.775 175.832Z" fill="#455A64"/>
<path d="M265.582 200.149L268.682 199.307L278.045 181.964L276.961 178.586L265.582 200.149Z" fill="#37474F"/>
<path d="M240.646 197.092L240.345 196.959C239.365 196.524 238.218 196.966 237.783 197.946L233.098 208.508C232.663 209.489 233.105 210.636 234.086 211.071L234.387 211.204C235.367 211.639 236.514 211.197 236.949 210.217L241.634 199.655C242.069 198.674 241.627 197.527 240.646 197.092Z" fill="#37474F"/>
<path d="M252.511 204.204L252.21 204.071C251.229 203.636 250.082 204.078 249.648 205.058L244.963 215.62C244.528 216.6 244.97 217.748 245.95 218.182L246.252 218.316C247.232 218.751 248.379 218.309 248.814 217.328L253.499 206.766C253.933 205.786 253.491 204.639 252.511 204.204Z" fill="#37474F"/>
<path d="M246.099 201.731L245.563 201.493C244.235 200.904 242.681 201.503 242.092 202.831L236.166 216.193C235.577 217.521 236.176 219.075 237.504 219.664L238.039 219.902C239.367 220.491 240.921 219.892 241.51 218.564L247.437 205.202C248.026 203.874 247.427 202.32 246.099 201.731Z" fill="#37474F"/>
<path d="M268.72 142.58L268.184 142.343C266.856 141.754 265.302 142.353 264.713 143.681L258.787 157.042C258.198 158.37 258.797 159.924 260.125 160.513L260.66 160.751C261.988 161.34 263.542 160.741 264.131 159.413L270.058 146.051C270.647 144.723 270.048 143.169 268.72 142.58Z" fill="#37474F"/>
<path d="M277.475 146.447L276.94 146.209C275.612 145.62 274.058 146.219 273.469 147.547L267.542 160.909C266.953 162.237 267.552 163.791 268.88 164.38L269.416 164.617C270.744 165.206 272.298 164.607 272.887 163.279L278.813 149.918C279.402 148.59 278.803 147.036 277.475 146.447Z" fill="#37474F"/>
<path d="M237.85 197.387L258.783 153.807C258.783 153.807 264.762 154.004 275.107 161.185L252.87 204.663C247.423 203.277 242.314 200.802 237.85 197.387Z" fill="#37474F"/>
<path d="M257.032 208.311C257.032 208.311 237.308 202.486 231.886 197.152L233.615 193.262C242.831 194.71 251.503 198.559 258.761 204.421L257.032 208.311Z" fill="#455A64"/>
<path d="M275.862 162.423C275.862 162.423 268.051 155.77 257.457 153.77L259.267 149.916C270.462 149.726 277.664 158.613 277.664 158.613L275.862 162.423Z" fill="#455A64"/>
<path d="M261.325 188.653C261.325 188.653 252.694 182.946 245.258 181.099C245.152 181.058 245.056 180.995 244.976 180.913C244.897 180.832 244.836 180.735 244.797 180.628C244.758 180.521 244.742 180.407 244.751 180.294C244.76 180.181 244.793 180.071 244.847 179.971L246.877 175.655C246.986 175.463 247.161 175.316 247.369 175.241C247.577 175.166 247.805 175.167 248.012 175.245C253.82 176.652 259.283 179.219 264.073 182.792C264.277 182.889 264.435 183.062 264.512 183.275C264.589 183.488 264.579 183.722 264.483 183.927L262.454 188.236C262.408 188.338 262.342 188.43 262.26 188.507C262.179 188.583 262.082 188.643 261.977 188.681C261.872 188.72 261.76 188.738 261.649 188.733C261.537 188.728 261.427 188.701 261.325 188.653Z" fill="#455A64"/>
<path d="M275.232 183.327L276.792 182.594C276.792 182.594 298.561 192.317 297.447 218.247C296.714 235.436 284.156 247.327 284.156 247.327C284.156 247.327 299.41 227.64 293.681 209.418C287.951 191.196 275.232 183.327 275.232 183.327Z" fill="#455A64"/>
<path d="M295.674 220.034C294.421 235.89 284.141 247.327 284.141 247.327H268.528C261.369 237.912 249.983 232.409 249.983 232.409L262.439 234.608L263.545 234.036L265.744 232.915C265.744 232.915 268.901 237.751 273.657 237.641C274.63 237.621 275.589 237.407 276.477 237.011C282.031 234.608 284.837 219.859 282.244 211.052C279.65 202.245 268.286 196.786 268.286 196.786L275.232 183.327C287.651 188.902 296.919 204.179 295.674 220.034Z" fill="#37474F"/>
<path d="M273.686 237.634C273.686 237.634 269.597 239.018 263.567 234.021L265.765 232.9C265.765 232.9 268.923 237.736 273.678 237.626L273.686 237.634Z" fill="#455A64"/>
<path d="M294.15 268.941H247.624C248.789 267.124 250.797 263.856 253.486 260.259L253.654 260.025C253.728 259.929 253.801 259.841 253.867 259.746C253.908 259.683 253.952 259.622 253.999 259.563L254.402 259.043L254.519 258.889L254.951 258.332C255.186 258.032 255.442 257.709 255.728 257.365C256.014 257.021 256.131 256.874 256.336 256.632C256.658 256.251 256.995 255.848 257.362 255.431L257.933 254.778C263.436 248.646 270.499 243.195 278.163 243.825C292.597 245.019 294.15 268.941 294.15 268.941Z" fill="#455A64"/>
<path d="M260.971 229.01L215.206 225.191L214.722 230.988L260.488 234.807L260.971 229.01Z" fill="#263238"/>
<path d="M271.068 229.91L260.919 229.061L260.434 234.859L270.583 235.707L271.068 229.91Z" fill="#37474F"/>
<path d="M256.783 265.109C256.783 265.421 256.69 265.726 256.517 265.985C256.344 266.244 256.098 266.446 255.81 266.565C255.522 266.684 255.206 266.715 254.9 266.654C254.594 266.594 254.314 266.444 254.093 266.223C253.873 266.003 253.723 265.722 253.662 265.417C253.602 265.111 253.633 264.794 253.752 264.507C253.871 264.219 254.073 263.973 254.332 263.8C254.591 263.627 254.896 263.534 255.207 263.534C255.625 263.534 256.026 263.7 256.321 263.995C256.617 264.291 256.783 264.692 256.783 265.109Z" fill="#263238"/>
<path d="M289.505 265.109C289.505 265.421 289.412 265.725 289.24 265.984C289.067 266.243 288.821 266.445 288.534 266.564C288.246 266.683 287.93 266.715 287.625 266.655C287.319 266.595 287.039 266.445 286.818 266.226C286.597 266.006 286.447 265.726 286.385 265.421C286.324 265.116 286.354 264.8 286.472 264.512C286.59 264.224 286.791 263.977 287.049 263.803C287.307 263.629 287.611 263.536 287.922 263.534C288.129 263.533 288.335 263.573 288.527 263.652C288.719 263.731 288.894 263.847 289.041 263.993C289.188 264.139 289.304 264.313 289.384 264.505C289.464 264.696 289.505 264.902 289.505 265.109Z" fill="#263238"/>
<path d="M276.521 248.902C276.521 249.214 276.429 249.518 276.256 249.777C276.083 250.037 275.837 250.238 275.549 250.358C275.261 250.477 274.944 250.508 274.639 250.447C274.333 250.387 274.053 250.237 273.832 250.016C273.612 249.796 273.462 249.515 273.401 249.21C273.34 248.904 273.372 248.587 273.491 248.299C273.61 248.012 273.812 247.766 274.071 247.593C274.33 247.419 274.635 247.327 274.946 247.327C275.364 247.327 275.765 247.493 276.06 247.788C276.355 248.084 276.521 248.485 276.521 248.902Z" fill="#263238"/>
<path d="M264.417 164.35C264.417 164.662 264.325 164.966 264.152 165.225C263.979 165.484 263.733 165.686 263.445 165.805C263.157 165.925 262.84 165.956 262.535 165.895C262.229 165.834 261.949 165.684 261.728 165.464C261.508 165.244 261.358 164.963 261.297 164.657C261.236 164.352 261.268 164.035 261.387 163.747C261.506 163.459 261.708 163.213 261.967 163.04C262.226 162.867 262.531 162.775 262.842 162.775C263.26 162.775 263.661 162.941 263.956 163.236C264.251 163.532 264.417 163.932 264.417 164.35Z" fill="#263238"/>
<path d="M250.775 193.262C250.775 193.573 250.682 193.878 250.509 194.137C250.336 194.396 250.09 194.598 249.802 194.717C249.515 194.837 249.198 194.868 248.892 194.807C248.587 194.746 248.306 194.596 248.086 194.376C247.865 194.155 247.715 193.875 247.655 193.569C247.594 193.264 247.625 192.947 247.744 192.659C247.863 192.371 248.065 192.125 248.324 191.952C248.583 191.779 248.888 191.687 249.2 191.687C249.617 191.687 250.018 191.853 250.313 192.148C250.609 192.443 250.775 192.844 250.775 193.262Z" fill="#263238"/>
<path d="M279.621 193.819C279.621 194.13 279.528 194.435 279.355 194.694C279.182 194.953 278.936 195.155 278.648 195.274C278.36 195.393 278.044 195.425 277.738 195.364C277.432 195.303 277.152 195.153 276.931 194.933C276.711 194.712 276.561 194.432 276.5 194.126C276.439 193.821 276.471 193.504 276.59 193.216C276.709 192.928 276.911 192.682 277.17 192.509C277.429 192.336 277.734 192.243 278.045 192.243C278.463 192.243 278.864 192.409 279.159 192.705C279.455 193 279.621 193.401 279.621 193.819Z" fill="#263238"/>
<path d="M266.264 240.923C267.134 240.923 267.839 240.218 267.839 239.348C267.839 238.478 267.134 237.773 266.264 237.773C265.394 237.773 264.688 238.478 264.688 239.348C264.688 240.218 265.394 240.923 266.264 240.923Z" fill="#263238"/>
</svg>
